<?xml version="1.0" encoding="UTF-8"?>
<svg id="Layer_2" data-name="Layer 2" xmlns="http://www.w3.org/2000/svg" xmlns:xlink="http://www.w3.org/1999/xlink" viewBox="0 0 173.92 210.59">
  <defs>
    <style>
      .cls-1 {
        fill: url(#linear-gradient);
      }
    </style>
    <linearGradient id="linear-gradient" x1="0" y1="105.3" x2="173.92" y2="105.3" gradientUnits="userSpaceOnUse">
      <stop offset="0" stop-color="#04bfff"/>
      <stop offset=".09" stop-color="#03b9f5"/>
      <stop offset=".24" stop-color="#02a8dc"/>
      <stop offset=".42" stop-color="#018eb3"/>
      <stop offset=".57" stop-color="#00778e"/>
      <stop offset=".87" stop-color="#1b8d9f"/>
    </linearGradient>
  </defs>
  <g id="Layer_1-2" data-name="Layer 1">
    <path class="cls-1" d="m126.74,151.78c-.4-.56-.57-.81-.77-1.09-.05.13-.13.23-.1.28.45.96.25,1.57-.74,2.13-.65.37-1.03,1.2-1.59,1.77-3.14,3.26-6.83,5.75-10.84,7.82-.33.17-.62.41-.95.59-1.65.92-1.7.94-.83,2.59,3.81,7.26,9.44,12.48,17.25,15.19,4.04,1.4,8.19,2.09,12.48,2.07,9.17-.04,18.35,0,27.52-.01,2.36,0,4.99,1.62,5.58,4,.82,3.32-1.26,6.75-5.34,6.95-3.1.15-6.21-.13-9.32-.16-1.41-.01-2.82.17-4.23.19-2.96.03-5.92.1-8.88-.01-4.41-.16-8.86-.11-13.2-.77-11.08-1.68-20.28-6.81-27.18-15.83-3.12-4.08-5.41-8.56-7.06-13.39-.76-2.24-1.37-4.59.48-6.57.84-.9,2.01-1.65,3.17-2.05,7.46-2.56,13.73-6.66,18.06-13.4,1.69-2.64,2.89-5.5,3.56-8.58.72-3.32,1-6.65.74-10.04-.09-1.18-.57-1.43-1.63-1.43-9.13.03-18.26.04-27.39,0-2.64,0-4.82-.94-5.93-3.54-.27-.63-.44-1.35-.45-2.04-.02-8.25,0-16.5.03-24.75,0-.98-.43-1.2-1.29-1.19-3.96.02-7.92.08-11.88-.01-3.32-.08-6.48-.82-9.35-2.64-5.48-3.47-8.64-10.44-7.12-16.72.66-2.71,1.94-5.29,3.08-7.87,3.09-6.99,6.25-13.95,9.4-20.91,2.89-6.4,5.81-12.78,8.69-19.18,2.88-6.4,5.75-12.81,8.6-19.23.96-2.17,2.42-3.74,4.88-3.94,2.17-.17,3.89.79,5.04,2.64,1.01,1.63,1.04,3.36.26,5.11-3.61,7.99-7.23,15.97-10.82,23.96-1.36,3.03-2.61,6.1-3.98,9.13-4.05,8.97-8.14,17.93-12.22,26.89-.62,1.36-1.3,2.7-1.87,4.08-1.62,3.95.89,7.81,4.88,7.74,6.04-.1,12.09-.03,18.14-.02,4.26,0,6.53,2.27,6.53,6.57,0,7.67,0,15.34,0,23.02q0,1.93,1.9,1.94c8.76,0,17.51.04,26.27-.02,3.47-.03,5.93,1.83,6.34,5.51.42,3.8.83,7.63.74,11.44-.14,6.53-1.84,12.73-5.14,18.41-.66,1.14-1.68,2.07-2.44,3.16-.42.59-.65,1.32-1.08,2.21Zm-125.44,1.92c.54,3.73,1.37,7.42,2.23,11.09,1.74,7.45,4.91,14.35,8.63,20.98,4.94,8.83,11.36,16.49,18.87,23.25,1.19,1.06,2.63,1.75,4.21,1.54,2.36-.32,4.12-1.64,4.75-4.02.57-2.14-.05-4.01-1.72-5.52-8.01-7.25-14.55-15.61-19.25-25.37-2.59-5.37-4.57-10.95-5.9-16.77-1.06-4.63-1.82-9.31-1.92-14.05-.07-3.78.04-7.58.42-11.34.4-3.91.98-7.84,1.89-11.66,1.47-6.2,3.78-12.12,6.68-17.8,1.53-3,.55-5.95-2.4-7.51-2.48-1.3-5.74-.24-7.15,2.46-2.58,4.95-4.68,10.11-6.3,15.44-1.4,4.6-2.63,9.25-3.09,14.07-.4,4.18-.83,8.35-1.26,12.56.42,4.21.69,8.45,1.3,12.64Zm24.2,6.2c1.91,6.26,4.38,12.27,7.85,17.85,2.92,4.68,6.3,8.98,10.15,12.92,1.28,1.31,2.83,2.16,4.68,1.9,2.26-.32,3.92-1.62,4.64-3.84.69-2.16-.04-3.97-1.55-5.58-1.45-1.54-2.87-3.12-4.21-4.76-4.5-5.48-7.87-11.61-10.2-18.3-1.68-4.8-2.75-9.77-3.1-14.83-.38-5.65-.12-11.3,1.11-16.88.88-3.98,2.02-7.87,3.62-11.62.39-.91.77-1.88.86-2.85.23-2.42-1.63-4.86-4.02-5.51-2.42-.65-5.14.53-6.2,2.82-2.07,4.5-3.76,9.15-4.57,14.05-.84,5.07-1.49,10.17-1.97,13.52.42,8.32,1.01,14.81,2.92,21.1Zm23.66-37.62c-.83,1.14-1.66,2.44-1.96,3.79-.72,3.23-1.06,6.54-1.69,9.79-.86,4.4-.2,8.77.56,13.03.69,3.92,2.07,7.76,3.49,11.51,1.62,4.3,4.12,8.16,7,11.74,1.95,2.43,5.2,2.75,7.58.88,2.28-1.79,2.72-5.28.86-7.61-4.93-6.18-7.8-13.25-8.69-21.03-.64-5.57-.15-11.15,1.58-16.54,1.1-3.45-1.41-7.01-5.16-7.03-1.35-.09-2.71.31-3.56,1.48Zm88.86-79.54c7.1,0,12.26-5.23,12.28-12,.02-7.2-4.98-12.2-12.05-12.34-6.98-.14-12.13,5.33-12.32,12.12.09,6.78,5.29,12.22,12.09,12.22Z"/>
  </g>
</svg>