<?xml version="1.0" encoding="UTF-8"?>
<svg id="Layer_2" data-name="Layer 2" xmlns="http://www.w3.org/2000/svg" viewBox="0 0 616.91 554.48">
  <defs>
    <style>
      .cls-1 {
        fill: #005dbd;
      }

      .cls-2 {
        fill: #b8b8b8;
      }

      .cls-3 {
        fill: #b9b9b9;
      }

      .cls-4 {
        fill: none;
        opacity: .21;
      }
    </style>
  </defs>
  <g id="Layer_1-2" data-name="Layer 1">
    <g>
      <path class="cls-2" d="m616.91,554.48c-57.96-78.07-150.84-128.66-255.54-128.66s-197.58,50.59-255.54,128.66h511.08Z"/>
      <path class="cls-1" d="m401.78,135.6c3.67,5.29,6.7,9.5,9.51,13.84.46.72.29,2.19-.11,3.08-6.51,14.55-13.1,29.07-19.7,43.58-.38.84-1.04,1.55-1.57,2.33-.38-.1-.76-.2-1.14-.3,4.27-20.49,8.53-40.98,13.02-62.52Zm-94.26,58.42c-2.24-4.93-4.5-9.86-6.72-14.8-3.5-7.76-7.01-15.51-10.41-23.32-.42-.96-.59-2.46-.13-3.31,1.96-3.6,4.2-7.05,7.39-10.59,3.51,17.25,7.02,34.5,10.54,51.76l-.67.25Zm134.67,242.29l-13.54-11.53-19.5,1.33c-.91-10.4-2.01-20.79-3.04-31.18-1.35-13.74-2.7-27.49-4.08-41.23-2.52-24.93-5.11-49.85-7.59-74.78-2.3-23.1-4.51-46.2-6.68-69.31-.1-1.03.53-2.14.85-3.29,4.98,2.36,6.41,2.22,9.82-1.84,10.4-12.4,20.69-24.89,30.95-37.4,3.15-3.84,6.3-7.72,9.07-11.84,2.42-3.61,2.25-7.53.24-11.48-9.32-18.32-18.77-36.59-27.72-55.09-3.78-7.81-9.43-12.14-17.51-15.21-8.48-3.23-16.92-6.15-25.81-7.75-2.86-.52-5.66-.63-7.59-3.36-1.55-2.2-2.51-4.23-1.12-6.9.71-1.36,1.38-2.97,1.34-4.45-.25-8.4,1.34-16.51,3.52-24.54.74-2.72-.21-4-2.31-6.24-3.95-4.22-8.78-5.34-13.68-6.87-2.3-.72-4.73-1.26-7.13-1.36-4.33-.18-6.5,1.95-6.94,6.28-.09.85.2,2.01-.26,2.5-3.76,4.01-1.1,7.94-.19,11.99,1.37,6.05,2.39,12.18,3.63,18.26.33,1.63.6,3.43,1.47,4.77,2.73,4.21.61,9.53-4.24,10.65-9.72,2.26-19.54,4.23-29.04,7.2-8.69,2.71-17.04,6.49-25.5,9.92-19.84,8.05-39.78,15.54-61.76,14.62-12.15-.51-23.97-2.79-35.59-6.18-12.86-3.75-25.68-7.59-38.48-11.52-8.5-2.61-16.87-5.67-25.41-8.11-7.02-2-14.22-3.38-21.34-5.05-.89-.21-1.78-.43-3.04-.74h-.78S33.76,71,0,127.52c0,0,31.67-8.73,62.89,13.96,4.75,3.45,19.17,10.5,21.81,14.88,16.64,11.59,33.05,23.53,49.94,34.75,12.09,8.04,25.28,13.94,39.53,17.43,11.98,2.93,24.1,4.42,36.29,3.08,18.77-2.06,35.34-9.65,49.46-22.24,4.71-4.2,8.93-8.96,13.38-13.45.68-.68,1.43-1.29,2.46-2.2,4.3,5.15,8.51,10.15,12.67,15.19,3.79,4.59,7.45,9.3,11.32,13.83,2.67,3.12,5.25,6.75,10.72,4.31-.56,9.27-1.1,17.92-1.59,26.56-.9,15.87-1.79,31.74-2.66,47.61-1.43,26.37-2.87,52.75-4.24,79.12-.91,17.46-1.68,34.93-2.55,52.4-.22,4.49-.45,8.99-.73,13.48l-17.98-1.23-13.54,11.53h48.04l-2.2-9.33-3.16-.22h1.04c1.85-9.31,3.68-18.63,5.49-27.96,3.24-16.77,6.4-33.56,9.68-50.32,2.6-13.29,5.38-26.55,7.98-39.84,3.25-16.64,6.4-33.31,9.61-49.96,1.5-7.79,3.02-15.57,4.58-23.34.18-.92.68-1.77,1.28-3.26,2.43,9.76,4.77,18.87,6.95,28.02,2.46,10.32,4.72,20.68,7.17,31,3.81,16.02,7.72,32.01,11.57,48.02,5.19,21.58,10.33,43.17,15.53,64.75,1.84,7.64,3.68,15.28,5.62,22.89h.01l-2.2,9.33h48.04Z"/>
      <g class="cls-4">
        <path class="cls-3" d="m496.21,63.55c15.86.05,60.31,7.33,60.31-19.62,0-22.9-21.73-21.21-21.73-21.21,0,0,.63-19.84-18.73-22.48-19.85-2.71-22.85,18.73-22.85,18.73,0,0-34.46-13.65-29.22,20.6,0,0-19.11-3.81-19.11,11.61,0,17.23,35.96,12.32,51.32,12.36Z"/>
      </g>
      <g class="cls-4">
        <path class="cls-3" d="m174.69,358.13c24.76.07,94.2,11.45,94.2-30.64,0-35.76-33.93-33.13-33.93-33.13,0,0,.98-30.98-29.25-35.1-31.01-4.23-35.69,29.25-35.69,29.25,0,0-53.83-21.32-45.64,32.18,0,0-29.84-5.95-29.84,18.14,0,26.91,56.17,19.24,80.16,19.31Z"/>
      </g>
    </g>
  </g>
</svg>