<?xml version="1.0" encoding="UTF-8"?>
<svg xmlns="http://www.w3.org/2000/svg" xmlns:xlink="http://www.w3.org/1999/xlink" viewBox="0 0 547.47 605.97">
  <defs>
    <style>
      .cls-1, .cls-2, .cls-3, .cls-4 {
        fill: none;
      }

      .cls-2 {
        isolation: isolate;
      }

      .cls-5 {
        fill: url(#linear-gradient-3);
      }

      .cls-5, .cls-6, .cls-7, .cls-4 {
        mix-blend-mode: screen;
      }

      .cls-6 {
        fill: url(#linear-gradient-2);
      }

      .cls-8 {
        fill: url(#linear-gradient-8);
      }

      .cls-9 {
        fill: url(#linear-gradient-9);
      }

      .cls-10 {
        fill: url(#linear-gradient-4);
      }

      .cls-11 {
        fill: url(#linear-gradient-6);
      }

      .cls-12 {
        fill: url(#linear-gradient-7);
      }

      .cls-13 {
        fill: url(#linear-gradient-5);
      }

      .cls-14 {
        fill: url(#linear-gradient-10);
      }

      .cls-15 {
        fill: url(#linear-gradient-11);
      }

      .cls-7 {
        fill: url(#linear-gradient);
      }

      .cls-3 {
        clip-path: url(#clippath);
      }
    </style>
    <linearGradient id="linear-gradient" x1="295.39" y1="-5.53" x2="295.39" y2="274.19" gradientUnits="userSpaceOnUse">
      <stop offset=".13" stop-color="#fff"/>
      <stop offset=".16" stop-color="#e8e8e8"/>
      <stop offset=".25" stop-color="#b2b2b2"/>
      <stop offset=".35" stop-color="#828282"/>
      <stop offset=".45" stop-color="#5a5a5a"/>
      <stop offset=".55" stop-color="#393939"/>
      <stop offset=".65" stop-color="#202020"/>
      <stop offset=".76" stop-color="#0e0e0e"/>
      <stop offset=".87" stop-color="#030303"/>
      <stop offset="1" stop-color="#000"/>
    </linearGradient>
    <linearGradient id="linear-gradient-2" x1="139.29" y1="153.55" x2="139.29" y2="334.43" xlink:href="#linear-gradient"/>
    <linearGradient id="linear-gradient-3" x1="448.47" y1="275.08" x2="448.47" y2="403.64" xlink:href="#linear-gradient"/>
    <clipPath id="clippath">
      <rect class="cls-1" x="160.05" y="72.66" width="282.05" height="533.31"/>
    </clipPath>
    <linearGradient id="linear-gradient-4" x1="237.51" y1="169.3" x2="237.51" y2="719.93" gradientUnits="userSpaceOnUse">
      <stop offset=".2" stop-color="#fff"/>
      <stop offset=".23" stop-color="#e8e8e8"/>
      <stop offset=".32" stop-color="#b2b2b2"/>
      <stop offset=".41" stop-color="#828282"/>
      <stop offset=".5" stop-color="#5a5a5a"/>
      <stop offset=".59" stop-color="#393939"/>
      <stop offset=".68" stop-color="#202020"/>
      <stop offset=".78" stop-color="#0e0e0e"/>
      <stop offset=".88" stop-color="#030303"/>
      <stop offset="1" stop-color="#000"/>
    </linearGradient>
    <linearGradient id="linear-gradient-5" x1="356.53" x2="356.53" xlink:href="#linear-gradient-4"/>
    <linearGradient id="linear-gradient-6" x1="297.02" y1="169.3" x2="297.02" y2="719.93" xlink:href="#linear-gradient-4"/>
    <linearGradient id="linear-gradient-7" x1="297.02" y1="169.3" x2="297.02" y2="719.93" xlink:href="#linear-gradient-4"/>
    <linearGradient id="linear-gradient-8" x1="297.02" y1="169.31" x2="297.02" y2="719.93" xlink:href="#linear-gradient-4"/>
    <linearGradient id="linear-gradient-9" x1="297.02" y1="169.31" x2="297.02" y2="719.93" xlink:href="#linear-gradient-4"/>
    <linearGradient id="linear-gradient-10" x1="297.02" y1="169.3" x2="297.02" y2="719.94" xlink:href="#linear-gradient-4"/>
    <linearGradient id="linear-gradient-11" x1="297.02" y1="169.3" x2="297.02" y2="719.94" xlink:href="#linear-gradient-4"/>
  </defs>
  <g class="cls-2">
    <g id="Layer_2" data-name="Layer 2">
      <g id="Layer_1-2" data-name="Layer 1">
        <g>
          <path class="cls-7" d="m446.26,263.72c26.9-1.39,52.78-21.45,68.54-45.78,26.11-40.3,14.61-94.13-25.69-120.25-16-10.36-34.15-14.77-51.84-13.84-3.83-17.65-14.34-33.85-30.69-44.44-24.79-16.06-55.85-14.66-78.73,1.16-5.43-11.53-14.04-21.76-25.53-29.18-32.82-21.28-76.66-11.89-97.93,20.92-4.08,6.28-7.03,13.01-8.92,19.9-27.62-11.33-60.3-1.77-77.13,24.22-9.26,14.29-11.98,30.89-9,46.4-14.14,5.26-26.8,14.88-35.64,28.53-21.86,33.73-12.23,78.8,21.51,100.65,12.65,8.22,26.91,11.97,40.94,11.7h310.1Z"/>
          <path class="cls-6" d="m229.32,359.62c16.05-.83,31.5-12.8,40.91-27.32,15.58-24.05,8.72-56.18-15.33-71.76-9.55-6.19-20.38-8.81-30.94-8.26-2.28-10.53-8.56-20.2-18.32-26.52-14.8-9.59-33.33-8.75-46.99.69-3.24-6.88-8.38-12.99-15.23-17.42-19.59-12.7-45.75-7.1-58.44,12.49-2.43,3.75-4.2,7.77-5.32,11.88-16.49-6.76-35.98-1.06-46.03,14.45-5.52,8.53-7.15,18.43-5.37,27.69-8.44,3.14-16,8.88-21.27,17.02-13.04,20.13-7.3,47.03,12.84,60.07,7.55,4.91,16.06,7.14,24.43,6.98h185.07Z"/>
          <path class="cls-5" d="m512.46,421.55c11.41-.59,22.39-9.1,29.08-19.42,11.08-17.09,6.2-39.93-10.9-51.01-6.79-4.4-14.48-6.26-21.99-5.87-1.62-7.49-6.08-14.36-13.02-18.85-10.52-6.81-23.69-6.22-33.4.49-2.3-4.89-5.96-9.23-10.83-12.38-13.92-9.03-32.52-5.04-41.54,8.87-1.73,2.67-2.98,5.52-3.78,8.44-11.72-4.81-25.58-.75-32.72,10.27-3.93,6.06-5.08,13.1-3.82,19.68-6,2.23-11.37,6.31-15.12,12.1-9.27,14.31-5.19,33.43,9.12,42.7,5.37,3.49,11.42,5.08,17.37,4.96h131.54Z"/>
          <g class="cls-3">
            <g class="cls-4">
              <rect class="cls-10" x="232.73" y="145.26" width="9.56" height="586.17"/>
              <rect class="cls-13" x="351.75" y="145.26" width="9.56" height="586.17"/>
              <rect class="cls-11" x="237.51" y="586.3" width="119.02" height="9.56"/>
              <rect class="cls-12" x="237.51" y="512" width="119.02" height="9.56"/>
              <rect class="cls-8" x="237.51" y="437.69" width="119.02" height="9.56"/>
              <rect class="cls-9" x="237.51" y="363.39" width="119.02" height="9.56"/>
              <rect class="cls-14" x="237.51" y="289.08" width="119.02" height="9.56"/>
              <rect class="cls-15" x="237.51" y="214.78" width="119.02" height="9.56"/>
            </g>
          </g>
        </g>
      </g>
    </g>
  </g>
</svg>