<?xml version="1.0" encoding="UTF-8"?>
<svg id="Layer_2" data-name="Layer 2" xmlns="http://www.w3.org/2000/svg" xmlns:xlink="http://www.w3.org/1999/xlink" viewBox="0 0 197.06 198.61">
  <defs>
    <style>
      .cls-1 {
        fill: url(#linear-gradient);
      }
    </style>
    <linearGradient id="linear-gradient" x1="3.55" y1="193.89" x2="450.04" y2="-78.65" gradientUnits="userSpaceOnUse">
      <stop offset="0" stop-color="#04bfff"/>
      <stop offset=".09" stop-color="#03b9f5"/>
      <stop offset=".24" stop-color="#02a8dc"/>
      <stop offset=".42" stop-color="#018eb3"/>
      <stop offset=".57" stop-color="#00778e"/>
      <stop offset=".87" stop-color="#1b8d9f"/>
    </linearGradient>
  </defs>
  <g id="Layer_1-2" data-name="Layer 1">
    <path class="cls-1" d="m125.46,59.59c-1.64-.31-3.65-.13-4.79-1.05-1.45-1.16-3.43-3.57-3.05-4.81,4.83-16.04,10.9-31.29,26.12-40.86C158.76,3.45,175.09-.53,192.61.06c1.52.05,2.97,2.27,4.45,3.48-1.59,1.42-3.01,3.77-4.8,4.1-5.38.99-10.97.8-16.35,1.76-17.39,3.1-32.8,9.81-42.23,25.81-2.72,4.61-4.28,9.9-6.76,15.79,5.71,0,10.31.42,14.81-.08,10.35-1.16,20.9-1.64,29.96-7.98,2.25-1.57,4.91-1.23,6.02,1.99.81,2.35,1.61,4.73,2.15,7.15,1.45,6.46,5.33,10.96,11.09,13.9,2.56,1.3,5.06,2.8,3.58,5.96-1.42,3.05-4.22,2.49-6.93,1.36-6.64-2.76-11.28-7.37-13.83-14.12-.7-1.84-1.65-3.58-2.14-4.62-11.73,1.67-23.02,3.17-34.26,5.01-1.21.2-2.89,2.36-2.98,3.71-.32,4.62-.1,9.29.06,13.93.07,1.98.47,3.96.75,5.93,1.42,9.81-1.35,18.23-7.73,25.82-3.81,4.54-6.86,9.71-10.83,15.43,3.05.67,5.49,1.41,7.99,1.71,6.67.79,10.1,3.49,10.58,10.32.37,5.29,2.5,7.25,7.55,7.17,3.99-.06,8.01.09,11.96.63,1.86.25,4.82,1.38,5.05,2.56.36,1.8-.62,5-2.06,5.82-4.67,2.68-9.67,4.99-14.81,6.59-4.55,1.42-6.18,4.03-5.74,11.68.26,4.45,2.72,6.51,6.82,5.98,8.55-1.11,17.09-2.36,25.54-4.06,5.61-1.13,8.05-.72,9.87,4.47,1.74,4.98,2.8,10.22,3.8,15.42.45,2.32.94,5.31-2.77,5.84-3.86.56-4.71-2.12-5.32-5.12-.84-4.16-1.81-8.3-2.69-12.28-6.71,1.04-12.56,2.4-18.47,2.73-5.91.34-11.95.13-17.81-.73-4.34-.64-6.68-4.3-6.94-8.65-.26-4.31-.21-8.67.16-12.97.34-4.06.34-8.66,6.91-8.88-.23-.5-.46-1-.7-1.5-1.4-.24-2.8-.52-4.21-.72-4.68-.69-5.96-2.68-4.59-7.21,1.88-6.22.7-8.22-5.52-9.37-1.14-.21-2.28-.48-3.41-.76-10.75-2.64-12.69-8.03-6.07-17.06,3.52-4.81,7.58-9.29,10.61-14.39,2.27-3.83,4.48-8.38,4.58-12.66.23-9.59-.88-19.2-1.48-29.39Zm-97.83,21.27c-7.15-.03-14.3.06-21.44-.08-4.52-.09-6.27,2.03-6.18,6.38.13,5.81.12,11.64,0,17.45-.06,2.83.25,4.81,3.85,4.86,3.65.05,4.45-1.69,4.46-4.92.01-4.94-1.43-11.95,1.16-14.27,2.96-2.65,9.65-1.27,14.73-1.4,6.67-.17,6.81-.24,5.65-7.68-.93-.15-1.57-.34-2.22-.34Zm49.55-.08c-2.93-.13-4.21.95-4.19,4.01.01,3.05,1.35,4.13,4.24,4.07,4.48-.09,8.96.08,13.44-.02,2.78-.06,3.85,1.12,3.79,3.85-.1,4.48.04,8.96,0,13.44-.03,3.17,2.09,3.23,4.38,3.3,2.43.07,3.66-.77,3.62-3.43-.11-6.8-.08-13.61-.02-20.41.03-3.37-1.55-4.84-4.85-4.78-3.48.06-6.97.01-10.45.01-3.32,0-6.64.11-9.95-.04ZM.22,176.62c.05,1.29,1.94,3.56,3.04,3.6,8.9.3,17.81.17,26.64.17.88-6.67.86-6.74-5.12-6.83-3.98-.06-7.97-.17-11.94.07-3.54.21-4.78-1.29-4.6-4.67.17-3.14.06-6.3.03-9.46-.05-7.01-.12-7.06-8.19-5.96,0,7.88-.15,15.49.14,23.09Zm94.27-7.07c.08,3.01-1.05,4.15-4.09,4.06-4.82-.15-9.67-.19-14.46.23-1.05.09-2.48,2.25-2.65,3.6-.11.89,1.69,2.87,2.68,2.9,7.65.24,15.31.24,22.96,0,1.17-.04,3.24-1.68,3.27-2.64.26-8.09.15-16.19.15-24.48h-7.9c0,5.75-.1,11.04.04,16.33Zm-52.03-53.83c.03-3-.58-4.54-4.08-4.52-3.58.02-4.06,1.81-4.05,4.67.06,10.28.01,20.56.02,30.85,0,7.16.06,7.19,8.06,6,0-12.5-.06-24.75.04-37Zm21.99,2.13c-.01,9.3-.03,18.59.01,27.89.01,2.41.25,4.82.37,7.16h7.26v-41.3q-7.63-.58-7.65,6.25Zm-43.15,26.39c-.15,3.31,1.73,3.87,4.39,3.85,2.59-.02,4.48-.42,4.39-3.81-.18-6.98-.2-13.96,0-20.94.1-3.56-1.76-4.14-4.63-4.15-2.86,0-4.32.99-4.16,4.1.17,3.31.04,6.65.04,9.97,0,3.66.13,7.32-.04,10.97Zm61.66.26c.28-7.31.03-14.63.08-21.95.02-3.17-2.09-3.28-4.39-3.33-2.34-.04-3.71.61-3.67,3.38.13,8.14.04,16.28.04,25.19,3.43-.4,7.7,2.6,7.93-3.3Zm61.85-63.52c-2.93-.07-5.71.73-5.72,4.04,0,3.26,2.61,4.19,5.64,4.05,5.86-.26,10.89,1.95,15.84,4.94,1.4.85,3.99-.28,6.03-.49-.49-1.99-.32-4.8-1.59-5.82-5.1-4.08-10.85-7.02-16.72-6.72-1.82,0-2.65.02-3.48,0Zm-87.55,42.77c.03-2.61-.15-4.6-3.55-4.53-3.13.06-3.92,1.68-3.89,4.46.08,6.31-.02,12.63.02,18.94.04,5.62.6,6,7.38,4.68,0-7.96-.06-15.76.03-23.55Zm93.4-29.24c-4.23.14-7.27,3.43-7.22,7.82.05,4.1,3.45,7.62,7.43,7.69,4.02.07,8.04-3.9,7.99-7.88-.06-4.02-4.08-7.76-8.2-7.63Z"/>
  </g>
</svg>