<?xml version="1.0" encoding="UTF-8"?>
<svg id="Layer_2" data-name="Layer 2" xmlns="http://www.w3.org/2000/svg" xmlns:xlink="http://www.w3.org/1999/xlink" viewBox="0 0 339.21 389.98">
  <defs>
    <style>
      .cls-1 {
        fill: url(#linear-gradient);
      }

      .cls-2 {
        fill: url(#linear-gradient-2);
      }
    </style>
    <linearGradient id="linear-gradient" x1="0" y1="47.99" x2="339.21" y2="47.99" gradientUnits="userSpaceOnUse">
      <stop offset="0" stop-color="#04bfff"/>
      <stop offset=".09" stop-color="#03b9f5"/>
      <stop offset=".24" stop-color="#02a8dc"/>
      <stop offset=".42" stop-color="#018eb3"/>
      <stop offset=".57" stop-color="#00778e"/>
      <stop offset=".87" stop-color="#1b8d9f"/>
    </linearGradient>
    <linearGradient id="linear-gradient-2" x1="5.9" y1="341.48" x2="335.18" y2="341.48" xlink:href="#linear-gradient"/>
  </defs>
  <g id="Layer_1-2" data-name="Layer 1">
    <g>
      <path class="cls-1" d="m24.63,95.98c6.14-8.91,13.24-17.48,21.34-25.71,21.89-22.22,48.82-36.27,79.31-43.9,26.73-6.69,53.81-7.5,80.25-2.21,47.54,9.5,85.19,32.78,110.28,71.82h23.4C311.19,45.6,266.45,15.73,208.57,4.09,168.02-4.07,127.48-.2,89.06,17.31,49.16,35.5,19.2,61.68,0,95.98h24.63Z"/>
      <path class="cls-2" d="m313.32,292.98c-20.55,25.98-48.92,45.49-81.56,54.95-.92.55-2.07,1.01-3.52,1.42-32.13,9.21-65.04,10.93-97.18,3.84-19.39-4.28-34.15,2.08-50.05,9.29-6.21,2.82-12.58,5.29-20.91,8.76,0-12.25-.23-21.83.06-31.39.35-11.55-4.18-20.78-12.41-28.5-6.22-5.82-11.84-11.95-16.88-18.36H5.9c4.65,6.71,9.82,13.24,15.57,19.55,14.79,16.24,20.6,31.62,18.32,51.82-1.98,17.51,18.17,32.58,37.47,22.27,7.71-4.11,15.62-8.09,23.87-10.87,6.48-2.18,13.69-3.69,20.45-3.29,19.68,1.15,39.35,5.23,58.92,4.7,19.88-.54,39.65-5.11,60.09-8.05.29-.41.45-.64.45-.64l18.74-7.81s0-.01,0-.02c10.5-6.69,20.94-12.57,30.53-19.61,18.63-13.68,33.48-29.73,44.87-48.04h-21.86Z"/>
    </g>
  </g>
</svg>