<?xml version="1.0" encoding="UTF-8"?>
<svg id="Layer_2" data-name="Layer 2" xmlns="http://www.w3.org/2000/svg" xmlns:xlink="http://www.w3.org/1999/xlink" viewBox="0 0 422.59 475.98">
  <defs>
    <style>
      .cls-1 {
        fill: url(#linear-gradient);
      }

      .cls-2 {
        fill: url(#linear-gradient-3);
      }

      .cls-3 {
        fill: url(#linear-gradient-4);
      }

      .cls-4 {
        fill: url(#linear-gradient-2);
      }
    </style>
    <linearGradient id="linear-gradient" x1="0" y1="47.99" x2="339.21" y2="47.99" gradientUnits="userSpaceOnUse">
      <stop offset="0" stop-color="#04bfff"/>
      <stop offset=".09" stop-color="#03b9f5"/>
      <stop offset=".24" stop-color="#02a8dc"/>
      <stop offset=".42" stop-color="#018eb3"/>
      <stop offset=".57" stop-color="#00778e"/>
      <stop offset=".87" stop-color="#1b8d9f"/>
    </linearGradient>
    <linearGradient id="linear-gradient-2" x1="5.9" y1="341.48" x2="335.18" y2="341.48" xlink:href="#linear-gradient"/>
    <linearGradient id="linear-gradient-3" x1="32.24" y1="413.49" x2="156.59" y2="413.49" gradientTransform="translate(454.84) rotate(-180) scale(1 -1)" xlink:href="#linear-gradient"/>
    <linearGradient id="linear-gradient-4" x1="338.59" y1="413.49" x2="382.25" y2="413.49" xlink:href="#linear-gradient"/>
  </defs>
  <g id="Layer_1-2" data-name="Layer 1">
    <g>
      <g>
        <path class="cls-1" d="m24.63,95.98c6.14-8.91,13.24-17.48,21.34-25.71,21.89-22.22,48.82-36.27,79.31-43.9,26.73-6.69,53.81-7.5,80.25-2.21,47.54,9.5,85.19,32.78,110.28,71.82h23.4C311.19,45.6,266.45,15.73,208.57,4.09,168.02-4.07,127.48-.2,89.06,17.31,49.16,35.5,19.2,61.68,0,95.98h24.63Z"/>
        <path class="cls-4" d="m313.32,292.98c-20.55,25.98-48.92,45.49-81.56,54.95-.92.55-2.07,1.01-3.52,1.42-32.13,9.21-65.04,10.93-97.18,3.84-19.39-4.28-34.15,2.08-50.05,9.29-6.21,2.82-12.58,5.29-20.91,8.76,0-12.25-.23-21.83.06-31.39.35-11.55-4.18-20.78-12.41-28.5-6.22-5.82-11.84-11.95-16.88-18.36H5.9c4.65,6.71,9.82,13.24,15.57,19.55,14.79,16.24,20.6,31.62,18.32,51.82-1.98,17.51,18.17,32.58,37.47,22.27,7.71-4.11,15.62-8.09,23.87-10.87,6.48-2.18,13.69-3.69,20.45-3.29,19.68,1.15,39.35,5.23,58.92,4.7,19.88-.54,39.65-5.11,60.09-8.05.29-.41.45-.64.45-.64l18.74-7.81s0-.01,0-.02c10.5-6.69,20.94-12.57,30.53-19.61,18.63-13.68,33.48-29.73,44.87-48.04h-21.86Z"/>
      </g>
      <g>
        <path class="cls-2" d="m337.61,469.29c6.55.94,12.89,2.41,19.26,2.58,6.27.17,12.58-1.14,18.88-1.51,2.17-.13,4.48.36,6.55,1.06,2.64.89,5.18,2.16,7.65,3.48,6.19,3.3,12.64-1.53,12.01-7.14-.73-6.47,1.13-11.4,5.87-16.61,12.56-13.79,16.86-30.73,13.82-49.06-3.55-21.42-15.72-36.54-35.49-45.55-12.31-5.61-25.3-6.85-38.3-4.24-20.76,4.18-36.25,15.66-44.85,35.5l.16.11s-4.11,8.27-4.9,21.81c-.17,5.36.27,10.71,1.44,16.08,3.11,14.25,10.19,25.85,21.96,34.49,3.07,2.26,6.42,4.14,9.78,6.29,0,0,0,0,0,0l6.01,2.5s.05.07.14.21Zm3.96-6.33c-.46-.13-.83-.28-1.13-.46-21.52-6.24-37.26-26.1-37.26-49.64,0-11.29,3.62-21.72,9.76-30.22,8.03-13.05,20.31-20.79,35.9-23.9,8.47-1.69,17.15-1.43,25.72.71,9.77,2.44,18.4,6.95,25.42,14.07,12.64,12.84,17.85,28.3,15.29,46.27-1.73,12.17-6.86,22.56-15.86,30.99-2.64,2.47-4.09,5.43-3.98,9.13.09,3.06.02,6.13.02,10.06-2.67-1.11-4.71-1.9-6.7-2.81-5.1-2.31-9.83-4.35-16.04-2.98-10.3,2.27-20.85,1.72-31.14-1.23Z"/>
        <path class="cls-3" d="m381.9,435.37c-1.87-5.11-3.8-10.19-5.67-15.3-3.7-10.13-7.33-20.28-11.09-30.38-.78-2.09-2.18-3.74-4.44-3.57-3.69-.04-4.75,2.4-5.68,4.95-3.32,9.02-6.64,18.05-9.96,27.07-2.15,5.83-4.41,11.62-6.34,17.53-.39,1.2.15,3.07.94,4.14.5.68,2.28.69,3.43.56,2.29-.27,3.46-1.97,4.14-4.02.64-1.93,1.03-3.98,1.89-5.8.38-.8,1.62-1.68,2.49-1.7,5.76-.15,11.53-.15,17.3.02.96.03,2.33.94,2.74,1.8,1.11,2.36,1.76,4.93,2.68,7.39.88,2.37,3.11,3.36,5.44,2.52,2.2-.79,3.05-2.79,2.16-5.21Zm-29.62-14.35c2.63-7.64,5.14-14.91,7.65-22.18.3,0,.6,0,.9,0,2.47,7.24,4.94,14.48,7.57,22.17h-16.12Z"/>
      </g>
    </g>
  </g>
</svg>