<?xml version="1.0" encoding="UTF-8"?>
<svg id="Layer_2" data-name="Layer 2" xmlns="http://www.w3.org/2000/svg" xmlns:xlink="http://www.w3.org/1999/xlink" viewBox="0 0 209.37 222.17">
  <defs>
    <style>
      .cls-1 {
        fill: url(#linear-gradient);
      }

      .cls-2 {
        fill: url(#linear-gradient-2);
      }
    </style>
    <linearGradient id="linear-gradient" x1="0" y1="148.75" x2="209.37" y2="148.75" gradientUnits="userSpaceOnUse">
      <stop offset="0" stop-color="#04bfff"/>
      <stop offset=".09" stop-color="#03b9f5"/>
      <stop offset=".24" stop-color="#02a8dc"/>
      <stop offset=".42" stop-color="#018eb3"/>
      <stop offset=".57" stop-color="#00778e"/>
      <stop offset=".87" stop-color="#1b8d9f"/>
    </linearGradient>
    <linearGradient id="linear-gradient-2" x1="64.56" y1="40.13" x2="144.81" y2="40.13" xlink:href="#linear-gradient"/>
  </defs>
  <g id="Layer_1-2" data-name="Layer 1">
    <g>
      <path class="cls-1" d="m209.37,135.02c.04-5.53-2.4-9.6-7.03-12.56-.84-.54-1.62-1.87-1.64-2.86-.13-7.55-.05-15.11-.07-22.67-.02-5.21-2.55-6.99-7.49-5.26-5.94,2.09-11.9,4.12-17.75,6.41-2.33.91-3.69.65-5.38-1.33-8.49-9.94-18.99-17.02-31.4-21.18-.88-.3-2.19-.39-2.89.06-2,1.28-3.8,2.88-5.3,4.06,6.12,2.78,12.5,5.32,18.52,8.51,6.14,3.26,11.26,7.92,16,13.44-1.36.52-2.24.89-3.14,1.21-16.01,5.73-32.07,11.34-48.01,17.25-6.51,2.41-12.81,2.4-19.29.21-15-5.08-30.03-10.1-45.04-15.15-1.97-.66-3.92-1.39-6.19-2.2,9.79-11.68,21.77-19.03,36.2-22.68-6.48-5.96-6.51-5.97-14.11-2.68-.53.23-1.06.48-1.59.72-11.06,5.05-20.14,12.6-27.71,22.28-3.33-1.13-6.61-2.25-9.89-3.35-3.3-1.11-6.61-2.21-9.92-3.28-4.94-1.6-7.5.23-7.51,5.39-.01,6.59,0,13.18.07,19.76.02,1.58-.3,2.62-1.84,3.51C2.32,125.31-.02,129.46,0,134.87c.01,3.1.02,6.2,0,9.3-.05,5.41,2.26,9.57,6.86,12.31,1.48.88,1.92,1.83,1.9,3.45-.07,8.24-.04,16.48-.03,24.71.01,5.13,2.54,8.64,7.42,10.22,26.89,8.71,53.79,17.41,80.69,26.08,4.83,1.56,9.72,1.61,14.59.12,27.21-8.34,54.42-16.68,81.63-25.05,5.06-1.55,7.56-5.03,7.57-10.37.01-8.63-.06-17.25.08-25.88.02-1.07.85-2.5,1.75-3.11,4.54-3.06,6.98-7.13,6.9-12.66-.04-3-.03-6.01,0-9.01ZM6.99,144.03c-.04-3.1-.06-6.2.01-9.29.11-4.27,3.35-7.31,7.73-7.35,4.52-.04,7.8,3.02,7.93,7.45.05,1.64,0,3.29,0,4.94,0,1.45.03,2.91,0,4.36-.09,4.5-3.24,7.6-7.75,7.63-4.65.04-7.88-3.09-7.93-7.74Zm94,70.72c-.99-.25-1.9-.44-2.79-.72-26.15-8.43-52.29-16.91-78.46-25.27-2.98-.95-4.17-2.42-4.1-5.61.19-8.02.06-16.05.06-24.25,6.93-1.13,12.3-4.23,13.4-11.07.88-5.45.91-11.29-.08-16.71-1.21-6.7-6.44-9.99-13.19-10.86v-18.93c28.41,9.49,56.6,18.91,85.15,28.45v84.97Zm92.65-28.5c0,2.2-1.63,2.81-3.39,3.35-17.68,5.4-35.35,10.83-53.03,16.26-9.52,2.92-19.04,5.85-28.94,8.89v-85.28c28.45-10.16,56.73-20.25,85.26-30.43v20.4c-3.24,1.69-6.4,2.9-9.05,4.82-3.31,2.39-4.74,6.03-4.77,10.14-.02,3,0,6.01,0,9.01,0,8.11,4.19,13.36,12.05,15.11.56.12,1.12.23,1.89.39,0,9.14.01,18.24-.01,27.34Zm8.74-42.05c-.11,4.48-3.29,7.55-7.82,7.56-4.53.01-7.79-3.06-7.87-7.51-.06-3.19-.07-6.39.01-9.58.11-4.25,3.42-7.29,7.8-7.29,4.4,0,7.69,3.01,7.86,7.24.06,1.64.01,3.29.01,4.94h0c0,1.55.03,3.1,0,4.65Z"/>
      <path class="cls-2" d="m104.75,80.26c22.14,0,40.08-18,40.06-40.2C144.79,17.9,126.81-.01,104.61,0c-22.15.01-40.08,18.01-40.05,40.21.02,22.18,17.96,40.05,40.2,40.05Zm.13-73.27c18.18.07,32.94,14.98,32.93,33.27-.01,18.18-14.96,33.04-33.19,32.99-18.38-.05-33.17-14.98-33.08-33.4.09-18.15,15.09-32.94,33.34-32.87Z"/>
    </g>
  </g>
</svg>