<?xml version="1.0" encoding="UTF-8"?>
<svg id="Layer_2" data-name="Layer 2" xmlns="http://www.w3.org/2000/svg" xmlns:xlink="http://www.w3.org/1999/xlink" viewBox="0 0 197.74 186.26">
  <defs>
    <style>
      .cls-1 {
        fill: url(#linear-gradient);
      }
    </style>
    <linearGradient id="linear-gradient" x1="0" y1="93.13" x2="197.74" y2="93.13" gradientUnits="userSpaceOnUse">
      <stop offset="0" stop-color="#04bfff"/>
      <stop offset=".09" stop-color="#03b9f5"/>
      <stop offset=".24" stop-color="#02a8dc"/>
      <stop offset=".42" stop-color="#018eb3"/>
      <stop offset=".57" stop-color="#00778e"/>
      <stop offset=".87" stop-color="#1b8d9f"/>
    </linearGradient>
  </defs>
  <g id="Layer_1-2" data-name="Layer 1">
    <path class="cls-1" d="m141.8,7.13c-10.96,0-20.6,3.56-28.98,10.55-6.87,5.72-11.6,12.88-14.22,21.43-1.54,5.04-2.38,10.21-2.01,15.46.46,6.45,1.95,12.68,5.02,18.46.57,1.08,1.16,2.25,1.33,3.44.26,1.79-.85,3.21-2.44,3.67-1.53.44-3.23-.17-4.01-1.7-1.38-2.7-2.77-5.41-3.85-8.23-2.43-6.38-3.44-13.03-3.16-19.85.34-8.29,2.4-16.16,6.59-23.35,1.83-3.14,3.89-6.2,6.21-9,4.63-5.56,10.43-9.7,16.92-12.87,4.85-2.37,9.95-3.91,15.29-4.64,5.75-.79,11.46-.61,17.19.47,8.96,1.69,16.85,5.5,23.8,11.31,3.92,3.28,7.26,7.07,10.06,11.38,2.39,3.68,4.57,7.44,6.25,11.5,1.76,4.26,3.04,8.64,4.03,13.14,1.34,6.1,1.94,12.28,1.92,18.48-.01,3.59-.7,7.18-1.14,10.76-.29,2.39-.54,4.8-1.07,7.14-.92,4.08-2.06,8.1-3.06,12.16-1.31,5.29-3.67,10.13-6.16,14.92-3.63,6.97-8.32,13.21-13.46,19.12-5.72,6.57-11.67,12.95-17.26,19.62-4.82,5.74-9.33,11.75-13.89,17.7-2.06,2.69-3.78,5.66-5.95,8.25-3.64,4.36-8.29,7.33-13.85,8.65-2.33.56-4.73,1.12-7.11,1.15-4.03.05-7.99-.72-11.72-2.39-6.95-3.12-11.99-8.15-14.98-15.15-1.5-3.52-2.34-7.22-2.19-11.09.08-2.08,1.43-3.35,3.56-3.34,2.07,0,3.46,1.3,3.51,3.39.11,4.59,1.32,8.84,4.1,12.52,4.03,5.34,9.31,8.43,16.14,8.71,8.27.35,14.56-2.98,19.17-9.82,6.37-9.45,13.39-18.42,21.01-26.9,4.15-4.62,8.29-9.25,12.38-13.93,6.6-7.55,12.69-15.48,16.68-24.77,1.51-3.51,2.65-7.19,3.72-10.86,1.12-3.85,2.08-7.75,2.84-11.68.63-3.28.77-6.65,1.29-9.96.81-5.16.15-10.29-.44-15.37-.89-7.65-3-15.04-6.61-21.92-1.91-3.64-3.93-7.22-6.63-10.35-4.26-4.94-9.29-8.87-15.14-11.74-3.75-1.84-7.71-3.11-11.79-3.85-2.58-.46-5.25-.44-7.88-.63Zm-25.84,52.29c-1.43-8.31.05-16.02,5.5-22.7,4.3-5.27,9.89-8.48,16.54-9.64,5.55-.97,10.96-.17,16.06,2.31,5.63,2.74,10,6.78,12.68,12.51.95,2.04,2.9,2.91,4.8,2.08,2.02-.88,2.69-2.85,1.69-5.04-1.53-3.37-3.65-6.34-6.28-8.92-8.79-8.61-19.17-12.02-31.36-9.66-6.18,1.2-11.53,3.96-16.13,8.2-7.28,6.7-11.02,15.04-11.18,24.92-.08,4.92.85,9.69,2.92,14.19,1.42,3.09,3.08,6.06,5.49,8.52,1.88,1.92,4.11,1.69,5.69-.49.39-.54.81-1.07,1.24-1.58,6.23-7.43,16.49-9.8,25.01-5.71,8.38,4.01,12.65,10.85,12.39,20.3-.15,5.5-2.33,10.13-6.14,14-4.24,4.3-9.5,6.18-15.48,6.21-5.53.03-10.5,1.65-14.94,5.02-4.04,3.07-7.1,7.01-10.3,10.87-1.9,2.3-3.88,4.58-6.13,6.52-2.04,1.76-5.13,1.09-6.37-1.2-.62-1.13-.95-2.53-1.04-3.83-.26-3.75.68-7.36,1.77-10.91.68-2.22-.17-4.19-2.34-4.94-1.7-.6-3.87.68-4.41,2.74-.65,2.5-1.23,5.01-1.75,7.54-.84,4.07-.59,8.07,1.03,11.95,2.2,5.29,9.52,8.61,15.19,5.75,3.34-1.69,5.7-4.39,8.04-7.15,2.45-2.89,4.76-5.91,7.32-8.71,3.92-4.28,8.68-6.76,14.7-6.43,1.54.09,3.12-.21,4.65-.5,6.73-1.28,12.35-4.5,16.8-9.75,3.37-3.98,5.44-8.58,6.31-13.69.6-3.5.44-7.01-.35-10.52-.99-4.46-2.88-8.44-5.78-11.91-4.44-5.32-10.03-8.73-16.95-9.92-5.34-.92-10.46-.43-15.49,1.59-3.7,1.49-6.93,3.64-9.88,6.62-1.82-2.75-3-5.62-3.52-8.63Zm-46.61,42.21c-.39,5.86-1.62,11.55-3.26,17.18-2.36,8.1-5.77,15.74-10.38,22.8-2.24,3.43-4.8,6.65-7.24,9.96-1.28,1.73-1.2,3.64.26,4.94,1.53,1.36,3.68,1.27,5.12-.36,1.36-1.54,2.62-3.16,3.85-4.81,5.14-6.87,9.24-14.31,12.41-22.28,2.26-5.69,4.01-11.54,5.11-17.56.55-3.02.93-6.09,1.2-9.15.31-3.65.7-7.33.55-10.97-.2-4.76-.63-9.55-1.45-14.24-.89-5.08-2.12-10.12-3.62-15.06-1.84-6.07-4.57-11.81-7.71-17.33-2.95-5.18-6.32-10.06-10.19-14.58-1.49-1.75-3.63-1.88-5.23-.52-1.55,1.33-1.6,3.27-.15,5.13,1.45,1.87,2.94,3.71,4.32,5.62,4.45,6.19,8,12.86,10.78,19.97,2.46,6.3,4.18,12.8,5.18,19.46.66,4.36.79,8.8,1.13,12.87-.24,3.22-.48,6.07-.67,8.92Zm-17.17-21.08c-.5-3.34-1.14-6.69-2.07-9.94-1.94-6.81-4.7-13.32-8.58-19.24-2.73-4.17-5.86-8.08-8.96-11.99-1.31-1.66-3.52-1.64-5.03-.32-1.55,1.36-1.65,3.3-.24,5.01.71.86,1.47,1.69,2.18,2.55,7.7,9.33,12.83,19.94,15.2,31.78.93,4.66,1.29,9.49,1.42,14.25.17,5.85-.41,11.71-1.96,17.39-1.02,3.73-2.08,7.49-3.55,11.06-3.16,7.69-7.57,14.65-13.15,20.85-1.56,1.74-1.51,3.72.02,5.13,1.55,1.43,3.71,1.33,5.23-.38,1.66-1.87,3.27-3.79,4.75-5.79,5.56-7.53,9.69-15.76,12.44-24.74,2.3-7.51,3.12-15.18,3.63-24.09-.35-3.1-.71-7.33-1.34-11.51Zm-21.2,2.65c-.68-4.79-2.05-9.41-3.92-13.87-2.71-6.43-6.36-12.28-11.05-17.46-1.62-1.78-3.58-1.92-5.21-.5-1.57,1.37-1.54,3.37-.06,5.24,1.78,2.24,3.58,4.47,5.17,6.83,3.23,4.77,5.48,10.04,6.94,15.58.87,3.29,1.56,6.7,1.75,10.09.29,5.22-.07,10.43-1.23,15.58-1.29,5.72-3.26,11.15-6.34,16.12-1.68,2.73-3.69,5.25-5.55,7.87-1.72,2.43-.48,5.42,2.41,5.74,1.41.15,2.48-.48,3.37-1.55,9.56-11.55,14.37-24.83,14.56-41.27-.18-1.85-.37-5.15-.83-8.42Zm-20.92-2.76c-.87-2.7-2.05-5.33-3.29-7.89-.93-1.91-2.95-2.47-4.66-1.65-1.43.69-2.81,2.76-1.67,4.86,2.35,4.32,3.78,8.94,4.19,13.86.43,5.12.08,10.16-1.69,15.02-.78,2.13-1.82,4.16-2.64,6.28-.24.61-.29,1.42-.12,2.05.45,1.63,1.65,2.58,3.32,2.67,1.66.09,2.75-.92,3.47-2.32,3.27-6.34,5.07-13.04,4.9-20.77.24-3.78-.48-8.01-1.8-12.11Z"/>
  </g>
</svg>