<?xml version="1.0" encoding="UTF-8"?>
<svg id="Layer_2" data-name="Layer 2" xmlns="http://www.w3.org/2000/svg" viewBox="0 0 423.27 495.1">
  <defs>
    <style>
      .cls-1 {
        fill: #007cff;
      }

      .cls-2 {
        fill: #fff;
      }

      .cls-3 {
        fill: #96cdff;
      }

      .cls-4 {
        fill: #e0e0e0;
      }

      .cls-5 {
        fill: #086bc3;
      }
    </style>
  </defs>
  <g id="Layer_1-2" data-name="Layer 1">
    <g>
      <g>
        <rect class="cls-1" x="59.38" y="36.73" width="304.52" height="421.64" rx="6.36" ry="6.36" transform="translate(-69.92 83.85) rotate(-19.3)"/>
        <g>
          <g>
            <rect class="cls-3" x="82.03" y="59.07" width="261.78" height="384.32" transform="translate(-71.07 84.49) rotate(-19.3)"/>
            <g>
              <rect class="cls-3" x="76.4" y="57.56" width="261.78" height="376.98" transform="translate(-69.67 82.33) rotate(-19.3)"/>
              <path class="cls-4" d="m393.12,380.69c-1.04-2.97-51.21-145.81-124.93-355.68l.45.22C193.71,51.48,109.88,80.85,21.61,111.77h-.03s.24-.48.24-.48c46.57,133.65,89.92,257.07,124.52,355.82l-.4-.19c150.28-52.42,244.75-85.38,247.17-86.22-2.42.85-96.81,34.03-246.97,86.81l-.3.1-.1-.3C111.15,368.56,67.9,245.13,21.09,111.54l-.13-.37.37-.13h.03c88.27-30.91,172.11-60.25,247.05-86.49l.33-.12.12.33c73.32,210.01,123.22,352.94,124.26,355.91Z"/>
            </g>
            <path class="cls-4" d="m305.48,411.38s55.02-46.4,64.56-94.73c0,0-15.27,23.95-47.04,28.32,0,0-1.1,50.74-17.52,66.41Z"/>
            <g>
              <rect class="cls-1" x="88.69" y="192.07" width="32" height="32" rx="3.42" ry="3.42" transform="translate(-62.88 46.29) rotate(-19.3)"/>
              <path class="cls-2" d="m104.33,213.09s-.02,0-.02,0c-.2.06-.42.04-.6-.07l-5.96-3.45c-.36-.21-.48-.66-.27-1.02.21-.35.66-.48,1.02-.27l5.25,3.05,6.29-13.46c.17-.37.62-.53.99-.36.37.17.53.62.36.99l-6.64,14.2c-.09.18-.24.32-.43.39Z"/>
              <path class="cls-2" d="m274.94,135.62c.07.2-32.02,11.62-71.66,25.5-39.66,13.89-71.85,24.98-71.92,24.77-.07-.2,32.01-11.62,71.67-25.51,39.64-13.88,71.84-24.97,71.92-24.77Z"/>
              <path class="cls-2" d="m199.59,186.81c.02.05-.81.4-2.33.98-1.65.61-3.82,1.41-6.44,2.39-5.45,1.98-13,4.67-21.35,7.6-8.35,2.93-15.93,5.53-21.43,7.38-2.66.88-4.86,1.6-6.52,2.15-1.55.49-2.41.74-2.43.69-.02-.05.81-.4,2.33-.97,1.64-.61,3.82-1.41,6.44-2.39,5.45-1.98,13-4.67,21.35-7.6,8.35-2.92,15.93-5.53,21.42-7.38,2.66-.88,4.86-1.6,6.52-2.15,1.55-.49,2.41-.74,2.43-.69Z"/>
              <path class="cls-2" d="m278.37,145.41c.07.2-32.02,11.62-71.66,25.5-39.66,13.89-71.85,24.98-71.92,24.77-.07-.2,32.01-11.62,71.67-25.51,39.64-13.88,71.84-24.97,71.92-24.77Z"/>
            </g>
            <g>
              <rect class="cls-1" x="110.9" y="257.8" width="32" height="32" rx="3.42" ry="3.42" transform="translate(-83.36 57.32) rotate(-19.3)"/>
              <path class="cls-2" d="m126.53,278.81s-.02,0-.02,0c-.2.06-.42.04-.6-.07l-5.96-3.45c-.36-.21-.48-.66-.27-1.02.21-.35.66-.48,1.02-.27l5.25,3.05,6.29-13.46c.17-.37.62-.53.99-.36.37.17.53.62.36.99l-6.64,14.2c-.09.18-.24.32-.43.39Z"/>
              <path class="cls-2" d="m297.15,201.35c.07.2-32.02,11.62-71.66,25.5-39.66,13.89-71.85,24.98-71.92,24.77-.07-.2,32.01-11.62,71.67-25.51,39.64-13.88,71.84-24.97,71.92-24.77Z"/>
              <path class="cls-2" d="m221.8,252.54c.02.05-.81.4-2.33.98-1.65.61-3.82,1.41-6.44,2.39-5.45,1.98-13,4.67-21.35,7.6-8.35,2.93-15.93,5.53-21.43,7.38-2.66.88-4.86,1.6-6.52,2.15-1.55.49-2.41.74-2.43.69-.02-.05.81-.4,2.33-.97,1.64-.61,3.82-1.41,6.44-2.39,5.45-1.98,13-4.67,21.35-7.6,8.35-2.92,15.93-5.53,21.42-7.38,2.66-.88,4.86-1.6,6.52-2.15,1.55-.49,2.41-.74,2.43-.69Z"/>
              <path class="cls-2" d="m300.58,211.14c.07.2-32.02,11.62-71.66,25.5-39.66,13.89-71.85,24.98-71.92,24.77-.07-.2,32.01-11.62,71.67-25.51,39.64-13.88,71.84-24.97,71.92-24.77Z"/>
            </g>
            <g>
              <rect class="cls-1" x="133.11" y="323.52" width="32" height="32" rx="3.42" ry="3.42" transform="translate(-103.83 68.36) rotate(-19.3)"/>
              <path class="cls-2" d="m148.74,344.54s-.02,0-.02,0c-.2.06-.42.04-.6-.07l-5.96-3.45c-.36-.21-.48-.66-.27-1.02.21-.35.66-.48,1.02-.27l5.25,3.05,6.29-13.46c.17-.37.62-.53.99-.36.37.17.53.62.36.99l-6.64,14.2c-.09.18-.24.32-.43.39Z"/>
              <path class="cls-2" d="m319.35,267.08c.07.2-32.02,11.62-71.66,25.5-39.66,13.89-71.85,24.98-71.92,24.77-.07-.2,32.01-11.62,71.67-25.51,39.64-13.88,71.84-24.97,71.92-24.77Z"/>
              <path class="cls-2" d="m244,318.26c.02.05-.81.4-2.33.98-1.65.61-3.82,1.41-6.44,2.39-5.45,1.98-13,4.67-21.35,7.6-8.35,2.93-15.93,5.53-21.43,7.38-2.66.88-4.86,1.6-6.52,2.15-1.55.49-2.41.74-2.43.69-.02-.05.81-.4,2.33-.97,1.64-.61,3.82-1.41,6.44-2.39,5.45-1.98,13-4.67,21.35-7.6,8.35-2.92,15.93-5.53,21.42-7.38,2.66-.88,4.86-1.6,6.52-2.15,1.55-.49,2.41-.74,2.43-.69Z"/>
              <path class="cls-2" d="m322.78,276.87c.07.2-32.02,11.62-71.66,25.5-39.66,13.89-71.85,24.98-71.92,24.77-.07-.2,32.01-11.62,71.67-25.51,39.64-13.88,71.84-24.97,71.92-24.77Z"/>
            </g>
          </g>
          <path class="cls-5" d="m49.44,76.75l6.52,18.62c3.78,10.81,15.61,16.5,26.42,12.72l136.66-47.85c10.81-3.78,16.5-15.61,12.72-26.42l-6.51-18.59L49.44,76.75Z"/>
          <path class="cls-5" d="m139.16,51.5c-10.12,3.54-21.23-1.81-24.77-11.92-3.54-10.12,1.81-21.23,11.92-24.77,10.12-3.54,21.23,1.81,24.77,11.92,3.54,10.12-1.81,21.23-11.92,24.77Zm-10.39-29.66c-6.24,2.18-9.53,9.04-7.35,15.27,2.18,6.24,9.03,9.53,15.27,7.35,6.24-2.18,9.53-9.03,7.35-15.27-2.18-6.24-9.03-9.53-15.27-7.35Z"/>
        </g>
      </g>
      <path class="cls-4" d="m248.39,99.82c.12.35-35.91,13.29-80.47,28.9-44.58,15.61-80.81,27.97-80.93,27.62-.12-.35,35.9-13.29,80.48-28.9,44.56-15.61,80.8-27.97,80.92-27.62Z"/>
      <path class="cls-4" d="m202.24,106.44c.12.35-15.74,6.23-35.42,13.12-19.69,6.9-35.75,12.2-35.88,11.84-.12-.35,15.74-6.23,35.43-13.13,19.69-6.89,35.75-12.2,35.87-11.84Z"/>
    </g>
  </g>
</svg>