<?xml version="1.0" encoding="UTF-8"?>
<svg id="Layer_2" data-name="Layer 2" xmlns="http://www.w3.org/2000/svg" xmlns:xlink="http://www.w3.org/1999/xlink" viewBox="0 0 134 148.54">
  <defs>
    <style>
      .cls-1 {
        fill: url(#linear-gradient);
        stroke-width: 0px;
      }

      .cls-2 {
        fill: none;
        stroke: url(#linear-gradient-2);
        stroke-miterlimit: 10;
        stroke-width: 4px;
      }
    </style>
    <linearGradient id="linear-gradient" x1="0" y1="74.27" x2="134" y2="74.27" gradientUnits="userSpaceOnUse">
      <stop offset="0" stop-color="#04bfff"/>
      <stop offset=".09" stop-color="#03b9f5"/>
      <stop offset=".24" stop-color="#02a8dc"/>
      <stop offset=".42" stop-color="#018eb3"/>
      <stop offset=".57" stop-color="#00778e"/>
      <stop offset=".87" stop-color="#1b8d9f"/>
    </linearGradient>
    <linearGradient id="linear-gradient-2" x1="39.97" y1="56.6" x2="103.67" y2="56.6" xlink:href="#linear-gradient"/>
  </defs>
  <g id="Layer_1-2" data-name="Layer 1">
    <g>
      <path class="cls-1" d="m66.99,148.53c-20.86,0-41.73,0-62.59.01-1.45,0-2.76-.23-3.56-1.52-.42-.68-.76-1.54-.78-2.33-.07-2.46.06-4.93.06-7.39,0-2.1-.1-4.19-.1-6.29,0-16.58,0-33.16,0-49.74,0-7.71.02-15.42-.01-23.13,0-1.62.56-2.85,1.8-3.88,4.27-3.56,8.51-7.14,12.72-10.76.35-.3.61-.92.62-1.39.04-4.61.02-9.21.02-13.82,0-1.92.63-2.54,2.57-2.54,5.68,0,11.36.02,17.03-.03.58,0,1.27-.26,1.71-.64,8.22-6.88,16.41-13.81,24.61-20.71,1.53-1.29,3.08-2.56,4.63-3.82.89-.73,1.66-.75,2.52-.04,4.37,3.64,8.73,7.29,13.08,10.95,5.41,4.55,10.8,9.13,16.24,13.66.45.37,1.15.61,1.73.61,5.55.05,11.1.08,16.64,0,2.44-.03,2.92.65,2.95,3.23.05,4.47-.04,8.95.02,13.42,0,.52.54,1.13.98,1.51,3.43,2.94,6.91,5.84,10.37,8.75.77.64,1.53,1.29,2.29,1.94.97.83,1.44,1.86,1.44,3.15,0,5.97.04,11.94.03,17.91,0,18.65-.03,37.31-.04,55.96,0,4.25,0,8.5,0,12.75,0,2.71-1.47,4.18-4.2,4.18-6.03,0-12.06-.04-18.1-.05-14.89,0-29.78,0-44.68,0,0,.02,0,.04,0,.05Zm10.2-50.43c.24-.18.43-.3.6-.44,6.51-5.35,13.02-10.69,19.53-16.04,5.41-4.45,10.82-8.9,16.25-13.32,1.07-.87,1.58-1.77,1.57-3.26-.09-9.05-.05-18.1-.04-27.15,0-2.49.06-4.98.15-7.46.03-.88-.33-1.16-1.15-1.1-.81.07-1.62.13-2.42.13-30.59,0-61.18,0-91.77,0-.69,0-1.05.08-1.05.93.03,11.94.01,23.88.04,35.81,0,.44.27,1.01.61,1.29,3.65,3.09,7.33,6.13,11.01,9.18,5.12,4.25,10.24,8.49,15.36,12.74,3.28,2.72,6.58,5.41,9.83,8.17.72.61,1.17.56,1.86-.03,2.62-2.25,5.29-4.45,7.95-6.64,1.11-.92,1.81-.92,2.94-.02.79.62,1.54,1.28,2.31,1.92,2.13,1.77,4.27,3.53,6.42,5.31Zm12.64,15.16c-.39-.28-.68-.47-.95-.69-1.92-1.58-3.84-3.16-5.75-4.75-5.18-4.29-10.35-8.57-15.51-12.87-.42-.35-.73-.45-1.17-.09-3.3,2.75-6.61,5.48-9.92,8.22-8.45,7.01-16.89,14.03-25.35,21.04-7.48,6.2-14.98,12.39-22.47,18.59-.78.65-1.54,1.33-2.45,2.12h121.46c-.42-.38-.65-.6-.89-.8-5.35-4.43-10.7-8.85-16.05-13.28-5.27-4.37-10.53-8.75-15.8-13.13-1.02-.85-2.11-1.62-3.05-2.54-.86-.84-1.56-1.84-2.35-2.79.08.29.15.56.25.96Zm40.43,28.84V59.27c-16.82,13.83-33.42,27.49-50.15,41.25,16.72,13.86,33.32,27.63,50.15,41.58Zm-126.57-.29c.08.04.17.08.25.11,16.56-13.73,33.13-27.46,49.79-41.27-16.67-13.8-33.24-27.53-50.04-41.44v82.6ZM67,4.24c-8.47,7.13-16.89,14.22-25.5,21.47h51.01c-8.59-7.23-17.02-14.33-25.5-21.47Zm51.93,59.59c3.27-2.7,6.36-5.24,9.54-7.86-3.21-2.7-6.31-5.3-9.54-8.02v15.88ZM15.08,47.93c-3.25,2.73-6.34,5.34-9.55,8.04,3.21,2.66,6.31,5.24,9.55,7.93v-15.97Z"/>
      <polyline class="cls-2" points="41.48 57.55 55.48 73.55 102.48 38.55"/>
    </g>
  </g>
</svg>