<?xml version="1.0" encoding="UTF-8"?>
<svg id="Layer_2" data-name="Layer 2" xmlns="http://www.w3.org/2000/svg" xmlns:xlink="http://www.w3.org/1999/xlink" viewBox="0 0 221.27 241.98">
  <defs>
    <style>
      .cls-1 {
        fill: url(#linear-gradient);
      }

      .cls-1, .cls-2, .cls-3, .cls-4 {
        stroke-width: 0px;
      }

      .cls-2 {
        fill: url(#linear-gradient-4);
      }

      .cls-3 {
        fill: url(#linear-gradient-2);
      }

      .cls-4 {
        fill: url(#linear-gradient-3);
      }
    </style>
    <linearGradient id="linear-gradient" x1="30.1" y1="178.21" x2="60.19" y2="178.21" gradientUnits="userSpaceOnUse">
      <stop offset="0" stop-color="#04bfff"/>
      <stop offset=".09" stop-color="#03b9f5"/>
      <stop offset=".24" stop-color="#02a8dc"/>
      <stop offset=".42" stop-color="#018eb3"/>
      <stop offset=".57" stop-color="#00778e"/>
      <stop offset=".87" stop-color="#1b8d9f"/>
    </linearGradient>
    <linearGradient id="linear-gradient-2" x1="30.09" y1="114.63" x2="123.73" y2="114.63" xlink:href="#linear-gradient"/>
    <linearGradient id="linear-gradient-3" x1="148.46" y1="153.54" x2="200.38" y2="153.54" xlink:href="#linear-gradient"/>
    <linearGradient id="linear-gradient-4" x1="0" y1="120.99" x2="221.27" y2="120.99" xlink:href="#linear-gradient"/>
  </defs>
  <g id="Layer_1-2" data-name="Layer 1">
    <g>
      <path class="cls-1" d="m55.75,173.73c-7.01-.07-14.03-.04-21.04,0-1.72.01-3.11.8-4,2.33-1.74,3.02.42,6.51,4.18,6.61,3.45.09,6.9.02,10.35.02,3.45,0,6.91.06,10.36-.02,2.55-.06,4.54-2.05,4.6-4.4.06-2.31-1.97-4.52-4.45-4.54Z"/>
      <path class="cls-3" d="m76.76,67.78c-26.55.12-47.5,21.92-46.65,48.17.84,25.99,21.95,45.46,47,45.53,26.97-.68,47.41-21.89,46.6-48.55-.74-24.35-20.6-45.27-46.95-45.15Zm-37.26,40.84c2.06-11.86,8.39-20.74,18.69-27.03-1.44,4.1-3.13,7.94-4.1,11.96-1.18,4.9-1.8,9.95-2.54,14.95-.17,1.17-.46,1.68-1.69,1.66-3.01-.06-6.01-.04-9.02-.01-1.08,0-1.53-.4-1.34-1.52Zm.03,10.5c3.66,0,7.32-.04,10.98.07.35.01.86.96.96,1.53,1.06,5.62,1.82,11.31,3.13,16.88.79,3.37,2.38,6.55,3.64,9.9-10.8-5.61-18.36-18.38-18.71-28.38Zm32.99,10.38c0,6.4,0,12.8,0,19.2v2.27c-2.75-2.04-4.37-4.33-5.75-6.81-4.22-7.61-5.85-15.91-6.38-24.49,0-.1.09-.2.26-.57.79,0,1.72,0,2.64,0,2.56,0,5.12.04,7.68-.01,1.15-.02,1.58.41,1.56,1.57-.05,2.95-.02,5.9-.02,8.85Zm-2.07-19.33c-2.89-.1-5.79-.03-8.68-.03-.74,0-1.5.04-1.41-1.1.79-9.29,2.54-18.31,7.84-26.24,1.06-1.58,2.47-2.92,3.72-4.37.18.11.35.22.53.33.02.49.07.98.07,1.47,0,9.29-.03,18.59.04,27.88.01,1.63-.52,2.12-2.11,2.07Zm23.03,10.16c-.66,8.05-2.19,15.88-5.99,23.11-1.46,2.77-3.21,5.31-6.05,7.49-.05-.89-.1-1.37-.1-1.86,0-9.3.03-18.6-.03-27.9-.01-1.57.4-2.17,2.05-2.11,2.89.12,5.79.04,8.69.03.84,0,1.54.03,1.44,1.24Zm-1.24-10.19c-3.17-.02-6.35-.01-9.52,0-.84,0-1.39-.23-1.38-1.22.03-10.02.05-20.04.08-30.06,0-.05.05-.09.38-.63,1.41,1.66,2.82,3.06,3.93,4.68,3.91,5.73,5.79,12.23,6.91,18.98.37,2.25.52,4.53.83,6.79.14,1.01-.17,1.46-1.22,1.45Zm21.95,10.91c-1.25,7.25-4.24,13.64-9.23,19.06-2.72,2.96-5.76,5.53-9.43,7.34,3.13-6.45,5.1-13.2,6.08-20.24.31-2.26.54-4.53.73-6.8.07-.88.35-1.33,1.29-1.32,2.99.04,5.97.11,8.96.05,1.49-.03,1.82.55,1.59,1.9Zm-7.51-10.91c-3.99,0-4.1.01-4.51-3.81-.9-8.43-2.72-16.58-6.61-24.18-.06-.11,0-.28,0-.47,10.82,5.62,18.47,18.44,18.76,28.46-2.54,0-5.08,0-7.63,0Z"/>
      <path class="cls-4" d="m174.43,127.51c-14.3.02-26.01,11.79-25.97,26.2.03,13.37,10.85,25.93,25.85,25.87,15.75-.06,26.29-13.03,26.06-26.04,0-14.27-11.73-26.04-25.94-26.02Zm0,44.1c-9.86,0-17.85-7.99-17.85-17.85s7.99-17.85,17.85-17.85,17.85,7.99,17.85,17.85-7.99,17.85-17.85,17.85Z"/>
      <path class="cls-2" d="m221.06,149.3c-1.24-13.68-6.95-25.31-17.98-33.66-14.68-11.12-30.84-12.28-47.79-5.72-.5.19-1,.39-1.79.7v-2.21c0-16.11.01-32.23,0-48.34,0-7.72-5.7-13.44-13.39-13.51-1.78-.02-3.57,0-5.35,0q-2.57,0-2.57-2.53c0-12.93,0-25.87.01-38.8,0-1.51-.22-2.88-1.35-3.98-1.76-1.71-3.68-1.39-5.73-.57-21.2,8.51-42.43,16.95-63.62,25.48-17.62,7.09-35.21,14.25-52.81,21.41C3.33,49.74.38,54.29.38,60.28c0,11.95.02,23.9,0,35.85h-.37v63.24h.37c0,15.28,0,30.56.02,45.84,0,3.28.23,6.57.22,9.85-.01,4.38-.21,8.77-.22,13.15-.01,8.25,5.5,13.75,13.74,13.76,10.93.01,21.86,0,32.78,0,31.05,0,62.11,0,93.16,0,6.99,0,12.17-4.35,13.19-11.27.37-2.52.19-5.11.24-7.67.04-2.18.02-2.18,2.26-2.19,5.57,0,11.15-.11,16.72.05,2.69.07,4.65-.83,6.44-2.79,9.62-10.54,19.3-21.02,28.99-31.5,9.76-10.55,14.43-22.94,13.14-37.3ZM123.25,11.03c.04.88.1,1.42.1,1.97,0,10.53-.02,21.06.04,31.59,0,1.54-.46,1.99-1.99,1.99-28.53-.04-57.05-.03-85.58-.03-.22,0-.44-.03-.75-.31,29.29-11.69,58.57-23.39,88.18-35.21Zm21.31,184.74c-.33,4.66-.12,9.36-.05,14.04.02,1.48-.38,2.05-1.97,2.05-33-.04-66.01-.03-99.01-.04-2.82,0-4.43-1.42-4.46-3.85-.04-2.56,1.67-4.16,4.58-4.16,21.63-.01,43.26,0,64.89-.01,6.68,0,12.39-4.11,14.47-10.38,3.2-9.64-3.94-19.55-14.41-19.69-11.76-.15-23.53-.05-35.29-.03-2.94,0-5.07,1.94-5.08,4.46-.02,2.58,2.16,4.51,5.2,4.51,11.76.02,23.53,0,35.29.02,2.74,0,4.92,1.56,5.77,4.01.83,2.36.13,5.11-1.73,6.73-1.43,1.25-3.15,1.57-4.98,1.57-9.09,0-18.17,0-27.26,0-12.49,0-24.98-.02-37.46.02-6.15.02-11.32,4.16-12.62,9.98-1.77,7.94,4.16,15.56,12.32,15.82.67.02,1.34,0,2.01,0,32.33,0,64.67,0,97,0q2.71,0,2.71,2.73c0,1.78.02,3.57,0,5.35-.04,2.45-1.42,3.94-3.86,4.19-.61.06-1.23.04-1.84.04-41.37,0-82.73,0-124.1,0-3.99,0-5.37-1.35-5.38-5.29,0-4.29,0-8.59,0-12.88,0-28.74,0-57.48,0-86.22h-.13v-25.5h.13c0-14.11,0-28.21,0-42.32,0-4.23,1.24-5.46,5.5-5.46,41.31,0,82.62,0,123.93,0,.45,0,.89,0,1.34,0,2.98.08,4.41,1.5,4.41,4.46.01,10.43,0,20.85,0,31.28,0,7.86-.02,15.72.02,23.58,0,1.26-.32,2.17-1.28,3.07-11.72,11-16.76,24.64-15.35,40.53.96,10.78,5.4,20.23,13,27.96,2.71,2.76,3.96,5.53,3.69,9.41Zm10,15.99c-.36,0-.99-.64-1-.99-.08-3.31-.05-6.62.35-10.13,3.32,3.59,6.63,7.17,10.32,11.16-3.58,0-6.63.03-9.68-.05Zm48.25-32.79c-9.01,10.11-18.34,19.94-27.52,29.89-.22.24-.48.45-.93.87-3.42-3.71-6.75-7.31-10.06-10.91-3.85-4.18-7.69-8.37-11.55-12.54-.06-.07-.13-.13-.21-.19l-1.08-1.18s.01,0,.02,0c-.78-.84-1.51-1.63-2.27-2.45l-2.86-3.1c-15.17-17.31-12.58-43.59,5.86-57.48,6.76-5.09,14.56-7.12,22.93-6.96,10.19.19,19.04,3.7,26.25,11.05,14,14.26,14.76,38.03,1.43,53Z"/>
    </g>
  </g>
</svg>