<?xml version="1.0" encoding="UTF-8"?>
<svg id="Layer_2" data-name="Layer 2" xmlns="http://www.w3.org/2000/svg" xmlns:xlink="http://www.w3.org/1999/xlink" viewBox="0 0 534.52 586.66">
  <defs>
    <style>
      .cls-1 {
        fill: url(#linear-gradient);
      }

      .cls-1, .cls-2, .cls-3, .cls-4, .cls-5, .cls-6, .cls-7, .cls-8, .cls-9, .cls-10, .cls-11, .cls-12, .cls-13, .cls-14, .cls-15, .cls-16 {
        stroke-width: 0px;
      }

      .cls-2 {
        fill: url(#radial-gradient);
      }

      .cls-3 {
        fill: url(#radial-gradient-2);
      }

      .cls-4 {
        fill: url(#linear-gradient-2);
      }

      .cls-5 {
        fill: #4e7dae;
      }

      .cls-6 {
        fill: #26374f;
      }

      .cls-7 {
        fill: #537aa3;
      }

      .cls-8 {
        fill: #713a8e;
      }

      .cls-9 {
        fill: #132136;
      }

      .cls-10 {
        fill: #d0ebf9;
      }

      .cls-11 {
        fill: #c4e9fb;
      }

      .cls-12 {
        fill: #7e6b87;
      }

      .cls-13 {
        fill: #6b99c3;
      }

      .cls-14 {
        fill: #9ecce8;
      }

      .cls-15 {
        fill: #6796c0;
      }

      .cls-16 {
        fill: #fff;
      }
    </style>
    <linearGradient id="linear-gradient" x1="422.85" y1="173.67" x2="422.85" y2="17.5" gradientUnits="userSpaceOnUse">
      <stop offset="0" stop-color="#4a79ab"/>
      <stop offset="1" stop-color="#9ecce8"/>
    </linearGradient>
    <linearGradient id="linear-gradient-2" x1="354.05" y1="326.41" x2="354.05" y2="24.11" xlink:href="#linear-gradient"/>
    <radialGradient id="radial-gradient" cx="112.61" cy="346.41" fx="112.61" fy="346.41" r="50.68" gradientUnits="userSpaceOnUse">
      <stop offset="0" stop-color="#dff2fa"/>
      <stop offset="1" stop-color="#8fbfe2"/>
    </radialGradient>
    <radialGradient id="radial-gradient-2" cx="258.21" cy="339.08" fx="258.21" fy="339.08" r="58.57" gradientTransform="translate(515.82 527.58) rotate(-179.82) scale(1 .55)" xlink:href="#radial-gradient"/>
  </defs>
  <g id="Layer_1-2" data-name="Layer 1">
    <g>
      <g>
        <path class="cls-1" d="m534.52,338.89h-223.34l42.9-163.99c-19.81-18.45-32.21-44.74-32.21-73.93,0-55.77,45.19-100.98,100.98-100.98,7.35,0,14.51.78,21.42,2.27,45.48,9.83,79.56,50.29,79.56,98.7,0,29.19-12.42,55.48-32.23,73.93l42.92,163.99Z"/>
        <polygon class="cls-4" points="354.08 174.9 311.18 338.89 396.92 338.89 396.92 174.9 354.08 174.9"/>
        <path class="cls-16" d="m354.01,338.89l42.9-163.99c-19.81-18.45-32.21-44.74-32.21-73.93,0-48.42,34.08-88.88,79.56-98.7,45.48,9.83,79.56,50.29,79.56,98.7,0,29.19-12.42,55.48-32.23,73.93l11.86,45.31,3.68,14.07,27.37,104.61h-180.5Z"/>
      </g>
      <g>
        <path class="cls-10" d="m464.47,52.12c-10.57,0-19.92,5.23-25.62,13.23-2.46-1.09-5.17-1.7-8.03-1.7-10.99,0-19.91,8.91-19.91,19.91h84.99c0-17.36-14.08-31.44-31.44-31.44Z"/>
        <path class="cls-13" d="m202.3,130.22c8.62,0,16.24,4.26,20.89,10.79,2-.89,4.22-1.39,6.55-1.39,8.96,0,16.23,7.27,16.23,16.23h-69.3c0-14.16,11.48-25.63,25.63-25.63Z"/>
        <path class="cls-10" d="m507.14,229.95h-47.25c0-11.47,9.3-20.77,20.77-20.77,6.99,0,13.16,3.46,16.93,8.75,1.63-.71,3.42-1.12,5.3-1.12.27,0,.55.02.82.03l3.43,13.11Z"/>
        <path class="cls-7" d="m21.83,100.45c-4.31,0-8.12,2.13-10.45,5.39-1-.44-2.11-.69-3.27-.69-4.48,0-8.12,3.63-8.12,8.12h34.65c0-7.08-5.74-12.82-12.82-12.82Z"/>
        <path class="cls-10" d="m424.81,265.27c-3.34,0-6.52.7-9.4,1.95-7.79-14.54-23.12-24.44-40.77-24.44-15.28,0-28.82,7.42-37.24,18.85-2.83-.93-5.84-1.45-8.98-1.45-15.92,0-28.82,12.9-28.82,28.82h148.95c0-13.1-10.62-23.73-23.73-23.73Z"/>
        <path class="cls-7" d="m128.2,210.23c-1.32,0-2.57.28-3.7.77-3.07-5.73-9.11-9.63-16.06-9.63-6.02,0-11.35,2.92-14.67,7.42-1.11-.37-2.3-.57-3.54-.57-6.27,0-11.35,5.08-11.35,11.35h58.67c0-5.16-4.18-9.35-9.35-9.35Z"/>
      </g>
      <g>
        <rect class="cls-11" x="124.69" y="389.31" width="1.16" height="140.44" transform="translate(-127.88 56.08) rotate(-16.86)"/>
        <rect class="cls-11" x="145.4" y="346.36" width="1.16" height="180.42" transform="translate(-14.69 5.19) rotate(-1.94)"/>
        <rect class="cls-11" x="173.63" y="448.43" width="162.43" height="1.16" transform="translate(-248.67 563.12) rotate(-73.19)"/>
        <rect class="cls-11" x="140.12" y="435.99" width="180.47" height="1.16" transform="translate(-215.29 648.83) rotate(-87.65)"/>
        <g>
          <path class="cls-14" d="m295.93,423.93c2.72-3.86,6.33-6.99,9.9-10.09.66-.57,1.49-1.18,2.32-.91,1.15.38,1.16,2,.86,3.18-.8,3.2-2.1,6.27-3.86,9.06,1.68-.09,3.16,1.36,3.6,2.99.44,1.63.05,3.37-.53,4.95-1.22,3.36-3.5,6.59-6.86,7.8-3.32,1.2-7.97-.43-9.28-3.93-1.5-4.02,1.61-9.88,3.85-13.06Z"/>
          <path class="cls-9" d="m241.74,495.93c-1.44-.04-2.83-.46-3.95-1.37-2.47-2.01-2.79-5.81-1.62-8.77,1.18-2.96,3.53-5.26,5.82-7.48,15.42-14.93,31.35-29.28,44.19-46.56.71-.95,1.46-1.95,2.56-2.39,1.12-.45,2.4-.22,3.55.17,4.75,1.61,8.41,6.08,9.04,11.06.93,7.32-3.98,10.7-8.5,15.14-5.31,5.21-10.32,10.66-15.84,15.66-5.13,4.65-10.46,9.08-15.95,13.3-4.68,3.6-10.2,8.51-15.75,10.63-1.12.43-2.35.65-3.55.62Z"/>
          <path class="cls-9" d="m239.52,483.45c1.31,1.25,2.19,3.69,2.56,5.44,1.11,5.2.96,11.02.82,16.31-.32,11.75-2.57,23.44-6.63,34.47-2.27,6.17-5.12,12.14-8.51,17.78-.72,1.2-1.53,2.45-2.78,3.09-1.41.73-3.1.55-4.67.35-5.91-.75-11.82-1.51-17.74-2.26-2.18-.28-4.56-.66-6.02-2.3-1.4-1.58-1.54-3.89-1.61-6-.6-18.69-1.89-37.5-2.19-56.12-.01-.65-.02-1.33.24-1.93.98-2.26,7.98-3.18,10.23-3.64,4.1-.85,8.31-.92,12.41-1.71,3.58-.69,7.14-1.52,10.7-2.27,2.46-.52,4.92-1.03,7.39-1.52,2-.39,4.09-1.28,5.78.32Z"/>
          <path class="cls-6" d="m202.4,501.45c2.92.07,5.84.15,8.77.22-1.17,3.74-2.34,7.48-3.52,11.21-.24.78-.49,1.59-.39,2.4.13.99.75,1.83,1.34,2.64,4.9,6.73,8.41,14.47,10.24,22.59,5.16-10.99,10.96-21.67,17.38-31.97-2.6-2.23-5.2-4.46-7.79-6.69,1.94-1.25,3.89-2.49,5.83-3.74.75-.48,1.56-1.03,1.86-1.87.37-1.04-.13-2.17-.62-3.16-1.7-3.42-3.41-6.84-5.11-10.27-.25-.51-9.47,1.52-10.44,1.7-3.01.57-6.8.9-9.52,2.4-1.78.98-2.47,2.8-3.36,4.53-1.69,3.27-3.28,6.58-4.67,9.99Z"/>
          <path class="cls-11" d="m230.53,485.51c-1.42,4.79-2.84,9.78-4.28,14.8-2.4,8.38-4.81,16.9-7.17,24.92.11-1.07-.55-3.46-.65-4.21-.2-1.52-.4-3.06-.61-4.59-.47-3.21-.97-6.4-1.54-9.55,0-.02-.01-.06-.01-.08-1.07-5.96-2.45-11.83-3.88-17.71-.08-.34-.14-.71.08-.97.17-.19.49-.24.76-.25,5.72-.39,11.55-1.88,17.28-2.37Z"/>
          <path class="cls-8" d="m226.26,500.31c-2.4,8.38-4.81,16.9-7.17,24.92.11-1.07-.55-3.46-.65-4.21-.2-1.52-.4-3.06-.61-4.59-.47-3.21-.97-6.4-1.54-9.55,0-.02-.01-.06-.01-.08,1.15-4.65,2.37-9.21,4.06-13.69,0-.02-.46-.88-.79-1.6-.17-.38-.29-.72-.29-.9.02-1.13.7-2.2,1.68-2.75,3.58-2.02,6.48,3.25,2.71,5.08.87-.43,1.97,4.1,2.6,7.36Z"/>
          <path class="cls-14" d="m212.16,440.2c12.82-1.08,25.4,8.7,28.36,21.21,6.92,29.3-37.7,40.84-47.42,14.02-5.42-14.95,1.73-33.77,19.06-35.23Z"/>
          <path class="cls-9" d="m209.8,425.29c5.73-.26,11.15,2.7,15.54,6.39,4.39,3.69,8.07,8.17,12.5,11.82,4.42,3.65,9.91,6.53,15.63,6.13-13.14,11.43-34.69,11.54-47.95.24-2.68,4.52-4.55,9.87-5.75,14.98,1.75-7.2-9.62-5.44-7.85,1.5.66,2.6,3.17,4.47,5.83,4.85.1,3.04-2.99,5.57-6.03,5.48s-5.74-2.27-7.15-4.97-1.72-5.84-1.69-8.88c.05-5.1.99-10.19,2.77-14.97.98-2.64,2.36-5.35,4.84-6.69,2.48-1.34,6.24-.51,7.03,2.2-2.36-8.09,3.64-17.68,12.28-18.08Z"/>
          <path class="cls-9" d="m215.71,467.37c0-.06-.03-.1-.04-.15.26-.47.21-1.09-.42-1.33-1.11-.42-2.36.14-3.17.92-.6.58-1.21,1.55-.68,2.35.06.09.17.09.26.06.54-.18.88-.63,1.34-.94-.03.24-.04.49-.08.73-.08.23-.12.47-.11.71,0,.07.01.15.02.22.13,1.69,2.48,1.36,2.78-.08.17-.84.18-1.65.1-2.5Z"/>
          <path class="cls-9" d="m232.46,461.79c-.34-.34-.86-.56-1.33-.32-1.27.65-2.03,1.56-2.27,2.98-.02.11.15.17.2.08.25-.43.56-.7,1.01-.92.06-.04.14-.05.2-.08-.14.55-.16,1.15-.17,1.65-.01,1.56,2.05,1.76,2.39.26.22-.95.75-2.84-.05-3.65Z"/>
          <path class="cls-5" d="m234.22,457.74c-1.03-.9-3.88.49-4.87,1.01-1.35.72-2.83,1.87-3.06,3.47-.07.47.5.72.85.46.84-.61,1.5-1.38,2.45-1.87.87-.45,1.8-.75,2.74-1,.73-.19,3.31-.85,1.9-2.08Z"/>
          <path class="cls-5" d="m215.22,462.8c-3.26.25-8.68,1.33-9.89,4.9-.03.08.07.17.14.1,2.46-2.25,6.84-2.89,10.05-3.18,1.18-.11.87-1.9-.3-1.81Z"/>
          <path class="cls-5" d="m229.3,470.27c-.5.23-.41.86.03,1.09.7.36.75,1.08.06,1.49-.61.37-1.2.22-1.71.77-.28.3-.14.84.16,1.06,1.26.91,3.37-.57,3.72-1.87.34-1.29-.75-3.22-2.25-2.54Z"/>
          <path class="cls-12" d="m226.27,476.65c-1.26.05-2.68.13-4.05.38-.99.05-1.98.11-2.97.16-.54.03-1.04.73-.89,1.25.62,2.15.99,6.45,4.11,6.14,2.94-.29,3.91-4.37,4.88-6.59.33-.76-.37-1.36-1.07-1.33Z"/>
          <path class="cls-9" d="m170.74,511.7c-5.91,10.95-7.77,23.66-7.89,36.11-.03,3.24.08,6.62,1.53,9.52,1.46,2.9,4.63,5.18,7.82,4.59,2.2-.41,3.99-2.09,5.05-4.06,1.06-1.97,1.48-4.21,1.81-6.41.9-6.05,1.22-12.18,2.33-18.2s3.09-12.02,6.92-16.79c2.17-2.7,4.86-4.93,7.25-7.43,3.48-3.64,6.6-8.49,5.1-13.74-1.32-4.62-4.79-4.86-8.78-3.27-9.12,3.64-16.53,11.14-21.14,19.69Z"/>
        </g>
        <g>
          <path class="cls-2" d="m112.61,295.74c-27.99,0-50.68,22.69-50.68,50.68s22.69,50.68,50.68,50.68,50.68-22.69,50.68-50.68-22.69-50.68-50.68-50.68Zm0,66.03c-8.48,0-15.35-6.87-15.35-15.35s6.87-15.35,15.35-15.35,15.35,6.87,15.35,15.35-6.87,15.35-15.35,15.35Z"/>
          <path class="cls-3" d="m281.33,331.06h-120.65s-4.04,6.87-4.04,16.36c0,10.75,4.04,16.36,4.04,16.36h61.84c2.48,0,4.49,2.01,4.49,4.49v20.04c0,4.85,3.93,8.78,8.78,8.78h6.06c4.85,0,8.78-3.93,8.78-8.78v-20.04c0-2.48,2.01-4.49,4.49-4.49h10.1c2.48,0,4.49,2.01,4.49,4.49v20.04c0,4.85,3.93,8.78,8.78,8.78h6.06c4.85,0,8.78-3.93,8.78-8.78v-45.23c0-6.64-5.38-12.01-12.01-12.01Z"/>
        </g>
        <rect class="cls-15" x="161.54" y="526.73" width="78.62" height="59.93"/>
        <rect class="cls-5" x="136.73" y="526.73" width="24.59" height="59.93"/>
      </g>
    </g>
  </g>
</svg>