<?xml version="1.0" encoding="UTF-8"?>
<svg id="Layer_2" data-name="Layer 2" xmlns="http://www.w3.org/2000/svg" xmlns:xlink="http://www.w3.org/1999/xlink" viewBox="0 0 137.47 203.08">
  <defs>
    <style>
      .cls-1 {
        fill: url(#linear-gradient);
      }
    </style>
    <linearGradient id="linear-gradient" x1="0" y1="101.54" x2="137.47" y2="101.54" gradientUnits="userSpaceOnUse">
      <stop offset="0" stop-color="#04bfff"/>
      <stop offset=".09" stop-color="#03b9f5"/>
      <stop offset=".24" stop-color="#02a8dc"/>
      <stop offset=".42" stop-color="#018eb3"/>
      <stop offset=".57" stop-color="#00778e"/>
      <stop offset=".87" stop-color="#1b8d9f"/>
    </linearGradient>
  </defs>
  <g id="Layer_1-2" data-name="Layer 1">
    <path class="cls-1" d="m68.81,65.68c-15.43-.13-29.77,5.01-41.33,13.72-.02-8.87-.04-27.4.05-32.71.05-2.67.32-5.37.84-7.98C32.91,15.79,56.34,1.1,78.94,6.95c17.77,4.59,30.36,20.24,31.06,38.64.04.98.26,1.47,1.34,1.38,1-.08,2.03-.08,3.03,0,1.1.09,1.44-.4,1.29-1.39-.59-3.86-.81-7.82-1.86-11.55C106.96,9.74,81.61-4.8,57.29,1.45,37.02,6.65,22.6,24.48,21.91,45.42c-.19,5.68-.13,29.49-.11,38.76C8.46,96.66.05,114.39,0,133.93c-.09,38.18,30.58,69,68.56,69.15,37.43.14,68.87-31.13,68.91-68.67.04-37.63-31.28-69.06-68.66-68.72Zm-3.06,5.94c.05.64.14,1.3.15,1.96.01,7.6-.04,15.2.04,22.81.02,1.77-.51,2.39-2.33,2.37-6.98-.09-13.96-.03-20.94-.04-.61,0-1.22-.07-1.96-.11,1-10.63,16.09-26.89,25.04-26.98Zm.17,91.41c0,1.49-.58,1.93-1.99,1.92-7.9-.04-15.81-.04-23.72,0-1.18,0-1.8-.4-2.14-1.57-1.91-6.66-2.95-13.46-3.55-20.34-.1-1.12-.17-2.24-.33-3.34-.23-1.58.28-2.22,2-2.18,4.6.11,9.21.04,13.81.04,4.61,0,9.21.04,13.82-.03,1.47-.02,2.11.37,2.1,1.98-.06,7.84-.06,15.69,0,23.53Zm-2.12-31.08c-4.67-.1-9.34-.03-14.01-.03-4.55,0-9.1-.05-13.65.03-1.54.03-2.18-.45-1.98-2.02.66-5.3,1.23-10.62,1.96-15.92.33-2.4.95-4.75,1.43-7.13.35-1.71,1.12-2.63,3.15-2.6,7.54.12,15.08.04,22.62.05,2.49,0,2.57.08,2.57,2.48,0,7.67-.04,15.33.03,23,.01,1.62-.47,2.18-2.13,2.14Zm-16.19-57.15c-2.81,4.2-5.75,8.21-8.25,12.46-1.72,2.92-2.92,6.16-4.22,9.32-.58,1.42-1.21,2.23-2.94,2.18-4.36-.12-8.72-.04-13.08-.05-.61,0-1.21-.07-2.37-.14,7.97-11.5,18.29-19.13,30.87-23.78ZM5.73,129.78c.59-7.97,2.71-15.5,5.98-22.76.87-1.92,1.95-2.85,4.22-2.75,4.66.19,9.34.05,14.01.06.73,0,1.45.08,2.37.14-.2,1.09-.3,2.01-.53,2.89-1.97,7.37-2.63,14.92-3.13,22.49-.11,1.6-.63,2.11-2.24,2.09-6.22-.09-12.45-.08-18.68,0-1.67.02-2.12-.49-2-2.16Zm6.9,33.58c-3.88-7.57-6.17-15.57-6.86-24.04-.11-1.3.27-1.8,1.61-1.79,6.48.04,12.96.06,19.44-.01,1.62-.02,1.8.89,1.91,2.1.45,4.64.79,9.3,1.45,13.91.54,3.73,1.48,7.41,2.27,11.24-.53.06-1.01.15-1.49.15-5.23.01-10.47-.01-15.7.02-1.26,0-2.02-.39-2.63-1.58Zm4.8,7.46c.51-.1.95-.25,1.4-.26,4.67-.02,9.34,0,14.01-.03,1.16,0,1.85.42,2.25,1.52,2.88,7.9,6.88,15.14,12.72,21.27.12.12.19.29.3.47-9-1.56-25.96-14.22-30.69-22.98Zm48.46,23.88c0,2.45-.52,2.73-2.94,1.92-7.35-2.46-12.39-7.68-16.4-13.97-2.12-3.34-3.73-7-5.54-10.54-.18-.35-.15-.81-.25-1.42.74-.06,1.33-.15,1.93-.15,6.97-.01,13.94.04,20.91-.04,1.8-.02,2.34.57,2.32,2.35-.09,7.28-.03,14.56-.04,21.84Zm59.56-88.17c3.45,7.34,5.57,15,6.24,23.08.15,1.81-.45,2.36-2.26,2.33-6.17-.1-12.33-.09-18.5,0-1.63.02-2.09-.5-2.18-2.12-.46-8.08-1.36-16.12-3.43-23.97-.09-.35-.14-.71-.25-1.28.89-.09,1.67-.23,2.44-.23,4.73-.02,9.47.06,14.2-.05,1.85-.04,2.9.47,3.74,2.25Zm-5-8.03c-.52.07-.98.19-1.44.19-4.67.01-9.33-.02-14,.03-1.38.01-1.98-.53-2.57-1.83-1.91-4.2-3.91-8.39-6.21-12.39-1.93-3.35-4.32-6.44-6.46-9.57,10.6,2.87,24.56,13.35,30.67,23.57Zm-47.01-26.73c8.86,2.49,14.26,8.92,18.74,16.33,1.69,2.79,2.87,5.89,4.33,8.83.71,1.43.08,1.77-1.22,1.77-3.59-.01-7.19-.03-10.78.01-3.21.04-6.43.12-9.63.27-2.78.13-3.39-.37-3.39-3.17,0-3.61,0-7.22,0-10.83,0-3.92.02-7.84,0-11.76-.01-1.46.29-1.93,1.97-1.46Zm-1.97,34.17c0-1.56.56-2.14,2.09-2.02,2.65.21,5.31.44,7.97.47,4.57.05,9.14-.09,13.7-.06,4.65.02,3.64-.74,4.94,4.18,1.82,6.87,2.65,13.92,2.91,21.03.08,2.32.14,2.36-2.11,2.36-4.55,0-9.1,0-13.65,0-4.61,0-9.22-.06-13.83.03-1.57.03-2.05-.55-2.04-2.06.05-7.98.06-15.95,0-23.93Zm0,33.48c0-1.49.6-1.92,2.01-1.9,4.67.06,9.34.02,14.01.02,4.55,0,9.09.04,13.64-.02,1.38-.02,1.97.25,1.92,1.85-.28,8.12-1.47,16.08-3.68,23.91-.35,1.26-.95,1.68-2.21,1.67-7.91-.04-15.82-.05-23.73,0-1.46,0-1.97-.55-1.97-1.98.04-7.85.04-15.7,0-23.54Zm8.31,54.68c-1.81,1.16-3.88,1.96-5.91,2.71-1.79.66-2.37.16-2.37-1.79-.02-7.47,0-14.94-.02-22.41,0-1.2.19-2.07,1.7-2.05,7.65.08,15.31.12,22.96.18.17,0,.35.1.67.21-3.73,9.2-8.41,17.64-17.03,23.16Zm10.04-.15c2.92-4.43,5.97-8.72,8.64-13.23,1.63-2.76,2.66-5.87,4.05-8.78.27-.56.97-1.28,1.49-1.29,5.1-.09,10.2-.05,15.3-.03.22,0,.44.16.87.33-7.94,10.84-18.03,18.49-30.35,23Zm41.85-54.25c-.72,6.71-2.2,13.23-4.9,19.43-.5,1.14-1.16,2.21-1.56,3.38-.65,1.87-1.81,2.52-3.81,2.46-4.73-.14-9.46-.04-14.2-.05-.72,0-1.45-.09-2.3-.15.4-1.89.84-3.56,1.09-5.26.96-6.63,1.94-13.27,2.73-19.92.19-1.62.67-2.1,2.26-2.08,6.23.08,12.45.09,18.68,0,1.72-.02,2.18.61,2.01,2.19Z"/>
  </g>
</svg>