<?xml version="1.0" encoding="UTF-8"?>
<svg id="Layer_2" data-name="Layer 2" xmlns="http://www.w3.org/2000/svg" viewBox="0 0 1914 651.42">
  <defs>
    <style>
      .cls-1, .cls-2 {
        fill: #3c4664;
      }

      .cls-3 {
        fill: none;
        opacity: .07;
      }

      .cls-2 {
        fill-rule: evenodd;
      }
    </style>
  </defs>
  <g id="Layer_1-2" data-name="Layer 1">
    <g class="cls-3">
      <g>
        <rect class="cls-1" y="613.97" width="1914" height="37.45"/>
        <path class="cls-2" d="m23.08,481.42v36.32h1.98v133.68h341.44v-133.68h3.69v-40.58h-4.83V174.04h6.81v-8.52h-13.62v-12.77h-4.83v-3.97h-1.42l-5.39-9.65-5.68-10.22-5.39,10.22-5.4,9.65h-1.42v3.97h-80.6v12.77h-13.91v8.52h7.66v138.23h-33.49l-5.4-40.59-1.14-10.78v-57.9h9.08v-7.1h-9.08v-7.67h-7.66v7.67h-9.08v7.1h9.08v56.48l-1.7,12.2-5.39,40.59h-37.75v-138.23h6.81v-8.52h-13.63v-12.77H63.94v-3.97h-1.42l-5.39-9.65-5.39-10.22-5.68,10.22-5.11,9.65h-1.7v3.97h-6.53v12.77h-13.9v8.52h7.66v303.13h-3.4v4.25Zm126.58-156.39h38.03v23.85l-2.27,3.68-13.06,20.44h-22.71v-47.97Zm59.04,0h33.49v47.97h-18.17l-12.77-20.44-2.55-3.68v-23.85Zm-53.08,104.44c1.13-20.43,17.03-36.61,37.18-38.03-20.15,1.42-36.05,17.88-37.18,38.03h0Zm43.43-38.03c8.51.57,16.17,3.97,22.42,9.07-6.25-5.1-13.91-8.5-22.42-9.07h0Zm145.88-15.61h-82.31v-62.44h82.31v62.44Zm-29.51-52.51c2.83,0,5.39,1.7,5.39,3.68v42.29h-10.78v-42.29c0-1.98,2.27-3.68,5.39-3.68h0Zm-21.29,0c2.84,0,5.39,1.7,5.39,3.68v42.29h-10.78v-42.29c0-1.98,2.27-3.68,5.39-3.68h0Zm33.49,73.22h11.07v-11.07h-11.07v11.07Zm-58.18,0h11.35v-11.07h-11.35v11.07Zm-169.73-73.22c2.84,0,5.39,1.7,5.39,3.68v42.29h-10.79v-42.29c0-1.98,2.28-3.68,5.4-3.68h0Zm-21.29,0c2.84,0,5.11,1.7,5.11,3.68v42.29h-10.5v-42.29c0-1.98,2.27-3.68,5.39-3.68h0Zm33.49,73.22h11.07v-11.07h-11.07v11.07Zm-58.18,0h11.07v-11.07h-11.07v11.07Zm292.06,246.65h-7.66v-74.93c0-22.99-33.77-41.72-33.77-41.72,0,0-33.78,18.73-33.78,41.72v74.93h-11.07v-125.46h86.28v125.46Zm-107,0h-8.8v-74.93c0-22.99-33.78-41.72-33.78-41.72,0,0-33.77,18.73-33.77,41.72v74.93h-9.65v-125.46h86v125.46Zm-107,0h-9.65v-74.93c0-22.99-33.77-41.72-33.77-41.72,0,0-33.77,18.73-33.77,41.72v74.93h-8.51v-125.46h85.71v125.46Z"/>
        <path class="cls-2" d="m1067.95,637.86h3.82l-28.86-55.8c-15.1-14.52-35.73-23.31-58.28-23.31-20.64,0-39.37,7.45-53.89,19.68l-30.77,59.43h5.54v13.56h-72.61v-13.56h9.55l59.81-115.6v-17.39h12.81l21.21-60.77v-1.34h.38l5.93-17.2h-2.29v-16.05h6.69v-3.05h-9.94v-17.39h15.1c11.27-88.28,16.62-240.01,18.35-288.54h-.38v-3.82h.58l.19-9.37h-2.67v-15.67h6.88v-19.3h8.02v-27.32h2.68V0h3.06v25.03h2.86v27.32h7.83v19.3h7.07v15.67h-2.86l.38,9.37h.38v3.82h-.19c.96,27.33,2.86,87.71,6.69,151.15l.19.57-.19.19c2.29,38.41,5.15,77.59,8.6,111.22.95,9.17,2.1,17.39,2.86,25.41h15.29v17.39h-9.94v3.05h6.5v16.05h-1.53l5.93,17.2,21.59,62.11h6.68v16.24l1.34-.57,60.76,117.33h11.47v13.56h-72.61v-13.56Zm-147.52-137.01h0l19.3-11.27-11.28-10.89-8.03,22.17Zm10.9-31.15h0l17.19-11.27-9.74-9.75-7.45,21.02Zm10.13-28.66h0l12.61-8.03-7.64-6.49-4.97,14.52Zm87.14-15.48h-.57l-7.26,6.88,12.81,7.45-4.97-14.33Zm8.21,23.32h0l-8.98,9.17,15.48,9.74-6.5-18.91Zm10.13,29.05h0l-12.23,11.65,20.45,11.85-8.22-23.5Zm-61.73-390.59h0l-4.59,3.82-4.58-3.82h9.17Zm-5.92,5.16h0l-5.35,4.2.38-8.6,4.97,4.4Zm-2.86,4.2h0l3.82-3.25,3.44,3.25h-7.26Zm5.35-4.4h0l3.82-3.06v6.5l-3.82-3.44Zm3.82,8.6h0l-5.74,5.93-5.92-6.31h11.66v.38Zm-7.26,7.45h0l-4.78,5.16.19-10.32,4.59,5.16Zm-4.78,7.64h0l6.11-6.31,5.54,6.31h-11.66Zm7.45-7.83h0l4.59-4.78v9.74l-4.59-4.97Zm4.59,11.66h0l-6.12,6.11-5.54-6.31h11.66v.19Zm-7.84,7.45h0l-4.97,5.35.38-10.89,4.59,5.54Zm-5.16,8.03h0l6.69-6.5,5.54,6.69h-12.23v-.19Zm8.02-8.03h0l4.97-4.97v10.7l-4.97-5.73Zm4.97,12.23h0l-6.31,6.11-5.93-6.5h12.23v.38Zm-8.03,7.64h0l-5.54,5.35v-1.14l.38-9.94,5.16,5.74Zm-5.16,7.45h0l6.5-6.12,5.54,6.12h-12.04Zm7.84-7.45h0l5.35-4.97v10.7l-5.35-5.73Zm5.35,12.42h0l-6.31,5.54-6.88-6.88h12.8l.39.19v1.15Zm-8.03,6.88h0l-6.31,5.35.57-11.27,5.73,5.92Zm-6.11,7.64h0l7.45-6.3,6.12,6.3h-13.57Zm8.79-7.64h0l5.35-4.39v9.56l-5.35-5.16Zm8.99-7.45h0l.57-.76h12.8l-6.49,6.88-6.88-5.93v-.19Zm-17.39-.76h0v.19-.19Zm13.76,19.68h0l-7.26,6.11-6.31-6.3h13.57v.19Zm-8.79,7.45h0l-6.31,5.35.38-11.27,5.93,5.93Zm-6.69,7.83h0l8.03-6.5,6.5,6.88h-14.53v-.38Zm9.55-7.83h0l5.54-4.97v10.89l-5.54-5.92Zm5.35,12.04h0l-7.26,6.3-6.5-6.69h13.76v.38Zm-8.79,7.64h0l-6.69,5.92.38-12.23,6.31,6.31Zm-6.12,7.64h0l7.45-6.3,6.31,6.3h-13.76Zm9.17-7.64h0l5.73-5.16v6.11l-.19,3.06v1.91l-5.54-5.92Zm-8.79-8.02h0l-.57,1.72.19-1.72h.38Zm13.76,19.3h0l-6.88,6.12-6.12-6.12h12.99Zm-8.6,7.64h0l-7.26,6.5.57-12.99,6.69,6.5Zm-5.92,8.22h0l7.45-6.88,7.07,6.88h-14.52Zm9.17-8.41h0l5.93-5.16-.19,3.25v4.97l-.19,2.29-5.54-5.35Zm4.21,12.04h0l-6.69,5.54-5.54-5.54h12.23Zm-8.6,7.46h0l-7.27,5.92.96-12.61,6.31,6.69Zm-6.11,8.21h0l7.83-6.69,6.31,6.69h-14.14Zm9.93-8.21h0l5.92-5.36v2.49l-.38,8.6-5.54-5.73Zm5.35,11.85h0l-7.26,6.11-5.73-6.11h12.99Zm-9.17,7.64h0l-8.41,7.27.96-14.9,7.45,7.64Zm-5.54,8.03h0l7.26-6.11,6.11,6.11h-13.38Zm9.36-8.03h0l5.35-4.4v.77l-.19.95v4.97l-.19,3.05-4.97-5.35Zm3.63,11.65h0l-6.88,5.54-5.35-5.54h12.23Zm-8.8,7.46h0l-8.4,7.07,1.15-14.53,7.26,7.46Zm-5.92,8.22h0l7.65-6.5,6.5,6.5h-14.14Zm9.75-8.22h0l6.11-5.35-.19,2.1v1.53l-.38,7.26-5.54-5.54Zm3.63,11.85h0l-7.26,5.92-5.73-5.92h12.99Zm-9.36,7.45h0l-7.84,6.31,1.15-13.57,6.69,7.26Zm-6.31,8.22h0l8.21-6.31,5.74,6.31h-13.95Zm9.94-8.02h0l7.26-5.54c-.19,4.01-.38,8.41-.77,12.42l-6.5-6.88Zm5.16,11.85h0l-7.26,5.53-5.54-5.53h12.81Zm-9.17,7.26h0l-8.98,7.07c.38-4.59.76-9.56,1.15-14.33h.76l7.07,7.26Zm-6.31,8.21h0l7.83-6.5,6.12,6.5h-13.95Zm9.94-8.02h0l6.49-5.16c-.19,3.83-.38,7.64-.76,11.28l-5.73-6.11Zm2.48,11.65h0l-6.31,5.16-4.78-5.16h11.09Zm-8.41,6.88h0l-8.41,6.5c.57-4.2.96-8.78,1.14-13.37h.96l6.31,6.88Zm-7.26,8.99h0l8.79-7.26,7.08,7.26h-15.86Zm10.89-8.8h0l7.64-6.11c-.38,4.2-.57,8.79-1.14,12.8l-6.5-6.69Zm5.16,12.43h0l-8.41,6.5-5.93-6.5h14.33Zm-10.32,8.02h0l-8.22,6.88h-.58c.38-4.77.77-9.74,1.34-14.71l7.46,7.83Zm-4.4,6.88h0l6.12-4.96,4.58,4.96h-10.7Zm8.22-6.5h0l7.26-5.74c-.57,4.02-.95,8.23-1.34,11.85l-5.93-6.11Zm4.97,10.13h0l-9.37,7.64-7.07-7.64h16.44Zm-11.28,9.17h0l-8.6,6.88c.38-4.59,1.14-9.37,1.53-14.14l7.07,7.26Zm-8.22,9.55h0l9.74-7.64,6.5,6.88v.19l-.19.57h-16.05Zm11.85-9.36h0l7.45-5.93c-.76,4.21-1.34,8.22-2.11,11.66l-5.35-5.73Zm21.79-292.37h0l4.77,3.82,4.4-3.82h-9.17Zm6.11,5.16h0l4.58,3.63-.19-7.65-4.39,4.02Zm2.48,4.2h0l-3.63-3.25-3.62,3.25h7.26Zm-5.16-4.4h0l-4.2-3.63v7.46l4.2-3.82Zm-4.2,8.22h0l6.3,6.31,5.36-6.11v-.19h-11.65Zm7.64,7.83h0l4.2,4.59-.19-8.98-4.01,4.39Zm4.39,7.26h0l-5.53-5.93-5.93,6.31h11.46v-.38Zm-7.07-7.45h0l-4.96-5.16v10.7l4.96-5.54Zm-4.58,11.46h0l6.31,6.31,5.16-6.31h-11.47Zm7.64,7.64h0l4.59,4.59-.19-9.55-4.39,4.97Zm4.77,7.26h0l-5.92-5.73-5.54,6.69h11.46v-.96Zm-7.45-7.26h0l-5.34-5.35v12.04l5.34-6.69Zm-5.34,11.85h0l6.88,6.5,5.92-6.5h-12.79Zm8.41,8.03h0l4.96,4.59-.38-9.75-4.58,5.16Zm4.96,7.45h0l-6.3-6.12-5.35,6.12h11.65Zm-7.83-7.45h0l-5.53-5.35v11.66l5.53-6.31Zm2.87,19.3h0l5.73,4.97-.39-10.51-5.34,5.54Zm5.93,7.45h0l-7.26-6.11-6.31,6.3h13.57v-.19Zm-8.8-7.45h0l-5.53-4.78v10.32l5.53-5.54Zm-5.16,11.28h0l7.45,6.3,6.31-6.3h-13.76Zm8.98,7.64h0l5.73,4.97-.57-10.13-5.16,5.16Zm5.73,7.45h0l-7.07-6.12-6.5,6.88h13.76l-.19-.76Zm-8.6-7.45h0l-6.31-5.35v11.66l6.31-6.3Zm-6.12,11.66h0l7.84,6.69,6.69-6.69h-14.52Zm9.55,8.02h0l6.12,5.35-.58-11.08-5.54,5.73Zm6.12,7.64h0l-7.64-6.3-6.31,6.3h13.95Zm-9.17-7.64h0l-6.5-5.73v6.69l.19,3.06v2.29l6.31-6.31Zm-4.97,11.27h0l6.5,6.12,6.11-6.12h-12.61Zm8.4,7.64h0l6.69,5.92-.58-11.85-6.11,5.92Zm6.11,8.22h0l-7.45-6.88-7.07,6.88h14.52Zm-9.36-8.41h0l-6.5-5.73.19,3.82v4.97l.19,2.87,6.11-5.93Zm-4.2,12.04h0l6.69,5.54,5.54-5.54h-12.23Zm8.6,7.46h0l6.5,5.35-.57-11.47-5.93,6.12Zm6.11,8.21h0l-7.64-6.69-6.69,6.69h14.33Zm-9.74-8.21h0l-6.88-5.73.38,2.87.19,9.17,6.31-6.3Zm-5.35,11.85h0l6.88,6.11,6.11-6.11h-12.99Zm8.98,7.64h0l7.83,6.88-.96-13.76-6.88,6.87Zm5.54,8.03h0l-7.07-6.11-6.11,6.11h13.19Zm-9.17-8.03h0l-6.12-4.97v1.34l.19.95v4.97l.19,3.63,5.73-5.92Zm-3.63,11.65h0l6.5,5.54,5.73-5.54h-12.23Zm8.6,7.46h0l7.84,6.5-.77-13.57-7.07,7.07Zm6.12,8.22h0l-7.64-6.5-6.69,6.5h14.33Zm-9.74-8.22h0l-6.69-5.73.19,2.49v1.53l.19,8.03,6.3-6.31Zm-3.82,11.85h0l7.45,5.92,5.35-5.92h-12.81Zm9.56,7.45h0l6.88,5.92-.96-12.42-5.92,6.5Zm5.92,8.22h0l-7.83-6.31-6.11,6.31h13.94Zm-9.93-8.02h0l-7.64-6.31c.19,4.78.57,9.36.77,13.76l6.88-7.45Zm-4.97,11.85h0l7.26,5.53,5.54-5.53h-12.81Zm9.37,7.26h0l8.41,6.69c-.57-4.78-.95-9.18-1.14-13.95h-.19l-7.07,7.26Zm6.31,8.21h0l-8.22-6.5-5.92,6.5h14.14Zm-10.13-8.02h0l-7.07-5.74c.19,4.21.57,8.41.77,12.43l6.31-6.69Zm-2.29,11.65h0l6.31,5.16,4.77-5.16h-11.08Zm8.41,6.88h0l7.64,6.12c-.38-4.39-.95-8.6-1.14-12.99h-.19l-6.31,6.88Zm7.26,8.99h0l-9.17-7.26-6.69,7.26h15.86Zm-11.09-8.8h0l-8.22-6.88c.19,4.97.76,9.75,1.15,14.33l7.06-7.45Zm-4.96,12.43h0l8.02,6.5,6.31-6.5h-14.33Zm10.13,8.02h0l8.41,6.88c-.57-4.58-.95-9.36-1.53-13.95l-6.88,7.07Zm4.2,6.88h0l-5.73-4.96-4.78,4.96h10.51Zm-7.83-6.5h0l-7.83-6.3c.38,4.4.76,8.79,1.52,12.8l6.31-6.5Zm-5.16,10.13h0l9.36,7.64,7.07-7.64h-16.43Zm11.47,9.17h0l7.83,6.31c-.38-4.21-1.15-8.6-1.53-13l-6.3,6.69Zm7.83,9.55h0l-9.56-7.64-7.07,7.45.19.19h16.44Zm-11.66-9.36h0l-7.83-6.5c.57,4.78,1.34,8.98,2.1,12.61l5.73-6.11Zm-63.06,63.06h21.41l-8.98-7.64-12.42,7.64Zm21.78-17.2h0l-9.36,5.93-6.69-5.93h16.05Zm-7.07,8.03h0l12.42-8.03h1.72l-2.29,17.2h-.76l-11.09-9.17Zm59.82.76h0l-8.99,8.4h23.51l-14.52-8.4Zm-9.75-8.79h0l9.56,5.54,5.92-5.54h-15.48Zm7.26,7.45h0l-13.38-7.45,2.87,17.2,10.5-9.75Zm-82.36,39.94h29.62l-11.85-11.66-17.77,11.66Zm33.25-26.56h0l-15.48,10.13-10.12-10.13h25.6Zm-12.42,12.99h0l14.9-9.55-3.44,21.21-11.46-11.66Zm70.32,1.52h0l-12.04,12.04h31.71l-19.67-12.04Zm-15.68-14.52h0l15.68,9.75,9.74-9.75h-25.42Zm12.8,12.61h0l-15.67-9.74,3.25,20.45.19,1.53,12.23-12.24Zm9.75,33.45h0l-12.61,12.42h33.06l-20.44-12.42Zm-18.35-15.86h0l18.16,10.89,11.27-10.89h-29.43Zm14.9,14.14h0l-17-10.32,3.63,23.12,13.38-12.8Zm-105.86,14.14h33.44l-12.99-12.42-20.45,12.42Zm38.8-28.28h0l-17.97,10.89-11.46-10.89h29.43Zm-14.91,14.14h0l18.34-10.9-3.82,24.65-14.52-13.76Zm75.67,50.64h0v5.92c1.34.57,2.68,1.15,3.83,1.53l-3.83-7.45Zm-1.52,5.35h0v-8.41l-2.48-4.78v12.23l2.48.95Zm-4.21-1.34h0v-14.9l-1.53-3.06h-.95v17l2.48.96Zm-4.2-1.53h0v-16.43h-2.3v15.86l2.3.57Zm-4.02-.76h0v-15.67h-2.48v14.9l2.48.76Zm-4.2-.95h0v-14.71h-2.49v14.33l2.49.38Zm-4.02-.76h0v-13.95h-2.48v13.57l2.48.38Zm-4.01-.57h0v-13.38h-2.49v13.19l2.49.19Zm-4.02-.19h0v-13.19h-2.48v13l2.48.19Zm-4.2-.19h0v-13h-2.48v13h2.48Zm-4.2,0h0v-13h-2.3v13h2.3Zm-4.02,0h0v-13h-2.48v13.19l2.48-.19Zm-4.2.38h0v-13.38h-2.49v13.57l2.49-.19Zm-4.02.38h0v-13.76h-2.48v13.95l2.48-.19Zm-4.01.76h0v-14.52h-2.49v14.9l2.49-.38Zm-4.02.58h0v-15.1h-2.48v15.86l2.48-.76Zm-4.2,1.14h0v-16.24h-1.72l-.76,1.34v15.67l2.48-.76Zm-4.2,1.15h0v-12.81l-2.3,4.78v8.79l2.3-.76Zm123.63,88.66h0l9.93-12.61-21.4-9.56,11.47,22.17Zm13.57-16.82h0l9.74-12.04h-36.5l26.75,12.04Zm13.38-8.41h0l-8.4,10.7,18.15,7.83-9.74-18.53Zm-12.04,14.9h0l-11.65,14.71h38.98l-1.72-3.44-25.61-11.27Zm-32.86-24.27h0l11.08-7.83-18.34-6.5,7.26,14.33Zm15.48-10.7h0l10.32-7.07h-29.43l19.11,7.07Zm15.86-6.31h0l-11.28,7.84,18.73,6.69-7.45-14.53Zm-15.86,10.9h0l-11.66,8.21h34.2l-22.55-8.21Zm-22.74-15.29h32.29l-21.21-7.64-11.08,7.64Zm-4.59-1.52h0l11.08-7.65-18.53-6.68,7.45,14.33Zm15.67-10.9h0l10.89-7.45h-31.72l20.83,7.45Zm15.47-5.93h0l-10.88,7.64,18.34,6.69-7.45-14.33Zm-42.42-4.97h39.94l-3.64-7.07h-39.93l3.63,7.07Zm-144.08,79.69h0l-10.13-12.99,21.98-9.56-11.85,22.55Zm-13.76-17.2h0l-9.55-12.04h36.5l-26.95,12.04Zm-12.99-8.21h0l8.03,10.51-17.39,7.64,9.36-18.15Zm11.66,14.71h0l11.85,14.71h-38.6l1.72-3.62,25.04-11.09Zm30.38-18.53h0l2.87-5.54-11.28-8.02,18.73-6.69-7.45,14.71-2.87,5.54Zm-12.99-16.44h0l-10.13-7.07h29.43l-19.3,7.07Zm-15.29-6.11h0l10.9,7.65-18.35,6.69,7.45-14.33Zm15.29,10.7h0l11.85,8.21h-34.4l22.55-8.21Zm22.94-15.29h-32.3l21.21-7.64,11.09,7.64Zm153.25-34.01h-39.93l-8.22-16.05h39.94l8.21,16.05Zm-148.67,32.68h0l-11.27-7.84,19.1-6.68-7.84,14.52Zm-15.67-11.09h0l-10.89-7.45h31.53l-20.64,7.45Zm-15.47-5.74h0l10.89,7.45-18.15,6.5,7.26-13.95Zm42.8-5.16h-40.13l3.63-7.07h40.13l-3.63,7.07Zm5.35-10.7h-39.94l8.41-16.05h39.94l-8.41,16.05Zm35.54-107.39h25.03l10.51,68.79h-46.44l5.35-35.16,5.54-33.63Zm24.27-3.64h-23.88l1.14-6.88h21.59l1.15,6.88Zm-49.11,113.7h0v-6.3l-4.2,8.03c1.33-.77,2.67-1.15,4.2-1.73h0Zm83.51,18.73h0l-2.1-4.02c-13.95-8.22-30.01-12.8-47.39-12.8-15.86,0-30.96,4.01-43.95,11.08l-1.91,3.83c13.56-7.65,29.23-12.24,45.86-12.24,18.34,0,34.97,5.16,49.49,14.14h0Z"/>
        <path class="cls-2" d="m768.97,207.53h-5.1v-36.33l-.57.56-.85-.56v11.63l-1.13-1.42-1.13,1.99-1.14,1.99-1.42-1.99-1.14-1.99-1.42,1.99-1.13,1.99-1.42-1.99-1.14-1.99-1.42,1.99-1.14,1.99-1.13-1.99-1.42-1.99-1.14,1.99-1.42,1.99-1.13-1.99-1.42-1.99-1.13,1.99-1.14,1.99-1.43-1.99-1.13-1.99-1.42,1.99-1.14,1.99-1.42-1.99-1.13-1.99-1.42,1.99-1.13,1.99-1.15-1.99-1.42-1.99-1.13,1.99-1.42,1.99-1.13-1.99-1.42-1.99-1.13,1.99-1.13,1.99-1.43-1.99-1.14-1.99-1.41,1.99-1.13,1.99-1.42-1.99-1.13-1.99-1.42,1.99-1.13,1.99-1.13-1.99-1.42-1.99-1.13,1.99-1.42,1.99-1.13-1.99-1.42-1.99-1.13,1.99-1.14,1.99-1.42-1.99-1.13-1.99-1.43,1.99-1.13,1.99-1.42-1.99-1.14-1.99-1.42,1.99-1.13,1.99-1.13-1.99-1.42-1.99-1.14,1.99-1.42,1.99-1.13-1.99-1.42-1.99-1.14,1.99-1.13,1.99-1.42-1.99-1.13-1.99-1.15,1.7v-11.92l-.85.56-.86-.56v36.33h-4.82v-14.19l-.56.85-.85-.85v117.78h103.59v-117.78l-.85.85-.57-.85v14.19Zm3.13,443.9h-109.85v-65.55h109.85v65.55Zm-10.79-70.67v-61.3h-4.54v61.3h-3.41v-61.3h-4.83v61.3h-3.41v-61.3h-4.54v61.3h-3.69v-61.3h-4.54v61.3h-3.68v-61.3h-4.55v61.3h-3.69v-61.3h-4.55v61.3h-3.69v-61.3h-4.54v61.3h-3.41v-61.3h-4.82v61.3h-3.4v-61.3h-4.55v61.3h-3.69v-61.3h-4.54v61.3h-3.69v-61.3h-4.54v61.3h-3.69v-126.87h93.66v126.87h-3.69Zm-4.54-64.72h4.54v-59.31h-4.54v59.31Zm-81.74,0h4.54v-59.31h-4.54v59.31Zm8.23,0h4.54v-59.31h-4.54v59.31Zm8.24,0h4.55v-59.31h-4.55v59.31Zm7.95,0h4.82v-59.31h-4.82v59.31Zm8.23,0h4.54v-59.31h-4.54v59.31Zm8.23,0h4.55v-59.31h-4.55v59.31Zm8.23,0h4.55v-59.31h-4.55v59.31Zm8.23,0h4.54v-59.31h-4.54v59.31Zm8.24,0h4.54v-59.31h-4.54v59.31Zm7.94,0h4.83v-59.31h-4.83v59.31Zm-71.23-347.96l-3.41-2.85-3.12,2.85,3.12,3.4,3.41-3.4Zm89.11,0l-3.12-2.85-3.12,2.85,3.12,3.4,3.12-3.4Zm6.25,22.13l-3.13-2.84-2.83,2.84,2.83,3.41,3.13-3.41Zm-102.18,0l-2.83-2.84-3.12,2.84,3.12,3.41,2.83-3.41Zm2.55-24.7v-1.99h1.7v1.99l-.85-.85-.86.85Zm89.41,0v-1.99h1.42v1.99l-.57-.85-.85.85Zm-95.64,22.14v-2.26h1.41v1.99l-.56-.57-.85.85Zm102.17-.28v-1.99h1.42v2.26l-.85-.85-.57.57Zm-72.65-38.31l-13.63,33.77.28.28.28.57,2.56-3.69,1.98,3.12.57.57.57-.57,1.98-3.12,2.56,3.97.56-.85,2-3.4,1.7,3.4.85.85,2.27-3.97,2.27,3.12.29.57.57-.57,1.99-3.12,2,3.12.56.57.57-.57,1.99-3.12,1.98,3.12.57.85.56-.85,1.98-3.4,1.72,3.4.85.85.29-.85,1.98-3.12,2.27,3.12.28.57,2.55-3.69,2,3.12.57.57.57-.57,1.99-3.12,2.55,3.97.57-.85,1.99-3.4,1.98,3.4.58.85,2.27-3.97,2.27,3.12.28.57,2.55-3.69,1.98,3.12.57.57.57-.57,1.98-3.12,2.55,3.69.28-.57.28-.28-13.62-33.77h-44.56Zm4.54,22.98l-2.83-4.83-.85-1.13-3.7,5.96,1.13.57,2.56-4.25,2.27,4.25,1.42-.57Zm21.29-11.35l-2.84-5.11-.57-1.13-3.7,6.25,1.13.57,2.57-4.27,2.27,4.27,1.14-.57Zm14.18,0l-3.12-5.11-.57-1.13-3.69,6.25,1.14.57,2.55-4.27,2.27,4.27,1.42-.57Zm7.1,11.35l-3.12-4.83-.57-1.13-3.41,5.96.85.57,2.56-4.25,2.55,4.25,1.14-.57Zm-14.47,0l-2.56-4.83-.85-1.13-3.69,5.96,1.13.57,2.56-4.25,2.56,4.25.85-.57Zm-14.2,0l-2.55-4.83-.85-1.13-3.69,5.96,1.13.57,2.56-4.25,2.27,4.25,1.13-.57Zm-5.38-11.35l-2.56-5.11-.85-1.13-3.69,6.25,1.13.57,2.55-4.27,2.28,4.27,1.14-.57Zm-21.86,29.81h-10.22v13.91h10.22v-13.91Zm70.95,0h-9.93v13.91h9.93v-13.91Zm-13.9,0h-10.51v13.91h10.51v-13.91Zm-14.19,0h-10.51v13.91h10.51v-13.91Zm-14.21,0h-10.5v13.91h10.5v-13.91Zm-14.47,0h-10.22v13.91h10.22v-13.91Zm21-127.44h-8.23v-5.96h8.23v5.96Zm-26.67,45.7l-3.13-3.12-3.12,3.12,3.12,3.12,3.13-3.12Zm51.36,0l-3.12-3.12-3.12,3.12,3.12,3.12,3.12-3.12Zm-4.82,12.2l-1.13,2.27-1.14,2.27h-.28l-.86-2.27-1.42-2.27-1.42,2.27-.85,2.27h0l-1.13-2.27-1.41-2.27-1.13,2.27-1.13,2.27h0l-1.14-2.27-1.13-2.27-1.43,2.27-1.13,2.27h0l-1.13-2.27-1.13-2.27-1.42,2.27-.86,2.27h-.28l-1.13-2.27-1.13-2.27-1.43,2.27-.85,2.27h-.29l-1.13-2.27-1.13-2.27-1.41,2.27-.86,2.27h-.28l-1.14-2.27-1.13-2.27-1.42,2.27-.86,2.27h-.27l-1.15-2.27-1.42-2.27-1.13,2.27-1.13,2.27h0l-.85-2.27-1.42-2.27-1.42,2.27-.85,2.27h-.28l-.85-2.27-1.43-2.27-.85,1.42v-9.93l-.85.57-.85-.57v13.06h0v21.86h53.07v-21.86h0v-13.06l-.85.57-.85-.57v9.93l-.85-1.42Zm-23.84-67.26c0,.85-.28,1.7-.28,2.56h.28v-2.56h0Zm-1.13,10.22c-3.13,19.59-12.22,36.89-18.45,55.34v-.28l2.27,3.97.28.56,2.27-4.54,2.27,3.97.3.56.27-.56,2.28-3.97,2.27,4.54.28-.56,2.27-3.97,2.26,4.54.29-.56,2.28-3.97,1.99,3.97.28.56.28-.56,2.27-3.97,2.26,4.54.28-.56,2.28-3.97,2.27,4.54.28-.56,2.27-3.97,1.7,3.97.56.56.28-.56,1.99-3.97c.56-.85-17.31-47.11-18.44-55.06h-1.7Zm4.54,26.67l-2.84-4.54-.57-1.42-3.7,5.95,1.13.85,2.57-4.25,2.27,4.25,1.14-.85Zm-10.79,24.41l-2.56-5.11-.85-1.13-3.7,6.25,1.13.57,2.57-4.55,2.26,4.55,1.14-.57Zm10.79,0l-2.84-5.11-.57-1.13-3.7,6.25,1.13.57,2.57-4.55,2.27,4.55,1.14-.57Zm10.78,0l-2.83-5.11-.85-1.13-3.7,6.25,1.42.57,2.28-4.55,2.55,4.55,1.13-.57Zm-17.03-11.65l-2.84-5.11-.85-1.13-3.41,6.24,1.13.57,2.27-4.54,2.55,4.54,1.14-.57Zm12.5,0l-2.85-5.11-.57-1.13-3.69,6.24.86.57,2.83-4.54,2.27,4.54,1.15-.57Zm-36.34,2v-2h1.7v2l-.85-.85-.85.85Zm51.38,0v-2h1.7v2l-.85-.85-.85.85Zm-40.59,24.41h-7.95v14.19h7.95v-14.19Zm39.45,0h-7.95v14.19h7.95v-14.19Zm-9.93,0h-7.95v14.19h7.95v-14.19Zm-9.65,0h-7.95v14.19h7.95v-14.19Zm-9.93,0h-7.95v14.19h7.95v-14.19Zm44.56,317.03h4.55v-64.71h-4.55v64.71Zm-82.02,0h4.54v-64.71h-4.54v64.71Zm8.23,0h4.55v-64.71h-4.55v64.71Zm8.24,0h4.54v-64.71h-4.54v64.71Zm8.23,0h4.54v-64.71h-4.54v64.71Zm8.23,0h4.54v-64.71h-4.54v64.71Zm7.93,0h4.83v-64.71h-4.83v64.71Zm8.24,0h4.55v-64.71h-4.55v64.71Zm8.24,0h4.54v-64.71h-4.54v64.71Zm8.23,0h4.54v-64.71h-4.54v64.71Zm8.23,0h4.54v-64.71h-4.54v64.71Zm8.23-68.13h4.55v-59.6h-4.55v59.6Zm-82.02,0h4.54v-59.6h-4.54v59.6Zm8.23,0h4.55v-59.6h-4.55v59.6Zm8.24,0h4.54v-59.6h-4.54v59.6Zm8.23,0h4.54v-59.6h-4.54v59.6Zm8.23,0h4.54v-59.6h-4.54v59.6Zm7.93,0h4.83v-59.6h-4.83v59.6Zm8.24,0h4.55v-59.6h-4.55v59.6Zm8.24,0h4.54v-59.6h-4.54v59.6Zm8.23,0h4.54v-59.6h-4.54v59.6Zm8.23,0h4.54v-59.6h-4.54v59.6Zm16.18-62.15h-93.38v132.82h93.38v-132.82Zm-81.46-14.2h-5.39v5.4h5.39v-5.4Zm74.65,0h-5.39v5.4h5.39v-5.4Zm-6.81,0h-5.4v5.4h5.4v-5.4Zm-6.81,0h-5.39v5.4h5.39v-5.4Zm-6.81,0h-5.39v5.4h5.39v-5.4Zm-6.8,0h-5.4v5.4h5.4v-5.4Zm-6.82,0h-5.38v5.4h5.38v-5.4Zm-6.8,0h-5.4v5.4h5.4v-5.4Zm-6.82,0h-5.4v5.4h5.4v-5.4Zm-6.82,0h-5.11v5.4h5.11v-5.4Zm-6.52,0h-5.4v5.4h5.4v-5.4Zm-6.81,0h-5.39v5.4h5.39v-5.4Zm28.1-39.74c-.57,0-1.13-.27-1.7-.27l-2,1.99c-.28,1.13-.28,1.98-.85,2.55-.28.28-.85.28-1.42,0q-.57-.85-1.41-1.7c-.57-.28-.57-.85,0-1.42.56-.58,1.41-.87,2.27-.87l2.27-1.98c-.57-.29-.57-1.14-.57-1.7v-.86l-20.44-21.85v-.57h.57c0-.28.28-.28.28,0l21.57,20.15c.3-.28.86-.28,1.43-.28s1.42.28,1.99.57l3.4-3.12c-.28,0-.57-.28-.57-.58-.57-.28-.57-1.14,0-1.42.57-.57,1.98-.86,3.4-.86l.57-.56v-1.42h2v1.7h-1.13l-.87.86c0,1.42,0,2.84-.57,3.41-.56.29-1.42.29-1.7,0l-.29-.28-3.4,3.41c.28.56.57,1.13.57,1.7s-.29.85-.29,1.13c.85,1.42,2.55,2.55,4.25,3.12,0,0,.29,0,.29.29s0,.57-.29.57c-.57,0-.57.28-.57.56-.28,0-.28.28-.28.57s-.29.57-.29.57c-.57,0-.85,0-.85.28-.28,0-.57.28-.57.57h-.28c-.29.28-.29,0-.57,0-.56-1.99-1.7-3.12-3.4-4.27h-.57Zm-.85-32.92h-1.99l-.28-3.68h-.28,2.56v3.68Zm-3.7.29c-.85.28-1.7.28-2.55.57l-.85-3.69h0c.85-.29,1.98-.57,3.12-.57h0l.28,3.69Zm-3.97.85c-.57.29-1.13.57-1.98.57l-1.43-3.41c.86-.29,1.71-.57,2.56-.85h0l.85,3.68Zm-3.12,1.15c-.86.57-1.71.85-2.56,1.13l-1.98-3.13c.85-.57,1.98-1.13,3.12-1.42l1.43,3.41Zm-3.98,1.99c-.56.56-1.13.85-1.7,1.13l-2.27-3.12c.85-.28,1.42-.86,2.27-1.42l1.7,3.41Zm-2.83,1.98c-.57.57-.85.85-1.42,1.14l.57.56c.28-.28.85-.85,1.13-1.13h.28l.29-.28c.85-.56,1.42-1.13,2.27-1.7h.28l5.96,10.51c-.56.28-1.13.56-1.42.85l.57.57c2.56-2.27,5.95-3.41,9.93-3.41s7.94,1.71,10.78,4.25h1.14c-.85-.85-1.7-1.7-2.85-2.26l5.68-10.51h.28c1.14.86,1.98,1.42,3.12,2.27l.28.28h0c.57.56,1.13,1.13,1.99,1.69.57.86,1.42,1.71,2.27,2.56v.28l.28.28c.56.86,1.13,1.43,1.42,2.28l-10.22,5.95c-.57-.85-1.42-1.98-1.99-2.84v1.42c2.27,2.56,3.97,6.53,3.97,10.51,0,4.55-1.99,8.51-4.82,11.63-3.13,2.84-7.1,4.84-11.36,4.84-4.55,0-8.52-2-11.63-4.84-3.13-3.12-4.83-7.09-4.83-11.63,0-3.69,1.13-7.1,3.4-9.65l-.57-.57c-.28.28-.56.85-.84,1.13l-10.23-5.95c.57-1.13,1.42-2.28,2.28-3.13v-.29h0c.28,0,.28-.28.57-.56l-.57-.57c-.28.29-.28.57-.57.85l-3.12-2.55c.57-.29.85-.57,1.14-1.13v-1.42l.85-.28c.28-.57.85-.57,1.43-.57.57-.56,1.13-.84,1.99-1.42h0l2.27,2.84Zm-4.83,5.1h-.28l-2.56-2.27h0l2.84,1.99v.29Zm-.57.57c-.57.58-1.13,1.42-1.42,2.27l-1.7-1.13-1.7-.86h0c.57-.85,1.13-1.98,1.7-2.55h.28l2.83,2.27Zm-2.27,3.41c-.28.56-.57,1.13-.85,1.98l-3.69-1.7c.28-.57.85-1.42,1.13-1.99h0l3.4,1.7Zm-1.7,3.4c-.28.86-.57,1.7-.85,2.56l-3.41-1.13h-.28c.28-1.14.86-1.99,1.13-3.12h0l3.4,1.69Zm-.85,3.12h0l-3.41-.85h0l3.41.85Zm-.29.86c-.28.58-.28,1.14-.57,1.99l-3.68-.57c.28-.85.28-1.71.57-2.56v.28l3.68.86Zm-.57,2.57h0l-3.4-.28h0v-.29l3.4.57Zm0,.85c-.28.84-.28,1.7-.28,2.55h-3.69c0-1.13,0-1.98.29-3.12l3.68.57Zm-.28,4.25c0,.57,0,1.42.28,1.99l-3.97.28h0v-2.27h3.69Zm.28,3.4c.28.86.28,1.99.57,2.84l-3.68.85h0c-.28-1.13-.57-1.99-.57-3.12h0l3.68-.58Zm.85,3.41h0l-3.41.85h0l3.41-.85Zm0,.85c.28.57.57,1.14.85,1.7l-3.68,1.42v.29c-.28-.85-.57-1.71-.86-2.55h.28l3.41-.86Zm1.13,2.56h0l-3.12,1.42h0v-.28l3.12-1.13Zm.28.56c.28.85.57,1.7,1.13,2.56l-3.4,1.99h0c-.57-.86-.85-1.99-1.42-2.85l.29-.29,3.41-1.42Zm1.98,3.98c.28.57.56,1.13,1.13,1.42l-3.4,2.27h0c-.29-.57-.85-1.14-1.13-1.99h0l3.4-1.7Zm1.98,2.55c.58.85,1.14,1.42,1.71,2.27l-2.56,2.83h-.28c-.57-.85-1.42-1.7-1.99-2.55h0l3.12-2.56Zm2.85,3.4c.56.28.85.86,1.42,1.13l-2.27,3.13h-.28c-.57-.58-1.13-1.15-1.71-1.71h0l2.85-2.56Zm2.55,2.27c.85.57,1.42.85,2.27,1.42l-1.7,3.41h-.28c-.85-.57-1.7-1.13-2.56-1.99h0l2.27-2.84Zm3.69,2.28c.56.28,1.13.56,1.7.85l-1.42,3.4c-.85-.28-1.71-.57-2.27-1.13h0l1.98-3.12Zm3.13,1.41c.85.28,1.71.57,2.55.85l-.85,3.69h0c-1.14-.29-2.27-.57-3.13-.85l1.43-3.69Zm3.12,1.13h0l-.57,3.12h-.28l.85-3.12Zm.85.29c.57,0,1.42.28,1.99.28l-.57,3.68h0c-.85,0-1.7-.28-2.27-.28h0l.85-3.68Zm2.55.56h.29l-.57,3.12h0l.28-3.12Zm.85,0c.85,0,2,.28,2.85.28v3.69c-1.14,0-2.27,0-3.41-.28h0l.57-3.69Zm4.26.28c.57,0,1.42,0,1.98-.28l.57,3.69v.28h-2.55v-3.69Zm3.68-.28c.85-.28,1.71-.28,2.56-.56l.85,3.68h0c-.85.28-1.99.28-3.12.57h0l-.29-3.69Zm3.41-.85h0l.85,3.12h-.28l-.56-3.12h0Zm.56-.28c.57,0,1.15-.28,2-.57l1.42,3.41v.28c-.86.28-1.42.57-2.27.57h0l-1.15-3.69Zm2.56-.85h.28l1.13,3.12h0l-1.42-3.12Zm.86-.28c.85-.28,1.7-.86,2.26-1.13l1.99,3.12v.28c-.85.28-1.99.85-2.84,1.41v-.28l-1.42-3.4Zm3.68-2c.57-.28,1.14-.57,1.7-1.13l2.27,3.13c-.57.56-1.42.85-1.99,1.42h0l-1.99-3.41Zm2.27-1.42h0l1.98,2.56h0l-1.98-2.56Zm.57-.57c.85-.57,1.41-1.13,1.99-1.7l2.84,2.56h0c-.85.85-1.7,1.71-2.56,2.27h0l-2.27-3.13Zm3.13-2.83c.56-.57.84-1.13,1.13-1.42l3.12,2.26c-.28.57-.85,1.14-1.42,1.7l-2.83-2.55Zm2.26-2.83c.57-.57,1.14-1.42,1.42-2.27l3.4,1.99c-.56,1.13-1.13,1.99-1.7,2.84h-.28l-2.84-2.55Zm2.27-3.41c.28-.57.56-1.14.85-1.71l3.7,1.42c-.57.85-.86,1.42-1.14,2.28h-.28l-3.12-1.99Zm1.42-3.12c.28-.86.85-1.7.85-2.56l3.7.86h.28c-.57,1.13-.85,2.26-1.13,3.12l-3.7-1.42Zm1.42-3.97c0-.56.29-1.42.29-1.98l3.97.56c-.28.57-.28,1.42-.57,2.27h0l-3.7-.85Zm.57-2.84h0l3.41.58h-.28l-3.13-.58Zm0-.86c.28-.85.28-1.69.28-2.55h3.7c0,1.13,0,1.99-.28,3.12l-3.69-.57Zm.28-4.25c0-.56,0-1.13-.28-1.7l3.98-.56h0v2.26h-3.7Zm-.28-2.55h0v-.29l3.41-.28h0v.28l-3.41.29Zm0-.85c-.28-.86-.28-1.7-.57-2.57l3.7-.86v-.28c.28,1.13.57,2.27.57,3.41h0l-3.69.28Zm-.85-3.98c-.28-.86-.56-1.42-.85-1.99l3.7-1.42h0c.28.85.57,1.42.57,2.27h0l-3.41,1.13Zm-1.13-2.84h0l3.12-1.42h0v.28l-3.12,1.14Zm-.28-.57c-.29-.84-.57-1.7-1.13-2.55l3.12-1.7h.28c.57.85.85,1.99,1.43,2.84l-3.7,1.42Zm-1.99-3.69c-.28-.57-.57-1.13-.85-1.7l2.84-2.28c.57.56,1.13,1.42,1.42,1.98l-3.4,2Zm-1.98-3.13c-.57-.56-1.14-1.13-1.7-1.99l2.83-2.55c.57.86,1.42,1.71,1.98,2.27v.28l-3.12,1.99Zm-2.84-2.83c-.28-.57-.86-1.13-1.43-1.42l2.28-3.11c.57.57,1.42,1.13,1.98,1.7l-2.84,2.84Zm-1.99-1.99h0l2.27-2.55h0l-1.99,2.55h-.28Zm-.57-.28c-.85-.57-1.42-1.14-2.27-1.7l1.99-3.14c.85.57,1.71,1.15,2.56,1.72l-2.28,3.12Zm-3.69-2.27c-.57-.57-1.13-.85-1.7-1.13l1.41-3.41h0c.86.28,1.42.56,2.27,1.13l-1.99,3.41Zm-3.12-1.7c-.85-.29-1.71-.58-2.56-.87l1.15-3.68h0c.85.28,1.99.85,2.83,1.13h0l-1.42,3.41Zm-3.98-1.14c-.57-.28-1.42-.28-1.98-.57l.57-3.69c.85.28,1.7.28,2.27.57h0l-.85,3.69Zm-2.56-.57h-.28l.57-3.41h0l-.29,3.41Zm-.84,0c-.86-.29-1.99-.29-2.84-.29v-3.68h3.4l-.56,3.97Zm-17.32,3.98c.85-.57,1.42-.86,2.28-1.42h.28l.85-.28h0c.85-.29,1.42-.57,2.27-.86h.28l.57-.28h.56c.85-.29,1.71-.29,2.56-.57h1.42v-.28h1.99v11.93c-2.56.28-5.11.85-7.1,1.98l-5.96-10.21Zm14.48-3.7c.85,0,1.7,0,2.55.28h1.42c.85.28,1.42.28,1.99.57h.28l.85.28h.28c.84.29,1.71.57,2.56.86v.28h.28c.28,0,.57.28.86.28h0l.28.28h0c.57,0,1.13.57,1.7.86l-5.96,10.21c-2.27-1.13-4.54-1.7-7.09-1.98v-11.93Zm24.69,15.33c.57.86.85,1.7,1.13,2.56h0l.28.28c0,.28,0,.57.29.57v.28h0c.28.85.57,1.99.85,3.12h0c.56,1.99.85,3.98.85,6.25h-11.92c0-2.55-.85-5.1-1.7-7.1l10.22-5.95Zm3.4,14.48c0,.85,0,1.7-.28,2.55h0c0,1.15-.28,2.28-.56,3.42h0c-.57,2.55-1.42,4.81-2.56,7.09l-10.5-5.95c1.14-2.27,1.7-4.55,1.98-7.1h11.92Zm-4.26,14.19c-.28.86-.85,1.7-1.42,2.56l-.57.56-.28.28h0c-.57.57-.84,1.14-1.13,1.42l-.57.29-.28.57h0l-.58.28h.29c-.86.56-1.43,1.13-1.99,1.7h-.28v.28l-.28.29c-.85.57-1.42.86-2.27,1.42l-5.96-10.5c.86-.57,1.99-1.42,2.85-2.27.85-.85,1.7-1.71,2.27-2.84l10.22,5.96h0Zm-10.79,10.51c-.56.28-1.41.85-2.26,1.13v-.28l-.57.28-.28.29-.57.28h0c-.57,0-1.15.28-1.72.56h-.28c-.28,0-.86.29-1.14.29h-.28c-1.14.28-1.99.57-3.12.57h-.57c-.85.29-1.42.29-2.27.29v-11.92c2.55-.28,4.82-.85,7.09-1.99l5.96,10.51Zm-14.47,3.41c-.85,0-1.72,0-2.56-.29h-1.42c-.85-.28-1.41-.28-1.99-.57h0c-1.41-.29-2.83-.85-4.25-1.42h-.28c-.85-.28-1.71-.85-2.56-1.13l5.96-10.51c2.27,1.14,4.54,1.7,7.1,1.99v11.92Zm-14.48-4.27c-.57-.28-1.42-.85-2.27-1.42h.28l-.28-.29-.85-.28v-.28h-.28c-.28-.57-.85-.86-1.42-1.42h.28l-.28-.28-.56-.57-.57-.29c-.56-.56-1.13-1.13-1.71-1.98h.29-.29l-.57-.86-.29-.28c-.28-.56-.57-1.13-.85-1.7h-.28l10.5-5.96c.84,1.13,1.42,1.99,2.55,2.84.86.85,1.71,1.7,2.84,2.55l-6.25,10.22h0Zm-10.22-10.78c-.57-.86-.86-1.7-1.14-2.83h-.28c-.28-.86-.57-1.99-.86-2.84h0c-.28-.57-.28-.85-.28-1.42h0c-.57-1.99-.85-3.98-.85-5.97h11.92c0,2.55.85,4.83,1.98,7.1l-10.5,5.95Zm-3.41-14.47c0-.84,0-1.99.29-2.83h0v-1.42h0c.28-.57.28-1.42.57-1.99h0c0-.57,0-.86.28-1.13v-.28h0c.29-.86.57-1.7.86-2.27h0l.28-.56v-.28c0-.29.28-.29.28-.57h0c.28-.56.57-1.13.86-1.7l10.5,5.95c-1.13,2.28-1.98,4.55-1.98,7.1h-11.92Zm67.27-38.03h-38.31c21.01,0,38.31,17.31,38.31,38.6v-38.6Zm-30.09,6.53h.28l-.85,3.4.56-3.4Zm14.77,8.8h.28l-2.26,2.55-.28-.28,2.27-2.27Zm8.8,14.76h0l-3.41.85,3.41-.85Zm0,17.03h0l-3.41-.85h0l3.41.85Zm-8.52,14.76h0l-.28.28-2.27-2.55h.28l2.26,2.26Zm-46.55.28h0l-.28-.28,2.27-2.26h.28l-2.28,2.55Zm14.48-55.62h.28l.57,3.4-.85-3.4Zm21.86,1.7h0l-1.42,3.12,1.42-3.12Zm13.33,10.5h0l-2.84,2.27v-.28l2.84-1.99Zm3.98,32.92h0l-3.41-1.42h0l3.41,1.42Zm-4.54,7.39h0l-2.84-1.99,2.84,1.99Zm-22.14,12.48h0l-.28-3.4.28,3.4Zm-16.75-2.26h0l-.28-.28,1.42-3.12-1.13,3.4Zm-7.65-4.54h0v-.28l2.27-2.57-2.27,2.85Zm-5.97-6.25h0l2.83-1.98-2.83,1.98Zm-6.24-15.9h0l3.4-.29-3.4.29Zm2.27-17.02h0l3.12,1.42-3.12-1.42Zm10.78-13.34h0v-.28l1.99,2.83v.29l-1.99-2.84Zm7.38-4.26h0l1.43,3.13-.28.28-1.14-3.41Zm8.52-1.99h0l.28,3.41-.28-3.41Zm3.98-5.96h-38.6v38.6c0-21.29,17.31-38.6,38.6-38.6h0Zm-38.6,38.6v38.6h38.6c-21.29,0-38.6-17.32-38.6-38.6h0Zm38.6,38.6h38.31v-38.6c0,21.28-17.31,38.6-38.31,38.6h0Zm0-1.99c-20.15,0-36.61-16.46-36.61-36.61s16.46-36.32,36.61-36.32,36.33,16.45,36.33,36.32-16.46,36.61-36.33,36.61h0Zm32.36-2.28c-1.7,0-2.85-1.13-2.85-3.12,0-1.42,1.15-2.55,2.85-2.55,1.42,0,2.84,1.13,2.84,2.55,0,1.99-1.42,3.12-2.84,3.12h0Zm0-63.58c-1.7,0-2.85-1.42-2.85-2.83,0-1.7,1.15-2.83,2.85-2.83,1.42,0,2.84,1.13,2.84,2.83,0,1.42-1.42,2.83-2.84,2.83h0Zm-64.43,0c-1.71,0-2.85-1.42-2.85-2.83,0-1.7,1.14-2.83,2.85-2.83s2.84,1.13,2.84,2.83c0,1.42-1.13,2.83-2.84,2.83h0Zm0,63.58c-1.71,0-2.85-1.13-2.85-3.12,0-1.42,1.14-2.55,2.85-2.55s2.84,1.13,2.84,2.55c0,1.99-1.13,3.12-2.84,3.12h0Zm71.52-74.08v79.48h-79.18v-79.48h79.18Zm.28-8.5h-5.39v5.67h5.39v-5.67Zm-74.65,0h-5.39v5.67h5.39v-5.67Zm6.82,0h-5.39v5.67h5.39v-5.67Zm6.81,0h-5.4v5.67h5.4v-5.67Zm6.52,0h-5.11v5.67h5.11v-5.67Zm6.82,0h-5.4v5.67h5.4v-5.67Zm6.82,0h-5.4v5.67h5.4v-5.67Zm6.8,0h-5.38v5.67h5.38v-5.67Zm6.82,0h-5.4v5.67h5.4v-5.67Zm6.8,0h-5.39v5.67h5.39v-5.67Zm6.81,0h-5.39v5.67h5.39v-5.67Zm6.81,0h-5.4v5.67h5.4v-5.67Zm-76.35,96.22h1.14v-96.22h-1.14v96.22Zm-5.68,0h1.42v-96.22h-1.42v96.22Zm2.84,0h1.42v-96.22h-1.42v96.22Zm88.28,0h1.7v-96.22h-1.7v96.22Zm5.67,0h1.42v-96.22h-1.42v96.22Zm-2.83,0h1.41v-96.22h-1.41v96.22Z"/>
        <path class="cls-2" d="m1822.6,298.63v-3.98l-11.63-5.67v19.59l11.63-9.93Zm-256.29-105.59h84.86v24.7h-84.86v-24.7Zm84.86,28.67v37.75h-84.86v-37.75h84.86Zm0,43.71v67.83h-84.86v-67.83h84.86Zm-63.29-64.71h14.47v3.12h-14.47v-3.12Zm49.68,33.21v17.31h-13.63v-17.31c0-3.14,3.41-5.69,6.82-5.69,3.97,0,6.82,2.55,6.82,5.69h0Zm-21.57,0v17.31h-13.63v-17.31c0-3.14,2.85-5.69,6.82-5.69,3.68,0,6.82,2.55,6.82,5.69h0Zm-21.86,0v17.31h-13.63v-17.31c0-3.14,2.85-5.69,6.82-5.69,3.68,0,6.82,2.55,6.82,5.69h0Zm21.28,50.51h14.47v2.84h-14.47v-2.84Zm-17.89.58h14.47v2.83h-14.47v-2.83Zm10.22,3.68h14.47v3.12h-14.47v-3.12Zm8.52,5.39h14.47v3.13h-14.47v-3.13Zm-17.03,0h14.47v3.13h-14.47v-3.13Zm-11.07,28.95h14.19v3.12h-14.19v-3.12Zm-7.1-3.69h14.48v3.12h-14.48v-3.12Zm-7.09-3.97h14.47v2.84h-14.47v-2.84Zm55.06-.85h14.47v3.12h-14.47v-3.12Zm-8.23-117.23h14.47v3.14h-14.47v-3.14Zm-22.7,10.51h14.47v3.13h-14.47v-3.13Zm-142.77,206.06h143.62v112.4h-143.62v-112.4Zm143.62,117.23v120.33h-143.62v-120.33h143.62Zm-38.04,88.83h24.41v5.12h-24.41v-5.12Zm-22.99-51.37h24.41v5.11h-24.41v-5.11Zm-29.81,1.14h24.42v5.11h-24.42v-5.11Zm17.03,6.53h24.41v5.1h-24.41v-5.1Zm14.19,9.08h24.42v5.11h-24.42v-5.11Zm-28.66,0h24.12v5.11h-24.12v-5.11Zm-19.3,49.1h24.41v5.11h-24.41v-5.11Zm-11.64-6.53h24.41v5.1h-24.41v-5.1Zm-11.63-6.82h24.41v5.4h-24.41v-5.4Zm33.49-137.65v29.23h-22.99v-29.23c0-5.39,5.1-9.94,11.64-9.94s11.35,4.55,11.35,9.94h0Zm74.36,0v29.23h-22.99v-29.23c0-5.39,4.82-9.94,11.35-9.94s11.63,4.55,11.63,9.94h0Zm-37.18,0v29.23h-22.99v-29.23c0-5.39,5.11-9.94,11.35-9.94s11.64,4.55,11.64,9.94h0Zm-47.68-56.2h24.41v5.1h-24.41v-5.1Zm56.19-5.97h24.41v5.12h-24.41v-5.12Zm-38.89,17.6h24.42v5.4h-24.42v-5.4Zm-53.07,13.62h143.62v5.11h-143.62v-5.11Zm153.84-317.88l-28.39,23.85h58.47l-30.08-23.85Zm24.41,24.7v31.78h-46.83v-31.78h46.83Zm-28.66,12.21h9.64v-9.37h-9.64v9.37Zm248.06,102.74l-40.02,33.77h82.88l-42.86-33.77Zm33.77,36.05v45.12h25.27v196.12h-118.93v-196.12h28.67v-45.12h65Zm-39.74,15.32h13.35v-13.33h-13.35v13.33Zm-24.12,40.87h20.15v3.97h-20.15v-3.97Zm70.11,46.56v23.84h-19.02v-23.84c0-4.55,3.97-8.24,9.37-8.24,5.1,0,9.65,3.69,9.65,8.24h0Zm-30.65,0v23.84h-19.02v-23.84c0-4.55,4.26-8.24,9.37-8.24s9.65,3.69,9.65,8.24h0Zm-30.65,0v23.84h-19.02v-23.84c0-4.55,4.26-8.24,9.37-8.24,5.39,0,9.65,3.69,9.65,8.24h0Zm29.8,70.1h20.15v4.26h-20.15v-4.26Zm-24.7.84h20.15v4.27h-20.15v-4.27Zm14.2,5.4h20.43v4.54h-20.43v-4.54Zm11.92,7.66h20.15v4.25h-20.15v-4.25Zm-24.12,0h20.44v4.25h-20.44v-4.25Zm-15.61,40.59h20.15v4.26h-20.15v-4.26Zm-9.65-5.39h20.15v4.25h-20.15v-4.25Zm-9.65-5.4h20.15v4.27h-20.15v-4.27Zm76.92-1.13h20.14v3.98h-20.14v-3.98Zm-11.64-164.04h20.14v3.96h-20.14v-3.96Zm-31.8,14.47h20.15v4.26h-20.15v-4.26Zm-44.27,11.07h118.93v5.67h-118.93v-5.67Zm0,61.3h118.93v11.92h-118.93v-11.92Zm-265.66-132.83l-48.53,40.59h100.47l-51.94-40.59Zm41.15,42.86v51.37h-78.9v-51.37h78.9Zm-48.24,19.3h16.17v-16.18h-16.17v16.18Zm82.3,115.23l3.98-1.99v30.37l6.53-2.84v-30.37l13.63-6.53v30.37l6.24-3.12v-30.37l13.62-6.53v30.37l6.53-3.12v-30.37l13.62-6.53v30.37l6.24-3.11v-30.37l13.62-6.53v30.37l6.53-2.84v-30.65l13.62-6.53v30.37l6.25-2.83v-30.37l13.62-6.81v30.36l6.53-2.83v-30.37l13.34-6.52v30.37l6.53-3.13v-30.37l13.62-6.52v30.37l6.24-3.12v-30.37l13.63-6.53v30.38l2.84-1.13v102.17l-186.76,89.7v-132.84Zm208.33-184.49v6.24l-5.39-2.55v-26.11l-11.93-5.69v26.4l-5.39-2.84v-26.11l-11.63-5.69v26.4l-5.69-2.84v-26.12l-11.35-5.67v26.39l-5.67-2.84v-26.12l-11.65-5.39v25.82l-5.39-2.55v-26.1l-11.92-5.69v26.11l-5.39-2.55v-26.11l-11.64-5.68v26.12l-5.39-2.56v-26.1l-11.92-5.68v26.12l-5.4-2.55v-26.12l-11.64-5.67v26.11l-5.67-2.55v-26.12l-11.36-5.67v26.1l-1.42-.56v87.99l134.25,64.42v-40.87h30.09v-43.14h-8.51Z"/>
        <path class="cls-2" d="m629.77,187.38l-4.54,42.57-150.71-16.46,4.54-42.57,150.72,16.46Zm-120.06,388.56c78.62,0,146.46,31.22,173.98,75.49h-348.54c28.1-44.27,95.65-75.49,174.55-75.49h0Zm-66.98-114.95l160.07,17.6-.85,9.65-160.37-17.6,1.14-9.65Zm61.87-357.34l115.24,12.49.85-8.51-115.24-12.49-.85,8.51Zm-28.66,52.79l160.36,17.31-1.14,9.93-160.08-17.6.85-9.65Zm-6.53,60.74l160.08,17.6-.85,9.94-160.37-17.6,1.14-9.94Zm-6.53,61.03l160.08,17.6-1.14,9.65-160.08-17.31,1.13-9.94Zm-6.81,60.74l160.36,17.59-1.42,9.93-160.08-17.59,1.14-9.93Zm-6.53,61.02l160.08,17.6-1.14,9.93-160.07-17.61,1.13-9.93Zm155.25-232.45l5.39-48.81-96.78-10.51-5.39,48.81,96.78,10.51Zm-65.85-35.19l-1.71,17.31-16.74-1.7,1.71-17.32c.57-4.82,4.82-8.52,9.36-7.95,4.54.57,7.95,4.83,7.38,9.65h0Zm57.62,6.53l-1.99,17.31-16.75-1.99,1.98-17.31c.57-4.83,4.83-8.24,9.37-7.67,4.54.28,7.95,4.54,7.38,9.65h0Zm-28.67-3.13l-1.98,17.32-16.74-1.99,1.98-17.32c.28-4.82,4.54-8.52,9.37-7.65,4.55.28,7.66,4.54,7.38,9.64h0Zm-73.23,45.42l-3.11,28.09-9.94-1.13,3.12-28.1c.29-2.27,2.56-3.97,5.4-3.7,2.84.29,4.82,2.28,4.54,4.84h0Zm97.36,259.69h0l-3.41,28.1-9.65-1.14,3.12-28.1c.29-2.27,2.55-3.97,5.4-3.69,2.55.57,4.54,2.56,4.54,4.82h0Zm-13.91-1.7h0l-3.12,28.39-9.93-1.14,3.12-28.09c.28-2.27,2.56-3.97,5.39-3.69,2.84.28,4.83,2.56,4.54,4.54h0Zm-13.9-1.13h0l-3.12,27.82-9.65-.86,2.84-28.38c.28-2.27,2.83-3.7,5.67-3.41,2.55.28,4.54,2.27,4.26,4.82h0Zm-13.62-1.7h0l-3.13,28.09-9.93-1.13,3.12-28.09c.29-2.28,2.56-3.7,5.39-3.7,2.84.57,4.83,2.57,4.55,4.83h0Zm-13.91-1.7h0l-3.12,28.38-9.65-1.13,2.84-28.09c.28-2.28,2.84-3.98,5.4-3.7,2.84.29,4.83,2.55,4.54,4.55h0Zm-13.62-1.13h0l-3.12,27.81-9.94-.85,2.84-28.38c.29-2.27,2.84-3.69,5.68-3.4,2.84.28,4.83,2.26,4.54,4.83h0Zm-13.91-1.71h0l-3.11,28.1-9.94-1.13,3.12-27.82c.28-2.55,2.84-3.97,5.39-3.97,2.84.57,4.83,2.55,4.54,4.82h0Zm-13.91-1.42h0l-2.84,28.09-10.22-1.13,3.12-28.11c.28-2.26,2.84-3.96,5.68-3.68,2.55.28,4.54,2.55,4.26,4.82h0Zm-13.62-1.42h0l-3.12,28.1-9.94-1.13,3.12-28.1c.29-2.26,2.84-3.97,5.4-3.68,2.56.28,4.83,2.26,4.54,4.82h0Zm-13.91-1.7h0l-2.84,28.1-10.22-1.14,3.12-27.81c.28-2.55,2.56-3.97,5.39-3.97,2.84.57,4.83,2.55,4.54,4.82h0Zm130.85-47.97h0l-2.84,28.1-10.21-1.13,3.12-28.11c.29-2.26,2.56-3.68,5.39-3.68,2.84.57,4.83,2.55,4.54,4.82h0Zm-13.62-1.42h0l-3.41,28.1-9.65-1.13,3.12-28.1c.28-2.26,2.55-3.96,5.4-3.68,2.55.28,4.54,2.55,4.54,4.82h0Zm-13.91-1.43h0l-3.12,28.11-9.94-1.13,3.13-28.39c.28-1.98,2.55-3.68,5.39-3.4,2.84.28,4.83,2.26,4.54,4.81h0Zm-13.62-1.69h0l-3.4,28.1-9.65-.84,2.83-28.1c.57-2.55,2.84-3.97,5.68-3.97,2.56.56,4.54,2.55,4.54,4.82h0Zm-13.9-1.42h0l-3.13,28.1-9.93-1.15,3.12-28.09c.28-2.26,2.55-3.97,5.39-3.7,2.84.28,4.82,2.56,4.54,4.83h0Zm-13.91-1.42h0l-3.12,28.1-9.65-1.14,2.83-28.38c.29-1.99,2.84-3.7,5.4-3.41,2.84.28,4.83,2.27,4.54,4.83h0Zm-13.62-1.7h0l-3.12,28.09-9.94-.85,3.13-28.1c0-2.56,2.55-3.98,5.39-3.98,2.84.57,4.82,2.56,4.54,4.84h0Zm-13.91-1.43h0l-3.12,28.1-9.65-1.14,2.84-28.1c.28-2.27,2.84-3.97,5.39-3.4,2.84,0,4.83,2.27,4.54,4.54h0Zm-13.91-1.42h0l-2.84,28.1-10.22-1.14,3.12-28.38c.29-1.99,2.84-3.69,5.68-3.41,2.56.29,4.83,2.27,4.26,4.82h0Zm-13.62-1.71h0l-3.12,28.11-9.94-.86,3.12-28.09c.29-2.56,2.84-3.97,5.4-3.97,2.55.57,4.83,2.55,4.54,4.82h0Zm130.84-47.96h0l-3.12,28.1-9.93-.85,3.12-28.38c.28-2.28,2.55-3.7,5.39-3.41,2.56.29,4.83,2.27,4.54,4.55h0Zm-13.9-1.42h0l-2.84,28.1-10.22-1.14,3.12-28.1c.28-2.27,2.83-3.97,5.39-3.69,2.84.28,4.82,2.55,4.54,4.82h0Zm-13.63-1.41h0l-3.12,28.1-9.94-1.13,3.12-28.1c.29-2.27,2.56-3.97,5.39-3.69,2.56.29,4.55,2.27,4.55,4.82h0Zm-13.91-1.71h0l-3.12,28.1-9.94-.85,3.13-28.09c.28-2.56,2.55-3.97,5.39-3.69,2.84.28,4.83,2.26,4.54,4.54h0Zm-13.62-1.42h0l-3.41,28.1-9.65-1.13,2.84-28.1c.57-2.27,2.84-3.97,5.67-3.69,2.55.29,4.54,2.55,4.54,4.82h0Zm-13.91-1.42h0l-3.12,28.09-9.93-1.14,3.12-28.09c.28-2.27,2.56-3.98,5.39-3.7,2.84.28,4.83,2.56,4.54,4.83h0Zm-13.9-1.42h0l-3.12,27.81-9.65-.85,2.84-28.09c.28-2.56,2.84-3.98,5.68-3.7,2.55.27,4.54,2.27,4.26,4.83h0Zm-13.63-1.7h0l-3.12,28.09-9.93-1.13,3.12-28.09c0-2.28,2.56-3.99,5.39-3.41,2.84.28,4.83,2.26,4.54,4.55h0Zm-13.91-1.42h0l-3.12,28.1-9.65-1.13,2.84-28.1c.28-2.26,2.83-3.97,5.39-3.68,2.83.28,4.82,2.55,4.54,4.82h0Zm-13.62-1.43h0l-3.12,27.82-10.22-.85,3.12-28.11c.29-2.55,2.84-3.96,5.68-3.68,2.84.27,4.83,2.26,4.54,4.81h0Zm130.56-47.95h0l-2.83,27.81-9.94-.85,3.12-28.38c0-2.28,2.55-3.7,5.11-3.42,2.84.28,5.11,2.28,4.54,4.84h0Zm-13.62-1.7h0l-3.12,28.09-9.94-1.13,3.13-27.81c.28-2.56,2.55-3.97,5.39-3.97,2.56.56,4.83,2.55,4.54,4.83h0Zm-13.91-1.7h0l-2.83,28.38-10.22-1.13,3.41-28.1c0-2.26,2.55-3.97,5.1-3.41,2.84,0,4.83,2.27,4.54,4.27h0Zm-13.62-1.15h0l-3.13,28.11-9.93-1.13,3.12-28.39c.28-1.99,2.55-3.68,5.39-3.4,2.55.28,4.54,2.27,4.54,4.82h0Zm-13.91-1.7h0l-3.12,28.1-9.94-1.13,3.12-27.82c.29-2.55,2.56-3.97,5.39-3.97,2.84.57,4.83,2.55,4.54,4.82h0Zm-13.62-1.42h0l-3.41,28.11-9.65-1.13,2.84-28.11c.57-2.26,2.83-3.96,5.68-3.4,2.55,0,4.54,2.27,4.54,4.54h0Zm-13.91-1.42h0l-3.12,28.11-9.94-1.14,3.13-28.1c.28-2.27,2.56-3.97,5.39-3.69,2.84.28,4.83,2.27,4.54,4.82h0Zm-13.91-1.7h0l-3.12,28.1-9.65-1.14,2.83-27.8c.57-2.55,2.84-3.99,5.68-3.99,2.55.57,4.54,2.56,4.26,4.83h0Zm-13.62-1.42h0l-3.12,28.09-9.94-1.13,3.12-28.1c.28-2.28,2.55-3.98,5.39-3.41,2.84,0,4.82,2.26,4.54,4.55h0Zm-13.91-1.42h0l-3.12,28.09-9.65-1.13,2.83-28.1c.29-2.27,2.84-3.97,5.4-3.69,2.84.28,4.83,2.27,4.54,4.83h0Zm130.85-47.97h0l-3.13,28.11-9.93-1.14,3.12-28.38c.29-1.99,2.83-3.69,5.68-3.41,2.55.28,4.54,2.27,4.26,4.82h0Zm-13.91-1.7h0l-2.84,28.11-9.94-.86,3.12-28.09c0-2.56,2.56-3.99,5.11-3.99,2.84.57,5.11,2.56,4.54,4.83h0Zm-13.62-1.41h0l-3.12,28.09-9.94-1.13,3.12-28.09c.29-2.28,2.55-3.98,5.4-3.41,2.84,0,4.83,2.28,4.54,4.55h0Zm-13.91-1.42h0l-2.84,28.09-10.21-1.13,3.4-28.1c0-2.26,2.56-3.97,5.11-3.68,2.84.28,5.11,2.26,4.54,4.83h0Zm-13.63-1.71h0l-3.12,28.1-9.93-.85,3.12-28.1c.29-2.55,2.55-3.97,5.39-3.97,2.55.57,4.54,2.55,4.54,4.82h0Zm-13.9-1.42h0l-3.12,28.1-9.94-1.13,3.12-28.11c.29-2.26,2.55-3.97,5.39-3.4,2.84,0,4.82,2.26,4.54,4.54h0Zm-13.63-1.42h0l-3.12,28.1-9.94-1.13,3.12-28.1c.29-2.26,2.56-3.97,5.39-3.68,2.56.29,4.54,2.26,4.54,4.82h0Zm-13.91-1.71h0l-3.12,28.1-9.94-.84,3.13-28.11c.28-2.55,2.55-3.96,5.39-3.68,2.83.29,4.83,2.26,4.54,4.54h0Zm-13.63-1.42h0l-3.41,28.1-9.64-1.14,2.84-28.1c.57-2.26,2.84-3.97,5.68-3.41,2.56,0,4.54,2.28,4.54,4.55h0Zm114.67,65.84l-4.54,42.29-150.72-16.46,4.54-42.29,150.72,16.45Zm-6.53,61.03l-4.83,42.29-150.71-16.47,4.83-42.28,150.71,16.46Zm-6.81,61.02l-4.54,42.29-150.71-16.47,4.54-42.29,150.71,16.46Zm-6.53,60.73l-4.83,42.58-150.43-16.46,4.54-42.57,150.72,16.45Zm-6.81,61.03l-9.65,89.69c-2.27-.58-4.54-1.14-7.1-1.99l7.38-65.57c.57-6.52-5.11-12.2-13.06-13.33-7.94-.86-14.75,3.68-15.33,10.5l-6.81,63.01c-2.55-.29-4.83-.57-7.38-.86l6.81-63.01c.57-6.53-5.11-12.48-12.77-13.34-7.67-.86-14.76,3.69-15.33,10.22l-7.1,64.14c-2.27-.28-4.54-.28-6.52-.28h-.85l7.09-64.72c.57-6.52-5.11-12.48-12.77-13.34-7.95-.85-14.76,3.7-15.61,10.22l-7.38,69.26c-2.56.28-5.11.56-7.67.85l7.67-70.95c.85-6.25-5.11-12.49-12.77-13.34-7.66-.85-14.76,3.69-15.33,10.5l-8.8,79.19c-2.84.56-5.96,1.42-8.8,2.26l11.35-105.57,150.71,16.45Z"/>
        <path class="cls-2" d="m1245.31,641.49l-108.71,1.13,14.48-17.59h0l5.39-6.25h0l3.41-4.25h0l5.38-6.25h0l3.41-4.25h0l5.11-5.96,71.81-86.28,72.38,84.87c-.58.56-1.43,1.42-1.99,1.98l45.7-42.57v-1.13,1.13c9.08,7.95,18.16,15.9,27.25,23.56,6.25-9.93,17.03-22.42,30.66-21h0c23.55.85,26.96,37.18,26.96,37.18l-12.5.28.28,7.1c4.55,4.54,7.95,10.21,9.93,16.45.28.28.28.57.57.86l.86,1.13.28.85c.57,1.14.85,2.28,1.7,3.7l-50.24.28c16.75,0,33.49-.28,50.24-.28l-.85-1.42-.57-1.42-.28-.86c.57,1.14.85,2.28,1.7,3.7.57,1.7,2.55,6.52,2.83,8.23l26.39,1.14c4.26,1.13,6.53.85,9.37,14.75l-81.73.57c.28,1.41-38.6-.57-38.6-.57l-82.88-.85s0-5.11-.57-7.39l-37.18-.56Zm78.61-32.64h0c1.14.29,2.27.86,3.69,1.42-1.42-.57-2.55-1.13-3.69-1.42h0Zm19.02,5.69c1.13,0,1.98,0,3.12.28-1.13-.28-1.99-.28-3.12-.28h0Zm17.31,25.82c-.85-.85-1.99-1.42-3.12-1.98,1.13.56,2.27,1.13,3.12,1.98h0Zm84.58-19.87c-.29-.28-.29-.57-.57-.86h0l.57.86Z"/>
        <path class="cls-2" d="m1402.25,447.93v8.52h-43.43v45.69h18.74l-13.05,4.25v145.03h-28.67v-144.75l-13.34-4.54h19.01v-45.69h-144.47v45.69h19.02l-13.05,4.25v145.03h-28.95v-144.75l-12.77-4.54h18.73v-45.69h-43.43v-8.52h-11.63v-6.25h55.06v-24.7h-13.06v-9.65c-17.87-2.55-36.32-5.67-54.77-9.37v-21c-6.82-1.13-13.91-2.55-21.01-4.25v-17.04c-7.95-1.42-16.17-3.12-24.12-4.81v-15.34c136.52,22.99,271.33,21.57,404.45,0v15.34c-7.95,1.69-15.9,3.4-24.12,4.81v17.04c-6.82,1.7-13.91,3.12-21,4.54v20.72c-17.88,3.98-36.34,7.38-54.78,9.93v9.08h-12.78v24.7h54.79v6.25h-11.36Zm-192.15-35.76v4.82h-13.05v24.7h59.32v-27.25c-15.33-.28-30.65-1.13-46.27-2.27h0Zm131.42,4.82h-13.05v-4.54c-15.05,1.42-30.66,1.99-45.99,2.27v26.96h59.04v-24.7Z"/>
      </g>
    </g>
  </g>
</svg>