<?xml version="1.0" encoding="UTF-8"?>
<svg id="Layer_2" data-name="Layer 2" xmlns="http://www.w3.org/2000/svg" xmlns:xlink="http://www.w3.org/1999/xlink" viewBox="0 0 228.24 179.78">
  <defs>
    <style>
      .cls-1 {
        fill: url(#linear-gradient);
      }
    </style>
    <linearGradient id="linear-gradient" x1="0" y1="89.89" x2="228.24" y2="89.89" gradientUnits="userSpaceOnUse">
      <stop offset="0" stop-color="#04bfff"/>
      <stop offset=".09" stop-color="#03b9f5"/>
      <stop offset=".24" stop-color="#02a8dc"/>
      <stop offset=".42" stop-color="#018eb3"/>
      <stop offset=".57" stop-color="#00778e"/>
      <stop offset=".87" stop-color="#1b8d9f"/>
    </linearGradient>
  </defs>
  <g id="Layer_1-2" data-name="Layer 1">
    <path class="cls-1" d="m134.54,45.54c4.55-.98,8.9-1.96,13.27-2.85,8.94-1.81,17.86-1.45,26.74.46,20.99,4.51,36.76,16.12,46.8,35.12,4.31,8.15,6.56,16.9,6.83,26.3.29,9.87-.53,19.37-4.08,28.65-3.35,8.78-8.25,16.49-15.05,22.91-2.1,1.98-3.12,4.01-2.88,6.89.21,2.53.1,5.09.03,7.63-.2,6.74-6.14,10.83-12.37,8.46-2.36-.9-4.67-1.96-6.9-3.14-4.09-2.16-8.12-3.04-12.88-1.97-10.02,2.26-20.2,1.94-30.26-.02-18.03-3.52-32.53-12.58-42.41-28.27-2.56-4.06-4.22-8.69-6.29-13.06-.33-.7-.66-1.4-.79-1.68-7.32,1.04-14.4,2.69-21.52,2.89-6.95.19-13.93-1.26-20.91-1.67-2.4-.14-4.96.39-7.26,1.17-2.93.99-5.73,2.4-8.47,3.86-6.85,3.66-14-1.69-13.3-7.9.81-7.17-1.25-12.62-6.5-18.39C2.44,95.64-2.33,76.88,1.04,56.58,4.97,32.86,18.45,16.12,40.33,6.14,53.96-.07,68.35-1.44,82.74,1.45c23.03,4.63,40.21,17.39,49.73,39.44.65,1.51,1.34,3,2.08,4.65ZM30.05,131.74c2.95-1.23,5.22-2.11,7.42-3.11,5.64-2.56,10.88-4.81,17.76-3.3,11.41,2.52,23.09,1.91,34.49-1.36,1.89-.54,2.46-1.25,2.16-3.27-1.56-10.75-1.33-21.46,1.94-31.89,4.99-15.94,14.6-28.36,28.93-37.05,5.21-3.16,5.3-3.2,2.72-9.01-8.52-19.17-23.67-30.15-43.81-34.18-9.38-1.88-18.99-1.59-28.48.79-10.82,2.71-20.38,7.69-28.14,15.58-14,14.21-19.77,31.33-16.93,51.24,1.92,13.47,7.6,24.98,17.56,34.31,2.92,2.74,4.53,6.01,4.41,10.11-.1,3.39-.02,6.79-.02,11.14Zm70.86-3.76c1.07,2.6,2.01,5.16,3.16,7.62,6.01,12.89,15.73,22.02,28.81,27.38,4.81,1.97,9.99,3.17,15.11,4.22,7.61,1.57,15.33,1.44,22.97.07,5.4-.97,10.7-2.15,15.95.75,2.8,1.54,5.77,2.81,8.76,3.97,2.35.92,3.29.18,3.34-2.31.05-2.64.14-5.29-.02-7.92-.24-4.01,1.18-7.14,4.17-9.81,6.81-6.08,11.68-13.69,14.79-22.09,2.88-7.78,4.15-15.99,3.34-24.55-.9-9.59-3.1-18.64-8.09-26.86-11.04-18.17-27.62-27.47-48.46-29.48-8.62-.83-17.09.48-25.41,2.91-2.28.67-2.81,1.61-2.48,3.89,1.3,9.05,1.19,18.03-.78,27.06-3.44,15.78-11.28,28.62-24.31,38.19-3.4,2.5-7.11,4.58-10.83,6.96Zm28.3-71.58c-22.81,11.45-34.6,37.24-30.02,63.24,20.19-5.55,38.36-43.82,30.02-63.24Zm31.71,23.27c2.26-.17,3.67,1.48,4.44,3.57,3.76,10.1,7.39,20.25,11.09,30.38,1.87,5.11,3.79,10.19,5.67,15.3.89,2.42.04,4.42-2.16,5.21-2.33.84-4.56-.16-5.44-2.52-.91-2.46-1.57-5.03-2.68-7.39-.41-.87-1.78-1.77-2.74-1.8-5.76-.17-11.53-.16-17.3-.02-.87.02-2.11.89-2.49,1.7-.86,1.83-1.25,3.87-1.89,5.8-.68,2.05-1.85,3.75-4.14,4.02-1.15.13-2.93.12-3.43-.56-.79-1.07-1.33-2.94-.94-4.14,1.93-5.9,4.19-11.7,6.34-17.53,3.32-9.02,6.64-18.05,9.96-27.07.94-2.55,1.99-4.98,5.68-4.95Zm-8.42,34.89h16.12c-2.62-7.69-5.1-14.93-7.57-22.17-.3,0-.6,0-.9,0-2.51,7.27-5.01,14.54-7.65,22.18Z"/>
  </g>
</svg>