<?xml version="1.0" encoding="UTF-8"?>
<svg id="Layer_2" data-name="Layer 2" xmlns="http://www.w3.org/2000/svg" xmlns:xlink="http://www.w3.org/1999/xlink" viewBox="0 0 106.76 365.49">
  <defs>
    <style>
      .cls-1 {
        stroke: url(#linear-gradient-2);
      }

      .cls-1, .cls-2 {
        fill: none;
        stroke-linecap: round;
        stroke-miterlimit: 10;
        stroke-width: 4px;
      }

      .cls-2 {
        stroke: url(#linear-gradient);
      }
    </style>
    <linearGradient id="linear-gradient" x1="0" y1="66.31" x2="106.76" y2="66.31" gradientUnits="userSpaceOnUse">
      <stop offset="0" stop-color="#04bfff"/>
      <stop offset=".09" stop-color="#03b9f5"/>
      <stop offset=".24" stop-color="#02a8dc"/>
      <stop offset=".42" stop-color="#018eb3"/>
      <stop offset=".57" stop-color="#00778e"/>
      <stop offset=".87" stop-color="#1b8d9f"/>
    </linearGradient>
    <linearGradient id="linear-gradient-2" x1="21.58" y1="257.17" x2="73.94" y2="257.17" xlink:href="#linear-gradient"/>
  </defs>
  <g id="Layer_1-2" data-name="Layer 1">
    <g>
      <path class="cls-2" d="m2.04,55.99c.14-7.95,1.39-15.24,3.74-21.87,2.35-6.62,5.74-12.31,10.15-17.06,4.42-4.75,9.82-8.44,16.19-11.09,6.38-2.65,13.66-3.98,21.86-3.98,7.62,0,14.55,1.22,20.79,3.65,6.23,2.44,11.58,5.86,16.03,10.26,4.45,4.4,7.89,9.66,10.31,15.77,2.42,6.11,3.63,12.89,3.63,20.33,0,9.66-1.92,17.95-5.77,24.88-3.85,6.92-9.55,13.08-17.1,18.47-3.56,2.48-6.5,4.77-8.82,6.86-2.32,2.1-4.17,4.23-5.56,6.41-1.39,2.18-2.37,4.49-2.94,6.93-.57,2.44-.86,5.19-.86,8.27v6.8h-28.33l-.21-7.05c-.36-5.13-.25-9.75.32-13.85.57-4.1,1.64-7.84,3.21-11.22,1.57-3.38,3.65-6.48,6.25-9.3,2.6-2.82,5.75-5.51,9.46-8.08,3.42-2.48,6.29-4.77,8.6-6.86,2.31-2.09,4.17-4.21,5.56-6.35,1.39-2.14,2.37-4.38,2.94-6.73.57-2.35.85-5.02.85-8.02s-.48-5.73-1.44-8.21c-.96-2.48-2.34-4.62-4.12-6.41-1.78-1.8-3.92-3.21-6.41-4.23-2.49-1.03-5.27-1.54-8.34-1.54-6.2,0-11.17,2.1-14.91,6.28-3.74,4.19-5.79,9.83-6.15,16.93H2.04Z"/>
      <path class="cls-1" d="m65.7,191.24c4.5-4.97,6.96-11.83,6.06-19.24-1.33-10.99-10.24-19.79-21.24-21-14.59-1.61-26.93,9.77-26.93,24.03,0,13.35,10.83,24.18,24.18,24.18v164.28"/>
    </g>
  </g>
</svg>