<?xml version="1.0" encoding="UTF-8"?>
<svg id="Layer_2" data-name="Layer 2" xmlns="http://www.w3.org/2000/svg" xmlns:xlink="http://www.w3.org/1999/xlink" viewBox="0 0 339.75 525.86">
  <defs>
    <style>
      .cls-1 {
        fill: url(#linear-gradient);
      }

      .cls-2 {
        fill: #fff;
      }

      .cls-3 {
        fill: #bdd0fb;
      }

      .cls-4 {
        fill: url(#linear-gradient-8);
      }

      .cls-5 {
        fill: url(#linear-gradient-9);
      }

      .cls-6 {
        fill: url(#linear-gradient-3);
      }

      .cls-7 {
        fill: url(#linear-gradient-4);
      }

      .cls-8 {
        fill: url(#linear-gradient-2);
      }

      .cls-9 {
        fill: url(#linear-gradient-6);
      }

      .cls-10 {
        fill: url(#linear-gradient-7);
      }

      .cls-11 {
        fill: url(#linear-gradient-5);
      }

      .cls-12 {
        fill: url(#linear-gradient-14);
      }

      .cls-13 {
        fill: url(#linear-gradient-18);
      }

      .cls-14 {
        fill: url(#linear-gradient-22);
      }

      .cls-15 {
        fill: url(#linear-gradient-20);
      }

      .cls-16 {
        fill: url(#linear-gradient-21);
      }

      .cls-17 {
        fill: url(#linear-gradient-23);
      }

      .cls-18 {
        fill: url(#linear-gradient-15);
      }

      .cls-19 {
        fill: url(#linear-gradient-19);
      }

      .cls-20 {
        fill: url(#linear-gradient-16);
      }

      .cls-21 {
        fill: url(#linear-gradient-17);
      }

      .cls-22 {
        fill: url(#linear-gradient-13);
      }

      .cls-23 {
        fill: url(#linear-gradient-12);
      }

      .cls-24 {
        fill: url(#linear-gradient-10);
      }

      .cls-25 {
        fill: url(#linear-gradient-11);
      }

      .cls-26 {
        fill: url(#linear-gradient-27);
      }

      .cls-27 {
        fill: url(#linear-gradient-24);
      }

      .cls-28 {
        fill: url(#linear-gradient-26);
      }

      .cls-29 {
        fill: url(#linear-gradient-34);
      }

      .cls-30 {
        fill: url(#linear-gradient-25);
      }

      .cls-31 {
        fill: url(#linear-gradient-28);
      }

      .cls-32 {
        fill: url(#linear-gradient-29);
      }

      .cls-33 {
        fill: url(#linear-gradient-33);
      }

      .cls-34 {
        fill: url(#linear-gradient-30);
      }

      .cls-35 {
        fill: url(#linear-gradient-32);
      }

      .cls-36 {
        fill: url(#linear-gradient-31);
      }
    </style>
    <linearGradient id="linear-gradient" x1="341.26" y1="69.82" x2="-93.72" y2="641.14" gradientTransform="translate(.1 -.12) rotate(.03) scale(1.01 1.02) skewX(.05)" gradientUnits="userSpaceOnUse">
      <stop offset="0" stop-color="#09005d"/>
      <stop offset="1" stop-color="#1a0f91"/>
    </linearGradient>
    <linearGradient id="linear-gradient-2" x1="11.04" y1="475.12" x2="63.78" y2="475.12" gradientTransform="translate(.1 -.12) rotate(.03) scale(1.01 1.02) skewX(.05)" gradientUnits="userSpaceOnUse">
      <stop offset="0" stop-color="#dae3fe"/>
      <stop offset="1" stop-color="#e9effd"/>
    </linearGradient>
    <linearGradient id="linear-gradient-3" x1="10.89" y1="419.2" x2="12.32" y2="419.2" xlink:href="#linear-gradient-2"/>
    <linearGradient id="linear-gradient-4" x1="-41.64" y1="593.62" x2="279.47" y2="119.86" gradientTransform="translate(.1 -.12) rotate(.03) scale(1.01 1.02) skewX(.05)" gradientUnits="userSpaceOnUse">
      <stop offset="0" stop-color="#4042e2"/>
      <stop offset="1" stop-color="#4f52ff"/>
    </linearGradient>
    <linearGradient id="linear-gradient-5" x1="56.94" y1="156.7" x2="157.49" y2="156.7" xlink:href="#linear-gradient-2"/>
    <linearGradient id="linear-gradient-6" x1="128.33" y1="111.61" x2="-8.45" y2="315.25" gradientTransform="translate(.1 -.12) rotate(.03) scale(1.01 1.02) skewX(.05)" gradientUnits="userSpaceOnUse">
      <stop offset="0" stop-color="#fe7062"/>
      <stop offset="1" stop-color="#ff928e"/>
    </linearGradient>
    <linearGradient id="linear-gradient-7" x1="150.76" y1="128.53" x2="16.65" y2="328.2" xlink:href="#linear-gradient-6"/>
    <linearGradient id="linear-gradient-8" x1="176.52" y1="113.92" x2="280.48" y2="113.92" xlink:href="#linear-gradient-2"/>
    <linearGradient id="linear-gradient-9" x1="176.37" y1="130.02" x2="280.18" y2="130.02" xlink:href="#linear-gradient-2"/>
    <linearGradient id="linear-gradient-10" x1="176.22" y1="146.3" x2="279.87" y2="146.3" xlink:href="#linear-gradient-2"/>
    <linearGradient id="linear-gradient-11" x1="57.78" y1="225.27" x2="287.87" y2="225.27" xlink:href="#linear-gradient-2"/>
    <linearGradient id="linear-gradient-12" x1="57.8" y1="240.95" x2="287.55" y2="240.95" xlink:href="#linear-gradient-2"/>
    <linearGradient id="linear-gradient-13" x1="56.01" y1="278.08" x2="86.87" y2="278.08" xlink:href="#linear-gradient-2"/>
    <linearGradient id="linear-gradient-14" x1="93.36" y1="276.76" x2="149.65" y2="276.76" xlink:href="#linear-gradient-2"/>
    <linearGradient id="linear-gradient-15" x1="165.8" y1="276.38" x2="197.25" y2="276.38" xlink:href="#linear-gradient-2"/>
    <linearGradient id="linear-gradient-16" x1="204.05" y1="275.04" x2="261.75" y2="275.04" xlink:href="#linear-gradient-2"/>
    <linearGradient id="linear-gradient-17" x1="65.6" y1="329.72" x2="88.35" y2="329.72" xlink:href="#linear-gradient-2"/>
    <linearGradient id="linear-gradient-18" x1="103.37" y1="330.1" x2="285.96" y2="330.1" xlink:href="#linear-gradient-2"/>
    <linearGradient id="linear-gradient-19" x1="124.98" y1="243.73" x2="26.54" y2="411.74" xlink:href="#linear-gradient-6"/>
    <linearGradient id="linear-gradient-20" x1="65.64" y1="371.14" x2="88.3" y2="371.14" xlink:href="#linear-gradient-2"/>
    <linearGradient id="linear-gradient-21" x1="103.26" y1="372.04" x2="285.12" y2="372.04" xlink:href="#linear-gradient-2"/>
    <linearGradient id="linear-gradient-22" x1="142.41" y1="255.36" x2="44.82" y2="421.92" xlink:href="#linear-gradient-6"/>
    <linearGradient id="linear-gradient-23" x1="65.68" y1="412.23" x2="88.25" y2="412.23" xlink:href="#linear-gradient-2"/>
    <linearGradient id="linear-gradient-24" x1="103.15" y1="413.26" x2="284.29" y2="413.26" xlink:href="#linear-gradient-2"/>
    <linearGradient id="linear-gradient-25" x1="156.55" y1="297.8" x2="29.55" y2="474.87" xlink:href="#linear-gradient-6"/>
    <linearGradient id="linear-gradient-26" x1="65.72" y1="453.01" x2="88.21" y2="453.01" xlink:href="#linear-gradient-2"/>
    <linearGradient id="linear-gradient-27" x1="103.04" y1="454.14" x2="283.46" y2="454.14" xlink:href="#linear-gradient-2"/>
    <linearGradient id="linear-gradient-28" x1="176.39" y1="279.18" x2="80.46" y2="442.91" xlink:href="#linear-gradient-6"/>
    <linearGradient id="linear-gradient-29" x1="213.03" y1="-36.87" x2="79.81" y2="138.37" xlink:href="#linear-gradient"/>
    <linearGradient id="linear-gradient-30" x1="150.76" y1="18.49" x2="170.75" y2="18.49" xlink:href="#linear-gradient-2"/>
    <linearGradient id="linear-gradient-31" x1="226.66" y1="-24.51" x2="95.63" y2="147.86" xlink:href="#linear-gradient"/>
    <linearGradient id="linear-gradient-32" x1="139.07" y1="45.74" x2="144.69" y2="45.74" xlink:href="#linear-gradient-2"/>
    <linearGradient id="linear-gradient-33" x1="112.46" y1="53.38" x2="136.38" y2="53.38" xlink:href="#linear-gradient-2"/>
    <linearGradient id="linear-gradient-34" x1="211.34" y1="-14.73" x2="119.82" y2="153.33" xlink:href="#linear-gradient-4"/>
  </defs>
  <g id="Layer_1-2" data-name="Layer 1">
    <g>
      <path class="cls-1" d="m30.47,70.04l270.4-10.81c15.41-.62,27.88,11.77,28.29,28.14l10.59,414.84c.3,11.89-9.09,21.77-20.7,21.85l-297.47,1.81c-10.16.06-18.54-8.69-18.61-19.43L0,104.95c-.14-18.58,13.48-34.23,30.47-34.91Z"/>
      <path class="cls-8" d="m63.77,519.85h0s-32.37-.84-32.37-.84c-10.77-.28-19.58-9.75-19.65-21.14l-.34-51.72c0-.41.3-.73.69-.73s.69.33.7.74l.33,51.73c.07,10.6,8.26,19.41,18.29,19.67l32.38.83c.38,0,.69.34.69.75,0,.4-.31.72-.69.71Z"/>
      <path class="cls-6" d="m11.99,430.77c-.38,0-.69-.33-.7-.74l-.06-8.45c0-.41.3-.74.69-.74s.69.33.7.74l.05,8.45c0,.41-.3.74-.69.74Z"/>
      <g>
        <path class="cls-7" d="m31.26,66.62c35.97,3.91,161.75,15.71,268.7,2.82,4.94-.6,9.15,3.23,9.3,8.49l12.21,416.43c.16,5.5-4.05,10.16-9.42,10.43-43.69,2.19-218.98,10.34-279.79,2.94-3.68-.45-6.48-3.75-6.52-7.65l-4.57-423.24c-.06-5.98,4.69-10.81,10.1-10.22Z"/>
        <path class="cls-3" d="m35.14,77.36c34.61,3.8,155.54,15.28,258.26,3.02,4.75-.57,8.79,3.11,8.94,8.16l11.98,400.26c.16,5.3-3.88,9.79-9.05,10.05-42.01,2.14-210.72,10.1-269.32,3.02-3.54-.43-6.24-3.61-6.28-7.37l-4.24-407.33c-.06-5.75,4.52-10.38,9.72-9.81Z"/>
        <path class="cls-11" d="m57.41,117.03l3.82,85.41c.13,2.82,2.24,5.01,4.84,5.03,14.55.1,60.19.21,86.18-1.86,2.95-.24,5.3-2.85,5.42-6.02.61-16.14,2.04-63.37-1.27-83.11-.54-3.19-3.08-5.46-6.1-5.47l-87.4-.27c-3.12,0-5.66,2.89-5.51,6.29Z"/>
        <path class="cls-9" d="m124.48,145.68c-.04,10.24-7.75,18.76-17.19,19.03-9.42.27-17.04-7.77-17.03-17.97,0-10.22,7.67-18.78,17.12-19.09,9.48-.31,17.14,7.77,17.1,18.03Z"/>
        <path class="cls-10" d="m81.42,200.98l54.26-1.33c3.35-.08,5.38-4.11,3.59-7.09-4.6-7.69-14.26-18.92-31.04-17.94-16.1.94-25.62,11.52-30.39,19.03-2.02,3.18.04,7.42,3.57,7.34Z"/>
        <path class="cls-4" d="m280.6,117.04c.87-.03,1.58-.81,1.57-1.74l-.02-2.55c0-.93-.73-1.68-1.6-1.67l-101.77,1.55c-.85.01-1.33.73-1.05,1.58l1.49,4.64c.28.86,1.2,1.54,2.06,1.51l99.33-3.33Z"/>
        <path class="cls-5" d="m178.63,128.91c-.85.01-1.32.72-1.05,1.58l1.49,4.63c.28.86,1.2,1.53,2.05,1.51l99.18-3.14c.87-.03,1.58-.81,1.57-1.73l-.02-2.54c0-.93-.73-1.68-1.6-1.66l-101.62,1.36Z"/>
        <path class="cls-24" d="m178.48,145.37c-.85,0-1.32.72-1.05,1.57l1.49,4.62c.28.85,1.2,1.53,2.05,1.51l99.03-2.95c.87-.03,1.58-.8,1.57-1.73l-.02-2.53c0-.92-.73-1.67-1.6-1.66l-101.46,1.17Z"/>
        <path class="cls-25" d="m288.14,229.43c.87-.02,1.54-.78,1.5-1.69l-.11-2.5c-.04-.91-.78-1.65-1.65-1.63l-228.77,3.01c-.82.01-1.08.58-.56,1.26l3.74,4.98c.51.68,1.61,1.23,2.43,1.21l223.41-4.65Z"/>
        <path class="cls-23" d="m59.15,242.34c-.82,0-1.07.58-.56,1.26l3.73,4.97c.51.68,1.61,1.23,2.43,1.21l223.08-4.23c.87-.02,1.54-.77,1.5-1.68l-.11-2.49c-.04-.91-.78-1.64-1.65-1.63l-228.43,2.59Z"/>
        <path class="cls-22" d="m59.76,268.5c5.27-.52,15.15-.89,20.6-1.07,2.31-.07,4.34,1.57,4.88,3.98,1.05,4.67,2.5,12.77,2.31,21.37-.06,2.57-2.02,4.65-4.42,4.66l-20.04.04c-2.46,0-4.5-1.98-4.74-4.61l-1.8-20.2c-.19-2.09,1.25-3.97,3.2-4.17Z"/>
        <path class="cls-12" d="m95.39,276.19c-.83-.02-1.4.67-1.28,1.54l.94,6.76c.12.87.9,1.58,1.72,1.56l52.4-.77c.84-.01,1.52-.75,1.51-1.64l-.02-4.25c0-.89-.69-1.64-1.53-1.66l-53.75-1.55Z"/>
        <path class="cls-18" d="m170.27,266.64c5.41-.53,15.55-.91,21.14-1.08,2.37-.08,4.43,1.59,4.96,4.03,1.03,4.73,2.43,12.94,2.15,21.65-.08,2.61-2.12,4.71-4.59,4.72l-20.55.04c-2.52,0-4.6-2.01-4.81-4.67l-1.64-20.46c-.17-2.12,1.33-4.03,3.33-4.22Z"/>
        <path class="cls-20" d="m206.73,274.42c-.85-.02-1.44.68-1.33,1.56l.9,6.85c.12.88.9,1.6,1.75,1.58l53.77-.79c.86-.01,1.56-.76,1.57-1.66l.02-4.3c0-.9-.69-1.66-1.55-1.68l-55.12-1.56Z"/>
        <g>
          <path class="cls-2" d="m88.06,348.17h-.05s-18.43-.05-18.43-.05c-2.63,0-4.8-1.92-5.05-4.45l-1.64-16.48c-.1-.97.18-1.93.79-2.71.68-.87,1.7-1.42,2.81-1.52h0c1.55-.13,3.74-.35,6.05-.59,4.88-.5,10.96-1.11,14.39-1.2,2.49-.04,4.6,1.51,5.18,3.82.96,3.8.87,10.99.68,18.65-.06,2.48-2.18,4.5-4.74,4.52Zm-21.47-23.7c-.73.06-1.4.41-1.83.97-.36.46-.52,1.02-.47,1.57l1.64,16.48c.18,1.77,1.75,3.11,3.66,3.11l18.43.05h.04c1.79-.01,3.27-1.37,3.32-3.04.19-7.54.28-14.61-.63-18.21-.41-1.61-1.98-2.72-3.79-2.71-3.37.08-9.43.69-14.28,1.19-2.32.24-4.51.46-6.08.59h0Z"/>
          <path class="cls-21" d="m68.58,326.17c3.87-.32,12.3-1.32,16.3-1.42,1.7-.04,3.19,1.04,3.58,2.61.77,3.04.66,9.12.53,14.72-.04,1.68-1.49,3.03-3.25,3.02l-14.73-.03c-1.81,0-3.31-1.31-3.48-3.02l-1.31-13.18c-.14-1.36.92-2.58,2.36-2.7Z"/>
          <path class="cls-13" d="m104.34,337.06c.53,2.16,2.38,3.65,4.49,3.61l175.28-3.06c2.02-.04,3.68-1.79,3.67-3.9,0-2.05-1.58-3.68-3.54-3.67l-175.41.82c-3.03.01-5.26,3.09-4.49,6.2Z"/>
          <path class="cls-19" d="m69.37,328.75h0c1.37-.87,3.13-.38,3.9,1.1l3.64,6.93c.36.69,1.32.64,1.62-.09l9.05-21.59c.45-1.08,1.95-.73,1.93.44-.1,6.59-1.74,19.11-11.57,29.63,0,0-5.4-2.2-9.76-12.36-.63-1.47-.12-3.22,1.19-4.06Z"/>
          <path class="cls-2" d="m88.04,390.17h-.05s-18.35-.14-18.35-.14c-2.62-.02-4.78-1.93-5.03-4.44l-1.64-16.36c-.1-.96.18-1.91.78-2.68.67-.86,1.7-1.4,2.8-1.49h0c1.55-.12,3.72-.33,6.03-.55,4.86-.47,10.92-1.05,14.33-1.12.02,0,.05,0,.07,0,2.42-.01,4.51,1.55,5.09,3.81.96,3.77.86,10.91.67,18.51-.06,2.47-2.17,4.46-4.72,4.46Zm-21.38-23.61c-.73.06-1.39.4-1.82.95-.36.45-.52,1.01-.46,1.56l1.63,16.36c.18,1.76,1.74,3.09,3.64,3.1l18.36.13h.04c1.78,0,3.26-1.34,3.3-3,.19-7.48.28-14.5-.63-18.07-.41-1.6-2-2.75-3.78-2.71-3.36.06-9.39.64-14.23,1.11-2.31.22-4.5.43-6.05.55h0Z"/>
          <path class="cls-15" d="m68.63,368.23c3.86-.3,12.25-1.25,16.24-1.33,1.69-.03,3.17,1.05,3.57,2.6.77,3.02.66,9.05.52,14.61-.04,1.66-1.48,3-3.24,2.98l-14.67-.11c-1.8-.01-3.3-1.31-3.47-3.01l-1.3-13.08c-.14-1.35.92-2.56,2.35-2.67Z"/>
          <path class="cls-16" d="m104.25,379.22c.53,2.15,2.37,3.63,4.47,3.61l174.58-2.19c2.02-.03,3.66-1.76,3.66-3.85,0-2.04-1.57-3.66-3.53-3.66l-174.7-.03c-3.02,0-5.24,3.04-4.48,6.13Z"/>
          <path class="cls-14" d="m69.41,370.8h0c1.36-.86,3.12-.36,3.89,1.11l3.63,6.89c.36.69,1.31.64,1.62-.08l9.01-21.38c.45-1.07,1.94-.72,1.93.45-.1,6.54-1.73,18.95-11.52,29.34,0,0-5.38-2.21-9.72-12.31-.63-1.46-.12-3.2,1.18-4.02Z"/>
          <path class="cls-2" d="m88.01,431.83h-.05s-18.28-.22-18.28-.22c-2.61-.03-4.76-1.93-5.01-4.43l-1.63-16.24c-.1-.96.18-1.9.78-2.66.67-.85,1.69-1.39,2.79-1.47h0c1.54-.11,3.71-.31,6.01-.52,4.84-.44,10.88-.99,14.28-1.04.02,0,.05,0,.07,0,2.42,0,4.49,1.55,5.07,3.81.95,3.75.86,10.83.67,18.37-.06,2.45-2.17,4.41-4.7,4.41Zm-21.3-23.53c-.73.05-1.39.39-1.82.94-.35.45-.52,1-.46,1.55l1.63,16.24c.17,1.74,1.73,3.07,3.63,3.1l18.29.22h.04c1.78,0,3.25-1.32,3.29-2.96.19-7.42.28-14.38-.63-17.94-.41-1.59-1.99-2.74-3.76-2.7-3.35.05-9.35.59-14.17,1.03-2.3.21-4.48.41-6.03.52h0Z"/>
          <path class="cls-17" d="m68.68,409.98c3.84-.28,12.2-1.18,16.17-1.24,1.68-.02,3.16,1.05,3.55,2.6.77,3,.66,8.99.52,14.5-.04,1.65-1.48,2.97-3.22,2.94l-14.61-.17c-1.79-.02-3.28-1.32-3.45-3.01l-1.3-12.98c-.13-1.34.92-2.54,2.34-2.64Z"/>
          <path class="cls-27" d="m104.16,421.05c.53,2.13,2.36,3.62,4.45,3.6l173.89-1.34c2.01-.02,3.65-1.73,3.64-3.8,0-2.02-1.56-3.64-3.52-3.65l-174.01-.87c-3.01-.02-5.22,2.99-4.46,6.06Z"/>
          <path class="cls-30" d="m69.46,412.53h0c1.36-.85,3.1-.34,3.87,1.12l3.61,6.86c.36.69,1.31.64,1.61-.07l8.97-21.17c.45-1.06,1.94-.7,1.92.46-.1,6.49-1.73,18.8-11.48,29.06,0,0-5.36-2.22-9.69-12.26-.62-1.45-.12-3.18,1.18-3.98Z"/>
          <path class="cls-2" d="m87.98,473.17h-.05s-18.21-.31-18.21-.31c-2.6-.04-4.74-1.94-4.99-4.42l-1.62-16.12c-.1-.95.18-1.88.78-2.64.67-.84,1.68-1.37,2.78-1.44h0c1.53-.1,3.69-.29,5.98-.49,4.82-.42,10.84-.93,14.22-.96.02,0,.05,0,.07,0,2.41,0,4.48,1.56,5.05,3.8.95,3.72.86,10.75.67,18.23-.06,2.43-2.16,4.37-4.68,4.35Zm-21.22-23.45c-.72.05-1.38.39-1.81.92-.35.44-.52.99-.46,1.53l1.62,16.13c.17,1.73,1.73,3.06,3.61,3.09l18.21.31h.04c1.77.01,3.24-1.29,3.28-2.92.19-7.36.28-14.27-.62-17.8-.4-1.58-1.98-2.73-3.75-2.7-3.33.03-9.32.54-14.12.96-2.29.2-4.46.38-6.01.49h0Z"/>
          <path class="cls-28" d="m68.73,451.4c3.83-.26,12.15-1.12,16.11-1.15,1.68-.01,3.15,1.06,3.54,2.6.76,2.98.66,8.92.52,14.39-.04,1.64-1.47,2.94-3.21,2.91l-14.56-.24c-1.79-.03-3.27-1.32-3.44-3l-1.29-12.89c-.13-1.33.91-2.51,2.33-2.61Z"/>
          <path class="cls-26" d="m104.07,462.55h0c.53,2.12,2.35,3.6,4.43,3.59l173.2-.5c2,0,3.63-1.7,3.63-3.76,0-2-1.56-3.62-3.5-3.64l-173.31-1.7c-3-.03-5.2,2.94-4.44,5.99Z"/>
          <path class="cls-31" d="m69.51,453.93h0c1.35-.83,3.09-.32,3.86,1.13l3.6,6.82c.36.68,1.3.64,1.6-.06l8.94-20.96c.45-1.05,1.93-.69,1.91.46-.1,6.44-1.72,18.64-11.43,28.78,0,0-5.34-2.22-9.65-12.22-.62-1.44-.12-3.15,1.17-3.95Z"/>
        </g>
      </g>
      <path class="cls-32" d="m180.89,5.71c-9.78-6.99-18.33-6.44-24.35-4.22-5.48,2.02-9.06,7.94-8.58,14.1l2.39,30.52,30.71,1.67s19.04-28.33-.18-42.06Zm-13.78,25.45c-4.24.19-7.64-3.4-7.61-8.01.03-4.61,3.5-8.51,7.74-8.71s7.66,3.4,7.63,8.02-3.51,8.51-7.75,8.69Z"/>
      <path class="cls-34" d="m153.5,33.1c-.38.02-.7-.28-.73-.7l-.38-4.86c-.03-.44.27-.85.68-.91.42-.06.77.25.8.69l.38,4.86c.03.44-.27.85-.68.91-.02,0-.05,0-.07,0Zm-.74-9.53c-.38.02-.7-.28-.73-.7l-.29-3.7c-.46-5.87,2.98-11.51,8.18-13.42,3.69-1.36,7.48-1.7,11.28-1.03.4.07.66.49.57.93-.09.44-.48.74-.88.67-3.56-.63-7.11-.3-10.56.96-4.52,1.66-7.51,6.57-7.11,11.68l.29,3.7c.03.44-.27.85-.68.91-.02,0-.05,0-.07,0Z"/>
      <path class="cls-36" d="m108.7,67.47l.04-15.25c.01-5.27,4.03-9.67,8.87-9.7l97.75-.52c4.39-.02,7.9,3.57,8.1,8.29l.64,14.81-115.39,2.37Z"/>
      <path class="cls-35" d="m144.86,47.14l-4.18.18c-.41.02-.74-.33-.73-.77s.33-.82.74-.83l4.18-.18c.41-.02.74.33.73.77s-.34.82-.74.83Z"/>
      <path class="cls-33" d="m113.93,62.47c-.4.02-.73-.33-.73-.77l.02-6.17c.01-4.78,3.59-8.81,7.97-9l15.32-.65c.41-.02.74.33.73.77s-.33.82-.74.83l-15.32.64c-3.57.15-6.49,3.44-6.5,7.34l-.02,6.17c0,.44-.33.81-.73.83Z"/>
      <path class="cls-29" d="m78.63,63.11l170.61-6.93c6.26-.25,11.54,4.37,12.5,10.95l.13.91c1.05,7.2-4.26,14.01-11.1,14.27l-174.61,6.56c-3.93.15-7.06-3.32-6.88-7.62l.36-8.39c.22-5.26,4.18-9.55,8.99-9.74Z"/>
    </g>
  </g>
</svg>