<?xml version="1.0" encoding="UTF-8"?>
<svg id="Layer_2" data-name="Layer 2" xmlns="http://www.w3.org/2000/svg" viewBox="0 0 720.33 357.12">
  <defs>
    <style>
      .cls-1, .cls-2, .cls-3, .cls-4, .cls-5, .cls-6 {
        fill: none;
      }

      .cls-1, .cls-7, .cls-8 {
        opacity: .3;
      }

      .cls-2, .cls-9 {
        opacity: .4;
      }

      .cls-3 {
        opacity: .6;
      }

      .cls-4 {
        opacity: .7;
      }

      .cls-10, .cls-11, .cls-12, .cls-8, .cls-9 {
        fill: #fff;
      }

      .cls-10, .cls-5 {
        opacity: .1;
      }

      .cls-13 {
        fill: #007cff;
      }

      .cls-14 {
        fill: #ececec;
      }

      .cls-15, .cls-16 {
        fill: #b9b9b9;
      }

      .cls-17 {
        fill: #ce4c38;
      }

      .cls-18 {
        fill: #df7b62;
      }

      .cls-19 {
        fill: #e37b62;
      }

      .cls-20 {
        fill: #1a2e35;
      }

      .cls-16, .cls-6 {
        opacity: .21;
      }

      .cls-12, .cls-21, .cls-22 {
        opacity: .2;
      }

      .cls-7, .cls-22 {
        isolation: isolate;
      }
    </style>
  </defs>
  <g id="Layer_1-2" data-name="Layer 1">
    <g>
      <path class="cls-16" d="m494.98,79.39c20.91.06,79.55,8.57,79.55-22.93,0-26.76-28.66-24.79-28.66-24.79,0,0,.83-23.19-24.7-26.27-26.19-3.16-30.14,21.89-30.14,21.89,0,0-45.46-15.95-38.54,24.08,0,0-25.2-4.45-25.2,13.57,0,20.14,47.43,14.4,67.69,14.45Z"/>
      <g class="cls-6">
        <path class="cls-15" d="m110.97,332.52c34.28.1,130.41,15.85,130.41-42.42,0-49.51-46.98-45.87-46.98-45.87,0,0,1.36-42.9-40.5-48.6-42.93-5.85-49.41,40.5-49.41,40.5,0,0-74.52-29.51-63.18,44.55,0,0-41.31-8.23-41.31,25.11,0,37.26,77.76,26.63,110.97,26.73Z"/>
      </g>
      <path class="cls-16" d="m631.24,214.75c23.42.06,89.09,9.04,89.09-24.2,0-28.24-32.1-26.16-32.1-26.16,0,0,.93-24.47-27.67-27.72-29.33-3.34-33.76,23.1-33.76,23.1,0,0-50.91-16.84-43.16,25.41,0,0-28.22-4.7-28.22,14.32,0,21.26,53.12,15.19,75.81,15.25Z"/>
      <g>
        <rect class="cls-14" x="417.53" y="335.49" width="98.04" height=".26"/>
        <rect class="cls-14" x="537.11" y="331.07" width="6.63" height=".26"/>
        <g>
          <g>
            <rect class="cls-13" x="340.37" y="189.6" width="61.93" height="167.48"/>
            <rect class="cls-21" x="384.82" y="189.44" width="17.5" height="167.68" transform="translate(787.13 546.55) rotate(-180)"/>
          </g>
          <g>
            <rect class="cls-13" x="402.38" y="256.58" width="61.93" height="100.5"/>
            <rect class="cls-21" x="445.7" y="256.58" width="18.61" height="100.4"/>
          </g>
          <g>
            <rect class="cls-13" x="464.36" y="277.92" width="61.93" height="79.16"/>
            <rect class="cls-21" x="507.86" y="277.92" width="18.42" height="79.06"/>
          </g>
          <g>
            <rect class="cls-13" x="526.3" y="299.26" width="61.92" height="57.82"/>
            <rect class="cls-21" x="570.72" y="299.21" width="17.5" height="57.77" transform="translate(1158.95 656.18) rotate(-180)"/>
          </g>
        </g>
        <g>
          <g>
            <g>
              <path class="cls-13" d="m419.86,60.21c2.94,3.56,5.97,7.04,9,10.52l2.29,2.59,2.06,2.29c.85,1,1.4,2.25,1.6,3.61l.69,6.76c.23,2.29.45,4.58.72,6.87.51,4.58,1.03,9.16,1.65,13.74.22,1.6,1.69,2.73,3.29,2.51,1.41-.19,2.46-1.36,2.53-2.74.27-4.6.44-9.21.6-13.8.09-2.3.14-4.6.2-6.9l.16-7.01c-.04-3.23-1.11-6.47-2.95-9.19l-2.28-3.06-2.07-2.74c-2.78-3.64-5.56-7.28-8.42-10.84-2.03-2.52-5.71-2.92-8.23-.89-2.52,2.03-2.92,5.71-.89,8.23,0,.01.04.05.05.06Z"/>
              <g>
                <path class="cls-18" d="m444.42,106.9l3.83,6.49-8.81.89-1.55-6.59c-.18-.78.32-1.57,1.11-1.7,1.46-.25,3.74-.35,5.42.91Z"/>
                <path class="cls-18" d="m448.25,113.39l-.4,2.3c-.2,1.14-1.19,1.96-2.34,1.96h-2.87c-.87-.01-1.67-.49-2.08-1.26l-1.11-2.1,8.81-.89Z"/>
              </g>
              <g>
                <polygon class="cls-13" points="445.04 102.03 436.57 102.32 437.11 107.39 444.27 106.83 445.04 102.03"/>
                <polygon class="cls-8" points="445.04 102.03 436.57 102.32 437.11 107.39 444.27 106.83 445.04 102.03"/>
              </g>
            </g>
            <g>
              <path class="cls-20" d="m436.49,155.19l1.39,2.09,1.07-2.16-2.54-32.86c-.4-5.22,1.36-9.52,7.86-9.67,6.08-.15,9.77,4.01,10.19,9.22l2.66,32.8,1.46,2.09.99-2.16-2.68-32.79c-.5-6.06-3.19-10.93-12.75-10.7-9.58.23-10.64,5.2-10.18,11.27l2.52,32.87Z"/>
              <g>
                <g>
                  <path class="cls-20" d="m463.43,133.03h1.68c3.5-.02,6.47,2.57,6.92,6.04l3.1,23.68-10.9.39-.79-30.11Z"/>
                  <path class="cls-12" d="m463.43,133.03h1.68c3.5-.02,6.47,2.57,6.92,6.04l3.1,23.68-10.9.39-.79-30.11Z"/>
                </g>
                <g>
                  <path class="cls-20" d="m432.65,155.47l2.46-.07-.24-32.86c-.04-5.22,2.02-9.52,8.53-9.67,6.09-.15,9.49,4.01,9.55,9.22l.37,32.8,2.45-.07-.39-32.79c-.07-6.06-2.42-10.93-12-10.7-9.59.23-11.01,5.2-10.97,11.27l.22,32.87Z"/>
                  <path class="cls-20" d="m421.09,164.42l48.46-1.44-.47-24.43c-.05-3.13-2.58-5.6-5.65-5.52l-35.28.92c-3.99.1-7.2,3.46-7.19,7.51l.13,22.95Z"/>
                  <path class="cls-9" d="m426.46,164.26l37.77-1.12c2.94-.09,5.29-2.6,5.25-5.61l-.39-18.98c-.05-3.13-2.58-5.6-5.65-5.52l-35.28.92c-3.99.1-7.2,3.46-7.19,7.51l.11,17.48c.01,3.02,2.43,5.4,5.39,5.31Z"/>
                  <g class="cls-1">
                    <path class="cls-11" d="m432.65,155.47l1.25,2.09,1.22-2.16-.24-32.86c-.04-5.22,2.02-9.52,8.53-9.67,6.09-.15,9.49,4.01,9.55,9.22l.37,32.8,1.31,2.09,1.14-2.16-.39-32.79c-.07-6.06-2.42-10.93-12-10.7-9.59.23-11.01,5.2-10.97,11.27l.22,32.87Z"/>
                  </g>
                  <polygon class="cls-20" points="452.48 142.21 456.52 142.1 456.5 140.58 452.47 140.69 452.48 142.21"/>
                  <polygon class="cls-20" points="452.59 152.07 456.64 151.96 456.62 150.43 452.58 150.55 452.59 152.07"/>
                  <polygon class="cls-20" points="431.73 142.77 435.78 142.66 435.77 141.14 431.72 141.25 431.73 142.77"/>
                  <polygon class="cls-20" points="431.79 152.65 435.86 152.54 435.85 151.01 431.78 151.12 431.79 152.65"/>
                  <polygon class="cls-11" points="439.46 143.43 448.13 143.2 448.09 139.94 439.43 140.18 439.46 143.43"/>
                </g>
              </g>
            </g>
            <g>
              <g>
                <g>
                  <path class="cls-20" d="m402.04,23.49c-.33-.06-.69.28-.8.79-.11.5.07.98.4,1.04.33.06.69-.28.8-.79.13-.52-.07-.98-.4-1.04Z"/>
                  <path class="cls-20" d="m401.98,23.91c-.34-.16-.65-.52-.79-.87.29.27.69.43,1.09.42-.15.09-.29.27-.3.45Z"/>
                  <path class="cls-17" d="m401.31,29.03c-.88.04-1.73-.32-2.32-.97,1.28-1.11,2.41-2.4,3.34-3.81l-1.02,4.78Z"/>
                  <path class="cls-20" d="m404.85,22.66c-.48-.61-1.23-.95-2.01-.9h0s-.07.02-.1.01c-.17,0-.31-.14-.3-.31,0-.17.14-.31.31-.3.97-.08,1.92.32,2.55,1.06.05.06.07.13.07.2,0,.17-.14.31-.31.31-.08,0-.15-.02-.21-.07Z"/>
                  <path class="cls-18" d="m408.03,52.91c8.71.09,10.04-4.65,10.04-4.65-2.59-2.54-2.72-7.19-2.17-11.33-.67.94-1.5,1.76-2.59,2.48-2.08,1.37-6.6-.83-6.6-.83-.01,0,0,.77-.06,1.88-.14,2.71-.74,7.48-3.21,8.22,0,0-5.02,4.12,4.58,4.22Z"/>
                  <path class="cls-18" d="m406.59,39.29c.09.4.18.8.24,1.22.04.02.07.04.11.04,2.04.51,4.29.23,6.38-1.14,1.1-.73,1.93-1.54,2.59-2.48.13-1.05.32-2.08.52-3.02l-9.48,5.18-.35.19Z"/>
                  <g>
                    <path class="cls-18" d="m400.35,32.18c.06,3.22,1.82,5.94,4.29,7.41h.01s.02.01.04.01c.66.42,1.38.72,2.14.91.04.02.07.04.11.04,2.04.51,4.29.23,6.38-1.14,1.1-.73,1.93-1.54,2.59-2.48,1.71-2.34,2.42-5.47,3.64-9.86.38-1.29.45-2.66.21-3.98-.86-4.73-5.38-7.86-10.1-7.01-6.62,1.17-9.44,10.21-9.31,16.09Z"/>
                    <path class="cls-21" d="m405.12,39.77c.61.39.91.54,1.54.7.06-1.11.05-1.88.06-1.88-.06-.97-.13-1.94-.13-1.94,0,.04-1.02,3.12-1.47,3.12Z"/>
                  </g>
                  <path class="cls-20" d="m402.64,20.31c.71,1.13,2.94,2.08,2.86,1.82-.38-.93-.31-2.73.85-2.31-.32.72-1.28,6.09-.85,6.74.24.36.46,4.66,2.29,8.45,1.46,3.02,1.46,3.96,1.46,3.96l5.94,1.15c2.22-.28,4.3-3.12,4.48-3.44.78-1.34,3.15-3.09,4.39-4.02.53-.4.95-.99,1.18-1.63.41-1.14-.43-5.25-.61-7.18-.26-2.78-1.72-5.35-5.75-7.01-2.49-1.02-4.59-3.26-7.14-4.15-2.54-.89-5.57-.85-7.72.78-1.06.8-3.16,4.01-1.39,6.84Z"/>
                  <path class="cls-18" d="m405.75,24.22c-1.83.54-2.79,3.24-2.86,4.95-.09,1.89,1.18,3.09,2.83,1.82,1.24-.98,2.13-2.33,2.53-3.86.45-1.86-.66-3.44-2.49-2.91Z"/>
                  <g>
                    <path class="cls-13" d="m403.54,30.53c0,.44.36.8.8.8s.8-.36.8-.8-.36-.8-.8-.8-.8.36-.8.8Z"/>
                    <path class="cls-8" d="m403.54,30.53c0,.44.36.8.8.8s.8-.36.8-.8-.36-.8-.8-.8-.8.36-.8.8Z"/>
                  </g>
                </g>
                <g id="_Group_" data-name="&amp;lt;Group&amp;gt;">
                  <g>
                    <path class="cls-13" d="m420.57,51.4s-1.35-4.17-3.39-5.49c-2.04-1.32-11,.05-12.4.6-1.4.55-2.82,3.78-2.82,3.78l18.62,1.11Z"/>
                    <path class="cls-8" d="m420.57,51.4s-1.35-4.17-3.39-5.49c-2.04-1.32-11,.05-12.4.6-1.4.55-2.82,3.78-2.82,3.78l18.62,1.11Z"/>
                    <g>
                      <g>
                        <path class="cls-13" d="m400.12,49.62c1.39-.23,1.78-.44,3.37-.57,4.81-.23,9.62-.17,14.42.16,1.75.13,3.44.46,5.11.87,3.44.83,5.76,4.03,5.5,7.53-.71,9.8-3.61,15.55-4.04,22-.85,12.85,1.2,21.86,1.55,24.86l-6.59,1c-11.77-.28-19.58-2.81-26.06-5.56h0s1.7-15.54.06-21.13c-4.48-15.29-1.57-17.71-.69-22.09.74-3.64,3.67-6.45,7.36-7.05Z"/>
                        <path class="cls-10" d="m393.45,78.76c.54,1.83.71,4.7.71,7.75,0,6.32-.77,13.39-.77,13.39,6.47,2.76,14.29,5.29,26.06,5.57l6.59-1.01c-.35-3-2.4-12.01-1.56-24.86.43-6.45,3.32-12.19,4.04-22,.26-3.5-2.06-6.71-5.5-7.52-1.67-.41-3.36-.74-5.11-.87-4.8-.33-9.61-.39-14.42-.16-1.59.13-1.98.34-3.37.57-3.7.61-6.62,3.41-7.36,7.06-.32,1.57-.9,2.89-1.3,4.65-.49,2.13-.73,4.9.09,9.55.37,2.18.98,4.76,1.9,7.89Z"/>
                      </g>
                      <path class="cls-13" d="m398.22,49.14c-2.41.34-4.79.82-7.18,1.22-2.39.46-4.77.93-7.15,1.44l.86-.07c-1.06.05-2,.13-2.58.17-.28.02-.48.02-.41.06.01.02.15.07.32.17.2.11.45.29.71.56.55.55.77,1.28.75,1.5,0,.24-.07.18-.08,0-.04-.38.04-1.1.2-1.84l-.11.31c1.21-3.48,2.35-6.99,3.4-10.54,1.02-3.56,2-7.13,2.69-10.81.27-1.41-.66-2.78-2.08-3.04-1.08-.2-2.14.3-2.69,1.18-1.99,3.18-3.7,6.46-5.37,9.76-1.64,3.31-3.18,6.67-4.66,10.04l-.11.31c-.4,1.07-.8,2.19-1.04,3.7-.11.76-.19,1.66-.01,2.83.16,1.15.79,2.79,2.03,3.99.61.61,1.26,1.03,1.88,1.36.59.3,1.18.51,1.66.64,1,.28,1.74.36,2.41.42,1.31.12,2.27.13,3.1.18h.13s.73-.07.73-.07c2.42-.25,4.83-.54,7.24-.85,2.4-.36,4.82-.64,7.21-1.07,3.18-.57,5.3-3.61,4.74-6.79-.55-3.11-3.48-5.2-6.58-4.77Z"/>
                      <g class="cls-5">
                        <path class="cls-11" d="m398.22,49.14c-2.41.34-4.79.82-7.18,1.22-2.39.46-4.77.93-7.15,1.44l.86-.07c-1.06.05-2,.13-2.58.17-.28.02-.48.02-.41.06.01.02.15.07.32.17.2.11.45.29.71.56.55.55.77,1.28.75,1.5,0,.24-.07.18-.08,0-.04-.38.04-1.1.2-1.84l-.11.31c1.21-3.48,2.35-6.99,3.4-10.54,1.02-3.56,2-7.13,2.69-10.81.27-1.41-.66-2.78-2.08-3.04-1.08-.2-2.14.3-2.69,1.18-1.99,3.18-3.7,6.46-5.37,9.76-1.64,3.31-3.18,6.67-4.66,10.04l-.11.31c-.4,1.07-.8,2.19-1.04,3.7-.11.76-.19,1.66-.01,2.83.16,1.15.79,2.79,2.03,3.99.61.61,1.26,1.03,1.88,1.36.59.3,1.18.51,1.66.64,1,.28,1.74.36,2.41.42,1.31.12,2.27.13,3.1.18h.13s.73-.07.73-.07c2.42-.25,4.83-.54,7.24-.85,2.4-.36,4.82-.64,7.21-1.07,3.18-.57,5.3-3.61,4.74-6.79-.55-3.11-3.48-5.2-6.58-4.77Z"/>
                      </g>
                    </g>
                  </g>
                </g>
                <g>
                  <g>
                    <g>
                      <g>
                        <polygon class="cls-13" points="354.95 26.61 323.57 25.65 324.05 15.82 355.36 17.88 354.95 26.61"/>
                        <polygon class="cls-13" points="378.66 26.99 353.29 26.17 353.67 18.11 379 19.75 378.66 26.99"/>
                        <polygon class="cls-20" points="356.64 26.38 354.98 26.56 355.39 17.94 357.03 18.28 356.64 26.38"/>
                        <polygon class="cls-21" points="356.64 26.38 354.98 26.56 355.39 17.94 357.03 18.28 356.64 26.38"/>
                        <polygon class="cls-20" points="354.97 26.61 353.27 26.56 353.69 17.77 355.39 17.89 354.97 26.61"/>
                        <polygon class="cls-20" points="382.6 25.8 380.08 26.97 380.41 19.91 382.81 21.31 382.6 25.8"/>
                        <g>
                          <polygon class="cls-20" points="395.49 25.71 388.03 25.32 388.19 22.02 395.65 22.46 395.49 25.71"/>
                          <polygon class="cls-21" points="395.49 25.71 388.03 25.32 388.19 22.02 395.65 22.46 395.49 25.71"/>
                        </g>
                        <polygon class="cls-20" points="389.05 25.99 380.75 25.67 380.97 21.05 389.26 21.54 389.05 25.99"/>
                        <polygon class="cls-21" points="382.6 25.8 380.08 26.97 380.41 19.91 382.81 21.31 382.6 25.8"/>
                        <polygon class="cls-20" points="380.04 27.03 378.66 26.99 379 19.75 380.38 19.84 380.04 27.03"/>
                        <polygon class="cls-20" points="324.64 25.68 319.71 25.51 320.2 15.64 325.12 15.89 324.64 25.68"/>
                        <path class="cls-13" d="m322.45,26.38l-6.28-.18-.16-.43c-1.34-3.72-1.07-7.84.74-11.35h0s6.26.43,6.26.43l-.14.33c-1.49,3.56-1.64,7.54-.43,11.2h0Z"/>
                        <g>
                          <g class="cls-2">
                            <path class="cls-11" d="m329.14,16.91l-2.54-.16-.05,1.08,2.58.15c.06-.35.04-.72.01-1.08Z"/>
                            <path class="cls-11" d="m330.68,17.03c.03.36.04.72-.01,1.07l22.03,1.25.05-.98-22.07-1.34Z"/>
                          </g>
                          <g class="cls-2">
                            <polygon class="cls-11" points="378.47 20.32 378.42 21.2 357.73 19.97 357.77 19.01 378.47 20.32"/>
                          </g>
                          <g class="cls-2">
                            <polygon class="cls-11" points="322.46 15.19 322.4 16.29 317.49 15.96 317.55 14.85 322.46 15.19"/>
                          </g>
                        </g>
                      </g>
                      <g>
                        <path class="cls-7" d="m316.81,24.76c.03.37.05.75,0,1.12l5.08.17.06-1.1-5.13-.2Z"/>
                        <path class="cls-7" d="m325.91,24.14c.03.36.05.73-.01,1.09l26.94.96.05-.98-26.98-1.07Z"/>
                        <path class="cls-7" d="m357.97,25.09c.02.32.03.64-.01.96l20.02.7.05-.88-20.05-.78Z"/>
                      </g>
                    </g>
                    <path class="cls-13" d="m397.17,22.59l-.07,3.16c-.01.54-.5.96-1.09.95l-2.57-.04.11-5.18,2.56.09c.59.02,1.06.47,1.05,1.01Z"/>
                  </g>
                  <path class="cls-19" d="m383.91,31.36l-.97-5.89c-.04-.24-.05-.49-.03-.74l.28-3.12c.05-.4.33-.8.77-.94l4.71-.05c.62-.2,1.3.1,1.51.65l.85,3.86c.06.29.06.59-.02.87l-1.4,5.31c-.13.44-.54.79-1.05.89l-3.07.03c-.72.14-1.42-.25-1.57-.87Z"/>
                  <g>
                    <polygon class="cls-13" points="381.14 33.84 389.15 36.65 390.48 31.74 383.61 29.65 381.14 33.84"/>
                    <polygon class="cls-8" points="381.14 33.84 389.15 36.65 390.48 31.74 383.61 29.65 381.14 33.84"/>
                  </g>
                </g>
                <path class="cls-21" d="m391.55,70.87l6.13-11.57-6.23,2.02c-.49,2.13-.73,4.9.09,9.55Z"/>
              </g>
              <g>
                <polygon class="cls-19" points="359.94 166.96 361.21 182.68 354.06 182.81 352.09 166.62 359.94 166.96"/>
                <path class="cls-20" d="m352.92,180.66l8.16.17c.31,0,.57.24.64.56l1.41,7.16c.13.63-.24,1.26-.83,1.39-.08.02-.15.03-.23.03-2.94-.11-5.56-.34-9.22-.41-4.32-.09-3.23.49-8.31.47-3.06-.02-3.59-3.77-2.29-3.92,5.95-.68,6.59-2.6,8.9-4.83.5-.43,1.14-.64,1.78-.6Z"/>
                <g>
                  <polygon class="cls-19" points="438.08 234.32 440.97 248.76 433.28 251.11 429.57 236.37 438.08 234.32"/>
                  <path class="cls-20" d="m396.92,100.53s10.95,63.91,16.9,82.72c4.23,13.39,15.59,57.21,15.59,57.21l10.3-2.28s1.15-29.82-4.58-45.22c-1.95-5.25-4.51-9.99-5.2-13.25-2.95-13.91,3.13-39.15.44-57.97-1.46-10.2-4.57-17.48-4.57-17.48l-28.89-3.73Z"/>
                  <path class="cls-20" d="m413.81,183.24c4.23,13.39,15.59,57.21,15.59,57.21l10.3-2.28s1.15-29.82-4.58-45.22c-1.95-5.25-4.51-9.99-5.2-13.25-2.95-13.91,3.13-39.15.44-57.97-1.46-10.2-4.57-17.48-4.57-17.48"/>
                  <polygon class="cls-22" points="410.34 120.28 404.83 141.93 400.8 121.22 410.34 120.28"/>
                  <path class="cls-20" d="m351.59,174.5l10.07.32s-.74-13.18-.74-32.39c0-2.96-.46-5.88-1.11-8.5-1.43-5.87-3.76-10.25-3.76-10.25,0,0,1.08.06,2.92.15,5.69.29,40.99,2.12,41.68,2.06.52-.05,3.73.37,9.48-2.43,10.68-5.21,10.79-19.83,10.79-19.83l-27.51-3.74s-.45.08-7.08.2c-20.08.35-44.76,1.12-49.1,8.02-6.09,9.7,14.36,66.38,14.36,66.38Z"/>
                  <path class="cls-20" d="m432.89,247.37l8.44.11c.32,0,.58.24.63.57l1.05,7.22c.1.64-.32,1.27-.94,1.41-.08.02-.16.03-.24.03-3.04-.1-5.73-.31-9.52-.35-4.47-.06-3.37.52-8.64.52-3.17,0-3.5-3.78-2.15-3.95,6.2-.73,6.97-2.66,9.49-4.94.54-.44,1.21-.66,1.88-.62Z"/>
                </g>
              </g>
            </g>
          </g>
          <path class="cls-22" d="m359.81,133.93c-1.43-5.87-3.76-10.25-3.76-10.25,0,0,1.08.06,2.92.15.08-.03.17-.05.27-.05l-7.34-.62,7.9,10.77Z"/>
        </g>
      </g>
      <g>
        <g>
          <g>
            <path class="cls-13" d="m213.36,37.73c-3.25,0-5.88-2.63-5.88-5.88V5.88c0-3.25,2.63-5.88,5.88-5.88s5.88,2.63,5.88,5.88v25.97c0,3.25-2.63,5.88-5.88,5.88Z"/>
            <path class="cls-13" d="m213.36,184.12c-3.25,0-5.88-2.63-5.88-5.88v-25.97c0-3.25,2.63-5.88,5.88-5.88s5.88,2.63,5.88,5.88v25.97c0,3.25-2.63,5.88-5.88,5.88Z"/>
          </g>
          <g>
            <path class="cls-13" d="m170.78,55.37c-1.5,0-3.01-.57-4.16-1.72l-11.23-11.23c-2.3-2.3-2.3-6.02,0-8.32,2.3-2.3,6.02-2.3,8.32,0l11.23,11.23c2.3,2.3,2.3,6.02,0,8.32-1.15,1.15-2.65,1.72-4.16,1.72Z"/>
            <path class="cls-13" d="m266.39,150.98c-1.5,0-3.01-.57-4.16-1.72l-10.47-10.47c-2.3-2.3-2.3-6.02,0-8.32,2.3-2.3,6.02-2.3,8.32,0l10.47,10.47c2.3,2.3,2.3,6.02,0,8.32-1.15,1.15-2.65,1.72-4.16,1.72Z"/>
          </g>
          <g>
            <path class="cls-13" d="m153.15,97.94h-25.97c-3.25,0-5.88-2.63-5.88-5.88s2.63-5.88,5.88-5.88h25.97c3.25,0,5.88,2.63,5.88,5.88s-2.63,5.88-5.88,5.88Z"/>
            <path class="cls-13" d="m299.53,97.94h-25.97c-3.25,0-5.88-2.63-5.88-5.88s2.63-5.88,5.88-5.88h25.97c3.25,0,5.88,2.63,5.88,5.88s-2.63,5.88-5.88,5.88Z"/>
          </g>
          <g>
            <path class="cls-13" d="m160.89,150.41c-1.5,0-3.01-.57-4.16-1.72-2.3-2.3-2.3-6.02,0-8.32l9.9-9.9c2.29-2.3,6.02-2.3,8.32,0,2.3,2.3,2.3,6.02,0,8.32l-9.9,9.9c-1.15,1.15-2.65,1.72-4.16,1.72Z"/>
            <path class="cls-13" d="m255.93,55.37c-1.5,0-3.01-.57-4.16-1.72-2.3-2.3-2.3-6.02,0-8.32l10.61-10.61c2.3-2.3,6.02-2.3,8.32,0,2.3,2.3,2.3,6.02,0,8.32l-10.61,10.61c-1.15,1.15-2.65,1.72-4.16,1.72Z"/>
          </g>
        </g>
        <g class="cls-3">
          <g>
            <path class="cls-11" d="m213.36,37.73c-3.25,0-5.88-2.63-5.88-5.88V5.88c0-3.25,2.63-5.88,5.88-5.88s5.88,2.63,5.88,5.88v25.97c0,3.25-2.63,5.88-5.88,5.88Z"/>
            <path class="cls-11" d="m213.36,184.12c-3.25,0-5.88-2.63-5.88-5.88v-25.97c0-3.25,2.63-5.88,5.88-5.88s5.88,2.63,5.88,5.88v25.97c0,3.25-2.63,5.88-5.88,5.88Z"/>
          </g>
          <g>
            <path class="cls-11" d="m170.78,55.37c-1.5,0-3.01-.57-4.16-1.72l-11.23-11.23c-2.3-2.3-2.3-6.02,0-8.32,2.3-2.3,6.02-2.3,8.32,0l11.23,11.23c2.3,2.3,2.3,6.02,0,8.32-1.15,1.15-2.65,1.72-4.16,1.72Z"/>
            <path class="cls-11" d="m266.39,150.98c-1.5,0-3.01-.57-4.16-1.72l-10.47-10.47c-2.3-2.3-2.3-6.02,0-8.32,2.3-2.3,6.02-2.3,8.32,0l10.47,10.47c2.3,2.3,2.3,6.02,0,8.32-1.15,1.15-2.65,1.72-4.16,1.72Z"/>
          </g>
          <g>
            <path class="cls-11" d="m153.15,97.94h-25.97c-3.25,0-5.88-2.63-5.88-5.88s2.63-5.88,5.88-5.88h25.97c3.25,0,5.88,2.63,5.88,5.88s-2.63,5.88-5.88,5.88Z"/>
            <path class="cls-11" d="m299.53,97.94h-25.97c-3.25,0-5.88-2.63-5.88-5.88s2.63-5.88,5.88-5.88h25.97c3.25,0,5.88,2.63,5.88,5.88s-2.63,5.88-5.88,5.88Z"/>
          </g>
          <g>
            <path class="cls-11" d="m160.89,150.41c-1.5,0-3.01-.57-4.16-1.72-2.3-2.3-2.3-6.02,0-8.32l9.9-9.9c2.29-2.3,6.02-2.3,8.32,0,2.3,2.3,2.3,6.02,0,8.32l-9.9,9.9c-1.15,1.15-2.65,1.72-4.16,1.72Z"/>
            <path class="cls-11" d="m255.93,55.37c-1.5,0-3.01-.57-4.16-1.72-2.3-2.3-2.3-6.02,0-8.32l10.61-10.61c2.3-2.3,6.02-2.3,8.32,0,2.3,2.3,2.3,6.02,0,8.32l-10.61,10.61c-1.15,1.15-2.65,1.72-4.16,1.72Z"/>
          </g>
        </g>
        <g>
          <g>
            <path class="cls-13" d="m253.56,91.25c0,22.57-18.29,40.86-40.86,40.86-.91,0-1.82-.02-2.73-.09-21.26-1.4-38.11-19.11-38.11-40.77s16.85-39.37,38.11-40.77c.91-.07,1.82-.09,2.73-.09,22.57,0,40.86,18.29,40.86,40.86Z"/>
            <path class="cls-12" d="m248.1,91.25c0,21.66-16.85,39.37-38.13,40.77-21.26-1.4-38.11-19.11-38.11-40.77s16.85-39.37,38.11-40.77c21.28,1.4,38.13,19.11,38.13,40.77Z"/>
            <circle class="cls-9" cx="209.88" cy="91.25" r="30.57" transform="translate(45.26 250.24) rotate(-67.5)"/>
          </g>
          <g class="cls-4">
            <path class="cls-11" d="m223.94,97.76c1.18,6.76-3.46,11.28-11.83,11.99l-.14,5.59h-5.08l.14-5.59c-4.91-.46-9.44-1.98-12.37-3.91l2.3-6.3c3.04,1.98,6.67,3.25,10.24,3.61l.23-8.59c-4.97-1.42-10.49-3.3-11.56-9.45-1.18-6.76,3.56-11.33,12.09-11.94l.14-5.59h5.08l-.13,5.64c3.67.35,7.15,1.37,9.86,2.9l-2,6.3c-2.44-1.47-5.24-2.34-8.03-2.64l-.21,8.94c4.92,1.37,10.27,3.2,11.29,9.05Zm-16.37-10.47l.19-7.32c-2.8.56-4.15,2.13-3.86,4.07.28,1.58,1.71,2.49,3.67,3.25Zm8.36,11.79c-.26-1.47-1.59-2.39-3.48-3.05l-.15,6.96c2.64-.56,3.97-1.98,3.63-3.91Z"/>
          </g>
        </g>
      </g>
    </g>
  </g>
</svg>