<?xml version="1.0" encoding="UTF-8"?>
<svg id="Layer_2" data-name="Layer 2" xmlns="http://www.w3.org/2000/svg" viewBox="0 0 433.58 565.7">
  <defs>
    <style>
      .cls-1 {
        opacity: .3;
      }

      .cls-1, .cls-2 {
        fill: none;
      }

      .cls-3 {
        fill: #f5f5f5;
      }

      .cls-4 {
        fill: #fff;
      }

      .cls-5, .cls-6 {
        fill: #ececec;
      }

      .cls-7 {
        fill: #ffc19d;
      }

      .cls-8 {
        fill: #e0e0e0;
      }

      .cls-9 {
        fill: #375a64;
      }

      .cls-10 {
        fill: #1a2e35;
      }

      .cls-11 {
        fill: #2a68c4;
      }

      .cls-6 {
        fill-rule: evenodd;
      }

      .cls-2 {
        opacity: .2;
      }
    </style>
  </defs>
  <g id="Layer_1-2" data-name="Layer 1">
    <g>
      <polygon class="cls-8" points="117.16 476.89 308.92 476.89 372.26 565.7 50.02 565.7 117.16 476.89"/>
      <polygon class="cls-3" points="67.14 466.04 258.9 466.04 322.24 554.85 0 554.85 67.14 466.04"/>
      <path class="cls-5" d="m120.71,98.71c1.52-.92,3.13-1.61,4.8-2.08l.99-4.75,8.02-.14,1.15,4.71c1.68.41,3.32,1.05,4.87,1.91l4.05-2.66,5.77,5.57-2.51,4.14c.92,1.52,1.61,3.13,2.08,4.8l4.75.99.14,8.02-4.71,1.15c-.41,1.68-1.05,3.32-1.91,4.87l2.66,4.05-5.57,5.77-4.14-2.51c-1.52.92-3.13,1.61-4.8,2.08l-.99,4.75-8.02.14-1.15-4.71c-1.68-.41-3.32-1.05-4.87-1.91l-4.05,2.66-5.77-5.57,2.51-4.14c-.92-1.52-1.61-3.13-2.08-4.8l-4.75-.99-.14-8.02,4.71-1.15c.41-1.68,1.05-3.32,1.91-4.87l-2.66-4.05,5.57-5.77,4.15,2.51h0Zm4.28,10.69c-3.3,3.42-3.21,8.87.21,12.17,3.42,3.3,8.87,3.21,12.17-.21,3.3-3.42,3.21-8.87-.21-12.17-3.42-3.3-8.87-3.21-12.17.21Z"/>
      <path class="cls-5" d="m236.29,66.71c1.33-.8,2.74-1.41,4.2-1.82l.86-4.15,7.02-.12,1.01,4.12c1.47.36,2.9.92,4.26,1.67l3.55-2.32,5.05,4.87-2.2,3.62c.8,1.33,1.41,2.74,1.82,4.2l4.15.86.12,7.02-4.12,1.01c-.36,1.47-.92,2.9-1.67,4.26l2.32,3.55-4.87,5.05-3.63-2.2c-1.33.8-2.74,1.41-4.2,1.82l-.86,4.15-7.02.12-1.01-4.12c-1.47-.36-2.9-.92-4.26-1.67l-3.55,2.32-5.05-4.87,2.2-3.62c-.8-1.33-1.41-2.74-1.82-4.2l-4.15-.86-.12-7.02,4.12-1.01c.36-1.47.92-2.9,1.67-4.26l-2.32-3.55,4.87-5.05,3.63,2.2h0Zm3.74,9.35c-2.89,2.99-2.8,7.76.19,10.64,2.99,2.89,7.76,2.8,10.64-.19,2.89-2.99,2.8-7.76-.19-10.64-2.99-2.89-7.76-2.8-10.64.19Z"/>
      <path class="cls-6" d="m89.75,342.19c-.06,0-.12,0-.18.01,0,0,0,0,.01-.03.33-.73,6.05-13.85.31-16.84-5.9-3.07-14.43,3.06-14.43,3.06,0,0,5.37-25.04-9.81-29.1-15.18-4.07-25.85,25.28-25.85,25.28,0,0-7.04-9.12-9.83,6.28,0,0-18.29-6.26-19.69,15.28,0,0-6.08-4.01-5.39,1.89l.14.9,85.02-1.83s3.83-5.05-.31-4.89Z"/>
      <path class="cls-6" d="m431.49,103.52s-.09,0-.14,0c0,0,0,0,.01-.02.25-.56,4.7-10.75.24-13.07-4.58-2.38-11.2,2.37-11.2,2.37,0,0,4.17-19.43-7.61-22.59-11.78-3.16-20.06,19.62-20.06,19.62,0,0-5.47-7.08-7.63,4.88,0,0-14.19-4.86-15.28,11.86,0,0-4.72-3.12-4.19,1.46l.11.7,65.99-1.42s2.97-3.92-.24-3.8Z"/>
      <path class="cls-8" d="m126.85,71.93l3.39,1.63c.44.21.46.83.04,1.09l-3.26,2.01c-.1.06-.19.15-.24.26l-1.7,3.43c-.22.45-.84.48-1.09.06l-1.93-3.22c-.06-.1-.15-.18-.26-.23l-3.39-1.63c-.44-.21-.46-.83-.04-1.09l3.26-2.01c.1-.06.18-.15.24-.26l1.7-3.43c.22-.45.84-.48,1.09-.06l1.93,3.22c.06.1.15.18.26.23Z"/>
      <path class="cls-8" d="m65.31,5.9l4.85,2.82c.63.37.59,1.29-.07,1.63l-5.09,2.61c-.16.08-.29.21-.39.36l-2.94,4.91c-.38.64-1.31.62-1.63-.03l-2.5-5.02c-.08-.16-.2-.29-.35-.38l-4.85-2.82c-.63-.37-.59-1.29.07-1.63l5.09-2.61c.16-.08.29-.21.39-.36l2.94-4.91c.38-.64,1.31-.62,1.63.03l2.5,5.02c.08.16.2.29.35.38Z"/>
      <path class="cls-8" d="m357.44,215.98l2.25,1.08c.29.14.31.55.03.72l-2.16,1.34c-.07.04-.12.1-.16.17l-1.13,2.28c-.15.3-.56.32-.72.04l-1.28-2.14c-.04-.07-.1-.12-.17-.15l-2.25-1.08c-.29-.14-.31-.55-.03-.72l2.16-1.34c.07-.04.12-.1.16-.17l1.13-2.28c.15-.3.56-.32.72-.04l1.28,2.14c.04.07.1.12.17.15Z"/>
      <path class="cls-8" d="m222.21,218.62l1.54.74c.2.1.21.38.02.5l-1.48.91s-.08.07-.11.12l-.77,1.56c-.1.2-.38.22-.49.03l-.88-1.46s-.07-.08-.12-.11l-1.54-.74c-.2-.1-.21-.38-.02-.5l1.48-.91s.08-.07.11-.12l.77-1.56c.1-.2.38-.22.49-.03l.88,1.46s.07.08.12.11Z"/>
      <path class="cls-8" d="m32.49,213.88l1.4.67c.18.09.19.34.02.45l-1.35.83s-.08.06-.1.11l-.7,1.42c-.09.18-.35.2-.45.03l-.8-1.33s-.06-.07-.11-.1l-1.4-.67c-.18-.09-.19-.34-.02-.45l1.35-.83s.08-.06.1-.11l.7-1.42c.09-.18.35-.2.45-.03l.8,1.33s.06.08.11.1Z"/>
      <g>
        <g>
          <polygon class="cls-4" points="86.54 460 278.3 460 341.64 548.81 19.4 548.81 86.54 460"/>
          <path class="cls-10" d="m86.54,460s-.39.55-1.17,1.6c-.79,1.05-1.94,2.6-3.46,4.63-3.05,4.06-7.54,10.03-13.32,17.72-11.58,15.36-28.32,37.57-49.01,65.02l-.2-.4c65.88-.03,156.24-.06,255.86-.1,22.69,0,44.91,0,66.39,0l-.28.54c-22.71-31.86-44.06-61.81-63.31-88.83l.25.13c-57.3-.06-105.22-.1-138.82-.13-16.8-.04-30.03-.06-39.06-.08-4.51-.02-7.97-.03-10.32-.04-1.16,0-2.05-.02-2.65-.02-.6,0-.9-.02-.9-.02,0,0,.29-.01.88-.02.6,0,1.48-.01,2.63-.02,2.34,0,5.79-.02,10.28-.04,9.03-.02,22.24-.05,39.02-.08,33.63-.03,81.59-.08,138.94-.13h.16s.09.13.09.13c19.27,27,40.64,56.94,63.37,88.79l.38.54h-.66c-21.48,0-43.69,0-66.39,0-99.62-.04-189.98-.07-255.86-.1h-.5s.3-.4.3-.4c20.79-27.42,37.62-49.6,49.25-64.95,5.81-7.64,10.33-13.58,13.4-17.62,1.53-2,2.7-3.53,3.49-4.56.79-1.02,1.2-1.53,1.2-1.53Z"/>
        </g>
        <path class="cls-10" d="m60.02,529.43c0-.19,53.97-.35,120.52-.35s120.54.15,120.54.35-53.96.35-120.54.35-120.52-.15-120.52-.35Z"/>
        <path class="cls-10" d="m67.4,521.64c0-.19,50.67-.35,113.15-.35s113.16.15,113.16.35-50.66.35-113.16.35-113.15-.15-113.15-.35Z"/>
        <path class="cls-10" d="m72.9,513.86c0-.19,48.2-.35,107.65-.35s107.66.15,107.66.35-48.19.35-107.66.35-107.65-.15-107.65-.35Z"/>
        <path class="cls-10" d="m199.35,506.08s.29-.05.85-.07c.63-.02,1.43-.04,2.43-.07,2.2-.03,5.23-.06,8.93-.11,7.62-.03,18-.06,29.47-.1,11.47.04,21.85.08,29.47.1,3.71.05,6.74.08,8.93.11,1,.03,1.8.05,2.43.07.56.02.85.05.85.07s-.29.05-.85.07c-.63.02-1.43.04-2.43.06-2.2.03-5.23.06-8.93.11-7.62.03-18,.06-29.47.1-11.47-.04-21.85-.08-29.47-.1-3.71-.05-6.74-.08-8.93-.11-1-.03-1.8-.05-2.43-.06-.56-.02-.85-.05-.85-.07Z"/>
        <polygon class="cls-5" points="18.92 549.04 23.14 560.88 335.39 560.88 341.99 549.14 18.92 549.04"/>
        <path class="cls-10" d="m322.95,555.85c0,.19-66.75.35-149.07.35s-149.08-.15-149.08-.35,66.74-.35,149.08-.35,149.07.15,149.07.35Z"/>
        <path class="cls-10" d="m339,553.17c0,.19-61.02.35-136.28.35s-136.29-.15-136.29-.35,61.01-.35,136.29-.35,136.28.15,136.28.35Z"/>
        <path class="cls-10" d="m341.99,549.14s-.13.27-.4.79c-.29.53-.7,1.29-1.24,2.28-1.12,2.02-2.74,4.96-4.84,8.74l-.04.07h-.08c-25.83.04-85.79.12-155.67.21-70.93,0-131.64-.09-156.58-.22h-.09s-.03-.09-.03-.09c-1.34-3.84-2.38-6.8-3.09-8.83-.34-.99-.6-1.74-.78-2.28-.17-.51-.24-.78-.24-.78,0,0,.11.25.31.76.2.53.48,1.28.84,2.25.73,2.02,1.81,4.96,3.2,8.79l-.12-.09c24.94-.13,85.65-.22,156.58-.22,69.88.09,129.84.18,155.67.21l-.12.07c2.14-3.76,3.81-6.67,4.95-8.68.56-.97,1-1.72,1.3-2.25.3-.5.46-.75.46-.75Z"/>
      </g>
      <g>
        <path class="cls-3" d="m151.71,318.18c2.38,3.63,6.12,6.3,10.27,7.57h33.27v-55.1l-9.17-4.34c-3.14-2.86-8.11-3.51-11.88-1.53-3.77,1.97-6.07,6.42-5.5,10.64-5.91-1.78-12.81.46-16.54,5.37-3.73,4.91-4.04,12.17-.74,17.38-3.68,6-3.56,14.13.3,20.01Z"/>
        <path class="cls-3" d="m242.19,318.18c-2.38,3.63-6.12,6.3-10.27,7.57h-33.27v-55.1l9.17-4.34c3.14-2.86,8.11-3.51,11.88-1.53,3.77,1.97,6.07,6.42,5.5,10.64,5.91-1.78,12.81.46,16.54,5.37,3.73,4.91,4.04,12.17.74,17.38,3.68,6,3.56,14.13-.3,20.01Z"/>
        <path class="cls-3" d="m210.96,325.75c-4.92-28.65-8.92-110.75-10-131.99h-12.24c0,27.75-3.25,104.62-5.6,131.99h27.84Z"/>
        <path class="cls-10" d="m205.22,262.27s-.07-.22-.13-.63c-.06-.5-.14-1.1-.23-1.83-.19-1.59-.43-3.9-.7-6.75-.55-5.7-1.22-13.59-1.83-22.32-.6-8.73-1.04-16.63-1.33-22.35-.12-2.78-.23-5.07-.3-6.78-.02-.73-.03-1.34-.05-1.85,0-.42,0-.64.03-.65.02,0,.06.22.11.64.05.5.11,1.11.18,1.84.13,1.71.31,3.99.52,6.77.4,5.82.94,13.66,1.53,22.34.63,8.67,1.2,16.51,1.62,22.32.2,2.78.36,5.06.48,6.77.04.73.07,1.34.1,1.84.02.42.01.64-.01.65Z"/>
        <path class="cls-10" d="m189.92,198.86s.02.12.03.34c0,.26.01.59.02,1.01,0,.89.03,2.2,0,3.89-.04,3.39-.19,8.31-.59,14.44-.4,6.12-1.05,13.45-1.93,21.64-.86,8.2-1.96,17.27-2.87,26.92l-.06.63-.49-.39c-3-2.38-7.82-2.7-11.2-.33-3.02,2.12-4.56,6.04-3.91,9.5l.15.78-.67-.43c-2.96-1.91-6.74-1.88-9.84-.69-3.13,1.19-5.71,3.5-7.1,6.32-1.44,2.81-1.89,5.93-1.74,8.85.17,2.93.93,5.67,1.99,8.1l.06.14-.09.13c-2.67,3.93-3.36,8.47-2.83,12.2.51,3.78,2.25,6.74,3.99,8.77,1.76,2.06,3.55,3.25,4.79,3.96,1.25.7,1.97.96,1.96,1,0,0-.74-.2-2.03-.86-1.27-.67-3.12-1.83-4.94-3.9-1.81-2.03-3.63-5.04-4.19-8.91-.58-3.82.09-8.49,2.82-12.57l-.02.27c-1.11-2.48-1.9-5.28-2.09-8.29-.18-2.99.27-6.23,1.76-9.17,1.45-2.96,4.15-5.41,7.43-6.66,3.24-1.26,7.26-1.32,10.45.73l-.52.35c-.7-3.74.93-7.9,4.19-10.2,3.67-2.55,8.77-2.21,12.01.36l-.55.24c.93-9.67,2.05-18.73,2.95-26.92.92-8.19,1.62-15.5,2.08-21.61.46-6.11.69-11.03.8-14.41.05-1.66.09-2.96.11-3.89.02-.41.03-.75.04-1.01.01-.23.02-.34.04-.34Z"/>
      </g>
      <g>
        <g>
          <g>
            <path class="cls-11" d="m173.64,94.65c-1.15-1.54-3.43-1.62-4.65-.14-2.12,2.57-4.91,7.06-4.91,12.9v71.63h13.14s.82-62.18.82-71.63c0-5.74-2.47-10.17-4.41-12.76Z"/>
            <path class="cls-10" d="m173.64,94.65s.37.45.99,1.38c.6.94,1.46,2.36,2.2,4.36.74,1.99,1.35,4.59,1.28,7.63-.03,3.03-.06,6.49-.1,10.33-.17,15.35-.39,36.69-.65,60.68v.13h-.14c-3,0-6.19,0-9.41,0-1.28,0-2.55,0-3.73,0h-.14v-.14c.02-25.34.03-48.1.04-64.54,0-2.05,0-4.01,0-5.86,0-.92,0-1.83.07-2.7.06-.87.21-1.71.38-2.51.72-3.2,2.12-5.71,3.44-7.57.33-.47.67-.89.99-1.29.32-.4.71-.71,1.11-.89.82-.37,1.63-.31,2.19-.12.58.19.95.5,1.16.72.21.22.3.36.3.36,0,0-.1-.12-.32-.34-.22-.21-.59-.51-1.16-.69-.56-.19-1.35-.23-2.14.14-.82.35-1.37,1.26-2.05,2.17-1.31,1.86-2.68,4.37-3.38,7.54-.16.79-.31,1.62-.36,2.49-.07.86-.06,1.76-.06,2.68,0,1.85,0,3.8,0,5.86.01,16.44.03,39.2.04,64.54l-.14-.14h3.73c3.22,0,6.41,0,9.41,0l-.14.13c.29-23.99.55-45.33.74-60.68.05-3.83.1-7.29.14-10.33.08-3.03-.51-5.61-1.23-7.6-.73-2-1.56-3.43-2.15-4.37-.29-.47-.54-.82-.7-1.06-.16-.23-.24-.36-.24-.36Z"/>
          </g>
          <path class="cls-10" d="m177.85,149.61c0,.08-2.99.14-6.68.14s-6.68-.06-6.68-.14,2.99-.14,6.68-.14,6.68.06,6.68.14Z"/>
          <path class="cls-10" d="m177.85,157.93c0,.08-2.99.14-6.68.14s-6.68-.06-6.68-.14,2.99-.14,6.68-.14,6.68.06,6.68.14Z"/>
          <path class="cls-10" d="m177.85,108.04c0,.08-2.99.14-6.68.14s-6.68-.06-6.68-.14,2.99-.14,6.68-.14,6.68.06,6.68.14Z"/>
          <path class="cls-10" d="m177.85,116.35c0,.08-2.99.14-6.68.14s-6.68-.06-6.68-.14,2.99-.14,6.68-.14,6.68.06,6.68.14Z"/>
          <path class="cls-10" d="m177.85,124.67c0,.08-2.99.14-6.68.14s-6.68-.06-6.68-.14,2.99-.14,6.68-.14,6.68.06,6.68.14Z"/>
          <path class="cls-10" d="m177.85,132.98c0,.08-2.99.14-6.68.14s-6.68-.06-6.68-.14,2.99-.14,6.68-.14,6.68.06,6.68.14Z"/>
          <path class="cls-10" d="m177.85,141.3c0,.08-2.99.14-6.68.14s-6.68-.06-6.68-.14,2.99-.14,6.68-.14,6.68.06,6.68.14Z"/>
        </g>
        <g>
          <g>
            <path class="cls-11" d="m221.87,94.96c-1.15-1.54-3.43-1.62-4.65-.14-2.12,2.57-4.91,7.06-4.91,12.9v71.63h13.14s.82-62.18.82-71.63c0-5.74-2.47-10.17-4.41-12.76Z"/>
            <path class="cls-10" d="m221.87,94.96s.37.45.99,1.38c.6.94,1.46,2.36,2.2,4.36.74,1.99,1.35,4.59,1.28,7.63-.03,3.03-.06,6.49-.1,10.33-.17,15.35-.39,36.69-.65,60.68v.13h-.14c-3,0-6.19,0-9.41,0-1.28,0-2.55,0-3.73,0h-.14v-.14c.02-25.34.03-48.1.04-64.54,0-2.05,0-4.01,0-5.86,0-.92,0-1.83.07-2.7.06-.87.21-1.71.38-2.51.72-3.2,2.12-5.71,3.44-7.57.33-.47.67-.89.99-1.29.32-.4.71-.71,1.11-.89.82-.37,1.63-.31,2.19-.12.58.19.95.5,1.16.72.22.22.3.36.3.36,0,0-.1-.12-.32-.34-.22-.21-.59-.51-1.16-.69-.56-.19-1.35-.23-2.14.14-.82.35-1.37,1.26-2.05,2.17-1.31,1.86-2.68,4.37-3.38,7.54-.16.79-.31,1.62-.36,2.49-.07.86-.06,1.76-.06,2.68,0,1.85,0,3.8,0,5.86.01,16.44.03,39.2.04,64.54l-.14-.14h3.73c3.22,0,6.41,0,9.41,0l-.14.13c.29-23.99.55-45.33.74-60.68.05-3.83.1-7.29.14-10.33.08-3.03-.51-5.61-1.23-7.6-.73-2-1.56-3.43-2.15-4.37-.29-.47-.54-.82-.7-1.06-.16-.23-.24-.36-.24-.36Z"/>
          </g>
          <path class="cls-10" d="m226.05,108.34c0,.08-2.99.14-6.68.14s-6.68-.06-6.68-.14,2.99-.14,6.68-.14,6.68.06,6.68.14Z"/>
          <path class="cls-10" d="m226.05,116.66c0,.08-2.99.14-6.68.14s-6.68-.06-6.68-.14,2.99-.14,6.68-.14,6.68.06,6.68.14Z"/>
          <path class="cls-10" d="m226.05,124.97c0,.08-2.99.14-6.68.14s-6.68-.06-6.68-.14,2.99-.14,6.68-.14,6.68.06,6.68.14Z"/>
          <path class="cls-10" d="m226.05,133.29c0,.08-2.99.14-6.68.14s-6.68-.06-6.68-.14,2.99-.14,6.68-.14,6.68.06,6.68.14Z"/>
          <path class="cls-10" d="m226.05,141.61c0,.08-2.99.14-6.68.14s-6.68-.06-6.68-.14,2.99-.14,6.68-.14,6.68.06,6.68.14Z"/>
          <path class="cls-10" d="m226.05,149.92c0,.08-2.99.14-6.68.14s-6.68-.06-6.68-.14,2.99-.14,6.68-.14,6.68.06,6.68.14Z"/>
          <path class="cls-10" d="m226.05,158.24c0,.08-2.99.14-6.68.14s-6.68-.06-6.68-.14,2.99-.14,6.68-.14,6.68.06,6.68.14Z"/>
        </g>
        <g>
          <g>
            <path class="cls-8" d="m200.13,70.86c-2.86-2.16-6.89-1.78-9.68.54-8.31,6.91-12.41,17.24-12.41,25.43v92.53h32.75s2.05-79.31,2.05-92.53c0-8.04-5.42-20.47-12.71-25.97Z"/>
            <path class="cls-10" d="m200.13,70.86s.16.13.48.38c.31.26.81.61,1.36,1.18,1.17,1.07,2.76,2.82,4.43,5.35.81,1.28,1.7,2.71,2.51,4.38.82,1.65,1.63,3.5,2.3,5.56.68,2.05,1.27,4.31,1.55,6.76.03.31.08.61.1.93.01.31.03.63.04.95.04.64,0,1.28.01,1.93-.01,1.3-.03,2.64-.04,4.01-.33,21.91-1.08,52.47-1.95,87.09v.13s-.13,0-.13,0c-6.84,0-14,0-21.3,0-3.92,0-7.81,0-11.45,0h-.14v-.14c0-18.52,0-36.03.01-51.89,0-7.93,0-15.45.01-22.47,0-3.51,0-6.9,0-10.15,0-1.63,0-3.22,0-4.77.01-1.56-.02-3.08.05-4.57.16-2.98.8-5.77,1.64-8.31.85-2.54,1.94-4.83,3.15-6.86,2.43-4.05,5.26-7.03,7.82-9.12,1.31-1.04,2.74-1.54,4-1.74,1.26-.18,2.36-.05,3.19.19.84.24,1.42.58,1.8.79.37.25.55.39.55.39,0,0-.19-.12-.56-.37-.39-.21-.97-.54-1.8-.77-.83-.23-1.92-.34-3.17-.16-1.24.2-2.66.71-3.94,1.74-2.54,2.09-5.35,5.07-7.76,9.11-1.19,2.02-2.28,4.3-3.12,6.84-.83,2.53-1.46,5.31-1.61,8.27,0,23.78,0,56.81,0,93.84l-.14-.14c3.64,0,7.53,0,11.45,0,7.3,0,14.47,0,21.3,0l-.13.13c.88-34.62,1.66-65.18,2.04-87.09.02-1.37.03-2.7.05-4,0-.65.03-1.29,0-1.92-.01-.31-.02-.63-.04-.94-.02-.31-.06-.62-.09-.92-.27-2.44-.86-4.69-1.53-6.73-.67-2.05-1.46-3.9-2.28-5.55-.8-1.66-1.68-3.1-2.48-4.38-1.65-2.53-3.23-4.28-4.38-5.36-.55-.57-1.04-.92-1.34-1.19-.31-.26-.46-.4-.46-.4Z"/>
          </g>
          <path class="cls-4" d="m193.54,72.07s-12.6,10.13-12.71,23.7v36.18h5.4l-.33-31.51s-.69-5.99,2.57-16.51c2.05-6.64,5.07-11.85,5.07-11.85Z"/>
          <path class="cls-10" d="m212.21,100.43c0,.08-7.51.14-16.78.14s-16.78-.06-16.78-.14,7.51-.14,16.78-.14,16.78.06,16.78.14Z"/>
          <path class="cls-10" d="m212.21,113.02c0,.08-7.51.14-16.78.14s-16.78-.06-16.78-.14,7.51-.14,16.78-.14,16.78.06,16.78.14Z"/>
          <path class="cls-10" d="m212.21,125.61c0,.08-7.51.14-16.78.14s-16.78-.06-16.78-.14,7.51-.14,16.78-.14,16.78.06,16.78.14Z"/>
          <path class="cls-10" d="m212.21,138.2c0,.08-7.51.14-16.78.14s-16.78-.06-16.78-.14,7.51-.14,16.78-.14,16.78.06,16.78.14Z"/>
        </g>
        <g>
          <rect class="cls-9" x="165.41" y="188.44" width="8.6" height="5.58"/>
          <path class="cls-9" d="m162.95,197.07h0c0-.88.22-1.66,1.2-2.62l1.25-1.21,8.6.1.76.67c.69.54,1.37,1.59,1.37,2.44v.12l-13.18.48Z"/>
          <rect class="cls-9" x="162.07" y="196.59" width="15.1" height="1.52" rx=".54" ry=".54"/>
        </g>
        <g>
          <polygon class="cls-3" points="154.76 187.32 154.76 171.16 176.62 149.72 185.93 120.55 185.93 191.66 154.76 187.32"/>
          <polygon class="cls-11" points="154.76 181.99 185.92 186.13 185.92 191.66 154.76 187.32 154.76 181.99"/>
          <path class="cls-10" d="m154.76,187.33s.19.02.56.07c.37.05.92.12,1.63.21,1.43.19,3.53.48,6.23.84,5.4.74,13.18,1.8,22.75,3.11l-.12.1c0-15.52-.02-36.06-.03-58.52,0-4.28,0-8.48,0-12.59l.26.04c-3.35,10.46-6.49,20.3-9.33,29.17v.03s-.03.02-.03.02c-8.75,8.56-16.24,15.89-21.88,21.41l.02-.06c-.02,5.1-.03,9.13-.04,11.9,0,1.38-.01,2.44-.02,3.17,0,.36,0,.63,0,.82,0,.18,0,.28,0,.28,0,0,0-.09,0-.27,0-.19,0-.46,0-.81,0-.72-.01-1.78-.02-3.15,0-2.78-.02-6.82-.04-11.94v-.03s.02-.02.02-.02c5.63-5.54,13.09-12.88,21.82-21.47l-.03.05c2.82-8.86,5.96-18.71,9.3-29.18l.26-.83v.87c0,4.11,0,8.32,0,12.59-.01,22.46-.02,43-.03,58.52v.12l-.12-.02c-9.6-1.36-17.39-2.46-22.8-3.22-2.69-.38-4.78-.68-6.2-.89-.7-.1-1.24-.18-1.61-.24-.36-.05-.54-.09-.54-.09Z"/>
        </g>
        <g>
          <rect class="cls-9" x="215.35" y="188.44" width="8.6" height="5.58"/>
          <path class="cls-9" d="m212.89,197.07h0c0-.88.22-1.66,1.2-2.62l1.25-1.21,8.6.1.76.67c.69.54,1.37,1.59,1.37,2.44v.12l-13.18.48Z"/>
          <rect class="cls-9" x="212.01" y="196.59" width="15.1" height="1.52" rx=".54" ry=".54"/>
        </g>
        <path class="cls-5" d="m216.92,180.28c0,.4-.33.73-.73.73s-.73-.33-.73-.73.33-.73.73-.73.73.33.73.73Z"/>
        <g>
          <path class="cls-3" d="m205.46,112.03c-.05-4.45-2.5-8.38-4.97-12.22-1.04-1.62-2.05-2.59-2.87-3.18-1.15-.82-2.74-.82-3.88.01-.81.59-1.79,1.56-2.83,3.17-2.47,3.84-4.92,7.77-4.97,12.22-.06,5.2,0,79.63,0,79.63h19.53s.06-74.42,0-79.63Z"/>
          <path class="cls-11" d="m201.16,100.62c-1.19-1.95-2.33-3.13-3.27-3.84-1.31-.99-3.12-.99-4.42.02-.92.71-2.04,1.89-3.22,3.82-1.63,2.68-2.95,5.32-3.88,8.24l18.65-.06c-.83-2.8-2.25-5.53-3.85-8.18Z"/>
          <path class="cls-10" d="m205.01,108.8c0,.08-4.17.15-9.32.17-5.15.02-9.32-.03-9.33-.11,0-.08,4.17-.15,9.32-.17,5.15-.02,9.32.03,9.32.11Z"/>
          <path class="cls-10" d="m188.91,107.17c0,.19-.16.35-.35.35s-.35-.16-.35-.35.16-.35.35-.35.35.16.35.35Z"/>
          <path class="cls-10" d="m192.28,107.17c0,.19-.16.35-.35.35s-.35-.16-.35-.35.16-.35.35-.35.35.16.35.35Z"/>
          <path class="cls-10" d="m195.65,107.17c0,.19-.16.35-.35.35s-.35-.16-.35-.35.16-.35.35-.35.35.16.35.35Z"/>
          <path class="cls-10" d="m199.02,107.17c0,.19-.16.35-.35.35s-.35-.16-.35-.35.16-.35.35-.35.35.16.35.35Z"/>
          <path class="cls-10" d="m202.39,107.17c0,.19-.16.35-.35.35s-.35-.16-.35-.35.16-.35.35-.35.35.16.35.35Z"/>
          <path class="cls-10" d="m205.46,112.03s0,.13.01.39c0,.26,0,.65.01,1.15,0,1.02.01,2.51.02,4.44,0,3.88.02,9.52.04,16.59.01,14.16.03,34.07.05,57.06v.13s-.13,0-.13,0c-6.28,0-12.82,0-19.53,0h-.14s0-.14,0-.14c0-3.18,0-6.55,0-9.97,0-15.07,0-29.43.01-42.48,0-6.53,0-12.73.01-18.54,0-2.9,0-5.71,0-8.4-.02-2.73.89-5.26,2-7.46.56-1.11,1.17-2.15,1.79-3.15.63-.99,1.22-1.97,1.89-2.87.68-.89,1.43-1.69,2.3-2.3.9-.6,2.04-.7,2.98-.37.48.16.89.44,1.26.75.37.3.71.63,1.02.97.62.68,1.13,1.4,1.58,2.11.91,1.41,1.72,2.72,2.37,3.94,1.34,2.42,2,4.5,2.24,5.93.06.36.11.68.13.95.03.27.05.51.05.69.01.37.01.56.01.56,0,0-.02-.19-.04-.56,0-.19-.03-.42-.07-.69-.03-.27-.08-.59-.15-.95-.26-1.43-.93-3.49-2.28-5.89-.66-1.21-1.48-2.51-2.39-3.92-.45-.71-.96-1.42-1.58-2.08-.31-.33-.64-.65-1-.95-.36-.3-.76-.57-1.21-.72-.9-.31-1.99-.21-2.84.36-.85.59-1.59,1.39-2.25,2.27-.66.89-1.24,1.87-1.87,2.86-.61,1-1.22,2.04-1.78,3.14-1.1,2.19-1.99,4.68-1.97,7.37,0,2.69,0,5.5,0,8.4,0,5.81,0,12.01.01,18.54,0,13.06,0,27.41.01,42.48,0,3.41,0,6.79,0,9.97l-.14-.14c6.71,0,13.25,0,19.53,0l-.13.13c.02-23,.04-42.9.05-57.06.02-7.07.03-12.71.04-16.59,0-1.93.02-3.42.02-4.44,0-.5,0-.88.01-1.15,0-.26.01-.39.01-.39Z"/>
        </g>
        <path class="cls-9" d="m195.44,116.48c-2.78,0-5.03,2.25-5.03,5.03h10.06c0-2.78-2.25-5.03-5.03-5.03Z"/>
        <g>
          <path class="cls-8" d="m185.15,196.98h0c0-1.44.7-2.79,1.89-3.68l2.19-1.63h13.84l1.92,1.51c1.13.89,1.79,2.21,1.79,3.61v.2h-21.62Z"/>
          <path class="cls-10" d="m185.15,196.98s.15-.02.43-.03c.3,0,.71-.01,1.23-.02,1.1,0,2.65-.02,4.57-.04,3.9-.01,9.3-.03,15.39-.04l-.14.14c.04-.95-.24-1.94-.84-2.76-.36-.52-.84-.91-1.35-1.29-.5-.39-.99-.78-1.47-1.16l.08.03c-5.39-.02-10.2-.03-13.84-.04l.06-.02c-.87.64-1.66,1.23-2.36,1.74-.67.53-1.09,1.16-1.34,1.7-.49,1.11-.39,1.81-.44,1.8,0,0-.03-.17,0-.49.03-.32.1-.79.34-1.36.24-.56.66-1.21,1.34-1.77.69-.52,1.47-1.12,2.34-1.78l.02-.02h.03c3.64-.01,8.45-.02,13.84-.04h.05s.04.03.04.03c.48.38.97.76,1.47,1.15.49.38,1.02.8,1.4,1.35.63.86.93,1.94.89,2.92v.14s-.14,0-.14,0c-6.09-.02-11.49-.03-15.39-.04-1.92-.02-3.48-.03-4.57-.04-.52,0-.93-.02-1.23-.02-.28,0-.43-.02-.43-.03Z"/>
        </g>
        <rect class="cls-11" x="183.71" y="196.98" width="24.79" height="2.49" rx=".89" ry=".89"/>
        <g>
          <path class="cls-5" d="m195.86,193.08h-12.55v-12.44c0-3.37,2.73-6.09,6.09-6.09h.36c3.37,0,6.09,2.73,6.09,6.09v12.44Z"/>
          <path class="cls-10" d="m195.86,193.08s0-.06,0-.16c0-.12,0-.26-.01-.44,0-.4-.01-.96-.02-1.67-.01-1.46-.03-3.54-.05-6.09,0-1.28-.02-2.68-.03-4.19-.01-1.48-.65-3.07-1.87-4.22-.61-.57-1.35-1.03-2.17-1.31-.83-.29-1.72-.37-2.64-.3-1.81.08-3.63,1.1-4.66,2.73-.39.61-.67,1.27-.81,1.97-.15.69-.13,1.4-.13,2.11,0,1.41,0,2.79,0,4.13,0,2.67-.01,5.18-.02,7.45l-.11-.11c3.76.02,6.88.04,9.08.06,1.09.01,1.94.02,2.55.03.28,0,.51,0,.68.01.15,0,.24,0,.24.01,0,0-.07,0-.22.01-.17,0-.38,0-.66.01-.6,0-1.45.02-2.53.03-2.22.01-5.36.03-9.15.06h-.11s0-.11,0-.11c0-2.27-.01-4.78-.02-7.45,0-1.34,0-2.72,0-4.13,0-.7-.02-1.44.14-2.16.15-.72.44-1.42.85-2.06,1.08-1.7,2.98-2.77,4.87-2.85.93-.06,1.88.01,2.74.32.86.3,1.63.78,2.26,1.38,1.27,1.2,1.92,2.86,1.93,4.39,0,1.52,0,2.94-.01,4.24-.02,2.56-.04,4.64-.05,6.11,0,.7-.02,1.25-.02,1.65,0,.17,0,.31-.01.42,0,.09,0,.14,0,.14Z"/>
        </g>
        <g>
          <polygon class="cls-3" points="236.65 187.32 236.65 171.16 214.8 149.72 205.48 120.55 205.48 191.66 236.65 187.32"/>
          <polygon class="cls-11" points="205.46 191.66 205.48 186.82 236.65 182.88 236.65 187.32 205.46 191.66"/>
          <path class="cls-10" d="m236.65,187.32s-.18.03-.54.09c-.37.05-.91.13-1.61.24-1.43.2-3.52.5-6.2.89-5.41.76-13.2,1.87-22.8,3.22l-.12.02v-.12c0-15.52-.02-36.06-.03-58.52,0-4.28,0-8.48,0-12.59v-.87s.26.83.26.83c3.34,10.47,6.47,20.31,9.3,29.18l-.03-.05c8.73,8.59,16.2,15.93,21.82,21.47l.02.02v.03c-.02,5.12-.03,9.16-.04,11.94,0,1.37-.01,2.43-.02,3.15,0,.35,0,.62,0,.81,0,.18,0,.27,0,.27,0,0,0-.1,0-.28,0-.19,0-.46,0-.82,0-.73-.01-1.79-.02-3.17,0-2.77-.02-6.8-.04-11.9l.02.06c-5.64-5.52-13.13-12.85-21.88-21.41l-.02-.02v-.03c-2.84-8.86-5.99-18.7-9.34-29.17l.26-.04c0,4.11,0,8.32,0,12.59-.01,22.46-.02,43-.03,58.52l-.12-.1c9.58-1.31,17.36-2.37,22.75-3.11,2.7-.36,4.8-.65,6.23-.84.71-.09,1.26-.17,1.63-.21.37-.05.56-.07.56-.07Z"/>
        </g>
        <g class="cls-1">
          <path d="m210.05,190.91v-11.36s-.36-3.99-3.27-4.99v-46.67l-1.29-7.34v71.22l4.57-.87Z"/>
        </g>
        <g>
          <path class="cls-5" d="m208.5,193.08h-12.55v-12.44c0-3.37,2.73-6.09,6.09-6.09h.36c3.37,0,6.09,2.73,6.09,6.09v12.44Z"/>
          <path class="cls-10" d="m208.5,193.08s0-.06,0-.16c0-.12,0-.26-.01-.44,0-.4-.01-.96-.02-1.67-.01-1.46-.03-3.54-.05-6.09,0-1.28-.02-2.68-.03-4.19-.01-1.48-.65-3.07-1.87-4.22-.61-.57-1.35-1.03-2.17-1.31-.83-.29-1.72-.37-2.64-.3-1.81.08-3.63,1.1-4.66,2.73-.39.61-.67,1.27-.81,1.97-.15.69-.13,1.4-.13,2.11,0,1.41,0,2.79,0,4.13,0,2.67-.01,5.18-.02,7.45l-.11-.11c3.76.02,6.88.04,9.08.06,1.08.01,1.94.02,2.55.03.28,0,.51,0,.68.01.15,0,.24,0,.24.01,0,0-.07,0-.22.01-.17,0-.38,0-.66.01-.6,0-1.45.02-2.53.03-2.22.01-5.36.03-9.15.06h-.11s0-.11,0-.11c0-2.27-.01-4.78-.02-7.45,0-1.34,0-2.72,0-4.13,0-.7-.02-1.44.14-2.16.15-.72.44-1.42.85-2.06,1.08-1.7,2.98-2.77,4.87-2.85.93-.06,1.88.01,2.74.32.86.3,1.63.78,2.26,1.38,1.27,1.2,1.92,2.86,1.93,4.39,0,1.52,0,2.94-.01,4.24-.02,2.56-.04,4.64-.05,6.11,0,.7-.02,1.25-.02,1.65,0,.17,0,.31-.01.42,0,.09,0,.14,0,.14Z"/>
        </g>
        <path class="cls-10" d="m205.27,136.62c0,.08-4.29.14-9.58.14s-9.58-.06-9.58-.14,4.29-.14,9.58-.14,9.58.06,9.58.14Z"/>
        <path class="cls-10" d="m205.27,157.25c0,.08-4.29.14-9.58.14s-9.58-.06-9.58-.14,4.29-.14,9.58-.14,9.58.06,9.58.14Z"/>
        <g class="cls-1">
          <path class="cls-4" d="m196.1,116.53l-4.18,4.99h2.87l3.33-4.25s-1.23-.69-2.03-.74Z"/>
        </g>
      </g>
      <path class="cls-11" d="m303.49,89.01c-.9-13.18-8.34-25.27-18.07-34.2-9.74-8.93-21.66-15.08-33.67-20.59-5.91-2.71-12.26-5.35-18.7-4.45-6.44.91-12.61,6.82-11.36,13.2,1.2,6.14,8.12,9.27,14.29,10.31,6.17,1.04,12.95,1.16,17.83,5.08,3.23,2.59,5.3,6.65,9.05,8.39,5.7,2.64,12.27-1.19,18.55-1,6.18.2,11.69,4.44,14.93,9.71,3.24,5.27,5.63,14.61,7.15,13.56"/>
      <path class="cls-11" d="m173.73,236.66c.79-10.57-7.91-19.19-17.31-20.58-9.4-1.39-19.05,2.73-27.75,7.72-5.45,3.13-10.92,6.7-16.91,7.62-5.99.92-12.74-1.68-14.72-7.8-2.46-7.6,3.26-16.12,2.88-24.3-.37-7.96-6.46-13.88-12.98-16.94-6.52-3.06-13.79-4.15-20.25-7.36-13.74-6.83-22.39-23.78-20.82-40.8,1.57-17.02,13.25-33.02,28.12-38.51,8.6-3.18,18.21-3.22,25.79-8.92,7.65-5.75,11.37-15.85,15.5-24.95,4.12-9.11,10.16-18.69,19.08-20.72,6.19-1.41,12.26,1.22,18.46,1.75,6.19.53,15.5-2.58,16.77-9.41-41.2-3.37-85.34,16.84-111.55,54.14-26.21,37.3-32.15,90.89-12,129.65,20.15,38.75,66.37,58.46,106.2,42.72,9.94-3.93,20.63-11.84,21.48-23.3Z"/>
      <g>
        <g>
          <g>
            <g>
              <path class="cls-11" d="m319.3,91.45c-.2-.9-11.46-34.04-11.46-34.04l-11.11,34.04h22.58Z"/>
              <path class="cls-10" d="m319.3,91.45s-.54.02-1.59.02c-1.13,0-2.65.02-4.56.03-4.04.02-9.67.04-16.42.06h-.16s.05-.15.05-.15c2.2-6.76,4.81-14.78,7.61-23.36,1.21-3.7,2.38-7.29,3.49-10.68l.13-.39.13.39c6.28,18.88,10.35,31.11,11.34,34.08-1.01-2.96-5.17-15.16-11.59-33.99h.25c-1.1,3.39-2.28,6.98-3.48,10.68-2.81,8.58-5.43,16.59-7.65,23.35l-.11-.15c6.72.03,12.32.05,16.34.06,1.92.01,3.46.02,4.59.03,1.06,0,1.65.02,1.65.02Z"/>
            </g>
            <g class="cls-1">
              <rect x="302.04" y="76.18" width="5.86" height="2.47"/>
            </g>
            <g class="cls-1">
              <path d="m309.88,76.19s-.03-.26-.04-.69c-.02-.43-.04-1.04-.05-1.78l.1.1c-1.5.02-3.58.04-5.86.04-.12.12.16-.17.14-.14h0v.32s0,.32,0,.32c0,.21,0,.42,0,.63,0,.41,0,.81,0,1.2l-.13-.13c1.68,0,3.12.04,4.17.06.49.01.9.03,1.23.04.29.01.46.02.47.03.01.01-.13.02-.41.03-.33,0-.73.02-1.2.04-1.04.03-2.52.05-4.25.06h-.13s0-.13,0-.13c0-.39,0-.79,0-1.2,0-.21,0-.42,0-.63v-.32s0-.16,0-.16v-.14h0v-.02h0s.26-.26.14-.14c2.29,0,4.36.02,5.86.04h.1s0,.1,0,.1c-.01.78-.03,1.41-.05,1.84-.02.42-.03.65-.04.63Z"/>
            </g>
          </g>
          <g>
            <rect class="cls-8" x="298.87" y="101.13" width="19.6" height="33.3"/>
            <path class="cls-8" d="m317.91,86.34v5.11h-2.53v-5.11h-5.11v5.11h-3.83v-5.11h-5.11v5.11h-2.43v-5.11h-5.11v5.11c0,.22,2.88,9.68,2.88,9.68h23.48l2.88-9.68v-5.11h-5.11Z"/>
          </g>
          <path class="cls-10" d="m311.41,119.15h-5.41v-10.06c0-1.5,1.21-2.71,2.71-2.71h0c1.5,0,2.71,1.21,2.71,2.71v10.06Z"/>
          <path class="cls-4" d="m311.71,119.67c0,.08-1.36.14-3.05.14s-3.05-.06-3.05-.14,1.36-.14,3.05-.14,3.05.06,3.05.14Z"/>
          <path class="cls-4" d="m308.66,105.92c0,.05-.38-.07-.95.08-.55.14-1.28.62-1.69,1.4-.41.79-.47,1.64-.48,2.23-.01.6.01.97-.03.98-.03,0-.13-.36-.16-.97-.03-.6,0-1.49.43-2.36.45-.87,1.27-1.36,1.88-1.47.63-.12,1.01.08.99.1Z"/>
          <path class="cls-10" d="m319.45,101.13c0,.08-5.12.14-11.44.14s-11.44-.06-11.44-.14,5.12-.14,11.44-.14,11.44.06,11.44.14Z"/>
          <path class="cls-8" d="m314.56,116.7s-.01-.26-.02-.69c0-.43-.02-1.04-.03-1.78l.05.1c-.79.02-1.88.04-3.08.04-.06.12.09-.17.07-.14h0v.16s0,.16,0,.16v.32c0,.21,0,.42,0,.63,0,.41,0,.81,0,1.2l-.07-.13c.88,0,1.64.04,2.19.06.26.01.47.03.65.04.15.01.24.02.24.03,0,.01-.07.02-.21.03-.17,0-.38.02-.63.04-.54.03-1.32.05-2.23.06h-.07s0-.13,0-.13c0-.39,0-.79,0-1.2,0-.21,0-.42,0-.63v-.32s0-.16,0-.16v-.14h0v-.02h0s.14-.26.07-.14c1.2,0,2.29.02,3.08.04h.05s0,.1,0,.1c0,.78-.02,1.41-.03,1.84,0,.42-.02.65-.02.63Z"/>
          <path class="cls-8" d="m313.22,104.14s-.03-.26-.04-.69c-.02-.43-.04-1.04-.05-1.78l.1.1c-1.5.02-3.58.04-5.86.04-.12.12.16-.17.14-.14h0v.32s0,.32,0,.32c0,.21,0,.42,0,.63,0,.41,0,.81,0,1.2l-.13-.13c1.68,0,3.12.04,4.17.06.49.01.9.03,1.23.04.29.01.46.02.47.03.01.01-.13.02-.41.03-.33,0-.73.02-1.2.04-1.04.03-2.52.05-4.25.06h-.13s0-.13,0-.13c0-.39,0-.79,0-1.2,0-.21,0-.42,0-.63v-.32s0-.16,0-.16v-.14h0v-.02h0s.26-.26.14-.14c2.29,0,4.36.02,5.86.04h.1s0,.1,0,.1c-.01.78-.03,1.41-.05,1.84-.02.42-.03.65-.04.63Z"/>
        </g>
        <g>
          <rect class="cls-8" x="293.2" y="140.41" width="30.75" height="24.84"/>
          <polygon class="cls-5" points="331.04 130.74 331.04 125.99 326.22 125.99 326.22 130.72 324.28 130.71 324.28 125.99 319.45 125.99 319.45 130.69 317.52 130.68 317.52 125.99 312.69 125.99 312.69 130.66 310.75 130.65 310.75 125.99 305.92 125.99 305.92 130.63 303.99 130.62 303.99 125.99 299.16 125.99 299.16 130.6 297.22 130.59 297.22 125.99 292.4 125.99 292.4 130.57 290.46 130.56 290.46 125.99 285.63 125.99 285.63 130.81 285.77 130.81 290.57 140.41 326.16 140.41 331.25 130.74 331.04 130.74"/>
        </g>
        <path class="cls-10" d="m311.41,155.84h-5.41v-10.06c0-1.5,1.21-2.71,2.71-2.71h0c1.5,0,2.71,1.21,2.71,2.71v10.06Z"/>
        <path class="cls-10" d="m326.16,140.41c0,.08-8,.12-17.87.11-9.87-.01-17.88-.09-17.88-.16,0-.07,8-.12,17.88-.11,9.87.01,17.87.09,17.87.16Z"/>
        <path class="cls-4" d="m308.27,142.79s-.35.03-.83.24c-.48.2-1.08.68-1.43,1.41-.35.73-.41,1.49-.43,2.02,0,.54.02.88-.02.89-.03,0-.13-.33-.17-.88-.04-.55,0-1.35.37-2.14.39-.79,1.07-1.3,1.61-1.47.55-.18.91-.09.9-.06Z"/>
        <path class="cls-8" d="m321.45,151.39s-.03-.26-.04-.69c-.02-.43-.04-1.04-.05-1.78l.1.1c-1.5.02-3.58.04-5.86.04-.12.12.16-.17.14-.14h0v.64c0,.21,0,.42,0,.63,0,.41,0,.81,0,1.2l-.13-.13c1.68,0,3.12.04,4.17.06.49.01.9.03,1.23.04.29.01.46.02.47.03s-.13.02-.41.03c-.33,0-.73.02-1.2.04-1.04.03-2.52.05-4.25.06h-.13s0-.13,0-.13c0-.39,0-.79,0-1.2,0-.21,0-.42,0-.63v-.32s0-.16,0-.16v-.14h0v-.02h0s.26-.26.14-.14c2.29,0,4.36.02,5.86.04h.1s0,.1,0,.1c-.01.79-.03,1.41-.05,1.84-.02.42-.03.65-.04.63Z"/>
        <path class="cls-8" d="m317.93,148.92s-.03-.26-.04-.69c-.02-.43-.04-1.04-.05-1.78l.1.1c-1.5.02-3.58.04-5.86.04-.12.12.16-.17.14-.14h0v.16s0,.16,0,.16v.32c0,.21,0,.42,0,.63,0,.41,0,.81,0,1.2l-.13-.13c1.67,0,3.12.04,4.17.06.49.01.9.03,1.23.04.29.01.46.02.47.03s-.13.02-.41.03c-.33,0-.73.02-1.2.04-1.04.03-2.52.05-4.25.06h-.13s0-.13,0-.13c0-.39,0-.79,0-1.2,0-.21,0-.42,0-.63v-.32s0-.16,0-.16v-.14h0v-.02h0s.26-.26.14-.14c2.29,0,4.36.02,5.86.04h.1s0,.1,0,.1c-.01.78-.03,1.41-.05,1.84-.02.42-.03.65-.04.63Z"/>
        <path class="cls-8" d="m298.17,135.84s-.03-.26-.04-.69c-.02-.43-.04-1.04-.05-1.78l.1.1c-1.5.02-3.58.04-5.86.04-.12.12.16-.17.14-.14h0v.32s0,.32,0,.32c0,.21,0,.42,0,.63,0,.41,0,.81,0,1.2l-.13-.13c1.68,0,3.12.04,4.17.06.49.01.9.03,1.23.04.29.01.46.02.47.03.01.01-.13.02-.41.03-.33,0-.73.02-1.2.04-1.04.03-2.52.05-4.25.06h-.13s0-.13,0-.13c0-.39,0-.79,0-1.2,0-.21,0-.42,0-.63v-.32s0-.16,0-.16v-.08s0-.04,0-.04v-.02h0v-.02h0s.26-.26.14-.14c2.29,0,4.36.02,5.86.04h.1s0,.1,0,.1c-.01.78-.03,1.41-.05,1.84-.02.42-.03.65-.04.63Z"/>
        <g>
          <path class="cls-8" d="m344.7,163.36h-2.27v-4.32h-4.2v4.32h-2.7v-4.32h-4.2v4.32h-2.7v-4.32h-4.2v4.32h-2.7v-4.32h-4.2v4.32h-2.7v-4.32h-4.2v4.32h-2.7v-4.32h-4.2v4.32h-2.7v-4.32h-4.2v4.32h-2.7v-4.32h-4.2v4.32h-2.7v-4.32h-4.2v4.32h-2.7v-4.32h-4.2v4.32h-2.7v-4.32h-4.2v4.4h.13l9.04,9.56v33.33h53.57c.92-1.11,1.68-2.15,2.25-3.11,6.85-11.56,9.48-29.73,10.45-39.86Z"/>
          <path class="cls-10" d="m344.7,163.36s-.08,1.07-.3,3.11c-.23,2.04-.58,5.04-1.22,8.9-.66,3.85-1.54,8.57-3.11,13.92-.77,2.68-1.72,5.51-2.97,8.43-.29.74-.64,1.46-1,2.2-.34.74-.72,1.48-1.13,2.21-.75,1.5-1.76,2.92-2.89,4.27l-.03.04h-.05c-14.92,0-33.17.02-53.57.03h-.13v-.13c0-10.43,0-21.66,0-33.32l.04.09c-2.86-3.03-5.93-6.27-9.04-9.56l.1.04h-.27v-.14c0-1.39,0-2.89,0-4.4v-.14h.14c1.32,0,2.76,0,4.2,0h.14v.14c0,1.25,0,2.59,0,3.94v.38l-.14-.14h2.7l-.14.14c0-1.47,0-2.9,0-4.32v-.14h.14c1.42,0,2.81,0,4.2,0h.14v.14c0,1.45,0,2.89,0,4.32l-.14-.14c.91,0,1.8,0,2.7,0l-.14.14c0-1.45,0-2.89,0-4.32v-.14h.14c1.41,0,2.81,0,4.2,0h.14v.14c0,1.45,0,2.89,0,4.32l-.14-.14c.91,0,1.81,0,2.7,0l-.14.14c0-1.45,0-2.89,0-4.32v-.13h.13c1.41,0,2.81,0,4.2,0h.13v.13c0,1.46,0,2.9,0,4.32l-.13-.13c.91,0,1.81,0,2.7,0l-.13.13c0-1.46,0-2.9,0-4.32v-.13h.13c1.43,0,2.82,0,4.2,0h.13v.13c0,1.47,0,2.91,0,4.32l-.13-.13c.93,0,1.82,0,2.7,0l-.13.13c0-1.48,0-2.91,0-4.32v-.12h.12c1.44,0,2.83,0,4.2,0h.12v.12c0,1.49,0,2.92,0,4.32l-.12-.12c.94,0,1.82,0,2.7,0l-.12.12c0-1.5,0-2.92,0-4.32v-.12h.12c1.47,0,2.84,0,4.2,0h.11s0,.11,0,.11c0,1.52,0,2.93,0,4.32l-.11-.11c.96,0,1.83,0,2.7,0l-.11.11c0-1.54,0-2.94,0-4.32v-.11s.11,0,.11,0c1.5,0,2.86,0,4.2,0h.1v.1c0,1.56,0,2.96,0,4.32l-.1-.1c.99,0,1.85,0,2.7,0l-.1.1c0-1.58,0-2.97,0-4.32v-.09s.09,0,.09,0c1.55,0,2.89,0,4.2,0h.09s0,.09,0,.09c0,1.62,0,2.99,0,4.32l-.08-.08c1.03,0,1.88,0,2.7,0l-.08.08c0-1.66,0-3.02,0-4.32v-.07s.07,0,.07,0c1.65,0,2.95,0,4.2,0h.07v.07c0,1.73,0,3.07,0,4.32l-.06-.06c1.12,0,1.93,0,2.7,0l-.06.06c0-1.83,0-3.14,0-4.32v-.05h.05c1.88,0,3.12,0,4.2.01h.04s0,.04,0,.04c0,2.15-.01,3.42-.02,4.32l-.02-.02c1.53.01,1.97.02,2.27.02-.3,0-.74,0-2.27.02h-.02s0-.02,0-.02c0-.9,0-2.17-.02-4.32l.04.04c-1.07,0-2.31,0-4.2.01l.05-.05c0,1.18,0,2.49,0,4.32v.06s-.06,0-.06,0c-.77,0-1.58,0-2.7,0h-.06s0-.06,0-.06c0-1.25,0-2.59,0-4.32l.07.07c-1.24,0-2.55,0-4.2,0l.07-.07c0,1.3,0,2.66,0,4.32v.08s-.08,0-.08,0c-.82,0-1.67,0-2.7,0h-.08s0-.08,0-.08c0-1.33,0-2.7,0-4.32l.09.09c-1.3,0-2.64,0-4.2,0l.09-.09c0,1.35,0,2.74,0,4.32v.1s-.1,0-.1,0c-.85,0-1.71,0-2.7,0h-.1v-.1c0-1.37,0-2.76,0-4.32l.1.1c-1.33,0-2.69,0-4.2,0l.11-.11c0,1.38,0,2.79,0,4.32v.11s-.11,0-.11,0c-.87,0-1.74,0-2.7,0h-.11v-.11c0-1.39,0-2.8,0-4.32l.11.11c-1.35,0-2.73,0-4.2,0l.12-.12c0,1.4,0,2.82,0,4.32v.12h-.12c-.88,0-1.76,0-2.7,0h-.12v-.12c0-1.41,0-2.83,0-4.32l.12.12c-1.37,0-2.75,0-4.2,0l.12-.12c0,1.41,0,2.84,0,4.32v.13s-.13,0-.13,0c-.88,0-1.77,0-2.7,0h-.13v-.13c0-1.42,0-2.85,0-4.32l.13.13c-1.38,0-2.77,0-4.2,0l.13-.13c0,1.42,0,2.86,0,4.32v.13h-.13c-.89,0-1.78,0-2.7,0h-.13v-.13c0-1.43,0-2.86,0-4.32l.13.13c-1.39,0-2.78,0-4.2,0l.13-.13c0,1.43,0,2.87,0,4.32v.14h-.14c-.89,0-1.79,0-2.7,0h-.14v-.14c0-1.43,0-2.87,0-4.32l.14.14c-1.39,0-2.79,0-4.2,0l.14-.14c0,1.43,0,2.87,0,4.32v.14h-.14c-.9,0-1.79,0-2.7,0h-.14v-.14c0-1.43,0-2.87,0-4.32l.14.14c-1.38,0-2.77,0-4.2,0l.14-.14c0,1.42,0,2.86,0,4.32v.14h-2.98v-4.46l.14.14c-1.44,0-2.87,0-4.2,0l.14-.14c0,1.51,0,3.02,0,4.4l-.14-.14h.19l.04.04c3.11,3.29,6.17,6.53,9.04,9.56l.04.04v.05c0,11.67,0,22.89,0,33.32l-.13-.13c20.4.01,38.65.02,53.57.03l-.07.03c1.13-1.35,2.12-2.74,2.88-4.24.42-.72.79-1.46,1.13-2.19.36-.73.7-1.45,1-2.19,1.25-2.9,2.21-5.73,2.99-8.4,1.58-5.34,2.47-10.05,3.15-13.89.66-3.85,1.03-6.85,1.27-8.89.21-1.84.31-2.69.36-3.1Z"/>
        </g>
        <g>
          <g>
            <path class="cls-11" d="m307.85,39.59s-6.01,1.66-5.29-.18c.22-.55,1.39-2.98-2.17-3.24-3.56-.25-9.15.68-9.15.68l2.97.66-2.97,1.38s7.79-.59,8.9,0c1.1.59-1.73,2.94.13,3.87,1.86.93,7.58.23,7.58.23v-3.4Z"/>
            <path class="cls-10" d="m303.73,43.27c-1.37,0-2.73-.11-3.47-.48-1.08-.54-.63-1.53-.24-2.4.3-.66.56-1.23.1-1.47-1.08-.58-8.8,0-8.88,0h-.18s.17-.06.17-.06l2.88-1.34-3.04-.67.17-.03s4.37-.72,7.81-.72c.47,0,.92.01,1.35.04,1.19.08,1.97.42,2.33,1,.48.78.07,1.77-.1,2.19-.01.03-.02.06-.03.09-.09.23-.08.4.04.53.74.82,5.16-.39,5.21-.4h.04s0,3.46,0,3.46h-.03s-2.08.26-4.12.26Zm-6.4-4.68c1.33,0,2.45.07,2.82.27.51.27.23.9-.07,1.56-.38.85-.82,1.8.21,2.31,1.77.88,7.08.28,7.53.23v-3.33c-.49.13-4.5,1.18-5.23.37-.13-.15-.15-.35-.05-.6.01-.02.02-.05.03-.09.17-.41.57-1.38.11-2.13-.35-.56-1.11-.89-2.28-.97-3.17-.22-8,.5-8.97.65l2.89.64-2.89,1.34c.76-.06,3.63-.25,5.91-.25Z"/>
          </g>
          <path class="cls-10" d="m307.85,39.48c.08,0,.14,4.04.14,9.03s-.06,9.03-.14,9.03-.14-4.04-.14-9.03.06-9.03.14-9.03Z"/>
          <path class="cls-10" d="m302.93,37.57s.13.35.04.92c-.08.57-.43,1.36-1.13,1.92-.33.28-.65.53-.87.8-.23.27-.37.56-.4.81-.07.54.22.81.18.83,0,.01-.1-.03-.19-.17-.1-.13-.19-.37-.18-.68,0-.31.16-.65.4-.96.24-.31.57-.57.89-.85.65-.53.99-1.22,1.12-1.75.13-.53.1-.88.15-.88Z"/>
        </g>
        <g>
          <path class="cls-10" d="m290.61,193.42h-4.71v-9.29c0-1.3,1.05-2.35,2.35-2.35h0c1.3,0,2.35,1.05,2.35,2.35v9.29Z"/>
          <path class="cls-10" d="m303.05,193.42h-4.71v-9.29c0-1.3,1.05-2.35,2.35-2.35h0c1.3,0,2.35,1.05,2.35,2.35v9.29Z"/>
          <path class="cls-10" d="m315.15,193.22h-4.71v-9.29c0-1.3,1.05-2.35,2.35-2.35h0c1.3,0,2.35,1.05,2.35,2.35v9.29Z"/>
          <path class="cls-10" d="m330.09,193.22h-4.71v-9.29c0-1.3,1.05-2.35,2.35-2.35h0c1.3,0,2.35,1.05,2.35,2.35v9.29Z"/>
          <path class="cls-9" d="m298.41,173.2c-.61,1.67-2.92,2.33-4.24,1.2-1.19,1.63-3.54,2.18-5.27,1.23.12,2.16-2.2,4.03-4.16,3.35.42,1.21-.16,2.59-1.03,3.5-.87.91-1.99,1.5-2.99,2.25-1,.75-2.08,2.24-2.26,3.52l-.05-15.24,20,.18Z"/>
          <path class="cls-10" d="m342.83,173.12s-14.42.04-32.2,0c-17.79-.04-32.2-.1-32.2-.14,0-.04,14.42-.04,32.2,0,17.78.04,32.2.1,32.2.14Z"/>
          <path class="cls-4" d="m290.61,193.38c0,.07-1.03.12-2.31.12s-2.31-.06-2.31-.12,1.03-.12,2.31-.12,2.31.06,2.31.12Z"/>
          <path class="cls-4" d="m303.05,193.38c0,.07-1.03.12-2.31.12s-2.31-.06-2.31-.12,1.03-.12,2.31-.12,2.31.06,2.31.12Z"/>
          <path class="cls-4" d="m315.15,193.38c0,.07-1.03.12-2.31.12s-2.31-.06-2.31-.12,1.03-.12,2.31-.12,2.31.06,2.31.12Z"/>
          <path class="cls-4" d="m301.23,181.27s-.22.05-.57.09c-.34.04-.82.13-1.29.36-.47.24-.81.6-.99.89-.19.3-.24.52-.28.51-.03,0-.03-.25.14-.6.16-.35.52-.77,1.03-1.03.51-.26,1.03-.31,1.38-.31.36,0,.58.05.58.08Z"/>
          <path class="cls-4" d="m313.47,181.27s-.22.05-.57.09c-.34.04-.82.13-1.29.36-.47.24-.81.6-.99.89-.19.3-.24.52-.28.51-.03,0-.03-.25.14-.6.16-.35.52-.77,1.03-1.03.51-.26,1.03-.31,1.38-.31.36,0,.58.05.58.08Z"/>
          <path class="cls-5" d="m319.43,187.7s-.03-.19-.04-.58c-.02-.39-.04-.96-.05-1.67v-.1s.09,0,.09,0c.96-.02,2.2-.03,3.55-.03-.03-.03.22.23.12.12h0v.07s0,.07,0,.07v.44c0,.19,0,.39,0,.57,0,.38,0,.74,0,1.09v.12s-.11,0-.11,0c-1.07,0-1.97-.03-2.6-.06-.63-.02-.98-.04-.96-.06.02-.02.4-.04,1.03-.06.63-.02,1.5-.05,2.52-.06l-.11.11c0-.35,0-.71,0-1.09,0-.19,0-.38,0-.57v-.29s0-.15,0-.15v-.13h0v-.02h0c-.11-.11.14.15.12.12-1.35,0-2.59-.01-3.55-.03l.09-.1c-.01.67-.03,1.22-.05,1.61-.02.39-.03.62-.04.64Z"/>
          <path class="cls-5" d="m320.77,189.92s-.03-.19-.05-.59c-.02-.39-.04-.97-.05-1.67v-.11s.1,0,.1,0c.65,0,1.37-.01,2.15-.02-.03-.03.22.24.12.12h0v.31c0,.1,0,.2,0,.3,0,.2,0,.39,0,.58,0,.37,0,.73-.01,1.06v.11s-.1,0-.1,0c-.67-.01-1.22-.03-1.59-.05-.37-.02-.57-.04-.56-.05.02-.02.24-.03.62-.05.38-.02.9-.04,1.52-.05l-.1.11c0-.34,0-.69-.01-1.06,0-.19,0-.38,0-.58,0-.1,0-.2,0-.3v-.15s0-.08,0-.08v-.06h0v-.02h0c-.11-.11.14.15.12.12-.77,0-1.5-.01-2.15-.02l.1-.11c-.01.65-.03,1.2-.05,1.6-.02.4-.03.64-.05.65Z"/>
        </g>
        <path class="cls-5" d="m325.37,172.09s-.02-.24-.04-.63c-.02-.39-.03-.95-.05-1.62l.08.09c-1.31.02-3.11.04-5.1.04-.11.11.14-.15.12-.12h0v.59c0,.19,0,.38,0,.57,0,.38,0,.74,0,1.09l-.11-.12c1.46,0,2.71.03,3.62.06.42.01.78.02,1.07.03.25.01.4.02.41.03,0,0-.12.02-.36.03-.29,0-.63.02-1.05.03-.9.02-2.19.05-3.7.06h-.11s0-.12,0-.12c0-.35,0-.72,0-1.09,0-.19,0-.38,0-.57v-.29s0-.15,0-.15v-.13h0v-.02h0s.22-.24.12-.13c1.99,0,3.79.01,5.1.04h.09s0,.09,0,.09c-.01.72-.03,1.29-.05,1.67-.02.39-.03.59-.04.58Z"/>
        <path class="cls-5" d="m322.31,169.83s-.02-.24-.04-.63c-.02-.39-.03-.95-.05-1.62l.08.09c-1.31.02-3.11.04-5.1.04-.11.11.14-.15.12-.12h0v.29s0,.29,0,.29c0,.19,0,.38,0,.57,0,.38,0,.74,0,1.09l-.11-.12c1.46,0,2.71.03,3.62.06.42.01.78.02,1.07.03.25.01.4.02.41.03,0,0-.12.02-.36.03-.29,0-.63.02-1.05.03-.9.02-2.19.05-3.7.06h-.11s0-.12,0-.12c0-.35,0-.72,0-1.09,0-.19,0-.38,0-.57v-.29s0-.15,0-.15v-.13h0v-.02h0s.22-.24.12-.13c1.99,0,3.79.01,5.1.04h.09s0,.09,0,.09c-.01.72-.03,1.29-.05,1.67-.02.39-.03.59-.04.58Z"/>
        <path class="cls-8" d="m308.36,198.07s-.02-.24-.04-.63c-.02-.39-.03-.95-.05-1.62l.08.09c-1.31.02-3.11.04-5.1.04-.11.11.14-.15.12-.12h0v.29s0,.29,0,.29c0,.19,0,.38,0,.57,0,.38,0,.74,0,1.09l-.11-.12c1.46,0,2.71.03,3.62.06.42.01.78.02,1.07.03.25.01.4.02.41.03,0,0-.12.02-.36.03-.29,0-.63.02-1.05.03-.9.02-2.19.05-3.7.06h-.11s0-.12,0-.12c0-.35,0-.72,0-1.09,0-.19,0-.38,0-.57v-.29s0-.15,0-.15v-.13h0v-.02h0s.22-.24.12-.13c1.99,0,3.79.01,5.1.04h.09s0,.09,0,.09c-.01.72-.03,1.29-.05,1.67-.02.39-.03.59-.04.58Z"/>
        <path class="cls-8" d="m298.27,188.5s-.03-.25-.05-.65c-.02-.4-.04-.95-.05-1.6l.1.1c-.76,0-1.62.01-2.55.02-.03.03.22-.23.12-.12h0v.3c0,.1,0,.2,0,.3,0,.2,0,.39,0,.58,0,.37,0,.73,0,1.07l-.1-.11c.74.01,1.36.03,1.81.06.45.02.72.04.74.05.02.02-.23.03-.67.05-.44.02-1.1.05-1.88.06h-.1s0-.11,0-.11c0-.34,0-.7,0-1.07,0-.19,0-.38,0-.58,0-.1,0-.2,0-.3v-.15s0-.08,0-.08v-.06h0v-.02h0c-.11.11.14-.15.12-.13.93,0,1.79.01,2.55.02h.1s0,.1,0,.1c-.01.7-.03,1.28-.05,1.67-.02.39-.03.6-.05.58Z"/>
        <g>
          <path class="cls-11" d="m243.53,165.75c.2-.9,11.46-34.04,11.46-34.04l11.11,34.04h-22.58Z"/>
          <g>
            <path class="cls-11" d="m252.95,150.48s-.03-.21-.04-.63c-.02-.42-.04-1.05-.05-1.84v-.1s.1,0,.1,0c1.5-.02,3.58-.04,5.86-.04-.12-.12.17.17.14.14h0v.64c0,.21,0,.42,0,.63,0,.41,0,.81,0,1.2v.13s-.13,0-.13,0c-1.73,0-3.22-.04-4.25-.06-.47-.01-.87-.03-1.2-.04-.28-.01-.42-.02-.41-.03s.17-.02.47-.03c.34,0,.75-.02,1.23-.04,1.04-.03,2.49-.05,4.17-.06l-.13.13c0-.39,0-.79,0-1.2,0-.21,0-.42,0-.63v-.32s0-.16,0-.16v-.14h0v-.02h0s.26.25.14.13c-2.29,0-4.36-.01-5.86-.04l.1-.1c-.01.74-.03,1.35-.05,1.78-.02.43-.03.68-.04.69Z"/>
            <path class="cls-10" d="m258.97,150.64h-.16c-1.78,0-3.29-.04-4.25-.06h-.39c-.31-.02-.58-.03-.81-.04-.37-.01-.42-.02-.43-.04,0,0,0-.01-.01-.02h0s0,0,0,0c-.01-.06-.02-.21-.04-.63-.02-.49-.04-1.09-.05-1.84v-.13s.13,0,.13,0c1.54-.03,3.6-.04,5.8-.04,0,0,0-.01.01-.02.01-.02.03-.01.05,0h0s.02.02.02.02c0,0,0,0,.01.01l.06.06s.04.04.05.05l.03.03h0s.02.03.01.04v.63c0,.21,0,.42,0,.63,0,.4,0,.78,0,1.15v.21Zm-5.55-.16c.22,0,.47.01.75.02h.39c.96.04,2.47.06,4.25.07h.1s0-.14,0-.14c0-.37,0-.76,0-1.15,0-.21,0-.42,0-.63v-.63s-.08-.08-.12-.12c-2.16,0-4.18.01-5.72.04v.07s0,.04,0,.07c1.5.02,3.47.04,5.57.04v-.09s-.01-.01-.01-.01l.02-.03s.02-.02.05,0h0s0,0,0,0c.03.02.07.07.16.16l.02.02-.02.02s-.03.01-.05,0h0s0,0-.01,0c0,0,0,0-.01,0h-.09v.47c0,.21,0,.42,0,.63v1.04s.07,0,.1,0h.08s-.24.24-.24.24v-.18c-1.3,0-2.65.03-4,.06h-.44c-.3.02-.56.03-.79.04Zm-.35-2.34c-.01.67-.03,1.23-.05,1.65-.02.4-.03.57-.04.65.06,0,.18-.01.42-.02.23,0,.5-.01.8-.02h.44c1.36-.05,2.7-.07,4-.07v-1.04c0-.21,0-.42,0-.63v-.47c-2.1,0-4.07-.01-5.57-.04Zm5.64,2.24v.02l.02-.02h-.02Zm-5.83-2.25c.01.69.03,1.25.05,1.71,0,.06,0,.14.01.23,0-.1,0-.21.01-.29.02-.42.04-.98.05-1.65-.02,0-.04,0-.06,0h-.06Zm0-.19v.06s0,.07,0,.11l.18-.18s-.08,0-.12,0h-.06Zm5.83.16h.02s-.02-.02-.02-.02v.02Z"/>
          </g>
        </g>
        <g>
          <g>
            <rect class="cls-8" x="245.94" y="175.56" width="20.03" height="85.89"/>
            <rect class="cls-5" x="244.38" y="243.02" width="21.59" height="18.43"/>
            <polygon class="cls-8" points="264.11 160.92 264.11 165.75 260.99 165.75 260.99 160.92 256.16 160.92 256.16 165.75 253.46 165.75 253.46 160.92 248.64 160.92 248.64 165.75 245.94 165.75 245.94 160.92 241.11 160.92 241.11 165.75 241.11 175.56 268.87 175.56 268.87 165.75 268.87 165.75 268.87 160.92 264.11 160.92"/>
          </g>
          <g>
            <path class="cls-10" d="m258.26,196.44h-5.41v-10.06c0-1.5,1.21-2.71,2.71-2.71h0c1.5,0,2.71,1.21,2.71,2.71v10.06Z"/>
            <path class="cls-10" d="m258.26,215.9h-5.41v-10.06c0-1.5,1.21-2.71,2.71-2.71h0c1.5,0,2.71,1.21,2.71,2.71v10.06Z"/>
            <path class="cls-10" d="m258.26,235.37h-5.41v-10.06c0-1.5,1.21-2.71,2.71-2.71h0c1.5,0,2.71,1.21,2.71,2.71v10.06Z"/>
            <path class="cls-9" d="m253.51,175.54c.17.95-.47,2.26-1.16,2.94-.69.67-1.57,1.11-2.42,1.57-.17.09-.35.2-.38.39-.02.14.05.27.11.4,1.14,2.3.27,5.4-1.9,6.78.72,1.13.93,2.57.56,3.86-.37,1.29-1.31,2.4-2.52,2.98v-18.89l7.7-.02Z"/>
            <path class="cls-10" d="m241.11,175.54c0-.08,6.18-.14,13.81-.14s13.81.06,13.81.14-6.18.14-13.81.14-13.81-.06-13.81-.14Z"/>
            <path class="cls-8" d="m246.2,238.84s-.03-.21-.04-.63c-.02-.42-.04-1.05-.05-1.84v-.1s.1,0,.1,0c1.5-.02,3.58-.04,5.86-.04-.12-.12.17.17.14.14h0v.04s0,.04,0,.04v.56c0,.21,0,.42,0,.63,0,.41,0,.81,0,1.2v.13s-.13,0-.13,0c-1.73,0-3.22-.04-4.25-.06-.47-.01-.87-.03-1.2-.04-.28-.01-.42-.02-.41-.03.01-.01.17-.02.47-.03.34,0,.75-.02,1.23-.04,1.04-.03,2.49-.05,4.17-.06l-.13.13c0-.39,0-.79,0-1.2,0-.21,0-.42,0-.63v-.32s0-.16,0-.16v-.14h0v-.02h0s.26.25.14.13c-2.29,0-4.36-.02-5.86-.04l.1-.1c-.01.74-.03,1.35-.05,1.78-.02.43-.03.68-.04.69Z"/>
            <path class="cls-8" d="m259.21,207.44s-.03-.21-.04-.63c-.02-.42-.04-1.05-.05-1.84v-.09s.1,0,.1,0c1.5-.02,3.58-.04,5.86-.04-.12-.12.17.17.14.14h0v.32s0,.32,0,.32c0,.21,0,.42,0,.63,0,.41,0,.81,0,1.2v.13s-.13,0-.13,0c-1.73,0-3.22-.04-4.25-.06-.47-.01-.87-.03-1.2-.04-.28-.01-.42-.02-.41-.03.01-.01.17-.02.47-.03.34,0,.75-.02,1.23-.04,1.04-.03,2.49-.05,4.17-.06l-.13.13c0-.39,0-.79,0-1.2,0-.21,0-.42,0-.63v-.32s0-.16,0-.16v-.14h0v-.02h0s.26.25.14.13c-2.29,0-4.36-.02-5.86-.04l.1-.1c-.01.74-.03,1.35-.05,1.78-.02.43-.03.68-.04.69Z"/>
            <path class="cls-8" d="m255.79,181.05s-.03-.21-.04-.63c-.02-.42-.04-1.05-.05-1.84v-.09s.1,0,.1,0c1.5-.02,3.58-.04,5.86-.04-.12-.12.17.17.14.14h0v.08s0,.08,0,.08v.48c0,.21,0,.42,0,.63,0,.41,0,.81,0,1.2v.13s-.13,0-.13,0c-1.73,0-3.22-.04-4.25-.06-.47-.01-.87-.03-1.2-.04-.28-.01-.42-.02-.41-.03.01-.01.17-.02.47-.03.34,0,.75-.02,1.23-.04,1.04-.03,2.49-.05,4.17-.06l-.13.13c0-.39,0-.79,0-1.2,0-.21,0-.42,0-.63v-.32s0-.16,0-.16v-.14h0v-.02h0s.26.25.14.13c-2.29,0-4.36-.02-5.86-.04l.1-.1c-.01.74-.03,1.35-.05,1.78-.02.43-.03.68-.04.69Z"/>
            <path class="cls-8" d="m262.31,204.94s-.03-.21-.06-.64c-.02-.43-.05-1.06-.06-1.83v-.11s.12,0,.12,0c.83,0,1.76-.01,2.77-.02-.03-.03.26.26.14.14h0v.17s0,.17,0,.17c0,.11,0,.22,0,.33,0,.22,0,.43,0,.64,0,.41,0,.8-.01,1.17v.12s-.12,0-.12,0c-.85-.01-1.56-.04-2.04-.06-.48-.02-.74-.04-.73-.06s.31-.04.8-.06c.49-.02,1.17-.05,1.97-.06l-.12.12c0-.37,0-.76-.01-1.17,0-.21,0-.42,0-.64,0-.11,0-.22,0-.33v-.17s0-.08,0-.08v-.06h0v-.02h0c-.12-.13.17.16.14.13-1,0-1.94-.01-2.77-.02l.12-.12c-.01.72-.04,1.32-.06,1.76-.02.43-.04.7-.06.71Z"/>
            <path class="cls-8" d="m241.56,172.97s-.03-.21-.06-.64c-.02-.43-.05-1.06-.06-1.83v-.11s.12,0,.12,0c.83,0,1.76-.01,2.77-.02-.03-.03.26.26.14.14h0v.33c0,.11,0,.22,0,.33,0,.22,0,.43,0,.64,0,.41,0,.8-.01,1.17v.12s-.12,0-.12,0c-.85-.01-1.56-.04-2.04-.06-.48-.02-.74-.04-.73-.06.02-.02.31-.04.8-.06.49-.02,1.17-.05,1.97-.06l-.12.12c0-.37,0-.76-.01-1.17,0-.21,0-.42,0-.64,0-.11,0-.22,0-.33v-.17s0-.08,0-.08v-.04s0-.02,0-.02h0v-.02h0c-.12-.13.17.16.14.13-1,0-1.94-.01-2.77-.02l.12-.12c-.01.72-.04,1.32-.06,1.76-.02.43-.04.7-.06.71Z"/>
            <path class="cls-8" d="m249.33,241.36s-.03-.21-.04-.63c-.02-.42-.04-1.05-.05-1.84v-.1s.1,0,.1,0c1.5-.02,3.58-.04,5.86-.04-.12-.12.17.17.14.14h0v.32s0,.32,0,.32c0,.21,0,.42,0,.63,0,.41,0,.81,0,1.2v.13s-.13,0-.13,0c-1.73,0-3.22-.04-4.25-.06-.47-.01-.87-.03-1.2-.04-.28-.01-.42-.02-.41-.03.01-.01.17-.02.47-.03.34,0,.75-.02,1.23-.04,1.04-.03,2.49-.05,4.17-.06l-.13.13c0-.39,0-.79,0-1.2,0-.21,0-.42,0-.63v-.32s0-.16,0-.16v-.14h0v-.02h0s.26.25.14.13c-2.29,0-4.36-.02-5.86-.04l.1-.1c-.01.74-.03,1.35-.05,1.78-.02.43-.03.68-.04.69Z"/>
            <path class="cls-10" d="m244.31,243c0-.08,4.7-.14,10.5-.14s10.5.06,10.5.14-4.7.14-10.5.14-10.5-.06-10.5-.14Z"/>
          </g>
        </g>
        <path class="cls-4" d="m251.85,235.97c0-.08,1.46-.14,3.27-.14s3.27.06,3.27.14-1.46.14-3.27.14-3.27-.06-3.27-.14Z"/>
        <path class="cls-4" d="m252.16,216.26c0-.08,1.31-.14,2.93-.14s2.93.06,2.93.14-1.31.14-2.93.14-2.93-.06-2.93-.14Z"/>
        <path class="cls-4" d="m258.7,196.96c0,.08-1.48.14-3.31.14s-3.31-.06-3.31-.14,1.48-.14,3.31-.14,3.31.06,3.31.14Z"/>
        <path class="cls-4" d="m254.89,222.32c.03.09-.96.25-1.83,1.01-.42.38-.68.84-.8,1.19-.12.35-.13.6-.18.6-.03,0-.09-.25,0-.65.08-.4.34-.92.8-1.34.46-.42.99-.63,1.37-.73.38-.1.63-.11.64-.07Z"/>
        <path class="cls-4" d="m255.55,202.56c.03.08-1.2.2-2.25,1.16-1.05.96-1.27,2.17-1.35,2.14-.03,0-.03-.31.13-.77.15-.46.48-1.07,1.03-1.57.55-.51,1.19-.78,1.65-.9.47-.12.77-.1.78-.06Z"/>
        <path class="cls-4" d="m255.39,183.49s-.28.03-.71.12c-.43.09-1.01.31-1.49.77-.48.45-.74,1.02-.86,1.44-.12.42-.12.7-.17.71-.03,0-.1-.28-.02-.75.07-.46.33-1.09.86-1.59.53-.5,1.18-.71,1.64-.76.47-.05.75.04.75.07Z"/>
        <path class="cls-4" d="m265.35,174.51c0,.08-4.76.14-10.62.14s-10.62-.06-10.62-.14,4.75-.14,10.62-.14,10.62.06,10.62.14Z"/>
        <g>
          <path class="cls-8" d="m331.06,203.22v-5.4h-5.4v5.4h-3.19v-5.4h-5.4v5.4h-3.19v-5.4h-5.4v5.4h-3.19v-5.4h-5.39v5.4h-3.19v-5.4h-5.4v5.4h-3.19v-5.4h-5.4v5.4h-3.19v-5.4h-5.4v5.4h-3.19v-5.4h-5.4v59.16c19.43-12.74,61.12-41.02,68.68-53.77h-3.19Z"/>
          <path class="cls-10" d="m331.06,203.22c.41,0,1.2-.01,3.19-.03h.05s-.03.04-.03.04c-1.26,1.98-3.67,5.02-7.41,8.58-3.75,3.55-8.68,7.74-14.64,12.41-11.93,9.33-27.92,20.6-46.58,32.87l-.2.13v-.24c0-17.65,0-37.05-.01-57.4v-1.9h.14c1.81,0,3.61,0,5.39,0h.14v.14c0,1.81,0,3.61,0,5.39l-.14-.14c1.07,0,2.13,0,3.19,0l-.14.14c0-1.81,0-3.61,0-5.39v-.14h.14c1.81,0,3.61,0,5.39,0h.14v.14c0,1.82,0,3.61,0,5.39l-.14-.14c1.07,0,2.13,0,3.19,0l-.13.13c0-1.82,0-3.61,0-5.39v-.13h.13c1.82,0,3.61,0,5.39,0h.13v.13c0,1.82,0,3.62,0,5.39l-.13-.13c1.08,0,2.14,0,3.19,0l-.13.13c0-1.83,0-3.62,0-5.39v-.13h.13c1.84,0,3.63,0,5.39,0h.12v.12c0,1.85,0,3.64,0,5.39l-.12-.12c1.1,0,2.15,0,3.19,0l-.12.12c0-1.86,0-3.65,0-5.39v-.12h.12c1.88,0,3.65,0,5.39,0h.11s0,.11,0,.11c0,1.89,0,3.66,0,5.39l-.11-.11c1.13,0,2.17,0,3.19,0l-.11.11c0-1.91,0-3.68,0-5.39v-.1s.1,0,.1,0c1.93,0,3.69,0,5.39,0h.1v.1c0,1.96,0,3.7,0,5.39l-.09-.09c1.18,0,2.2,0,3.19,0l-.09.09c0-2,0-3.73,0-5.39v-.08h.08c2.04,0,3.76,0,5.39,0h.08v.07c0,2.09,0,3.79,0,5.39l-.07-.07c1.28,0,2.26,0,3.19,0l-.06.06c0-2.2,0-3.89.01-5.39v-.05s.05,0,.05,0c2.35,0,4.01.01,5.39.01h.04v.04c-.02,3.46-.03,4.83-.04,5.39,0-.56-.01-1.93-.04-5.39l.04.04c-1.38,0-3.05,0-5.39.01l.05-.05c0,1.51,0,3.19.01,5.39v.06s-.06,0-.06,0c-.93,0-1.91,0-3.19,0h-.07v-.07c0-1.6,0-3.31,0-5.39l.07.07c-1.64,0-3.36,0-5.39,0l.08-.08c0,1.66,0,3.39,0,5.39v.09s-.09,0-.09,0c-.99,0-2.01,0-3.19,0h-.09v-.09c0-1.69,0-3.44,0-5.39l.1.1c-1.71,0-3.46,0-5.39,0l.1-.1c0,1.72,0,3.48,0,5.39v.11h-.11c-1.02,0-2.06,0-3.19,0h-.11s0-.11,0-.11c0-1.73,0-3.51,0-5.39l.11.11c-1.74,0-3.52,0-5.39,0l.12-.12c0,1.75,0,3.53,0,5.39v.12h-.12c-1.04,0-2.09,0-3.19,0h-.12s0-.12,0-.12c0-1.76,0-3.55,0-5.39l.12.12c-1.76,0-3.55,0-5.39,0l.13-.13c0,1.77,0,3.56,0,5.39v.13s-.13,0-.13,0c-1.05,0-2.11,0-3.19,0h-.13s0-.13,0-.13c0-1.78,0-3.57,0-5.39l.13.13c-1.78,0-3.58,0-5.39,0l.13-.13c0,1.78,0,3.58,0,5.39v.13h-.13c-1.06,0-2.12,0-3.19,0h-.14v-.14c0-1.78,0-3.58,0-5.39l.14.14c-1.78,0-3.58,0-5.39,0l.14-.14c0,1.79,0,3.58,0,5.39v.14s-.14,0-.14,0c-1.06,0-2.12,0-3.19,0h-.14v-.14c0-1.79,0-3.59,0-5.39l.14.14c-1.79,0-3.58,0-5.39,0l.14-.14v1.76c0,20.36,0,39.75-.01,57.4l-.2-.11c18.67-12.25,34.67-23.5,46.61-32.8,5.97-4.65,10.91-8.82,14.67-12.35,3.75-3.55,6.17-6.56,7.44-8.52l.02.04c-1.99-.02-2.78-.02-3.19-.03Z"/>
        </g>
        <path class="cls-10" d="m280.82,240.89h-7.98v-22.53c0-2.2,1.79-3.99,3.99-3.99h0c2.2,0,3.99,1.79,3.99,3.99v22.53Z"/>
        <path class="cls-10" d="m293.84,214.36c-2.2,0-3.99,1.79-3.99,3.99l-.16,22.31,8.14-5.54v-16.77c0-2.2-1.79-3.99-3.99-3.99Z"/>
        <path class="cls-10" d="m309.22,214.36c-2.2,0-3.99,1.79-3.99,3.99l-.16,11.3,8.14-6.22v-5.08c0-2.2-1.79-3.99-3.99-3.99Z"/>
        <path class="cls-4" d="m281.89,241.49c0,.08-2.14.14-4.79.14s-4.79-.06-4.79-.14,2.14-.14,4.79-.14,4.79.06,4.79.14Z"/>
        <path class="cls-4" d="m276.73,213.91c0,.05-.61-.08-1.5.22-.44.15-.94.42-1.4.83-.46.41-.86.97-1.15,1.62-.59,1.32-.6,2.67-.56,3.61.05.95.15,1.54.11,1.55-.02,0-.06-.14-.12-.4-.06-.26-.13-.65-.18-1.13-.09-.95-.11-2.35.5-3.73.31-.68.74-1.28,1.24-1.7.5-.43,1.04-.69,1.51-.83.47-.13.88-.15,1.15-.13.27.02.42.07.41.09Z"/>
      </g>
      <g>
        <path class="cls-11" d="m247.52,255.44c-5.29,2.5-9.33,8.36-15.18,8.2-3.53-.1-6.65-2.49-10.17-2.79-6.58-.57-11.43,6.06-13.73,12.25-2.29,6.19-3.87,13.32-9.28,17.11-5.94,4.17-14.06,2.59-21.11,4.3-12.64,3.07-18.38,9.94-16.98,30.65l69.43,2.46c-.07-8.01-.11-26.66,1.69-30.57,3.78-8.18,10.04-16.83,15.84-18.06,10.48-2.23,21.89-4.49,21.68-15.2-.2-10.72-12.51-12.92-22.2-8.35Z"/>
        <rect class="cls-11" x="161.02" y="323.99" width="69.38" height="122.63"/>
        <polygon class="cls-3" points="183.06 292.29 184.44 445.79 207.42 449.51 206.06 292.29 183.06 292.29"/>
        <path class="cls-3" d="m345.11,163.98c-5.43-5.76-15.56-7.49-21.26-1.99-8.32,8.02-2.03,23.43-8.89,32.72-5.97,8.08-18.27,7.24-27.04,12.12-8.68,4.83-13,14.67-17.66,23.45-4.66,8.78-11.51,17.93-21.4,18.97-8.35.88-18.47-2.83-26.17-1.38-6.65,1.25-14.06,3.05-17.47,14.4-1.44,4.8,1.97,11.35-2.46,13.69-4.43,2.34-10.07.92-13.1,4.9-3.03,3.99-1.91,13.97-1.89,20.89l23.43-1.7c7.16-22.3,20.64-12.63,31.6-17.32,10.96-4.69,20.27-11.42,31.56-15.24,18.91-6.4,37.33-15.31,51.91-28.95,14.58-13.64,25.03-32.47,25.6-52.43.22-7.92-1.33-16.37-6.77-22.13Z"/>
        <path class="cls-7" d="m161.12,446.62l29.24,50.35c3.32,5.72,11.66,5.49,14.67-.4l25.47-49.95h-69.38Z"/>
        <path class="cls-7" d="m161.12,446.6c.45-3.54,2.92-7.03,6.18-8.51s7.18-1.26,10.35.4c3.16,1.66,5.53,4.7,6.55,8.12"/>
        <path class="cls-7" d="m183.99,446.62c.45-3.54,3.28-7.49,6.53-8.96s7.18-1.26,10.35.4c3.16,1.66,5.53,5.13,6.55,8.56"/>
        <path class="cls-7" d="m207.42,446.59c.45-3.54,2.92-6.72,6.18-8.19,3.26-1.47,7.18-1.26,10.35.4,3.16,1.66,5.53,4.46,6.55,7.88"/>
        <path class="cls-11" d="m326.22,201.58c-4.08-2.42-9.43-1.66-13.56.67-7.81,4.4-11.8,13.22-15.86,21.21-4.06,8-9.59,16.42-18.32,18.51-8,1.91-17.04-2.04-24.38,1.69-8.14,4.14-10.82,16.25-19.72,18.29-4.76,1.09-9.4,1.46-14.25,2.06-5.47.67-10.35,5.39-12.75,12.12-2.45,6.89-1.23,28.1-1.23,44.06l24.35,7.43c0-55.55,37.01-48.81,59.11-58.91,26.27-12.01,33.62-21.86,40.78-45.08,2.38-7.73,2.79-17.93-4.17-22.05Z"/>
        <path class="cls-10" d="m183.18,484.6l12.17,20.96c1.17,2.02,4.12,1.94,5.18-.14l10.61-20.82h-27.96Z"/>
        <path class="cls-10" d="m206.06,295.1s.02.13.04.39c0,.3.02.67.04,1.14.02,1.06.04,2.53.07,4.4.04,3.87.1,9.39.18,16.18.18,13.71.42,32.56.68,53.38.28,20.85.46,39.73.48,53.4-.02,6.8-.03,12.31-.04,16.18-.02,1.87-.04,3.34-.06,4.4-.01.47-.02.85-.03,1.14-.01.26-.02.39-.03.39s-.02-.13-.04-.39c0-.3-.02-.67-.04-1.14-.02-1.06-.04-2.53-.07-4.4-.04-3.87-.1-9.39-.18-16.18-.18-13.71-.42-32.56-.68-53.39-.28-20.85-.46-39.72-.48-53.39.02-6.8.03-12.31.04-16.18.02-1.87.04-3.34.06-4.4.01-.47.02-.85.03-1.14.01-.26.02-.39.03-.39Z"/>
        <path class="cls-10" d="m205.63,262.38c.06.14-2.46.54-5.63,2.86-1.55,1.16-3.23,2.82-4.49,5.06-1.26,2.22-2.09,5-2.1,7.96-.02,1.49.19,2.94.55,4.3l.11.41-.42.02c-2.4.12-4.56,1.11-6.12,2.4-1.6,1.28-2.66,2.82-3.3,4.2-1.29,2.8-.96,4.77-1.11,4.75-.03,0-.11-.46-.11-1.33.02-.86.21-2.13.81-3.6.61-1.46,1.67-3.1,3.32-4.48,1.62-1.39,3.89-2.48,6.47-2.62l-.31.43c-.38-1.41-.61-2.93-.59-4.48,0-3.08.89-5.98,2.24-8.27,1.34-2.31,3.13-3.99,4.76-5.14,1.65-1.15,3.17-1.76,4.22-2.1,1.07-.33,1.68-.4,1.69-.36Z"/>
      </g>
      <g>
        <g>
          <g>
            <path class="cls-11" d="m134.33,126.47c-9.77-16.76-30.89-22.19-47.18-12.13-16.28,10.06-21.56,31.8-11.79,48.57,7.08,12.14,20.1,18.33,32.93,17,2.1,3.6,4.46,7.66,4.46,7.66l25.84-15.97s-2.35-4.39-4.53-8.27c6.55-10.91,7.11-25.11.26-36.86Z"/>
            <path class="cls-10" d="m134.33,126.47s.12.2.34.59c.21.4.55.98.95,1.76.74,1.59,1.83,3.97,2.64,7.23.79,3.25,1.34,7.38.89,12.14-.45,4.73-1.93,10.09-4.97,15.22v-.13c1.43,2.6,2.95,5.38,4.54,8.26l.06.11-.11.07c-7.77,4.81-16.47,10.19-25.83,15.99l-.13.08-.08-.13c-1.4-2.4-2.92-5.01-4.47-7.65l.15.08c-2.4.22-4.87.21-7.35-.05-2.48-.3-4.96-.89-7.39-1.73-2.44-.83-4.79-2.03-7.02-3.45-2.23-1.43-4.34-3.12-6.21-5.1l-.54-.55-.5-.58-1-1.16c-.62-.81-1.23-1.62-1.81-2.46l-.81-1.29-.41-.64c-.13-.22-.24-.45-.36-.67-.46-.9-.94-1.79-1.38-2.69-1.65-3.68-2.64-7.58-3.02-11.47-.37-3.89-.18-7.79.69-11.45.83-3.67,2.2-7.11,3.94-10.23,1.81-3.08,4.02-5.78,6.43-8.12,1.29-1.07,2.48-2.22,3.86-3.08.33-.23.67-.46,1-.69.33-.22.65-.47,1.01-.65.7-.38,1.39-.76,2.07-1.14.67-.41,1.4-.67,2.1-.97.71-.28,1.4-.62,2.11-.85.72-.22,1.43-.44,2.13-.65.35-.1.7-.24,1.06-.3.36-.07.71-.14,1.07-.21.71-.14,1.41-.28,2.1-.41.7-.07,1.4-.13,2.09-.19.34-.03.69-.06,1.03-.1.34-.03.68,0,1.02,0,.68,0,1.34,0,2,.01.33,0,.66.02.98.06.32.03.65.07.97.1.64.07,1.27.13,1.9.21.62.13,1.22.25,1.82.38.3.06.6.12.89.19l.44.09.43.13c.57.18,1.13.35,1.68.52.55.17,1.1.32,1.61.57.52.22,1.03.43,1.53.65.5.22,1,.4,1.46.67.92.51,1.83.97,2.67,1.48.81.55,1.59,1.08,2.34,1.59.73.53,1.37,1.13,2.01,1.65.31.27.63.52.92.79.28.28.54.56.81.82.52.53,1.02,1.04,1.48,1.51.43.51.81,1,1.17,1.45.36.45.69.87.99,1.25.29.39.51.78.73,1.11.42.66.75,1.17.97,1.52.22.34.32.52.32.52,0,0-.12-.17-.35-.5-.23-.34-.56-.84-.99-1.5-.22-.33-.45-.71-.74-1.1-.31-.38-.64-.79-1-1.24-.37-.44-.75-.93-1.18-1.44-.47-.47-.96-.97-1.48-1.5-.26-.26-.53-.54-.81-.82-.29-.27-.61-.51-.92-.78-.64-.51-1.28-1.1-2.01-1.63-.75-.5-1.53-1.03-2.34-1.57-.83-.5-1.74-.95-2.66-1.46-.45-.27-.95-.45-1.45-.66-.5-.21-1.01-.42-1.52-.64-.51-.24-1.06-.38-1.61-.56-.55-.17-1.11-.34-1.67-.52l-.43-.13-.44-.09c-.29-.06-.59-.12-.89-.18-.6-.12-1.2-.24-1.81-.37-.62-.08-1.25-.13-1.88-.2-.32-.03-.64-.07-.96-.1-.32-.04-.65-.07-.97-.06-.66,0-1.32,0-1.99,0-.34,0-.67-.02-1.01.01-.34.03-.68.07-1.02.1-.68.07-1.37.13-2.07.2-.69.12-1.38.27-2.09.41-.35.07-.7.14-1.06.21-.36.06-.7.2-1.05.3-.7.21-1.4.43-2.12.65-.71.23-1.39.57-2.09.85-.7.3-1.42.56-2.09.97-.68.37-1.36.75-2.05,1.13-.35.17-.67.42-1,.64-.33.23-.66.45-.99.68-1.37.85-2.55,2-3.82,3.06-2.38,2.32-4.57,5-6.36,8.06-1.72,3.09-3.07,6.51-3.89,10.14-.86,3.63-1.05,7.49-.68,11.34.38,3.85,1.37,7.72,3,11.36.44.89.91,1.77,1.37,2.66.12.22.22.45.35.66l.4.64.81,1.27c.57.83,1.18,1.63,1.79,2.43l.99,1.15.49.58.53.54c1.85,1.96,3.94,3.64,6.15,5.05,2.21,1.41,4.54,2.6,6.95,3.42,2.41.84,4.87,1.42,7.33,1.72,2.46.27,4.9.27,7.29.06h.1s.05.08.05.08c1.54,2.65,3.06,5.25,4.46,7.66l-.21-.05c9.37-5.78,18.07-11.15,25.85-15.95l-.05.18c-1.58-2.89-3.09-5.66-4.52-8.27l-.03-.06.04-.06c3.03-5.09,4.52-10.4,4.98-15.11.47-4.73-.06-8.84-.83-12.08-.78-3.25-1.85-5.63-2.57-7.23-.39-.78-.72-1.37-.92-1.77-.21-.4-.31-.61-.31-.61Z"/>
          </g>
          <path class="cls-4" d="m122.61,181.16c-5.89-9.75-11.14-19.9-17.21-29.55-1.23-1.95-2.48-3.88-3.86-5.72-1.73-2.3-3.9-4.71-6.95-4.71-1.33,0-2.68.52-3.52,1.62-.82,1.07-1.03,2.48-.95,3.81.18,2.86,1.53,5.68,3.28,7.86,3.57,4.46,9.2,6.79,14.76,5.66,5.55-1.13,10.38-5.4,11.94-11.05,1.53-5.54-.02-12.57-4.51-16.28-1.94-1.6-5.02-2.83-7.25-1.09-2.16,1.69-1.9,4.74-1.18,7.12.82,2.75,2.22,5.38,3.48,7.94,1.47,2.99,3.02,5.94,4.6,8.87,3.26,6.03,6.65,11.98,9.91,18.02.72,1.33,1.43,2.67,2.13,4.01.24.45.89.02.65-.44-5.6-10.78-11.95-21.13-17.22-32.09-1.16-2.41-2.49-4.92-3.07-7.56-.28-1.29-.4-2.77.18-3.99.62-1.29,1.9-1.98,3.28-1.92,2.89.12,5.21,2.55,6.62,4.93,1.46,2.46,2.2,5.34,2.19,8.22-.02,5.84-3.44,11.02-8.58,13.42-5.05,2.36-10.85,1.58-15.14-2.04-2.05-1.73-3.69-4-4.6-6.58-.91-2.56-1.39-6.66,1.95-7.52,3.2-.82,5.68,1.98,7.43,4.31,1.21,1.62,2.33,3.32,3.41,5.03,5.66,8.91,10.62,18.27,15.95,27.38.54.92,1.08,1.84,1.64,2.76.26.44.92,0,.65-.44h0Z"/>
          <g>
            <g id="_2gGvdE.tif" data-name="2gGvdE.tif">
              <path class="cls-9" d="m128.96,198.54s1.47.05,2.59.5c.58.23,1.23.15,1.76-.18l5.2-3.22c.58-.36.96-.99.99-1.69.04-.82.32-1.93.95-2.52l-11.49,7.11Z"/>
            </g>
            <path class="cls-10" d="m114.64,187.13c.06.11,6.15,7.72,8.48,10.63.96,1.19,2.42,1.87,3.92,1.7.55-.06,1.12-.24,1.67-.58,2.23-1.38,11.37-7.04,11.37-7.04,0,0,2.97-1.84,2.23-4.68-.78-2.99-5.31-13.87-5.31-13.87l-22.36,13.84Z"/>
            <g>
              <path class="cls-8" d="m142.37,185.59l-19.76,12.33c-.31.19-.71.09-.9-.23l-.04-.06c-.19-.32-.09-.74.22-.93l19.76-12.33c.31-.19.71-.09.9.23l.04.06c.19.32.09.74-.22.93Z"/>
              <path class="cls-10" d="m142.37,185.59s.19-.09.27-.42c.04-.16.01-.38-.14-.58-.13-.2-.42-.34-.71-.24-1.08.65-2.66,1.68-4.61,2.9-3.91,2.45-9.3,5.83-15.25,9.55-.16.1-.26.27-.26.46,0,.09.02.19.06.27.05.09.1.18.16.23.13.12.33.17.5.13.16-.04.35-.2.53-.3.73-.45,1.44-.9,2.14-1.34,1.41-.87,2.76-1.72,4.06-2.52,2.58-1.6,4.91-3.05,6.87-4.26,1.95-1.2,3.53-2.17,4.64-2.86.54-.33.97-.58,1.27-.77.14-.08.25-.14.33-.19.08-.04.12-.06.12-.06,0,0-.03.03-.11.08-.08.06-.19.13-.32.21-.3.19-.72.46-1.25.8-1.1.7-2.67,1.69-4.61,2.92-1.95,1.23-4.27,2.68-6.85,4.3-1.29.81-2.65,1.66-4.05,2.53-.7.44-1.42.89-2.14,1.34l-.27.17c-.08.05-.19.13-.32.16-.24.06-.51,0-.7-.18-.1-.09-.16-.19-.21-.3-.06-.12-.08-.25-.08-.38,0-.26.15-.51.37-.65,5.96-3.7,11.36-7.06,15.28-9.5,1.97-1.2,3.53-2.2,4.66-2.84.33-.11.66.07.79.29.15.21.17.46.12.63-.11.35-.33.41-.32.41Z"/>
            </g>
            <g>
              <path class="cls-8" d="m141.25,182.69l-20.6,12.85c-.31.19-.71.09-.9-.23l-.04-.06c-.19-.32-.09-.74.22-.93l20.6-12.85c.31-.19.71-.09.9.23l.04.06c.19.32.09.74-.22.93Z"/>
              <path class="cls-10" d="m141.25,182.69s.2-.09.28-.44c.04-.17,0-.39-.16-.6-.14-.2-.46-.32-.75-.18-1.14.72-2.77,1.75-4.79,3.02-4.07,2.55-9.66,6.05-15.84,9.92-.16.1-.27.29-.26.48,0,.1.02.19.07.27.06.1.1.17.18.23.15.12.35.15.52.08.16-.08.37-.23.55-.33.75-.47,1.5-.93,2.23-1.39,1.46-.91,2.87-1.79,4.21-2.62,2.69-1.66,5.1-3.16,7.14-4.43,2.03-1.25,3.67-2.26,4.82-2.97.56-.34,1-.61,1.32-.8.14-.08.26-.15.35-.2.08-.04.12-.07.12-.06,0,0-.04.03-.11.08-.09.06-.2.13-.33.22-.31.2-.74.48-1.3.83-1.14.72-2.78,1.76-4.79,3.03-2.03,1.27-4.44,2.79-7.12,4.47-1.34.84-2.75,1.72-4.21,2.63-.73.46-1.47.92-2.23,1.39-.2.12-.35.24-.59.35-.24.1-.53.05-.74-.11-.1-.08-.19-.2-.24-.3-.06-.12-.1-.25-.1-.39,0-.27.14-.54.37-.68,6.19-3.85,11.8-7.33,15.87-9.86,2.04-1.26,3.68-2.27,4.83-2.97.33-.15.69,0,.84.22.16.21.2.47.16.65-.1.37-.34.43-.32.43Z"/>
            </g>
            <g>
              <path class="cls-8" d="m139.98,179.89l-21.13,13.19c-.31.19-.71.09-.9-.23l-.04-.06c-.19-.32-.09-.74.22-.93l21.13-13.19c.31-.19.71-.09.9.23l.04.06c.19.32.09.74-.22.93Z"/>
              <path class="cls-10" d="m139.98,179.89s.2-.09.28-.45c.04-.18-.02-.4-.18-.6-.15-.2-.49-.31-.77-.14-1.17.74-2.84,1.8-4.9,3.1-4.16,2.61-9.89,6.19-16.22,10.16-.17.1-.27.3-.26.5,0,.1.03.19.08.28.06.11.11.17.19.23.16.11.37.13.54.05.18-.1.38-.24.57-.35.77-.48,1.53-.96,2.28-1.42,1.5-.93,2.94-1.83,4.31-2.68,2.75-1.7,5.23-3.24,7.31-4.53,2.08-1.28,3.76-2.31,4.94-3.04.58-.35,1.03-.62,1.35-.82.15-.09.26-.15.35-.21.08-.05.12-.07.12-.06,0,0-.04.03-.11.08-.09.06-.2.13-.34.23-.32.2-.76.49-1.33.85-1.17.74-2.84,1.8-4.9,3.1-2.08,1.3-4.55,2.85-7.29,4.57-1.37.86-2.81,1.76-4.31,2.7-.75.47-1.51.94-2.28,1.42-.2.12-.37.24-.59.37-.24.12-.54.09-.76-.07-.11-.07-.2-.2-.26-.3-.07-.12-.11-.25-.11-.39-.01-.28.14-.56.37-.7,6.34-3.94,12.08-7.51,16.25-10.1,2.08-1.28,3.76-2.31,4.94-3.04.33-.19.7-.05.87.17.17.21.22.47.18.66-.1.38-.34.44-.33.44Z"/>
            </g>
            <g>
              <path class="cls-8" d="m138.87,176.99l-21.99,13.72c-.31.19-.71.09-.9-.23l-.04-.06c-.19-.32-.09-.74.22-.93l21.99-13.72c.31-.19.71-.09.9.23l.04.06c.19.32.09.74-.22.93Z"/>
              <path class="cls-10" d="m138.87,176.99s.21-.1.28-.47c.03-.18-.04-.42-.22-.62-.17-.19-.53-.28-.81-.07-1.21.77-2.95,1.86-5.09,3.22-4.32,2.7-10.26,6.42-16.82,10.54-.17.11-.28.31-.26.52.01.2.15.41.31.51.17.1.39.1.56,0,.2-.13.4-.25.6-.38.8-.5,1.59-.99,2.37-1.47,1.55-.97,3.05-1.9,4.47-2.78,2.85-1.77,5.42-3.36,7.58-4.7,2.15-1.33,3.9-2.4,5.12-3.15.6-.36,1.07-.65,1.4-.85.15-.09.27-.16.37-.22.08-.05.13-.07.13-.07,0,0-.04.03-.12.09-.09.06-.21.14-.36.24-.33.21-.79.51-1.38.88-1.21.77-2.95,1.86-5.09,3.22-2.16,1.35-4.72,2.96-7.56,4.74-1.42.89-2.92,1.83-4.47,2.8-.78.48-1.56.98-2.36,1.48-.2.13-.4.25-.6.38-.23.15-.55.16-.79.01-.12-.07-.22-.18-.29-.3-.07-.11-.13-.25-.13-.4-.02-.29.13-.58.37-.73,6.58-4.09,12.53-7.79,16.86-10.48,2.15-1.33,3.9-2.4,5.12-3.15.31-.23.72-.12.9.09.19.22.26.48.21.67-.04.2-.14.32-.21.38-.07.06-.12.08-.12.08Z"/>
            </g>
            <path class="cls-8" d="m107.56,181.68c.13.22,3.58,5.05,5.36,7.52.65.91,1.67,1.46,2.77,1.5l1.61.05,21.98-13.61.7-1.47c.49-1.03.49-2.23,0-3.26l-3.98-8.34-28.43,17.6Z"/>
            <g class="cls-1">
              <path d="m123.31,197.41c2.41-.82,4.54-2.08,6.86-3.53,1.87-1.17,3.74-2.26,5.75-3.56,1.47-.96,2.8-1.88,4.25-2.87.73-.5,1.44-1.21,1.5-1.46l-18.37,11.42Z"/>
            </g>
            <g class="cls-1">
              <path d="m120.99,195.25c2.57-.92,4.87-2.29,7.37-3.85,2.02-1.26,4.03-2.44,6.2-3.84,1.59-1.03,3.03-2.02,4.59-3.08.79-.54,1.57-1.28,1.64-1.54l-19.8,12.31Z"/>
            </g>
            <g class="cls-1">
              <path d="m119.46,192.64c2.57-.92,4.87-2.29,7.37-3.85,2.02-1.26,4.03-2.43,6.2-3.84,1.59-1.03,3.03-2.02,4.59-3.08.79-.54,1.57-1.28,1.64-1.54l-19.8,12.31Z"/>
            </g>
            <g class="cls-1">
              <path d="m117.93,190.02c2.57-.92,4.87-2.29,7.37-3.85,2.02-1.26,4.03-2.43,6.2-3.84,1.59-1.03,3.03-2.02,4.59-3.08.79-.54,1.57-1.28,1.64-1.54l-19.8,12.31Z"/>
            </g>
            <path class="cls-10" d="m140.07,173.85c.03.05-5.82,3.74-13.07,8.23-7.25,4.49-13.16,8.08-13.19,8.03-.03-.05,5.82-3.74,13.07-8.23,7.25-4.49,13.16-8.08,13.19-8.03Z"/>
            <path class="cls-10" d="m135.74,164.03c.04.06-6.3,4.09-14.16,8.99-7.86,4.91-14.26,8.84-14.3,8.78s6.3-4.08,14.16-8.99c7.86-4.91,14.26-8.84,14.3-8.78Z"/>
          </g>
        </g>
        <g class="cls-2">
          <path class="cls-4" d="m86.43,126.9c-.79-1.26-.75-3.1-.17-4.91.82-2.59,2.68-4.67,5.03-5.92,6.91-3.68,12.73-4.4,20.48-1.87,2.63.86,6.43,3.07,7.81,5.68.69,1.31.92,2.86.45,4.27-1.2,3.68-5.74,4.04-9.14,3.02-3.17-.96-6.29-2.72-9.57-2.27-2.7.37-4.97,2.18-7.49,3.25-2.52,1.07-5.94,1.11-7.41-1.25Z"/>
        </g>
        <g class="cls-2">
          <path class="cls-4" d="m121.97,131.6c-.52-2.38,1.09-5.09,2.89-5.71,1.51-.47,3.23-.21,4.51.74,1.54,1.15,2.29,3.32,1.77,5.2-.53,1.88-2.33,3.31-4.23,3.3-1.9-.01-4.52-1.63-4.94-3.53Z"/>
        </g>
      </g>
    </g>
  </g>
</svg>