<?xml version="1.0" encoding="UTF-8"?>
<svg id="Layer_2" data-name="Layer 2" xmlns="http://www.w3.org/2000/svg" xmlns:xlink="http://www.w3.org/1999/xlink" viewBox="0 0 127 169.69">
  <defs>
    <style>
      .cls-1 {
        fill: url(#linear-gradient);
      }

      .cls-1, .cls-2, .cls-3, .cls-4 {
        stroke-width: 0px;
      }

      .cls-2 {
        fill: url(#linear-gradient-4);
      }

      .cls-3 {
        fill: url(#linear-gradient-2);
      }

      .cls-4 {
        fill: url(#linear-gradient-3);
      }
    </style>
    <linearGradient id="linear-gradient" x1="0" y1="84.85" x2="127" y2="84.85" gradientUnits="userSpaceOnUse">
      <stop offset="0" stop-color="#04bfff"/>
      <stop offset=".09" stop-color="#03b9f5"/>
      <stop offset=".24" stop-color="#02a8dc"/>
      <stop offset=".42" stop-color="#018eb3"/>
      <stop offset=".57" stop-color="#00778e"/>
      <stop offset=".87" stop-color="#1b8d9f"/>
    </linearGradient>
    <linearGradient id="linear-gradient-2" x1="23.13" y1="63.93" x2="103.75" y2="63.93" xlink:href="#linear-gradient"/>
    <linearGradient id="linear-gradient-3" x1="12.44" y1="133.13" x2="114.57" y2="133.13" xlink:href="#linear-gradient"/>
    <linearGradient id="linear-gradient-4" x1="21.92" y1="153.16" x2="104.86" y2="153.16" xlink:href="#linear-gradient"/>
  </defs>
  <g id="Layer_1-2" data-name="Layer 1">
    <g>
      <path class="cls-1" d="m.07,84.77c0-15.73,0-31.47,0-47.2,0-8.12.09-16.23-.06-24.35C-.11,7.27,4.13,1.7,10.14.31c1.06-.25,2.2-.25,3.3-.25C46.74.05,80.05.11,113.35,0c7.7-.03,13.67,6.39,13.65,13.67-.12,37.63-.06,75.26-.06,112.89,0,9.87.03,19.75,0,29.62-.02,5.86-2.8,10.07-8.11,12.43-1.65.73-3.63,1.02-5.45,1.03-13.86.08-27.72.05-41.57.05-19.37,0-38.74,0-58.11,0-5.7,0-9.85-2.55-12.46-7.6-.93-1.8-1.2-3.74-1.2-5.77.03-15.47.01-30.93.01-46.4,0-8.38,0-16.77,0-25.15h.03Zm4.21.01c0,8.61,0,17.23,0,25.84,0,15.24-.03,30.47.04,45.71,0,1.4.38,2.91.99,4.16,1.77,3.65,5.02,4.93,8.88,4.93,32.92.01,65.85,0,98.77,0,5.81,0,9.73-3.91,9.74-9.7,0-8.61,0-17.21,0-25.82,0-38.63,0-77.26,0-115.89,0-1.87-.34-3.66-1.3-5.28-1.46-2.46-3.57-4.15-6.45-4.41-2.43-.22-4.9-.05-7.35-.04-23.7.01-47.39.03-71.09.04-7.73,0-15.47-.03-23.2-.04-.65,0-1.32-.03-1.94.12-4.41,1.07-7.15,4.75-7.14,9.27.06,23.7.03,47.4.03,71.09Z"/>
      <path class="cls-3" d="m63.47,23.67c21.9-.37,40.31,18.04,40.27,40.18-.04,22.23-18.14,40.33-40.35,40.35-22.19.02-40.34-18.57-40.26-40.57.08-21.57,18.4-40.46,40.34-39.95Zm28.29,37.83c1.75,0,3.5-.08,5.24.03,1.34.08,1.72-.44,1.49-1.67-.3-1.62-.49-3.27-.88-4.88-1.04-4.28-2.94-8.17-5.5-11.75-.49-.69-.97-.72-1.66-.46-2.16.81-4.32,1.6-6.49,2.37-.75.27-1.14.6-.93,1.53,1,4.47,1.87,8.97,1.82,13.59,0,.88.39,1.26,1.27,1.25,1.88-.02,3.76,0,5.64,0Zm-47.84-15.86c-2.72-1.02-5.36-2.04-8.03-2.98-.26-.09-.84.19-1.01.47-1.27,2.08-2.57,4.14-3.68,6.3-1.76,3.42-2.39,7.18-3.03,10.92-.16.91.21,1.16,1.06,1.15,3.81-.02,7.62-.03,11.42,0,.94,0,1.2-.43,1.26-1.26.13-1.96.22-3.93.5-5.88.42-2.89.98-5.75,1.51-8.74Zm54.93,20.73c-4.72,0-8.96-.02-13.19.05-.27,0-.76.67-.77,1.04-.01,4.62-.85,9.12-1.85,13.6-.18.82.02,1.17.81,1.45,2.3.81,4.56,1.74,6.86,2.53.34.12,1.01-.14,1.25-.44,2.47-3.12,4.17-6.67,5.29-10.45.73-2.44,1.04-5,1.6-7.78Zm-70.64-.03c-.03.41-.09.59-.05.75.78,3.26,1.3,6.61,2.43,9.74.95,2.63,2.59,5.01,3.99,7.46.29.5.66,1.15,1.56.79,2.26-.9,4.54-1.77,6.85-2.55.87-.29.98-.67.84-1.52-.76-4.59-1.42-9.19-2.17-13.78-.05-.31-.57-.74-.91-.78-1.08-.12-2.18-.1-3.27-.1-3.05,0-6.1,0-9.25,0Zm25.75-4.84c1.88,0,3.76-.04,5.64.02,1.05.03,1.49-.28,1.48-1.4-.06-3.54-.05-7.08,0-10.62.01-.97-.33-1.23-1.28-1.31-2.87-.25-5.73-.56-8.57-.98-2.3-.34-2.41-.45-2.79,1.87-.6,3.69-1,7.42-1.48,11.13-.12.94.24,1.35,1.24,1.32,1.92-.06,3.85-.02,5.77-.02Zm24.15-14.5c-4.03.44-7.71.86-11.4,1.22-.75.07-.81.48-.81,1.05,0,3.72.02,7.43,0,11.15,0,.77.25,1.1,1.06,1.09,3.98-.02,7.96-.03,11.94,0,.85,0,1.21-.3,1.12-1.15-.16-1.65-.23-3.31-.47-4.95-.42-2.83-.95-5.65-1.43-8.42Zm-24.2,19.36c-1.83,0-3.67.06-5.5-.02-1.13-.05-1.63.27-1.46,1.46.57,4.01,1.1,8.02,1.67,12.02.11.8.65,1.01,1.44.91,3.2-.39,6.4-.78,9.6-1.07,1.08-.1,1.42-.52,1.41-1.55-.04-3.49-.04-6.99,0-10.48.01-.96-.28-1.32-1.26-1.29-1.96.06-3.93.02-5.9.02Zm26.24.08c-.74-.04-1.08-.08-1.43-.08-3.98,0-7.96.02-11.94,0-.97,0-.87.62-.87,1.24,0,3.54.04,7.08-.02,10.62-.02,1.09.36,1.38,1.42,1.46,3,.23,5.99.56,8.97.94,1.63.21,1.87.12,2.15-1.53.33-1.93.73-3.86.99-5.8.3-2.23.49-4.47.74-6.85Zm-29.76,19.25c.81,1.76,1.4,3.21,2.13,4.58,1.75,3.27,3.87,6.23,7.25,8.05.87.47,1.3.35,1.29-.73-.02-3.98-.03-7.97.01-11.95,0-.97-.39-1.24-1.26-1.14-1.95.22-3.91.41-5.86.65-1.07.13-2.12.32-3.57.55Zm10.67-56.49c-4.16.23-9.74,8.9-10.3,12.99,2.37.28,4.73.59,7.1.84,3.2.33,3.2.3,3.2-2.86,0-3.62,0-7.25,0-10.97Zm15.22,56.33c-3.1-.35-6.07-.68-9.04-1.04-1.02-.12-1.36.24-1.35,1.3.06,3.88.02,7.77.03,11.65,0,.37.08.73.12,1.1,4.07-.67,8.89-7.98,10.23-13.01Zm-.18-43.33c-.34-3.72-6.13-12.87-10.07-12.95v14.16c3.45-.41,6.77-.81,10.07-1.21Zm-37.26,47.02c3.58,3.36,7.19,5.81,11.53,7.42-1.73-3.37-3.36-6.52-5.02-9.74-2.06.73-4.14,1.47-6.51,2.32Zm37.73-58.16c1.44,2.98,2.88,5.99,4.38,8.98.14.29.73.61,1,.53,1.97-.59,3.92-1.28,6.1-2.02-3.56-3.42-7.32-5.9-11.47-7.49Zm-37.72,7.49c2.08.71,3.85,1.29,5.6,1.94.93.35,1.35,0,1.67-.86.39-1.06.82-2.12,1.35-3.12.99-1.85,2.06-3.66,3.17-5.62-4.38,1.85-8.28,4.13-11.79,7.66Zm37.63,58.14c4.32-1.63,8.02-4.12,11.57-7.47-2.38-.84-4.5-1.59-6.52-2.3-1.72,3.32-3.35,6.48-5.05,9.76Z"/>
      <path class="cls-4" d="m63.36,130.32c15.82,0,31.64,0,47.46.02.87,0,1.86.11,2.58.54,1.02.61,1.41,1.74,1.02,2.93-.41,1.25-1.31,2.05-2.68,2.1-1.41.05-2.83.03-4.25.03-30.38,0-60.76,0-91.13,0-.3,0-.61,0-.91,0-1.93-.07-3.01-1.09-3.02-2.84-.01-1.84.93-2.75,3-2.75,9.91-.02,19.81,0,29.72,0,6.07,0,12.13,0,18.2,0Z"/>
      <path class="cls-2" d="m63.37,155.96c-12.63,0-25.27,0-37.9.01-1.36,0-2.49-.29-3.19-1.57-.96-1.76.13-3.87,2.13-4.02.9-.07,1.82-.03,2.73-.03,24.66,0,49.33,0,73.99.01.84,0,1.95-.08,2.44.4.7.68,1.32,1.84,1.3,2.79-.02,1.25-1.03,2.15-2.38,2.36-.54.09-1.11.05-1.66.05-12.48,0-24.97,0-37.45,0Z"/>
    </g>
  </g>
</svg>