<?xml version="1.0" encoding="UTF-8"?>
<svg id="Layer_2" data-name="Layer 2" xmlns="http://www.w3.org/2000/svg" viewBox="0 0 292.12 109.86">
  <defs>
    <style>
      .cls-1 {
        fill: #3c4664;
      }

      .cls-2 {
        fill: none;
        stroke: #3c4664;
        stroke-dasharray: 0 3.75;
        stroke-miterlimit: 10;
        stroke-width: 3px;
      }
    </style>
  </defs>
  <g id="Layer_1-2" data-name="Layer 1">
    <g>
      <path class="cls-1" d="m292.02,40.71c-.03-.11-.08-.22-.13-.33-.05-.11-.1-.21-.16-.32,0,0,0,0,0-.01h0c-1.98-3.38-10.86-6.02-19.11-3.93-2.39.61-6.8,2.19-12.48,4.4l-4.1-3.52h0l-35.18-30.21c-.2-.17-.46-.24-.72-.19l-4.06.81h-.07c-.21.06-.39.17-.51.33-.02.02-.03.05-.05.08-.05.09-.09.18-.11.28-.01.06-.02.13-.01.2,0,.13.04.27.12.39l23.79,40.28c-9.16,3.79-19.02,7.93-28.21,11.78l-1.01-1h0l-12.05-11.99c-.07-.07-.17-.11-.28-.1l-.99.1h0l-1.01.1c-.06,0-.11.02-.15.05-.02.01-.02.03-.04.04-.06.06-.11.13-.12.22,0,.05,0,.11.02.16l6.51,16.23c-3.75,1.73-4.72,3.73-3.95,5.06h0c.13.24.31.44.54.62.01,0,.02.02.03.02.1.08.22.16.34.23.01,0,.02.01.03.02.13.08.28.15.43.21.01,0,.03,0,.04.02.13.05.28.1.42.15.04.01.07.02.11.03.33.09.69.16,1.08.19.05,0,.1,0,.15.01.16.01.32.02.49.02.05,0,.09,0,.13,0,.21,0,.42-.01.64-.03.05,0,.09,0,.14-.01.18-.02.37-.04.55-.07.06,0,.13-.02.19-.03.18-.03.37-.07.56-.11l3.7,16.94c.01.06.04.1.07.14.1.12.28.16.43.08l.47-.25.43-.23s0,0,0,0l.88-.48c.09-.05.15-.14.17-.24l3.23-16.69h0l.27-1.38c1.01-.22,2.08-.45,3.21-.69.36-.08.72-.15,1.08-.23.48-.1.97-.21,1.47-.31.32-.07.64-.14.97-.21,2.1-.45,4.32-.92,6.63-1.42,1.47-.31,2.98-.64,4.51-.96.8-.17,1.61-.34,2.42-.52.38-.08.76-.16,1.14-.24,2.79-.6,5.63-1.2,8.44-1.81l2.94,46.66c.02.26.14.47.32.61.23.18.55.25.85.12l3.88-1.64c.24-.1.42-.31.49-.56l12.14-44.75h0l1.4-5.18c2.71-.59,5.1-1.12,7.07-1.56.26-.06.52-.12.76-.17.43-.1.85-.19,1.23-.28.74-.17,1.38-.31,1.91-.44.53-.13.95-.23,1.26-.31,6.46-1.68,15.54-10.52,14.4-14.2Z"/>
      <path class="cls-2" d="m.05,80.06C50.93,81.85,83.32,3.9,43.12,1.54,4.83-.7,21.07,82.79,89.27,69.59c68.19-13.21,65.49,13.07,89.32-.58"/>
    </g>
  </g>
</svg>