<?xml version="1.0" encoding="UTF-8"?>
<svg id="Layer_2" data-name="Layer 2" xmlns="http://www.w3.org/2000/svg" xmlns:xlink="http://www.w3.org/1999/xlink" viewBox="0 0 172.22 172">
  <defs>
    <style>
      .cls-1 {
        fill: url(#linear-gradient);
      }

      .cls-2 {
        fill: url(#linear-gradient-2);
      }
    </style>
    <linearGradient id="linear-gradient" x1="28.19" y1="74.41" x2="149.07" y2="74.41" gradientUnits="userSpaceOnUse">
      <stop offset="0" stop-color="#04bfff"/>
      <stop offset=".09" stop-color="#03b9f5"/>
      <stop offset=".24" stop-color="#02a8dc"/>
      <stop offset=".42" stop-color="#018eb3"/>
      <stop offset=".57" stop-color="#00778e"/>
      <stop offset=".87" stop-color="#1b8d9f"/>
    </linearGradient>
    <linearGradient id="linear-gradient-2" x1="0" y1="167.42" x2="172.22" y2="167.42" xlink:href="#linear-gradient"/>
  </defs>
  <g id="Layer_1-2" data-name="Layer 1">
    <g>
      <path class="cls-1" d="m28.19,142.01c.16-1.88.34-3.76.48-5.64.1-1.37.16-2.75.23-4.12.42-7.52.85-15.04,1.27-22.56.25-4.5.51-9.01.71-13.51.06-1.33.41-2.47,1.23-3.52,7.86-10.14,15.71-20.28,23.55-30.43,6.84-8.86,13.67-17.74,20.5-26.61,4-5.2,7.97-10.43,11.99-15.62,2.73-3.53,5.46-7.05,8.27-10.5,3.76-4.64,8.57-7.61,14.44-8.87,8.33-1.78,15.65.36,22.22,5.57,2.44,1.93,5.01,3.71,7.38,5.73,4.17,3.54,6.86,8.08,8.02,13.38.53,2.44.68,4.97.54,7.56-.27,5.06-1.98,9.52-4.92,13.49-3.95,5.33-8.11,10.5-12.17,15.74-6.3,8.14-12.6,16.28-18.9,24.41-8.53,11-17.06,21.99-25.58,32.99-2.31,2.98-4.67,5.92-6.86,8.99-1.34,1.88-3.34,2.48-5.26,3.29-5.14,2.15-10.32,4.24-15.48,6.34-4.06,1.65-8.14,3.27-12.2,4.93-4.36,1.78-8.71,3.58-13.05,5.4-3.29,1.37-6.63-1.02-6.36-4.55.05-.61.06-1.23.09-1.85-.05,0-.09,0-.14,0Zm13.62-47.01c.82.62,1.54,1.17,2.26,1.71,10.15,7.6,20.31,15.2,30.43,22.83.7.53,1.02.51,1.54-.17,7.03-9.12,14.09-18.23,21.14-27.34,7.35-9.48,14.7-18.95,22.05-28.43,2.46-3.17,4.91-6.35,7.43-9.61-1.43-1.09-2.8-2.14-4.17-3.19-9.55-7.26-19.1-14.51-28.64-21.77-.53-.4-.86-.34-1.24.19-.76,1.06-1.57,2.08-2.37,3.11-7.28,9.4-14.56,18.78-21.83,28.19-6.71,8.68-13.41,17.39-20.11,26.08-2.12,2.75-4.25,5.5-6.49,8.4ZM116.51,9.19c-4.3-.06-8.09,1.19-11.05,4.08-2.34,2.28-4.24,5.03-6.33,7.57-.42.51-.04.74.34,1.03,4.1,3.11,8.18,6.23,12.28,9.34,6.52,4.95,13.05,9.88,19.54,14.87.8.61,1.22.45,1.74-.24,1.09-1.44,2.17-2.9,3.32-4.3,1.95-2.36,3.14-5.02,3.5-8.06.68-5.67-.86-10.62-5.15-14.44-2.7-2.4-5.7-4.45-8.59-6.63-2.87-2.16-6.11-3.27-9.6-3.22Zm-49.55,116.11c-9.22-6.92-18.24-13.68-27.42-20.56-.61,10.93-1.21,21.61-1.82,32.53,9.84-4.03,19.41-7.94,29.24-11.97Z"/>
      <path class="cls-2" d="m74.73,162.85c23.12,0,46.23,0,69.35,0,7.7,0,15.4,0,23.1,0,2.52,0,4.23,1.27,4.91,3.64.63,2.18-1.09,4.96-3.32,5.33-.71.12-1.45.17-2.17.17-8.05.01-16.09.02-24.14,0-2.75,0-5.51-.16-8.26-.15-9.32.03-18.63.15-27.95.15-33.71.02-67.42,0-101.13,0-1.33,0-2.6-.18-3.65-1.14-1.43-1.3-1.8-2.91-1.23-4.66.56-1.71,1.63-3.01,3.61-3.18.9-.08,1.81-.15,2.72-.15,22.72,0,45.43,0,68.15,0Z"/>
    </g>
  </g>
</svg>