<svg id="Group_386" data-name="Group 386" xmlns="http://www.w3.org/2000/svg" xmlns:xlink="http://www.w3.org/1999/xlink" width="129.626" height="130.021" viewBox="0 0 129.626 130.021">
  <defs>
    <clipPath id="clip-path">
      <path id="Path_1149" data-name="Path 1149" d="M34.206,111.462q-3.9,3.883-7.79,7.785c-2.193,2.2-4.4,4.386-6.566,6.6a2.223,2.223,0,0,0-.531,2.608,2.1,2.1,0,0,0,2.109,1.354l.113.208a11.033,11.033,0,0,0,1.8-1.072c.952-.833,1.809-1.776,2.706-2.674q5.808-5.816,11.613-11.636a2.325,2.325,0,0,0-1.458-4.085,2.866,2.866,0,0,0-2,.909M31.33,94.919q-5.553,5.551-11.1,11.1c-1.407,1.413-2.775,2.864-4.184,4.275-1.728,1.731-3.49,3.428-5.219,5.158-1.5,1.5-2.966,3.048-4.472,4.55-1.659,1.655-3.382,3.245-5,4.938-.6.632-1.463,1.22-1.339,2.346a5.078,5.078,0,0,0,.278.914c.827,1.6,2.595,1.783,3.98.4q8.351-8.342,16.687-16.7c2.565-2.573,5.1-5.18,7.664-7.751,2.056-2.059,4.15-4.08,6.214-6.131a2.33,2.33,0,0,0-1.468-4.059,2.935,2.935,0,0,0-2.037.955m35.618-16.2Q54.32,91.335,41.717,103.982a7.832,7.832,0,0,0-1.007,1.761,7.655,7.655,0,0,0,.663,1.515c.914,1.216,2.492,1.2,3.732-.037Q57.766,94.576,70.394,81.9a3.147,3.147,0,0,0,.771-1.551,2.2,2.2,0,0,0-1.216-2.278,2.714,2.714,0,0,0-1.142-.284,2.626,2.626,0,0,0-1.859.929M51.956,74.329Q45.413,80.8,38.94,87.342a2.251,2.251,0,0,0-.06,3.334,2.316,2.316,0,0,0,3.4-.088c.446-.43.871-.881,1.309-1.319q5.829-5.835,11.66-11.668a2.26,2.26,0,0,0,.6-2.592,2.591,2.591,0,0,0-2.265-1.574,6.8,6.8,0,0,0-1.633.9M34.484,18.764a2.4,2.4,0,0,0-2.309,2.521c-.017.866.037,1.735-.032,2.6a1.071,1.071,0,0,1-.549.71c-.555.266-1.2.354-1.744.632a8.819,8.819,0,0,0,3.106,16.809c.549.014,1.1.011,1.65.007.858-.006,1.717-.011,2.571.048a5.634,5.634,0,0,1,2.234.584,4.291,4.291,0,0,1,1.979,4.816A4.157,4.157,0,0,1,37.4,50.464c-1.326.022-2.652,0-3.978,0v.006c-1.435,0-2.869-.019-4.3.005a2.458,2.458,0,0,0-2.543,2.41,2.425,2.425,0,0,0,2.554,2.3c.386-.015.773-.01,1.16-.005s.8.01,1.194-.007c.538-.021.715.195.7.713-.027.81-.021,1.623,0,2.435a2.5,2.5,0,0,0,2.377,2.493,2.464,2.464,0,0,0,2.333-2.527c.014-.812.019-1.624,0-2.435-.01-.473.181-.6.654-.694a17.436,17.436,0,0,0,3.8-.984c5.078-2.309,6.463-9.463,2.737-13.634a9.158,9.158,0,0,0-7.266-3.117,36.513,36.513,0,0,1-3.888-.113,4.007,4.007,0,0,1-3.536-4.1,3.953,3.953,0,0,1,3.565-4.066c2.319-.139,4.649-.091,6.975-.13.22,0,.44,0,.659,0a13.522,13.522,0,0,0,1.77-.075,2.272,2.272,0,0,0-.377-4.525c-1.461-.012-2.923-.021-4.384.005-.532.009-.726-.188-.711-.708.023-.811.015-1.624,0-2.435a2.377,2.377,0,0,0-2.374-2.508h-.027M30.735,71.653c-1.678-.4-3.367-.768-5.017-1.266a28.286,28.286,0,0,1-7.733-3.8A30.522,30.522,0,0,1,4.851,38.657a29.953,29.953,0,0,1,5.865-15.542,30.533,30.533,0,0,1,24.7-12.5c9.557.235,17.531,3.809,23.71,11.218a31.051,31.051,0,0,1,6.133,12.353c.209.808.342,1.637.5,2.46a1.992,1.992,0,0,1-.625,1.946q-16.257,16.192-32.45,32.45a1.976,1.976,0,0,1-1.437.679,2.222,2.222,0,0,1-.505-.062M127.314,0a3.382,3.382,0,0,0-.418.029c-1.953.252-3.887.647-5.829.972-3.194.534-6.393,1.049-9.586,1.6-2.447.42-4.885.9-7.333,1.316C100.877,4.478,97.6,5,94.327,5.563c-3.325.573-6.643,1.19-9.968,1.761-3.3.566-6.6,1.1-9.9,1.65a4.429,4.429,0,0,0-3.707,3,4.435,4.435,0,0,0,1.208,4.887c2.1,2.07,4.161,4.171,6.261,6.238a10.318,10.318,0,0,0,1.219.913l-9.541,9.564A34.421,34.421,0,0,0,55.207,12,34.571,34.571,0,0,0,29.571,6.426,34.368,34.368,0,0,0,10.5,16.209,34.758,34.758,0,0,0,.289,37.041,33.94,33.94,0,0,0,3.1,55.712C8,66.386,16.334,72.986,27.738,75.868c-.2.243-.34.437-.505.6q-3,3-6.011,5.988c-1.751,1.753-3.528,3.483-5.222,5.289a2.237,2.237,0,0,0,.918,3.687,2.29,2.29,0,0,0,2.577-.681q4.726-4.742,9.469-9.467Q55.729,54.519,82.51,27.764a4.7,4.7,0,0,0,.064-6.889c-1.858-1.81-3.631-3.707-5.436-5.57-.5-.519-.988-1.052-1.644-1.754l48.837-8.4c-3.334,15.96-6.616,31.675-9.919,47.483-.277-.235-.491-.392-.676-.578-1.68-1.681-3.341-3.381-5.038-5.045a17.314,17.314,0,0,0-2.764-2.475c-1.976-1.235-4.051-.756-5.923,1.117q-8.7,8.709-17.41,17.411-4.779,4.783-9.543,9.584a2.3,2.3,0,0,0-.623,2.73c.643,1.525,2.74,1.813,4.117.426C85.378,66.912,94.26,58.078,103.1,49.207c.5-.5.746-.472,1.215.007,2.25,2.3,4.535,4.563,6.814,6.832a4.425,4.425,0,0,0,5.271,1.019,4.751,4.751,0,0,0,2.632-3.731c.657-3.553,1.485-7.074,2.224-10.613.562-2.694,1.083-5.4,1.648-8.09.726-3.458,1.484-6.909,2.216-10.366q1.276-6.046,2.53-12.1.957-4.594,1.9-9.191a3.462,3.462,0,0,0,.073-.685V2.276A2.159,2.159,0,0,0,127.346,0Z" transform="translate(0)" fill="none"/>
    </clipPath>
    <linearGradient id="linear-gradient" x1="0.004" y1="1" x2="0.009" y2="1" gradientUnits="objectBoundingBox">
      <stop offset="0" stop-color="#04bfff"/>
      <stop offset="0.088" stop-color="#03b9f5"/>
      <stop offset="0.235" stop-color="#02a8dc"/>
      <stop offset="0.422" stop-color="#018eb3"/>
      <stop offset="0.567" stop-color="#00778e"/>
      <stop offset="0.865" stop-color="#1b8d9f"/>
      <stop offset="1" stop-color="#1b8d9f"/>
    </linearGradient>
    <clipPath id="clip-path-2">
      <rect id="Rectangle_239" data-name="Rectangle 239" width="129.625" height="130.021" fill="none"/>
    </clipPath>
  </defs>
  <g id="Group_383" data-name="Group 383" transform="translate(0)">
    <g id="Group_382" data-name="Group 382" clip-path="url(#clip-path)">
      <rect id="Rectangle_238" data-name="Rectangle 238" width="130.15" height="130.021" transform="translate(-0.524)" fill="url(#linear-gradient)"/>
    </g>
  </g>
  <g id="Group_385" data-name="Group 385">
    <g id="Group_384" data-name="Group 384" clip-path="url(#clip-path-2)">
      <path id="Path_1150" data-name="Path 1150" d="M37.65,15.614c9.557.235,17.531,3.809,23.71,11.218a31.065,31.065,0,0,1,6.134,12.353c.209.808.342,1.637.494,2.46a1.989,1.989,0,0,1-.625,1.946Q51.107,59.784,34.914,76.04a1.91,1.91,0,0,1-1.942.616c-1.678-.4-3.367-.768-5.017-1.265a28.3,28.3,0,0,1-7.733-3.8A30.521,30.521,0,0,1,7.088,43.66a29.947,29.947,0,0,1,5.865-15.541,30.533,30.533,0,0,1,24.7-12.5m-2,39.858v.006c-1.434,0-2.869-.019-4.3.005a2.458,2.458,0,0,0-2.543,2.41,2.425,2.425,0,0,0,2.554,2.3c.784-.03,1.571.02,2.355-.012.537-.022.715.195.7.713-.027.811-.021,1.624,0,2.435a2.5,2.5,0,0,0,2.377,2.493,2.464,2.464,0,0,0,2.333-2.527c.014-.812.018-1.624,0-2.436-.01-.473.182-.6.654-.693a17.428,17.428,0,0,0,3.8-.984c5.078-2.309,6.464-9.463,2.737-13.634a9.158,9.158,0,0,0-7.266-3.117,36.685,36.685,0,0,1-3.888-.112,4.007,4.007,0,0,1-3.535-4.1,3.953,3.953,0,0,1,3.565-4.067c2.319-.139,4.649-.092,6.974-.13a21.239,21.239,0,0,0,2.429-.078,2.271,2.271,0,0,0-.377-4.524c-1.461-.012-2.923-.021-4.384.005-.532.009-.726-.188-.711-.708.023-.811.015-1.624,0-2.435a2.361,2.361,0,1,0-4.711.013c-.017.866.037,1.736-.032,2.6a1.067,1.067,0,0,1-.549.709c-.555.267-1.2.354-1.744.632a8.819,8.819,0,0,0,3.107,16.808c1.406.035,2.818-.042,4.22.055a5.644,5.644,0,0,1,2.234.584,4.291,4.291,0,0,1,1.979,4.816,4.157,4.157,0,0,1-3.993,2.977c-1.326.022-2.652,0-3.978,0" transform="translate(-2.492 -5.588)" fill="#3c4664"/>
    </g>
  </g>
</svg>
