<svg id="Group_400" data-name="Group 400" xmlns="http://www.w3.org/2000/svg" xmlns:xlink="http://www.w3.org/1999/xlink" width="292.116" height="109.859" viewBox="0 0 292.116 109.859">
  <defs>
    <clipPath id="clip-path">
      <rect id="Rectangle_245" data-name="Rectangle 245" width="292.116" height="109.859" transform="translate(0 0)" fill="none"/>
    </clipPath>
  </defs>
  <g id="Group_399" data-name="Group 399" clip-path="url(#clip-path)">
    <path id="Path_1157" data-name="Path 1157" d="M292.019,40.712a2.74,2.74,0,0,0-.126-.331,3.147,3.147,0,0,0-.163-.315l-.006-.012c-1.979-3.384-10.86-6.024-19.108-3.925-2.389.608-6.8,2.195-12.476,4.4L256.039,37,220.859,6.8a.849.849,0,0,0-.716-.188l-4.063.807-.065.013a.843.843,0,0,0-.508.316.736.736,0,0,0-.045.077.844.844,0,0,0-.113.278.8.8,0,0,0-.015.2.836.836,0,0,0,.118.393l23.793,40.277c-9.156,3.786-19.023,7.933-28.21,11.777l-1.009-1L197.981,47.752a.338.338,0,0,0-.276-.1l-.994.1-1.011.1a.326.326,0,0,0-.152.053c-.015.01-.024.027-.038.039a.338.338,0,0,0-.117.217.344.344,0,0,0,.024.159l6.509,16.231c-3.747,1.735-4.723,3.728-3.948,5.065l.007.012a2.26,2.26,0,0,0,.537.611l.032.025a3.085,3.085,0,0,0,.341.232l.032.02a3.872,3.872,0,0,0,.428.21c.013.006.027.01.04.015.135.055.277.1.425.148.035.01.07.021.106.03a6.142,6.142,0,0,0,1.082.191c.049.005.1.008.149.011.16.012.323.018.491.019l.135,0q.312,0,.64-.028l.141-.014q.271-.026.554-.068c.063-.009.126-.018.19-.029q.274-.045.556-.107l3.7,16.935a.326.326,0,0,0,.069.145.343.343,0,0,0,.428.083l.468-.253.426-.23h0l.879-.475a.344.344,0,0,0,.174-.236l3.229-16.686L213.5,68.8l3.206-.688,1.082-.232,1.468-.314.972-.208,6.626-1.417,4.51-.964,2.419-.517,1.139-.243,8.444-1.807,2.942,46.656a.854.854,0,0,0,1.174.726l3.875-1.641a.842.842,0,0,0,.487-.557l12.135-44.752,1.4-5.177c2.71-.591,5.1-1.118,7.071-1.557l.763-.171,1.23-.278c.737-.167,1.376-.314,1.907-.44s.954-.228,1.257-.307c6.465-1.677,15.537-10.516,14.4-14.2" fill="#fff"/>
    <path id="Path_1158" data-name="Path 1158" d="M.053,80.063C50.929,81.853,83.317,3.9,43.116,1.544,4.835-.7,21.074,82.793,89.268,69.585s65.492,13.068,89.321-.579" fill="none" stroke="#fff" stroke-width="3" stroke-dasharray="3.748 3.748"/>
  </g>
</svg>
