<svg id="Group_381" data-name="Group 381" xmlns="http://www.w3.org/2000/svg" xmlns:xlink="http://www.w3.org/1999/xlink" width="162.618" height="93.478" viewBox="0 0 162.618 93.478">
  <defs>
    <clipPath id="clip-path">
      <rect id="Rectangle_236" data-name="Rectangle 236" width="162.618" height="93.478" fill="none"/>
    </clipPath>
    <clipPath id="clip-path-2">
      <path id="Path_1148" data-name="Path 1148" d="M20.381,71.011c-.049,2.678-.053,5.359.009,8.038a2.243,2.243,0,1,0,4.481-.136c.021-1.271,0-2.543,0-3.814V71.286c0-.068,0-.137,0-.206a2.307,2.307,0,0,0-2.194-2.393h-.026a2.347,2.347,0,0,0-2.272,2.325m122.13,0c-.049,2.678-.053,5.359.008,8.038a2.244,2.244,0,0,0,2.324,2.263,2.221,2.221,0,0,0,2.157-2.4c.021-1.271,0-2.543,0-3.814V71.286c0-.068,0-.137,0-.206a2.308,2.308,0,0,0-2.194-2.393h-.026a2.348,2.348,0,0,0-2.273,2.325m-78.3-21.781a31.123,31.123,0,0,0-9.114,5.923c-3.951,3.7-6.763,8.094-7.354,13.562a78.231,78.231,0,0,0-.051,8.333h-.181c0,1-.031,1.994.006,2.989a34.8,34.8,0,0,0,.325,5.84,9.957,9.957,0,0,0,19.569-1.238,85.306,85.306,0,0,0,.151-8.546,77.7,77.7,0,0,0-.471-8.827,17.728,17.728,0,0,0-3.415-7.87,2.233,2.233,0,1,0-3.741,2.435c.154.267.337.518.5.78a14.112,14.112,0,0,1,2.5,7.011c.153,4.806.141,9.62.034,14.427-.068,3.046-3.363,5.45-6.335,4.845A5.573,5.573,0,0,1,51.959,83.2c-.018-3.951-.036-7.9.019-11.854a15.756,15.756,0,0,1,1.39-6.3A22.407,22.407,0,0,1,62.8,54.993c1.206-.719,2.5-1.292,3.754-1.927a2.271,2.271,0,0,0,1.4-2.112,1.86,1.86,0,0,0-1.3-1.92,3.917,3.917,0,0,0-.9-.1,4.043,4.043,0,0,0-1.552.3M16.93,49.22a57.7,57.7,0,0,0-7.152,4.246C4,57.818.365,63.478,0,70.916c0,.038,0,.076,0,.113V71.1a2.376,2.376,0,0,0,1.584,2.427A2.073,2.073,0,0,0,4.029,72.7,3.6,3.6,0,0,0,4.5,71.057,17.038,17.038,0,0,1,8.361,61.043a27.369,27.369,0,0,1,10.381-7.754c1.507-.7,2.054-1.862,1.505-3.127A2.1,2.1,0,0,0,18.28,48.85a2.823,2.823,0,0,0-1.35.37m95.139-.162a31.382,31.382,0,0,0-11.55,8.275,20.34,20.34,0,0,0-5.4,12.86c-.126,4.533-.086,9.071-.084,13.607a8.693,8.693,0,0,0,.308,2.136,10.006,10.006,0,0,0,19.7-2.389c.023-2.165,0-4.331,0-6.5h.008c0-1.89-.026-3.78.006-5.67a17.747,17.747,0,0,0-1.506-7.625A31,31,0,0,0,111,59.191a2.06,2.06,0,0,0-2.939-.472,2.222,2.222,0,0,0-.664,3.007c.129.242.285.47.435.7a13.456,13.456,0,0,1,2.539,6.675c.2,4.939.3,9.892.153,14.83A5.434,5.434,0,0,1,104.791,89a5.557,5.557,0,0,1-5.245-5.692c-.017-4.124-.071-8.251.048-12.372a16.061,16.061,0,0,1,.849-4.63c1.709-5.028,5.292-8.511,9.719-11.206,1.259-.766,2.656-1.307,3.894-2.1a3.048,3.048,0,0,0,1.329-1.673,2.049,2.049,0,0,0-2.118-2.527,3.018,3.018,0,0,0-1.2.26M46.926,51.131c.384.558.652,1.289,1.177,1.635a14.44,14.44,0,0,0,3.037,1.458,2.2,2.2,0,0,0,1.791-3.963A14.506,14.506,0,0,0,50.067,48.9a2.423,2.423,0,0,0-.764-.127,2.512,2.512,0,0,0-2.377,2.356m47.847-.84A2.187,2.187,0,0,0,95.8,52.93,20.922,20.922,0,0,0,98.5,54.183a2.356,2.356,0,0,0,3.1-2.221c-.27-.492-.419-1.189-.835-1.438a16.225,16.225,0,0,0-3.584-1.675,1.75,1.75,0,0,0-.505-.076,2.112,2.112,0,0,0-1.9,1.519m47.462.111a2.342,2.342,0,0,0,1.461,2.742,51.01,51.01,0,0,1,5.542,3.143c5.16,3.67,8.631,8.4,8.864,15.024a2.256,2.256,0,0,0,2.343,2.248,2.478,2.478,0,0,0,2.17-2.83c-.078-.789-.122-1.65-.26-2.5a16.989,16.989,0,0,0-.555-2.405c-2.677-8.447-8.832-13.5-16.627-16.905a2.105,2.105,0,0,0-.844-.179,2.2,2.2,0,0,0-2.1,1.658m.661-23.948a14.093,14.093,0,1,1-13.973-12.918A13.907,13.907,0,0,1,142.9,26.455m-32.644,1.017A18.582,18.582,0,1,0,128.884,8.995h-.123a18.565,18.565,0,0,0-18.509,18.479M33.868,41.75c-8.319-.2-14.359-6.438-14.157-14.629A14.12,14.12,0,1,1,34.17,41.753c-.1,0-.2,0-.3,0M33.821,8.988C23.25,9,14.987,17.608,15.094,27.335c.133,12.21,9.692,19,18.681,18.923a18.635,18.635,0,1,0,.061-37.27h-.015M80.341,41.636A18.556,18.556,0,0,1,81.952,4.559c10.01.316,18.218,8.882,17.9,18.686-.339,10.6-8.28,18.406-18.686,18.408-.275,0-.551-.006-.829-.017M81.212,0a23.084,23.084,0,1,0,.166,0Z" fill="none"/>
    </clipPath>
    <linearGradient id="linear-gradient" y1="0.995" x2="0.004" y2="0.995" gradientUnits="objectBoundingBox">
      <stop offset="0" stop-color="#04bfff"/>
      <stop offset="0.088" stop-color="#03b9f5"/>
      <stop offset="0.235" stop-color="#02a8dc"/>
      <stop offset="0.422" stop-color="#018eb3"/>
      <stop offset="0.567" stop-color="#00778e"/>
      <stop offset="0.865" stop-color="#1b8d9f"/>
      <stop offset="1" stop-color="#1b8d9f"/>
    </linearGradient>
  </defs>
  <g id="Group_378" data-name="Group 378">
    <g id="Group_377" data-name="Group 377" clip-path="url(#clip-path)">
      <path id="Path_1145" data-name="Path 1145" d="M127.965,26.112A19.881,19.881,0,1,1,108.084,6.231a19.882,19.882,0,0,1,19.881,19.881" transform="translate(-26.798 -1.893)" fill="#3c4664"/>
      <path id="Path_1146" data-name="Path 1146" d="M194.761,33.289a17.712,17.712,0,1,1-17.712-17.712,17.712,17.712,0,0,1,17.712,17.712" transform="translate(-48.41 -4.733)" fill="#3c4664"/>
      <path id="Path_1147" data-name="Path 1147" d="M57.458,33.289A17.712,17.712,0,1,1,39.746,15.577,17.712,17.712,0,0,1,57.458,33.289" transform="translate(-6.694 -4.733)" fill="#3c4664"/>
    </g>
  </g>
  <g id="Group_380" data-name="Group 380">
    <g id="Group_379" data-name="Group 379" clip-path="url(#clip-path-2)">
      <rect id="Rectangle_237" data-name="Rectangle 237" width="162.662" height="93.975" transform="translate(0 0)" fill="url(#linear-gradient)"/>
    </g>
  </g>
</svg>
