<svg id="Group_393" data-name="Group 393" xmlns="http://www.w3.org/2000/svg" xmlns:xlink="http://www.w3.org/1999/xlink" width="154.335" height="106.609" viewBox="0 0 154.335 106.609">
  <defs>
    <clipPath id="clip-path">
      <path id="Path_1151" data-name="Path 1151" d="M6.2,94.595c-.27-2.108-.365-4.222.989-6.128.8-1.133,1.421-2.4,2.228-3.787,1.908,3.007,3.827,5.75,3.291,9.43-.27,1.86-1.252,3.1-3.053,3.275-.108.01-.217.015-.323.015A3.111,3.111,0,0,1,6.2,94.595M65.672,106.6a86.235,86.235,0,0,1-18.039-2.981,40.157,40.157,0,0,1-11.9-5.07A4.956,4.956,0,0,1,33.405,94.3q.076-14.542.19-29.083c0-.2.043-.39.094-.824,1.244.366,2.355.67,3.453,1.019q9.171,2.915,18.335,5.851c4.924,1.58,9.853,3.147,14.76,4.778a21.2,21.2,0,0,0,13.944-.066c3.374-1.151,6.828-2.065,10.242-3.1,3.531-1.072,7.053-2.171,10.584-3.244Q111.336,67.7,117.67,65.8c.872-.263,1.742-.53,2.851-.869,0,.685-.007,1.149-.01,1.614-.063,9.091-.222,18.183-.141,27.273.033,3.678-2.092,5.367-4.963,6.752a63.159,63.159,0,0,1-18.447,5.211A126.681,126.681,0,0,1,78.4,107.056c-4.241,0-8.484-.171-12.725-.454m.151-38.569c-4.453-1.472-8.961-2.78-13.441-4.169-4.173-1.294-8.34-2.607-12.513-3.9-4.556-1.416-9.117-2.818-13.672-4.238q-6.43-2.006-12.85-4.04c-1.834-.581-3.663-1.174-5.481-1.8a4.454,4.454,0,0,1-1.242-.713c-.9-.7-.991-1.754,0-2.263a31.917,31.917,0,0,1,5.105-2.025c4.6-1.421,9.224-2.744,13.84-4.1,3.5-1.028,7-2.041,10.5-3.073,4.382-1.294,8.758-2.6,13.14-3.9q6.629-1.96,13.263-3.9a76.776,76.776,0,0,1,8.455-2.337,52.6,52.6,0,0,1,8.506-.5c4.126-.022,7.916,1.56,11.781,2.754,5.247,1.622,10.5,3.215,15.749,4.846,3.522,1.095,7.024,2.251,10.544,3.349,4.325,1.349,8.662,2.662,12.991,4q5.227,1.616,10.444,3.257,2.808.887,5.593,1.85a4.092,4.092,0,0,1,1.227.737c.869.724.906,1.764-.1,2.265a35.021,35.021,0,0,1-5.119,2.01c-3.635,1.133-7.307,2.148-10.962,3.219q-6.809,1.995-13.614,4c-3.5,1.035-6.992,2.1-10.491,3.13q-6.688,1.979-13.382,3.935c-3.27.959-6.5,2.092-9.821,2.822a73.233,73.233,0,0,1-7.861.9,37.941,37.941,0,0,1-10.589-2.107m5.14-46.519a86.04,86.04,0,0,0-9.751,2.6c-4.473,1.276-8.933,2.6-13.394,3.914q-6.576,1.937-13.145,3.9-5.423,1.6-10.849,3.2c-4.382,1.3-8.77,2.572-13.143,3.9-2.525.768-5.121,1.347-7.357,2.895A7.165,7.165,0,0,0,.98,51.551a9.5,9.5,0,0,0,4.887,3.916A1.293,1.293,0,0,1,6.794,56.9c-.07,6.671-.1,13.343-.169,20.014a3.153,3.153,0,0,1-.4,1.46c-1.443,2.547-2.981,5.04-4.384,7.609A12.355,12.355,0,0,0,.218,89.925a36.864,36.864,0,0,0-.1,6.024,6.962,6.962,0,0,0,4.955,6.815,21.23,21.23,0,0,0,6.42.569,7.349,7.349,0,0,0,7.143-7.591c.024-1.81.106-3.625.007-5.429a6.727,6.727,0,0,0-.711-2.741c-1.629-3.035-3.384-6-5.074-9.007a2.164,2.164,0,0,1-.324-1c.017-6.148.03-12.3.114-18.445.022-1.671.195-1.7,1.625-.976a6.284,6.284,0,0,0,1.013.384c3.714,1.152,7.42,2.336,11.155,3.418,1.062.308,1.323.833,1.312,1.879-.111,10.82-.138,21.642-.274,32.463a5.849,5.849,0,0,0,2.354,5.135,57.253,57.253,0,0,0,6.237,4.029,49.423,49.423,0,0,0,13.954,4.792,89.416,89.416,0,0,0,10.333,1.64c6.082.519,12.187.994,18.284,1.028h.666c5.192-.008,10.4-.438,15.572-.938a72.31,72.31,0,0,0,7.456-1.183l-.168.076.685-.178q1.348-.279,2.688-.579a19.3,19.3,0,0,0,2.436-.747l3.8-.982c7.134-1.376,10.852-4.208,12.747-7.143.519-.386.714-.686.6-1.022.113-.223.215-.446.309-.668l.327.1c.085-.666.208-1.338.3-2.013a12.566,12.566,0,0,0,.134-4.926q.126-14.163.206-28.327c0-.691-.058-1.315.864-1.582,5.352-1.556,10.707-3.1,16.023-4.776a42.577,42.577,0,0,0,7.482-2.88,6.837,6.837,0,0,0,3.33-7.923c-.786-3.051-3-4.764-5.714-5.73-4.6-1.641-9.3-3.023-13.972-4.474-5.131-1.593-10.281-3.12-15.413-4.713-4.362-1.356-8.7-2.786-13.064-4.143-5.9-1.833-11.828-3.55-17.7-5.461a34.937,34.937,0,0,0-10.878-1.7,40.226,40.226,0,0,0-6.388.524" transform="translate(0 -20.989)" fill="none"/>
    </clipPath>
    <linearGradient id="linear-gradient" x1="-0.328" y1="0.794" x2="-0.32" y2="0.794" gradientUnits="objectBoundingBox">
      <stop offset="0" stop-color="#04bfff"/>
      <stop offset="0.088" stop-color="#03b9f5"/>
      <stop offset="0.235" stop-color="#02a8dc"/>
      <stop offset="0.422" stop-color="#018eb3"/>
      <stop offset="0.567" stop-color="#00778e"/>
      <stop offset="0.865" stop-color="#1b8d9f"/>
      <stop offset="1" stop-color="#1b8d9f"/>
    </linearGradient>
    <clipPath id="clip-path-2">
      <rect id="Rectangle_241" data-name="Rectangle 241" width="154.335" height="106.609" fill="none"/>
    </clipPath>
    <clipPath id="clip-path-3">
      <path id="Path_1153" data-name="Path 1153" d="M73.413,9.494V20.66H62.951v6.532H73.413V38.357h6.694V27.192H90.568V20.66H80.107V9.494Z" transform="translate(-62.951 -9.494)" fill="none"/>
    </clipPath>
    <linearGradient id="linear-gradient-2" x1="-1.595" y1="3.463" x2="-1.57" y2="3.463" xlink:href="#linear-gradient"/>
  </defs>
  <g id="Group_388" data-name="Group 388" transform="translate(0 14.689)">
    <g id="Group_387" data-name="Group 387" clip-path="url(#clip-path)">
      <rect id="Rectangle_240" data-name="Rectangle 240" width="92.99" height="156.46" transform="translate(-1.584 91.916) rotate(-89.606)" fill="url(#linear-gradient)"/>
    </g>
  </g>
  <g id="Group_390" data-name="Group 390">
    <g id="Group_389" data-name="Group 389" clip-path="url(#clip-path-2)">
      <path id="Path_1152" data-name="Path 1152" d="M94.718,21.077A21.076,21.076,0,1,1,73.643,0,21.076,21.076,0,0,1,94.718,21.077" transform="translate(-15.778 0)" fill="#3c4664"/>
    </g>
  </g>
  <g id="Group_392" data-name="Group 392" transform="translate(44.056 6.644)">
    <g id="Group_391" data-name="Group 391" clip-path="url(#clip-path-3)">
      <rect id="Rectangle_242" data-name="Rectangle 242" width="27.617" height="28.863" transform="translate(0 0)" fill="url(#linear-gradient-2)"/>
    </g>
  </g>
</svg>
