<svg id="Group_407" data-name="Group 407" xmlns="http://www.w3.org/2000/svg" xmlns:xlink="http://www.w3.org/1999/xlink" width="269.238" height="591.114" viewBox="0 0 269.238 591.114">
  <defs>
    <clipPath id="clip-path">
      <rect id="Rectangle_248" data-name="Rectangle 248" width="269.238" height="591.114" fill="none"/>
    </clipPath>
  </defs>
  <g id="Group_406" data-name="Group 406" clip-path="url(#clip-path)">
    <g id="Group_405" data-name="Group 405">
      <g id="Group_404" data-name="Group 404" clip-path="url(#clip-path)">
        <g id="Group_403" data-name="Group 403" opacity="0.35">
          <g id="Group_402" data-name="Group 402">
            <g id="Group_401" data-name="Group 401" clip-path="url(#clip-path)">
              <path id="Path_1159" data-name="Path 1159" d="M161.888,251.5c0,22.293.092,44.587-.083,66.879-.032,4.115,1.061,5.678,5.344,6.737A129.725,129.725,0,0,1,202.9,339.747a134.454,134.454,0,0,1,61.395,80.4c5.643,19.662,6.221,39.544,2.909,59.388a128.366,128.366,0,0,1-26.863,59.874c-14.008,17.459-31,31.291-51.658,40.02-8.715,3.683-18.062,6-27.275,8.327a123.551,123.551,0,0,1-18.575,2.864c-19,1.812-37.5-1.419-55.157-7.983-30.271-11.251-53.744-31.117-70.108-59.068A128.267,128.267,0,0,1,4.8,493.485C1.9,483.235-.132,472.943.007,462.372c.142-10.764.012-21.718,1.932-32.236,4.444-24.349,15.461-45.768,31.986-64.289,11.266-12.627,24.386-23.015,39.609-30.226,9.675-4.583,20.128-7.572,30.349-10.921,2.9-.95,3.252-2.531,3.249-5q-.057-38.163-.028-76.326,0-111.466-.077-222.933c-.016-8.45,3.081-14.591,10.359-18.609A11.935,11.935,0,0,1,122.75.259c8.147-.1,16.4-.7,24.42.353,8.439,1.1,14.144,8.8,14.65,17.36.215,3.637.637,7.278.574,10.911-.055,3.171,1.221,4.167,4.258,4.149,14.988-.089,29.976-.047,44.964-.034,12.18.01,20.442,8.133,20.523,20.195.036,5.416.071,10.833-.02,16.247A18.918,18.918,0,0,1,213.3,88.1c-14.61.093-29.221.014-43.831.042-8.791.017-7.505-.714-7.568,7.755-.058,7.935.082,15.872-.064,23.8-.053,2.944.969,4.041,3.926,3.973,6.294-.144,12.594-.049,18.892-.034,9.42.023,16.936,5.443,18.232,14.7a88.688,88.688,0,0,1,.4,23.288c-1.5,11.7-9.252,16.329-20.137,17.064a167.408,167.408,0,0,1-17,.016c-3.323-.115-4.335,1.117-4.319,4.394.113,22.8.06,45.594.06,68.391m52,204.792c.83-44.343-35.968-80.029-79.352-80.164-43.864-.136-78.451,36.182-79.773,76.74-1.516,46.516,35.654,84.683,83.286,83.017,38.445-1.345,75.935-33.067,75.839-79.592" transform="translate(0 0)" fill="#dfe0d8"/>
            </g>
          </g>
        </g>
        <path id="Path_1160" data-name="Path 1160" d="M222.025,667.854a31.539,31.539,0,0,0-1.525-6.081,27.855,27.855,0,0,0-2.773-5.625,29.656,29.656,0,0,0-9.721-9.553,25.348,25.348,0,0,0-7.274-3.145,47.887,47.887,0,0,0-5.365-1.043,21.246,21.246,0,0,0-6.337.13,36.347,36.347,0,0,0-4.178.792,44.961,44.961,0,0,0-5.246,1.989,25.679,25.679,0,0,0-6.6,4.391,30.953,30.953,0,0,0-4.347,4.75,29.413,29.413,0,0,0-4.408,8.687,27.225,27.225,0,0,0-1.206,6.156,31.843,31.843,0,0,0,.278,8.315,61.663,61.663,0,0,0,1.605,6.685,66.612,66.612,0,0,0,2.462,6.542,90.328,90.328,0,0,0,5.487,10.56c2.731,4.6,5.725,9.025,8.859,13.356,2.9,4.015,5.849,8,8.774,12a2.6,2.6,0,0,0,4.22,0c2.691-3.689,5.4-7.363,8.075-11.062,1.918-2.651,3.826-5.308,5.636-8.031.037-.044.074-.086.11-.131a49.97,49.97,0,0,0,4.7-7.658l.07.042c0-.069.006-.132.009-.191q.148-.285.29-.56a.253.253,0,0,0,.061-.062c.153-.229.26-.488.39-.733.736-1.386,1.544-2.739,2.194-4.163,1.144-2.5,2.257-5.024,3.257-7.587a41.651,41.651,0,0,0,1.557-5.083,39.482,39.482,0,0,0,1.045-5.363,33.755,33.755,0,0,0-.1-8.321m-3.409,6.774a39.4,39.4,0,0,1-2.319,10.353,78.438,78.438,0,0,1-6.258,13.228l-7.569,11.758c-.07.1-.138.2-.209.3q-4.664,6.422-9.351,12.829c-.209.287-.348.307-.565.01-2.508-3.422-5.073-6.8-7.523-10.269-2.353-3.327-4.623-6.715-6.868-10.117a94.464,94.464,0,0,1-6.038-10.666,55.856,55.856,0,0,1-3.529-8.785c-.515-1.765-1.025-3.541-1.364-5.344A31.657,31.657,0,0,1,167,667.049a26.1,26.1,0,0,1,8.634-14.837A25.57,25.57,0,0,1,183.1,647.7a21.447,21.447,0,0,1,6.426-1.57,35.526,35.526,0,0,1,5.478-.123A25.691,25.691,0,0,1,208.1,651a26.23,26.23,0,0,1,7.046,7.829,25.457,25.457,0,0,1,2.526,5.84,28.168,28.168,0,0,1,.946,9.961" transform="translate(-57.078 -225.021)" fill="#dfe0d8"/>
        <path id="Path_1161" data-name="Path 1161" d="M199.087,659.713a17.737,17.737,0,1,0,17.73,16.97,17.747,17.747,0,0,0-17.73-16.97m-.283,31.848a14.11,14.11,0,1,1,1.728-28.14,13.312,13.312,0,0,1,8.8,4.341,13.66,13.66,0,0,1,3.862,9.752A14.053,14.053,0,0,1,198.8,691.561" transform="translate(-63.534 -231.147)" fill="#dfe0d8"/>
      </g>
    </g>
  </g>
</svg>
