<svg id="Group_13" data-name="Group 13" xmlns="http://www.w3.org/2000/svg" xmlns:xlink="http://www.w3.org/1999/xlink" width="302.636" height="53.88" viewBox="0 0 302.636 53.88">
  <defs>
    <clipPath id="clip-path">
      <path id="Path_1" data-name="Path 1" d="M250.18,52.663l10.162.012-4.771-9.57-10.76-.012ZM116.9,43.08l5.38,9.564h10.163l-4.783-9.564Zm90.833,10.132,10.163.012,15.88-33.756,8.351,16.149,10.162.012-17.3-33.5Zm-127.895.031H90l15.841-33.775,8.369,16.14h10.163L107.04,2.132ZM283.73,1.873a24.961,24.961,0,0,0-9.519,4.1,27.078,27.078,0,0,0-7.019,7.051A25.323,25.323,0,0,0,263.454,22a25.586,25.586,0,0,0,.061,10.45,24.988,24.988,0,0,0,4.257,9.944,26.378,26.378,0,0,0,7.33,6.886,25.759,25.759,0,0,0,9.2,3.54,26.227,26.227,0,0,0,9.946-.111,25.319,25.319,0,0,0,8.31-3.305l-7.295-6.526a20.244,20.244,0,0,1-2.982.869,17.049,17.049,0,0,1-12.277-2.194,16.642,16.642,0,0,1-4.742-4.443,16.163,16.163,0,0,1-2.743-6.407,16.377,16.377,0,0,1,.02-7.043,16.639,16.639,0,0,1,2.641-5.937,17.367,17.367,0,0,1,4.582-4.428,16.537,16.537,0,0,1,5.933-2.457,17.664,17.664,0,0,1,5.989-.109,17.156,17.156,0,0,1,6.229,2.2l4.059-7.765a26.094,26.094,0,0,0-9.063-3.421,25.6,25.6,0,0,0-4.263-.362,24.7,24.7,0,0,0-4.918.5M122.582,1.235V9.443l8.28-.436,5.978-7.772Zm15.243.6v51.41h10.163V10.2h16.14V1.235ZM195.511.638H172.5l5.978,7.77,19.431.572a9.044,9.044,0,0,1,3.716.874c2.008.983,4.351,3.081,4.351,7.521,0,7.772-8.967,8.369-8.967,8.369H171.9v27.5h8.369V34.711H198.8a17.036,17.036,0,1,0,0-34.073Z" fill="none"/>
    </clipPath>
    <linearGradient id="linear-gradient" x1="-0.358" y1="1.009" x2="-0.354" y2="1.009" gradientUnits="objectBoundingBox">
      <stop offset="0" stop-color="#aa782d"/>
      <stop offset="0.16" stop-color="#e5af62"/>
      <stop offset="0.34" stop-color="#aa782d"/>
      <stop offset="0.57" stop-color="#dcbb6c"/>
      <stop offset="0.81" stop-color="#dcbb6c"/>
      <stop offset="1" stop-color="#aa782d"/>
    </linearGradient>
    <clipPath id="clip-path-2">
      <rect id="Rectangle_5" data-name="Rectangle 5" width="302.636" height="53.88" transform="translate(0 0)" fill="none"/>
    </clipPath>
    <clipPath id="clip-path-3">
      <path id="Path_5" data-name="Path 5" d="M30.6.392Q27.507,5.755,24.42,11.12q-3.144,5.45-6.3,10.895-4.62,8-9.24,16.008C7.142,41.044,5.4,44.064,3.675,47.1,2.443,49.263,1.142,51.394,0,53.741c1.057,0,2.025-.052,2.984.01,1.856.119,3.736.376,4.355-2.085.058-.231.3-.41.43-.632q4.005-6.953,8-13.91,3.548-6.173,7.1-12.346c2.384-4.132,4.786-8.253,7.169-12.384.933-1.619.93-1.636,1.847-.058q4.333,7.456,8.649,14.924c1.421,2.459,2.742,4.979,4.252,7.382,1.542,2.453,2.861,5.032,4.468,7.458.911,1.375,1.641,2.967,2.437,4.469.953,1.8,1.029,1.786-.485,1.77-.163,0-.344,0-.544,0q-13.575.035-27.149-.022a1.316,1.316,0,0,0-1.356.807c-.7,1.306-1.488,2.562-2.231,3.846-.126.217-.324.5-.266.691.088.285.452.145.69.145q20.045-.013,40.09-.044h1.567c-1.09-2.083-2.184-3.9-3.26-5.722-2.13-3.61-4.192-7.261-6.288-10.892s-4.2-7.249-6.293-10.878q-3.167-5.493-6.314-11Q35.588,7.848,31.326.424c-.095-.166-.145-.4-.353-.422a.177.177,0,0,0-.032,0c-.21,0-.253.241-.341.392" fill="none"/>
    </clipPath>
    <linearGradient id="linear-gradient-2" x1="0" y1="0.995" x2="0.016" y2="0.995" xlink:href="#linear-gradient"/>
    <clipPath id="clip-path-4">
      <path id="Path_6" data-name="Path 6" d="M24.511,39q2.438-4.174,4.883-8.346c.39-.67.748-1.357,1.137-2.027.307-.526.637-.474.925.019q1.88,3.225,3.747,6.457c.852,1.47,1.7,2.943,2.672,4.622-2.2,0-4.18,0-6.154,0-2.237,0-4.474-.018-6.71-.012H25c-.541,0-.829-.131-.489-.712m6.423-21.87c-.284.028-.336.358-.459.576-.779,1.378-1.536,2.769-2.33,4.137-2.253,3.88-4.533,7.744-6.779,11.626s-4.464,7.784-6.7,11.674Q12.4,49.087,10.1,53.021c-.29.5-.311.746.378.751,1.524.01,3.048.038,4.571.1a1.344,1.344,0,0,0,1.376-.825c1.043-1.895,2.147-3.757,3.207-5.642,1.176-2.093,1.166-2.091,3.58-2.09q10.511,0,21.018-.012c.3,0,2.485.014,3.137-.045-.079-.216-5.115-8.692-7.476-12.8-2.835-4.931-5.636-9.882-8.459-14.819-.115-.2-.187-.522-.465-.522l-.038,0" fill="none"/>
    </clipPath>
    <linearGradient id="linear-gradient-3" x1="-0.261" y1="0.999" x2="-0.234" y2="0.999" xlink:href="#linear-gradient"/>
  </defs>
  <g id="Group_6" data-name="Group 6">
    <g id="Group_5" data-name="Group 5" clip-path="url(#clip-path)">
      <rect id="Rectangle_4" data-name="Rectangle 4" width="222.719" height="52.776" transform="translate(79.841 0.638)" fill="url(#linear-gradient)"/>
    </g>
  </g>
  <g id="Group_8" data-name="Group 8">
    <g id="Group_7" data-name="Group 7" clip-path="url(#clip-path-2)">
      <path id="Path_2" data-name="Path 2" d="M295.447,16.6l.323.135.052-.065-.88-.792.349-.065-2.456-1.475.057-.121c.357.143.711.3,1.072.43a11.874,11.874,0,0,1,3.377,2.03,14.009,14.009,0,0,1,3.762,4.7,14.494,14.494,0,0,1,1.344,4.2,12.115,12.115,0,0,1,.08,3.708,25.97,25.97,0,0,1-.671,2.57l-.134-.02a2.2,2.2,0,0,1-.015-.268c.053-.716.157-1.431.153-2.145a2.331,2.331,0,0,0-1.253-1.969c-.243-.156-.5-.284-.754-.425l-.082.063.352,1.158.342-.162c.2.32.414.625.59.948a.435.435,0,0,1-.035.344,5.03,5.03,0,0,1-1.486,1.643.244.244,0,0,1-.413-.106,1.268,1.268,0,0,1-.1-.388,6.008,6.008,0,0,0-.9-2.563.238.238,0,0,0-.17-.106c.071.387.113.782.22,1.159.161.562.366,1.112.558,1.665a1.206,1.206,0,0,0,.143.267c.321.471.46.5,1.037.22a1.26,1.26,0,0,1-.263.944,8.374,8.374,0,0,1-.974,1.205,4.311,4.311,0,0,0-1.227,1.8,5.016,5.016,0,0,1-1.2,1.824,8.982,8.982,0,0,1-1.119,1.2c-.126.1-.312.212-.473.315a4.575,4.575,0,0,1-1.888.86,1.812,1.812,0,0,1-.2,0c.057-.524.1-1.024.167-1.522a7.647,7.647,0,0,1,.182-1.133,3.481,3.481,0,0,1,.433-1c.3-.438.367-.582.088-1a1.071,1.071,0,0,1,.028-1.519,4.731,4.731,0,0,1-.608-.286,2.221,2.221,0,0,0-2.069-.163,1.73,1.73,0,0,1-2.222-1.234,2.663,2.663,0,0,1,.091-2.165,1.1,1.1,0,0,0,.1-.319,4.135,4.135,0,0,1,1.686-2.568,1.963,1.963,0,0,1,.857-.268c.625-.145,1.254-.275,1.881-.41a.59.59,0,0,1,.713.309,4.308,4.308,0,0,0,.44.641c.34.416.715.493,1.066.15a.8.8,0,0,1,1.038-.1c.2.1.4.2.615.282a.658.658,0,0,0,.9-.414c.132-.432-.074-.894-.491-.907A1.167,1.167,0,0,1,296.4,25a.479.479,0,0,0-.115-.123.773.773,0,0,0-.161-.062V25.9a.935.935,0,0,1-.626-.613c-.137-.309-.247-.632-.4-.931a.573.573,0,0,0-.725-.357c.133.154.236.279.345.4a.81.81,0,0,1,.16.853.345.345,0,0,1-.2.193c-.05.015-.149-.074-.2-.138-.272-.343-.529-.7-.806-1.038-.209-.255-.417-.183-.623.031-.391.407-.8.8-1.187,1.209a.624.624,0,0,1-.785.186c-.278-.122-.576-.2-.861-.3a.564.564,0,0,1-.218-1.011,4.3,4.3,0,0,1,.991-.552c.212-.1.455-.135.672-.226s.263-.24.08-.42a.68.68,0,0,1,.116-1.131,5.6,5.6,0,0,1,1.035-.405,6.6,6.6,0,0,1,.954-.212.8.8,0,0,0,.724-.61c.1-.324.252-.632.388-.962-.51.088-.653,0-.871-.52a3.071,3.071,0,0,0-.4-.732c-.007.148-.019.3-.02.443,0,.43.014.86,0,1.289a.393.393,0,0,1-.557.394,1.491,1.491,0,0,1-1.122-.949.77.77,0,0,1,.151-.837,1.867,1.867,0,0,1,.252-.226c.577-.434.636-.636.432-1.323a1.666,1.666,0,0,1,0-.463c.159.02.319.034.477.062a3.486,3.486,0,0,1,.389.092,8.2,8.2,0,0,1,.862.269c.164.067.314.188.157.425-.03.046.1.2.161.305a1.287,1.287,0,0,0,.216-.221.646.646,0,0,0,.039-.231c.05-.31.159-.558.632-.46-.143-.217-.242-.366-.341-.515l.041-.055" fill="#fff"/>
      <path id="Path_3" data-name="Path 3" d="M286.176,41.922a8.455,8.455,0,0,1-3.711-2.241c-1.017-1.165-2.05-2.316-3.055-3.491-.41-.479-.771-1-1.147-1.509a1.782,1.782,0,0,1-.273-1.363,1.245,1.245,0,0,0-.789-1.4,4.178,4.178,0,0,1-1.519-1.315c-.2-.3-.581-.481-.709-.866-.145-.439-.295-.877-.444-1.315a1.279,1.279,0,0,0-.2-.4l.036.639-.116.027c-.046-.166-.106-.329-.136-.5a9.811,9.811,0,0,1,.456-4.737,15.21,15.21,0,0,1,1.864-3.858c.255-.385.538-.752.8-1.131a.389.389,0,0,1,.513-.169c.844.278,1.692.551,2.552.775a10.806,10.806,0,0,0,1.506.223c.219.025.249.117.275.323.05.4.186.785.259,1.182a4.772,4.772,0,0,1,.145,1.162.87.87,0,0,1-.947.941,3.9,3.9,0,0,0-2.857,1.892c-.373.493-.73,1-1.074,1.513a1.829,1.829,0,0,0-.228.557c-.083.316-.129.641-.2.96-.018.08-.081.216-.117.214a.389.389,0,0,1-.251-.125,2.02,2.02,0,0,1-.269-.427.346.346,0,0,0-.532-.17,1.4,1.4,0,0,0-.5,1.836.259.259,0,0,0,.185.111c.572-.012.731.389.864.832a6.283,6.283,0,0,0,.344.986c.072.146.286.217.424.336.221.192.3-.036.44-.127a1.756,1.756,0,0,1,1.772-.057,10.633,10.633,0,0,1,3.377,2.33,4.292,4.292,0,0,0,1.258.611c.338.154.682.3,1.017.457a.43.43,0,0,1,.272.541c-.107.507-.159,1.024-.24,1.536a1.02,1.02,0,0,1-.645.88.741.741,0,0,0-.5.853,8.383,8.383,0,0,1,.005,1.186,1.383,1.383,0,0,0,.657,1.294c.408.28.841.523,1.263.784.074.045.146.094.219.141l-.05.076" fill="#fff"/>
      <path id="Path_4" data-name="Path 4" d="M285.471,18.813q-.312.391-.625.782c-.128.159-.277.211-.417.028s-.258-.435-.03-.56a5.644,5.644,0,0,1,1.028-.345Z" fill="#fff"/>
    </g>
  </g>
  <g id="Group_10" data-name="Group 10">
    <g id="Group_9" data-name="Group 9" clip-path="url(#clip-path-3)">
      <rect id="Rectangle_6" data-name="Rectangle 6" width="62.006" height="54.127" transform="translate(0 0)" fill="url(#linear-gradient-2)"/>
    </g>
  </g>
  <g id="Group_12" data-name="Group 12">
    <g id="Group_11" data-name="Group 11" clip-path="url(#clip-path-4)">
      <rect id="Rectangle_7" data-name="Rectangle 7" width="37.578" height="36.784" transform="translate(9.794 17.124)" fill="url(#linear-gradient-3)"/>
    </g>
  </g>
</svg>
